<svg width="200" height="200" viewBox="0 0 200 200" fill="none" xmlns="http://www.w3.org/2000/svg">
<path d="M159 93.875V80.625H145.667V67.375C145.656 63.8641 144.248 60.5 141.75 58.0174C139.252 55.5348 135.866 54.1355 132.333 54.125H119V40.875H105.667V54.125H92.3333V40.875H79V54.125H65.6667C62.1337 54.1355 58.7484 55.5348 56.2502 58.0174C53.752 60.5 52.3439 63.8641 52.3333 67.375V80.625H39V93.875H52.3333V107.125H39V120.375H52.3333V133.625C52.3439 137.136 53.752 140.5 56.2502 142.983C58.7484 145.465 62.1337 146.865 65.6667 146.875H79V160.125H92.3333V146.875H105.667V160.125H119V146.875H132.333C135.866 146.865 139.252 145.465 141.75 142.983C144.248 140.5 145.656 137.136 145.667 133.625V120.375H159V107.125H145.667V93.875H159ZM132.333 133.625H65.6667V67.375H132.333V133.625Z" fill="#4FCACA"/>
<path d="M94.7397 74H85.773L72.373 127H79.2197L82.313 114.578H97.753L100.766 127H107.846L94.7397 74ZM83.213 109.272L89.9997 80.2937H90.3064L96.8597 109.272H83.213Z" fill="#4FCACA"/>
<path d="M113.961 74H120.628V127H113.961V74Z" fill="#4FCACA"/>
<circle cx="100" cy="100" r="98.5" stroke="#4FCACA" stroke-width="3" stroke-dasharray="12 12"/>
</svg>
