<svg width="43" height="43" viewBox="0 0 43 43" fill="none" xmlns="http://www.w3.org/2000/svg">
<path d="M37.625 19.7083V16.125H34.0417V12.5417C34.0388 11.5922 33.6604 10.6824 32.989 10.011C32.3176 9.33961 31.4078 8.96117 30.4583 8.95833H26.875V5.375H23.2917V8.95833H19.7083V5.375H16.125V8.95833H12.5417C11.5922 8.96117 10.6824 9.33961 10.011 10.011C9.33961 10.6824 8.96117 11.5922 8.95833 12.5417V16.125H5.375V19.7083H8.95833V23.2917H5.375V26.875H8.95833V30.4583C8.96117 31.4078 9.33961 32.3176 10.011 32.989C10.6824 33.6604 11.5922 34.0388 12.5417 34.0417H16.125V37.625H19.7083V34.0417H23.2917V37.625H26.875V34.0417H30.4583C31.4078 34.0388 32.3176 33.6604 32.989 32.989C33.6604 32.3176 34.0388 31.4078 34.0417 30.4583V26.875H37.625V23.2917H34.0417V19.7083H37.625ZM30.4583 30.4583H12.5417V12.5417H30.4583V30.4583Z" fill="#0C9093"/>
<path d="M20.3551 14.3334H17.9453L14.3441 28.6667H16.1841L17.0154 25.3073H21.1649L21.9748 28.6667H23.8775L20.3551 14.3334ZM17.2573 23.8722L19.0812 16.0355H19.1636L20.9248 23.8722H17.2573ZM25.5205 14.3334H27.3121V28.6667H25.5205V14.3334Z" fill="#0C9093"/>
</svg>
