<svg width="200" height="200" viewBox="0 0 200 200" fill="none" xmlns="http://www.w3.org/2000/svg">
<circle cx="100" cy="100" r="98.5" stroke="#4FCACA" stroke-width="3" stroke-dasharray="12 12"/>
<path fill-rule="evenodd" clip-rule="evenodd" d="M127.92 57.5999C127.92 57.8919 127.914 58.1839 127.896 58.4698C131.343 59.7227 134.329 62.0533 136.441 65.1395C138.554 68.2257 139.688 71.9151 139.688 75.6978V81.7811H145.562V106.114H139.688V124.364C139.688 132.321 134.77 139.086 127.908 141.58C128.044 144.06 127.69 146.542 126.867 148.875C126.044 151.208 124.77 153.342 123.123 155.148C121.476 156.953 119.49 158.391 117.287 159.374C115.084 160.357 112.711 160.864 110.312 160.864H86.8125C84.4139 160.864 82.0406 160.357 79.8379 159.374C77.6352 158.391 75.6494 156.953 74.0022 155.148C72.355 153.342 71.0809 151.208 70.2581 148.875C69.4353 146.542 69.081 144.06 69.2169 141.58C65.7741 140.326 62.792 137.996 60.6821 134.913C58.5723 131.829 57.4386 128.144 57.4375 124.364V75.6978C57.4375 67.7469 62.349 60.9761 69.2051 58.482C69.0604 55.9897 69.4111 53.4932 70.2356 51.1469C71.06 48.8006 72.3406 46.6544 73.9982 44.8412C75.6557 43.0279 77.655 41.5861 79.8723 40.6049C82.0895 39.6238 84.4776 39.1241 86.8889 39.137L110.389 39.2586C115.062 39.2844 119.535 41.231 122.822 44.6705C126.11 48.11 127.943 52.7607 127.92 57.5999V57.5999ZM80.9199 57.4478H116.17C116.154 55.8502 115.533 54.323 114.439 53.1962C113.345 52.0693 111.867 51.4332 110.324 51.4253L86.8242 51.3036C85.2671 51.2972 83.7712 51.931 82.6652 53.066C81.5592 54.201 80.9335 55.7442 80.9258 57.3565V57.4478H80.9199ZM123.267 69.7422L98.4744 69.6145H75.0625C73.5044 69.6145 72.01 70.2554 70.9082 71.3962C69.8065 72.5371 69.1875 74.0844 69.1875 75.6978V124.364C69.1875 125.977 69.8057 127.523 70.9062 128.664C72.0067 129.805 73.4995 130.446 75.0566 130.448H122.062C123.62 130.446 125.112 129.805 126.213 128.664C127.313 127.523 127.932 125.977 127.932 124.364V75.6978C127.932 74.3007 127.468 72.9461 126.617 71.8615C125.767 70.777 124.582 70.0286 123.261 69.7422H123.267ZM80.9375 142.614C80.9375 144.228 81.5565 145.775 82.6582 146.916C83.76 148.057 85.2544 148.698 86.8125 148.698H110.312C111.871 148.698 113.365 148.057 114.467 146.916C115.569 145.775 116.188 144.228 116.188 142.614H80.9375Z" fill="#4FCACA"/>
<rect x="95" y="91" width="8" height="21" fill="#4FCACA"/>
<rect x="110" y="97" width="9" height="22" transform="rotate(90 110 97)" fill="#4FCACA"/>
</svg>
