<svg width="154" height="83" viewBox="0 0 154 83" fill="none" xmlns="http://www.w3.org/2000/svg">
<path d="M5.98839 9.9096C11.0089 7.69631 16.2886 6.15525 21.6927 5.32581C25.136 4.72749 28.9807 4.21924 33.0892 3.80637C37.4852 3.33986 41.9052 3.18209 46.3172 3.33422C48.6922 3.42485 51.0573 3.67338 53.3972 4.07817C55.8316 4.46899 58.2243 5.08081 60.5463 5.90624C62.9354 6.72424 65.2177 7.82639 67.3455 9.18965C69.5146 10.5356 71.4899 12.1752 73.2172 14.0635L73.4946 14.3838C73.3634 14.4465 73.2127 14.4883 73.0696 14.5466C67.6743 16.7776 63.1253 20.7131 60.107 25.7612C58.6032 28.3379 57.6312 31.1923 57.2502 34.1506C56.8489 37.2492 57.239 40.3926 58.3831 43.281C58.9404 44.8228 59.7381 46.2627 60.7459 47.5465C61.8649 48.9937 63.2978 50.1609 64.9357 50.9595C66.5455 51.6941 68.2938 52.0754 70.066 52.0785C71.8383 52.0817 73.5947 51.7065 75.2204 50.9775C78.1648 49.6555 80.5674 47.3362 82.0104 44.4227C83.347 41.7623 84.1544 38.8664 84.3863 35.9006C84.6394 32.9861 84.4464 30.0537 83.8142 27.2069C83.0172 23.6558 81.6264 20.2737 79.7014 17.2055C80.5056 17.0591 81.318 16.9668 82.1334 16.9293C86.9424 16.6728 91.7379 17.4997 96.173 19.3503C100.32 21.0474 104.184 23.3718 107.633 26.2444C110.657 28.7371 113.366 31.5965 115.7 34.7592C117.621 37.4937 119.293 40.4001 120.696 43.443C122.939 48.1801 124.659 53.1563 125.826 58.2824C126.636 61.7144 127.186 65.2058 127.473 68.7268C127.685 71.5544 127.741 73.6106 127.747 75.2082C127.775 76.5938 127.756 77.5085 127.771 78.2157L127.175 77.3534C125.474 74.8952 123.894 72.7011 122.518 70.8829C119.76 67.2588 117.841 65.0657 117.392 65.371C116.943 65.6762 118.064 68.1999 120.242 72.1511C121.327 74.1389 122.673 76.4548 124.217 79.0078L124.803 79.976C125.05 80.3955 125.333 80.7923 125.649 81.1621C125.855 81.3961 126.081 81.6113 126.325 81.8053C126.634 82.0528 126.976 82.2552 127.341 82.4067C128.093 82.7187 128.926 82.779 129.719 82.5788C130.714 82.2603 131.641 81.7556 132.454 81.0914L134.458 79.7113C145.435 71.8505 153.842 64.835 153.183 64.0328C152.524 63.2305 143.085 68.9376 132.096 76.7941L130.659 77.8427C130.829 77.102 130.951 76.3511 131.024 75.5951C131.287 73.3452 131.381 71.08 131.304 68.8189C131.217 65.0954 130.79 61.3912 130.03 57.7531C128.939 52.2979 127.214 46.9975 124.892 41.9616C123.378 38.6412 121.559 35.4738 119.459 32.5006C116.9 28.9906 113.914 25.8224 110.57 23.0698C106.728 19.8668 102.417 17.2831 97.7878 15.4087C92.65 13.2856 87.0961 12.3588 81.5349 12.6964C79.9321 12.787 78.3411 13.0413 76.786 13.4555C76.4151 13.0188 76.0442 12.5821 75.6481 12.1775C73.6818 10.0896 71.4442 8.2813 68.9954 6.80127C66.6267 5.35664 64.0972 4.19748 61.4579 3.34722C58.9474 2.51205 56.3649 1.9099 53.7424 1.54821C51.2914 1.17379 48.8171 0.963939 46.3358 0.920028C41.8154 0.855959 37.2935 1.12911 32.8067 1.73727C28.6274 2.27123 24.7831 2.90342 21.2739 3.63383C15.8008 4.67643 10.5026 6.52928 5.55075 9.1324C4.2471 9.84122 2.99833 10.6498 1.81544 11.5509C1.02912 12.1882 0.656134 12.5073 0.689705 12.6019C0.723274 12.6966 2.54336 11.5252 6.01238 9.91827L5.98839 9.9096ZM75.0272 18.5831C75.4281 18.4116 75.8443 18.2732 76.2604 18.1348C78.1552 21.0829 79.4925 24.3642 80.205 27.814C80.7193 30.3345 80.8487 32.9233 80.5889 35.4906C80.357 38.0121 79.6354 40.4671 78.4653 42.7146C77.3648 44.8564 75.5634 46.5498 73.3715 47.5031C72.3005 47.9841 71.1433 48.2325 69.9753 48.2321C68.8073 48.2318 67.6548 47.9826 66.5929 47.5008C64.5504 46.3162 63.0241 44.4013 62.3113 42.129C61.433 39.8267 61.1546 37.3299 61.5029 34.8766C61.8669 32.444 62.7121 30.1063 63.9878 28.0033C65.2564 25.884 66.8585 23.9865 68.7303 22.3863C70.5971 20.7693 72.718 19.4805 75.0032 18.5744" fill="#12A3A9"/>
</svg>
