<svg width="46" height="46" viewBox="0 0 46 46" fill="none" xmlns="http://www.w3.org/2000/svg">
<rect width="46" height="46" rx="23" transform="matrix(1 -8.74228e-08 -8.74228e-08 -1 0 46)" fill="#0C9093"/>
<path fill-rule="evenodd" clip-rule="evenodd" d="M15 23C15 23.5523 15.4477 24 16 24L30 24C30.5523 24 31 23.5523 31 23C31 22.4477 30.5523 22 30 22L16 22C15.4477 22 15 22.4477 15 23Z" fill="white"/>
<path fill-rule="evenodd" clip-rule="evenodd" d="M22.2929 30.7071C22.6834 31.0976 23.3166 31.0976 23.7071 30.7071L30.7071 23.7071C31.0976 23.3166 31.0976 22.6834 30.7071 22.2929L23.7071 15.2929C23.3166 14.9024 22.6834 14.9024 22.2929 15.2929C21.9024 15.6834 21.9024 16.3166 22.2929 16.7071L28.5858 23L22.2929 29.2929C21.9024 29.6834 21.9024 30.3166 22.2929 30.7071Z" fill="white"/>
</svg>
