<svg width="37" height="35" viewBox="0 0 37 35" fill="none" xmlns="http://www.w3.org/2000/svg">
<path d="M9.10434 7.4964C9.82265 7.4964 10.405 6.93702 10.405 6.24698C10.405 5.55694 9.82265 4.99756 9.10434 4.99756C8.38602 4.99756 7.80371 5.55694 7.80371 6.24698C7.80371 6.93702 8.38602 7.4964 9.10434 7.4964Z" fill="#0C9093"/>
<path d="M9.10434 7.4964C9.82265 7.4964 10.405 6.93702 10.405 6.24698C10.405 5.55694 9.82265 4.99756 9.10434 4.99756C8.38602 4.99756 7.80371 5.55694 7.80371 6.24698C7.80371 6.93702 8.38602 7.4964 9.10434 7.4964Z" fill="#0C9093"/>
<path d="M32.5157 25.1633V19.9907C32.5157 19.328 32.2416 18.6924 31.7538 18.2238C31.2659 17.7552 30.6043 17.4919 29.9144 17.4919H19.5094V12.4942H31.215C31.9049 12.4942 32.5666 12.2309 33.0544 11.7623C33.5422 11.2937 33.8163 10.6581 33.8163 9.99537V2.49884C33.8163 1.83611 33.5422 1.20052 33.0544 0.731894C32.5666 0.26327 31.9049 0 31.215 0H5.20252C4.51262 0 3.85098 0.26327 3.36315 0.731894C2.87532 1.20052 2.60126 1.83611 2.60126 2.49884V9.99537C2.60126 10.6581 2.87532 11.2937 3.36315 11.7623C3.85098 12.2309 4.51262 12.4942 5.20252 12.4942H16.9082V17.4919H6.50314C5.81325 17.4919 5.15161 17.7552 4.66378 18.2238C4.17595 18.6924 3.90189 19.328 3.90189 19.9907V25.1633C2.67584 25.4674 1.60734 26.1906 0.896662 27.1974C0.185984 28.2042 -0.118075 29.4253 0.0414782 30.632C0.201032 31.8388 0.813244 32.9481 1.76336 33.7523C2.71347 34.5564 3.93626 35 5.20252 35C6.46877 35 7.69156 34.5564 8.64168 33.7523C9.59179 32.9481 10.204 31.8388 10.3636 30.632C10.5231 29.4253 10.2191 28.2042 9.50837 27.1974C8.7977 26.1906 7.72919 25.4674 6.50314 25.1633V19.9907H16.9082V24.9884H13.0063V34.9838H23.4113V24.9884H19.5094V19.9907H29.9144V25.1633C28.6884 25.4674 27.6199 26.1906 26.9092 27.1974C26.1985 28.2042 25.8944 29.4253 26.054 30.632C26.2136 31.8388 26.8258 32.9481 27.7759 33.7523C28.726 34.5564 29.9488 35 31.215 35C32.4813 35 33.7041 34.5564 34.6542 33.7523C35.6043 32.9481 36.2165 31.8388 36.3761 30.632C36.5356 29.4253 36.2316 28.2042 35.5209 27.1974C34.8102 26.1906 33.7417 25.4674 32.5157 25.1633ZM7.80377 29.9861C7.80377 30.4803 7.65121 30.9634 7.36538 31.3744C7.07955 31.7853 6.67329 32.1056 6.19797 32.2947C5.72266 32.4839 5.19963 32.5333 4.69504 32.4369C4.19044 32.3405 3.72695 32.1025 3.36315 31.753C2.99936 31.4036 2.75162 30.9583 2.65125 30.4736C2.55088 29.9889 2.60239 29.4864 2.79927 29.0298C2.99616 28.5732 3.32957 28.183 3.75734 27.9084C4.18511 27.6338 4.68804 27.4873 5.20252 27.4873C5.89241 27.4873 6.55405 27.7505 7.04188 28.2191C7.52971 28.6878 7.80377 29.3234 7.80377 29.9861ZM20.81 27.4873V32.4849H15.6075V27.4873H20.81ZM5.20252 9.99537V2.49884H31.215V9.99537H5.20252ZM31.215 32.4849C30.7006 32.4849 30.1976 32.3384 29.7699 32.0638C29.3421 31.7892 29.0087 31.399 28.8118 30.9424C28.6149 30.4858 28.5634 29.9833 28.6638 29.4986C28.7641 29.0139 29.0119 28.5686 29.3757 28.2191C29.7395 27.8697 30.203 27.6317 30.7076 27.5353C31.2122 27.4389 31.7352 27.4883 32.2105 27.6775C32.6858 27.8666 33.0921 28.1869 33.3779 28.5978C33.6637 29.0087 33.8163 29.4919 33.8163 29.9861C33.8163 30.6488 33.5422 31.2844 33.0544 31.753C32.5666 32.2217 31.9049 32.4849 31.215 32.4849Z" fill="#0C9093"/>
<path d="M32.5157 25.1633V19.9907C32.5157 19.328 32.2416 18.6924 31.7538 18.2238C31.2659 17.7552 30.6043 17.4919 29.9144 17.4919H19.5094V12.4942H31.215C31.9049 12.4942 32.5666 12.2309 33.0544 11.7623C33.5422 11.2937 33.8163 10.6581 33.8163 9.99537V2.49884C33.8163 1.83611 33.5422 1.20052 33.0544 0.731894C32.5666 0.26327 31.9049 0 31.215 0H5.20252C4.51262 0 3.85098 0.26327 3.36315 0.731894C2.87532 1.20052 2.60126 1.83611 2.60126 2.49884V9.99537C2.60126 10.6581 2.87532 11.2937 3.36315 11.7623C3.85098 12.2309 4.51262 12.4942 5.20252 12.4942H16.9082V17.4919H6.50314C5.81325 17.4919 5.15161 17.7552 4.66378 18.2238C4.17595 18.6924 3.90189 19.328 3.90189 19.9907V25.1633C2.67584 25.4674 1.60734 26.1906 0.896662 27.1974C0.185984 28.2042 -0.118075 29.4253 0.0414782 30.632C0.201032 31.8388 0.813244 32.9481 1.76336 33.7523C2.71347 34.5564 3.93626 35 5.20252 35C6.46877 35 7.69156 34.5564 8.64168 33.7523C9.59179 32.9481 10.204 31.8388 10.3636 30.632C10.5231 29.4253 10.2191 28.2042 9.50837 27.1974C8.7977 26.1906 7.72919 25.4674 6.50314 25.1633V19.9907H16.9082V24.9884H13.0063V34.9838H23.4113V24.9884H19.5094V19.9907H29.9144V25.1633C28.6884 25.4674 27.6199 26.1906 26.9092 27.1974C26.1985 28.2042 25.8944 29.4253 26.054 30.632C26.2136 31.8388 26.8258 32.9481 27.7759 33.7523C28.726 34.5564 29.9488 35 31.215 35C32.4813 35 33.7041 34.5564 34.6542 33.7523C35.6043 32.9481 36.2165 31.8388 36.3761 30.632C36.5356 29.4253 36.2316 28.2042 35.5209 27.1974C34.8102 26.1906 33.7417 25.4674 32.5157 25.1633ZM7.80377 29.9861C7.80377 30.4803 7.65121 30.9634 7.36538 31.3744C7.07955 31.7853 6.67329 32.1056 6.19797 32.2947C5.72266 32.4839 5.19963 32.5333 4.69504 32.4369C4.19044 32.3405 3.72695 32.1025 3.36315 31.753C2.99936 31.4036 2.75162 30.9583 2.65125 30.4736C2.55088 29.9889 2.60239 29.4864 2.79927 29.0298C2.99616 28.5732 3.32957 28.183 3.75734 27.9084C4.18511 27.6338 4.68804 27.4873 5.20252 27.4873C5.89241 27.4873 6.55405 27.7505 7.04188 28.2191C7.52971 28.6878 7.80377 29.3234 7.80377 29.9861ZM20.81 27.4873V32.4849H15.6075V27.4873H20.81ZM5.20252 9.99537V2.49884H31.215V9.99537H5.20252ZM31.215 32.4849C30.7006 32.4849 30.1976 32.3384 29.7699 32.0638C29.3421 31.7892 29.0087 31.399 28.8118 30.9424C28.6149 30.4858 28.5634 29.9833 28.6638 29.4986C28.7641 29.0139 29.0119 28.5686 29.3757 28.2191C29.7395 27.8697 30.203 27.6317 30.7076 27.5353C31.2122 27.4389 31.7352 27.4883 32.2105 27.6775C32.6858 27.8666 33.0921 28.1869 33.3779 28.5978C33.6637 29.0087 33.8163 29.4919 33.8163 29.9861C33.8163 30.6488 33.5422 31.2844 33.0544 31.753C32.5666 32.2217 31.9049 32.4849 31.215 32.4849Z" fill="#0C9093"/>
</svg>
