<svg width="200" height="200" viewBox="0 0 200 200" fill="none" xmlns="http://www.w3.org/2000/svg">
<path d="M72.7188 69.5C74.9106 69.5 76.6875 67.7931 76.6875 65.6875C76.6875 63.5819 74.9106 61.875 72.7188 61.875C70.5269 61.875 68.75 63.5819 68.75 65.6875C68.75 67.7931 70.5269 69.5 72.7188 69.5Z" fill="#4FCACA"/>
<path d="M144.156 123.409V107.625C144.156 105.603 143.32 103.663 141.831 102.233C140.343 100.803 138.324 100 136.219 100H104.469V84.75H140.188C142.293 84.75 144.312 83.9467 145.8 82.5167C147.289 81.0867 148.125 79.1473 148.125 77.125V54.25C148.125 52.2277 147.289 50.2883 145.8 48.8583C144.312 47.4283 142.293 46.625 140.188 46.625H60.8125C58.7074 46.625 56.6884 47.4283 55.1999 48.8583C53.7113 50.2883 52.875 52.2277 52.875 54.25V77.125C52.875 79.1473 53.7113 81.0867 55.1999 82.5167C56.6884 83.9467 58.7074 84.75 60.8125 84.75H96.5313V100H64.7813C62.6761 100 60.6572 100.803 59.1686 102.233C57.6801 103.663 56.8438 105.603 56.8438 107.625V123.409C53.1026 124.337 49.8422 126.543 47.6736 129.616C45.505 132.688 44.5772 136.414 45.0641 140.096C45.5509 143.778 47.419 147.163 50.3182 149.617C53.2174 152.071 56.9487 153.424 60.8125 153.424C64.6764 153.424 68.4076 152.071 71.3068 149.617C74.206 147.163 76.0741 143.778 76.561 140.096C77.0479 136.414 76.1201 132.688 73.9515 129.616C71.7829 126.543 68.5225 124.337 64.7813 123.409V107.625H96.5313V122.875H84.625V153.375H116.375V122.875H104.469V107.625H136.219V123.409C132.478 124.337 129.217 126.543 127.049 129.616C124.88 132.688 123.952 136.414 124.439 140.096C124.926 143.778 126.794 147.163 129.693 149.617C132.592 152.071 136.324 153.424 140.188 153.424C144.051 153.424 147.783 152.071 150.682 149.617C153.581 147.163 155.449 143.778 155.936 140.096C156.423 136.414 155.495 132.688 153.326 129.616C151.158 126.543 147.897 124.337 144.156 123.409ZM68.75 138.125C68.75 139.633 68.2845 141.107 67.4123 142.361C66.5401 143.615 65.3005 144.592 63.8501 145.17C62.3997 145.747 60.8037 145.898 59.264 145.603C57.7243 145.309 56.31 144.583 55.1999 143.517C54.0898 142.45 53.3338 141.092 53.0276 139.613C52.7213 138.133 52.8785 136.6 53.4792 135.207C54.08 133.814 55.0974 132.623 56.4027 131.785C57.708 130.947 59.2426 130.5 60.8125 130.5C62.9177 130.5 64.9366 131.303 66.4252 132.733C67.9138 134.163 68.75 136.103 68.75 138.125ZM108.438 130.5V145.75H92.5625V130.5H108.438ZM60.8125 77.125V54.25H140.188V77.125H60.8125ZM140.188 145.75C138.618 145.75 137.083 145.303 135.778 144.465C134.472 143.627 133.455 142.436 132.854 141.043C132.253 139.65 132.096 138.117 132.403 136.637C132.709 135.158 133.465 133.8 134.575 132.733C135.685 131.667 137.099 130.941 138.639 130.647C140.179 130.352 141.775 130.503 143.225 131.08C144.675 131.658 145.915 132.635 146.787 133.889C147.66 135.143 148.125 136.617 148.125 138.125C148.125 140.147 147.289 142.087 145.8 143.517C144.312 144.947 142.293 145.75 140.188 145.75Z" fill="#4FCACA"/>
<circle cx="100" cy="100" r="98.5" stroke="#4FCACA" stroke-width="3" stroke-dasharray="12 12"/>
</svg>
