<svg width="127" height="241" viewBox="0 0 127 241" fill="none" xmlns="http://www.w3.org/2000/svg">
<ellipse cx="2.0816" cy="1.7972" rx="2.0816" ry="1.7972" fill="black"/>
<ellipse cx="32.6109" cy="1.7972" rx="2.0816" ry="1.7972" fill="black"/>
<ellipse cx="63.1422" cy="1.7972" rx="2.0816" ry="1.7972" fill="black"/>
<ellipse cx="93.6714" cy="1.7972" rx="2.0816" ry="1.7972" fill="black"/>
<ellipse cx="124.203" cy="1.7972" rx="2.0816" ry="1.7972" fill="black"/>
<ellipse cx="2.0816" cy="28.1566" rx="2.0816" ry="1.7972" fill="black"/>
<ellipse cx="32.6109" cy="28.1566" rx="2.0816" ry="1.7972" fill="black"/>
<ellipse cx="63.1422" cy="28.1566" rx="2.0816" ry="1.7972" fill="black"/>
<ellipse cx="93.6714" cy="28.1566" rx="2.0816" ry="1.7972" fill="black"/>
<ellipse cx="124.203" cy="28.1566" rx="2.0816" ry="1.7972" fill="black"/>
<ellipse cx="2.0816" cy="54.515" rx="2.0816" ry="1.7972" fill="black"/>
<ellipse cx="32.6109" cy="54.515" rx="2.0816" ry="1.7972" fill="black"/>
<ellipse cx="63.1422" cy="54.515" rx="2.0816" ry="1.7972" fill="black"/>
<ellipse cx="93.6714" cy="54.515" rx="2.0816" ry="1.7972" fill="black"/>
<ellipse cx="124.203" cy="54.515" rx="2.0816" ry="1.7972" fill="black"/>
<ellipse cx="2.0816" cy="80.8744" rx="2.0816" ry="1.7972" fill="black"/>
<ellipse cx="32.6109" cy="80.8744" rx="2.0816" ry="1.7972" fill="black"/>
<ellipse cx="63.1422" cy="80.8744" rx="2.0816" ry="1.7972" fill="black"/>
<ellipse cx="63.1422" cy="80.8744" rx="2.0816" ry="1.7972" fill="black"/>
<ellipse cx="93.6714" cy="80.8744" rx="2.0816" ry="1.7972" fill="black"/>
<ellipse cx="124.203" cy="80.8744" rx="2.0816" ry="1.7972" fill="black"/>
<ellipse cx="2.0816" cy="107.233" rx="2.0816" ry="1.7972" fill="black"/>
<ellipse cx="32.6109" cy="107.233" rx="2.0816" ry="1.7972" fill="black"/>
<ellipse cx="63.1422" cy="107.233" rx="2.0816" ry="1.7972" fill="black"/>
<ellipse cx="93.6714" cy="107.233" rx="2.0816" ry="1.7972" fill="black"/>
<ellipse cx="124.203" cy="107.233" rx="2.0816" ry="1.7972" fill="black"/>
<ellipse cx="2.0816" cy="133.592" rx="2.0816" ry="1.7972" fill="black"/>
<ellipse cx="32.6109" cy="133.592" rx="2.0816" ry="1.7972" fill="black"/>
<ellipse cx="63.1422" cy="133.592" rx="2.0816" ry="1.7972" fill="black"/>
<ellipse cx="93.6714" cy="133.592" rx="2.0816" ry="1.7972" fill="black"/>
<ellipse cx="124.203" cy="133.592" rx="2.0816" ry="1.7972" fill="black"/>
<ellipse cx="2.0816" cy="159.951" rx="2.0816" ry="1.7972" fill="black"/>
<ellipse cx="32.6109" cy="159.951" rx="2.0816" ry="1.7972" fill="black"/>
<ellipse cx="63.1422" cy="159.951" rx="2.0816" ry="1.7972" fill="black"/>
<ellipse cx="93.6714" cy="159.951" rx="2.0816" ry="1.7972" fill="black"/>
<ellipse cx="124.203" cy="159.951" rx="2.0816" ry="1.7972" fill="black"/>
<ellipse cx="2.0816" cy="186.31" rx="2.0816" ry="1.7972" fill="black"/>
<ellipse cx="32.6109" cy="186.31" rx="2.0816" ry="1.7972" fill="black"/>
<ellipse cx="63.1422" cy="186.31" rx="2.0816" ry="1.7972" fill="black"/>
<ellipse cx="93.6714" cy="186.31" rx="2.0816" ry="1.7972" fill="black"/>
<ellipse cx="124.203" cy="186.31" rx="2.0816" ry="1.7972" fill="black"/>
<ellipse cx="2.0816" cy="212.669" rx="2.0816" ry="1.7972" fill="black"/>
<ellipse cx="32.6109" cy="212.669" rx="2.0816" ry="1.7972" fill="black"/>
<ellipse cx="63.1422" cy="212.669" rx="2.0816" ry="1.7972" fill="black"/>
<ellipse cx="93.6714" cy="212.669" rx="2.0816" ry="1.7972" fill="black"/>
<ellipse cx="124.203" cy="212.669" rx="2.0816" ry="1.7972" fill="black"/>
<ellipse cx="2.0816" cy="239.028" rx="2.0816" ry="1.7972" fill="black"/>
<ellipse cx="32.6109" cy="239.028" rx="2.0816" ry="1.7972" fill="black"/>
<ellipse cx="63.1422" cy="239.028" rx="2.0816" ry="1.7972" fill="black"/>
<ellipse cx="93.6714" cy="239.028" rx="2.0816" ry="1.7972" fill="black"/>
<ellipse cx="124.203" cy="239.028" rx="2.0816" ry="1.7972" fill="black"/>
</svg>
