<svg width="425" height="401" viewBox="0 0 425 401" fill="none" xmlns="http://www.w3.org/2000/svg">
<g clip-path="url(#clip0_510_195)">
<path d="M333.599 318.553C333.599 318.553 333.025 318.553 333.025 317.969C333.025 317.384 333.599 315.631 336.466 315.631C339.334 315.631 339.907 317.384 339.907 317.969C339.907 318.553 339.334 318.553 339.334 318.553H333.599ZM336.466 315.047C336.923 315.047 337.36 314.862 337.683 314.533C338.005 314.205 338.187 313.759 338.187 313.294C338.187 312.829 338.005 312.383 337.683 312.054C337.36 311.726 336.923 311.541 336.466 311.541C336.01 311.541 335.572 311.726 335.25 312.054C334.927 312.383 334.746 312.829 334.746 313.294C334.746 313.759 334.927 314.205 335.25 314.533C335.572 314.862 336.01 315.047 336.466 315.047Z" fill="white"/>
<path d="M390.93 339.608C391.486 339.601 392.015 339.422 392.403 339.11C392.791 338.797 393.005 338.377 392.998 337.941L392.742 321.508C392.686 317.87 390.924 314.378 387.792 311.701C384.661 309.024 380.38 307.348 375.768 306.996L375.715 303.621C375.648 299.263 373.377 295.108 369.404 292.07C365.431 289.033 360.08 287.361 354.529 287.424C348.978 287.486 343.681 289.277 339.804 292.403C335.927 295.529 333.787 299.733 333.855 304.091L333.909 307.542C331.374 307.978 329.134 309.137 327.622 310.794C326.111 312.451 325.436 314.489 325.728 316.512C326.02 318.535 327.259 320.399 329.204 321.743C331.149 323.086 333.662 323.814 336.255 323.785C338.849 323.756 341.338 322.972 343.241 321.585C345.143 320.198 346.323 318.306 346.552 316.278C346.781 314.249 346.043 312.227 344.48 310.605C342.918 308.982 340.642 307.874 338.095 307.495L338.041 304.044C337.987 300.558 339.699 297.194 342.8 294.694C345.902 292.193 350.139 290.76 354.58 290.71C359.021 290.66 363.302 291.997 366.48 294.427C369.659 296.857 371.475 300.181 371.529 303.668L371.582 307.043C366.983 307.499 362.756 309.27 359.709 312.017C356.662 314.763 355.009 318.293 355.067 321.932L355.323 338.364C355.33 338.8 355.557 339.216 355.954 339.519C356.352 339.823 356.887 339.99 357.442 339.984L365.814 339.89C366.369 339.884 366.899 339.705 367.287 339.392C367.674 339.079 367.888 338.659 367.881 338.223C367.875 337.787 367.648 337.372 367.25 337.068C366.853 336.764 366.318 336.597 365.763 336.603L359.484 336.674L359.253 321.885C359.206 318.834 360.704 315.891 363.418 313.703C366.132 311.515 369.839 310.261 373.725 310.217C377.611 310.174 381.356 311.344 384.137 313.47C386.919 315.596 388.508 318.505 388.556 321.555L388.786 336.345L382.507 336.415C381.952 336.421 381.422 336.6 381.035 336.913C380.647 337.226 380.433 337.646 380.44 338.082C380.446 338.518 380.673 338.933 381.071 339.237C381.468 339.541 382.003 339.708 382.558 339.702L390.93 339.608ZM336.204 320.5C334.539 320.519 332.934 320.018 331.742 319.106C330.55 318.195 329.869 316.949 329.848 315.641C329.828 314.334 330.47 313.072 331.633 312.135C332.796 311.197 334.385 310.66 336.05 310.641C337.716 310.622 339.321 311.124 340.513 312.035C341.705 312.946 342.386 314.193 342.406 315.5C342.427 316.807 341.785 318.069 340.622 319.006C339.458 319.944 337.869 320.482 336.204 320.5Z" fill="white"/>
<path d="M349.641 294.251H322.627C321.603 294.251 320.622 294.64 319.898 295.332C319.174 296.023 318.768 296.962 318.768 297.94V342.211C318.768 343.19 319.174 344.128 319.898 344.82C320.622 345.512 321.603 345.9 322.627 345.9H349.641C350.664 345.9 351.646 345.512 352.37 344.82C353.094 344.128 353.5 343.19 353.5 342.211V297.94C353.5 296.962 353.094 296.023 352.37 295.332C351.646 294.64 350.664 294.251 349.641 294.251ZM338.063 342.211H334.204V338.522H338.063V342.211ZM322.627 334.833V297.94H349.641V334.833H322.627Z" fill="white"/>
<path d="M327.159 377.591C327.159 378.345 326.899 378.973 326.379 379.476C325.867 379.97 325.083 380.217 324.026 380.217H322.284V384H321.101V374.939H324.026C325.048 374.939 325.824 375.186 326.353 375.68C326.89 376.174 327.159 376.811 327.159 377.591ZM324.026 379.242C324.684 379.242 325.17 379.099 325.482 378.813C325.794 378.527 325.95 378.12 325.95 377.591C325.95 376.473 325.308 375.914 324.026 375.914H322.284V379.242H324.026ZM327.927 380.412C327.927 379.684 328.074 379.047 328.369 378.501C328.664 377.946 329.067 377.517 329.578 377.214C330.098 376.911 330.674 376.759 331.307 376.759C331.931 376.759 332.473 376.893 332.932 377.162C333.391 377.431 333.734 377.769 333.959 378.176V376.876H335.155V384H333.959V382.674C333.725 383.09 333.374 383.437 332.906 383.714C332.447 383.983 331.909 384.117 331.294 384.117C330.661 384.117 330.089 383.961 329.578 383.649C329.067 383.337 328.664 382.899 328.369 382.336C328.074 381.773 327.927 381.131 327.927 380.412ZM333.959 380.425C333.959 379.888 333.851 379.42 333.634 379.021C333.417 378.622 333.123 378.319 332.75 378.111C332.386 377.894 331.983 377.786 331.541 377.786C331.099 377.786 330.696 377.89 330.332 378.098C329.968 378.306 329.678 378.609 329.461 379.008C329.244 379.407 329.136 379.875 329.136 380.412C329.136 380.958 329.244 381.435 329.461 381.842C329.678 382.241 329.968 382.548 330.332 382.765C330.696 382.973 331.099 383.077 331.541 383.077C331.983 383.077 332.386 382.973 332.75 382.765C333.123 382.548 333.417 382.241 333.634 381.842C333.851 381.435 333.959 380.962 333.959 380.425ZM338.337 377.851V382.05C338.337 382.397 338.411 382.644 338.558 382.791C338.706 382.93 338.961 382.999 339.325 382.999H340.196V384H339.13C338.472 384 337.978 383.848 337.648 383.545C337.319 383.242 337.154 382.743 337.154 382.05V377.851H336.231V376.876H337.154V375.082H338.337V376.876H340.196V377.851H338.337ZM341.981 375.719C341.755 375.719 341.565 375.641 341.409 375.485C341.253 375.329 341.175 375.138 341.175 374.913C341.175 374.688 341.253 374.497 341.409 374.341C341.565 374.185 341.755 374.107 341.981 374.107C342.197 374.107 342.379 374.185 342.527 374.341C342.683 374.497 342.761 374.688 342.761 374.913C342.761 375.138 342.683 375.329 342.527 375.485C342.379 375.641 342.197 375.719 341.981 375.719ZM342.553 376.876V384H341.37V376.876H342.553ZM350.809 380.165C350.809 380.39 350.796 380.629 350.77 380.88H345.076C345.119 381.582 345.358 382.132 345.791 382.531C346.233 382.921 346.766 383.116 347.39 383.116C347.901 383.116 348.326 382.999 348.664 382.765C349.011 382.522 349.253 382.202 349.392 381.803H350.666C350.475 382.488 350.094 383.047 349.522 383.48C348.95 383.905 348.239 384.117 347.39 384.117C346.714 384.117 346.107 383.965 345.57 383.662C345.041 383.359 344.625 382.93 344.322 382.375C344.019 381.812 343.867 381.162 343.867 380.425C343.867 379.688 344.014 379.043 344.309 378.488C344.604 377.933 345.015 377.509 345.544 377.214C346.081 376.911 346.697 376.759 347.39 376.759C348.066 376.759 348.664 376.906 349.184 377.201C349.704 377.496 350.103 377.903 350.38 378.423C350.666 378.934 350.809 379.515 350.809 380.165ZM349.587 379.918C349.587 379.467 349.487 379.082 349.288 378.761C349.089 378.432 348.816 378.185 348.469 378.02C348.131 377.847 347.754 377.76 347.338 377.76C346.74 377.76 346.229 377.951 345.804 378.332C345.388 378.713 345.15 379.242 345.089 379.918H349.587ZM355.581 376.746C356.448 376.746 357.15 377.01 357.687 377.539C358.225 378.059 358.493 378.813 358.493 379.801V384H357.323V379.97C357.323 379.259 357.146 378.718 356.79 378.345C356.435 377.964 355.95 377.773 355.334 377.773C354.71 377.773 354.212 377.968 353.839 378.358C353.475 378.748 353.293 379.316 353.293 380.061V384H352.11V376.876H353.293V377.89C353.527 377.526 353.844 377.244 354.242 377.045C354.65 376.846 355.096 376.746 355.581 376.746ZM361.609 377.851V382.05C361.609 382.397 361.682 382.644 361.83 382.791C361.977 382.93 362.233 382.999 362.597 382.999H363.468V384H362.402C361.743 384 361.249 383.848 360.92 383.545C360.59 383.242 360.426 382.743 360.426 382.05V377.851H359.503V376.876H360.426V375.082H361.609V376.876H363.468V377.851H361.609Z" fill="white"/>
<path fill-rule="evenodd" clip-rule="evenodd" d="M204.277 311.098C204.277 312.446 203.882 314.205 203.275 313.938C203.027 314.626 202.506 315.22 201.801 315.619C201.095 316.018 200.249 316.198 199.405 316.127C198.562 316.056 197.773 315.74 197.173 315.232C196.573 314.723 196.198 314.054 196.113 313.338C195.511 312.443 194.721 310.65 196.752 309.253C196.789 309.242 196.811 309.158 196.844 309.034C196.969 308.566 197.248 307.524 199.005 307.723C200.359 307.876 204.277 308.47 204.277 311.099V311.098ZM202.531 311.948C202.531 311.948 202.323 312.463 202.518 313.037C202.515 313.649 202.231 314.235 201.724 314.671C201.218 315.106 200.531 315.356 199.811 315.366C199.09 315.376 198.394 315.146 197.871 314.725C197.348 314.303 197.041 313.725 197.014 313.114C197.081 312.899 197.081 312.537 197.08 312.134C197.08 311.406 197.079 310.548 197.471 310.198C200.219 311.752 202.531 311.948 202.531 311.948Z" fill="white"/>
<path d="M194.718 319.742C194.718 319.321 194.981 318.951 195.376 318.746C195.361 318.697 195.347 318.649 195.334 318.6C195.264 318.334 195.21 318.065 195.171 317.794C195.131 317.535 195.108 317.274 195.1 317.013C193.163 317.658 191.507 318.783 191.507 319.964V322.079H208.023V319.964C208.023 318.833 206.505 317.754 204.675 317.097V317.108C204.683 317.346 204.668 317.618 204.637 317.881C204.61 318.124 204.569 318.366 204.52 318.574H204.812C204.897 318.574 204.98 318.594 205.053 318.632C205.125 318.67 205.184 318.724 205.222 318.789L205.681 319.568C205.713 319.622 205.729 319.682 205.729 319.742V320.521C205.729 320.625 205.681 320.724 205.595 320.797C205.509 320.87 205.392 320.911 205.27 320.911H204.353V320.132H204.812V319.834L204.528 319.353H203.26L202.976 319.834V320.132H203.435V320.911H202.518C202.396 320.911 202.279 320.87 202.193 320.797C202.107 320.724 202.059 320.625 202.059 320.521V319.742C202.059 319.682 202.075 319.622 202.108 319.568L202.566 318.789C202.604 318.724 202.663 318.67 202.735 318.632C202.808 318.594 202.891 318.574 202.976 318.574H203.58C203.59 318.54 203.6 318.503 203.61 318.462C203.656 318.279 203.697 318.046 203.724 317.806C203.752 317.565 203.765 317.326 203.758 317.13C203.756 317.049 203.749 316.967 203.735 316.887C203.725 316.832 203.715 316.806 203.713 316.801C203.713 316.8 203.712 316.799 203.713 316.8L203.715 316.8C203.471 316.735 203.225 316.679 202.976 316.631C202.746 316.586 202.507 316.856 202.403 317.024H197.012C196.999 317.003 196.986 316.981 196.973 316.959C196.876 316.795 196.756 316.592 196.553 316.631C196.377 316.665 196.2 316.704 196.024 316.747C196.018 316.815 196.015 316.883 196.016 316.952C196.018 317.167 196.042 317.431 196.081 317.698C196.12 317.963 196.173 318.222 196.228 318.426C196.244 318.485 196.259 318.538 196.274 318.583C196.536 318.613 196.783 318.705 196.985 318.851C197.187 318.996 197.335 319.188 197.412 319.403C197.489 319.617 197.491 319.847 197.418 320.063C197.346 320.279 197.201 320.472 197.002 320.62C196.804 320.769 196.559 320.865 196.297 320.898C196.035 320.931 195.768 320.899 195.527 320.807C195.286 320.714 195.081 320.564 194.938 320.375C194.795 320.187 194.718 319.967 194.718 319.742Z" fill="white"/>
<path d="M196.553 319.742C196.553 319.966 196.341 320.137 196.095 320.137C195.848 320.137 195.636 319.966 195.636 319.742C195.636 319.518 195.848 319.347 196.095 319.347C196.341 319.347 196.553 319.518 196.553 319.742Z" fill="white"/>
<path d="M161.175 338.73H238.815C239.613 338.731 240.38 339 240.961 339.482C241.543 339.965 241.897 340.624 241.951 341.329C242.005 342.033 241.755 342.729 241.251 343.276C240.748 343.823 240.029 344.181 239.239 344.277L238.815 344.303H161.18C160.376 344.311 159.601 344.046 159.011 343.563C158.421 343.08 158.062 342.416 158.007 341.707C157.953 340.997 158.206 340.296 158.716 339.747C159.227 339.197 159.955 338.842 160.752 338.752L161.18 338.73H238.811H161.18H161.175ZM226.225 296C230.279 296 233.57 298.913 233.57 302.502V330.37C233.57 332.094 232.796 333.748 231.418 334.968C230.041 336.187 228.173 336.872 226.225 336.872H173.766C171.818 336.872 169.95 336.187 168.572 334.968C167.195 333.748 166.421 332.094 166.421 330.37V302.502C166.421 298.913 169.707 296 173.766 296H226.225ZM226.225 301.573H173.766C173.487 301.573 173.221 301.671 173.024 301.846C172.827 302.02 172.716 302.256 172.716 302.502V330.37C172.716 330.882 173.187 331.299 173.766 331.299H226.225C226.503 331.299 226.77 331.201 226.967 331.027C227.164 330.852 227.274 330.616 227.274 330.37V302.502C227.274 302.256 227.164 302.02 226.967 301.846C226.77 301.671 226.503 301.573 226.225 301.573Z" fill="white"/>
<path d="M189.42 378.189C189.654 377.782 190.001 377.444 190.46 377.175C190.928 376.898 191.47 376.759 192.085 376.759C192.718 376.759 193.29 376.911 193.801 377.214C194.321 377.517 194.728 377.946 195.023 378.501C195.318 379.047 195.465 379.684 195.465 380.412C195.465 381.131 195.318 381.773 195.023 382.336C194.728 382.899 194.321 383.337 193.801 383.649C193.29 383.961 192.718 384.117 192.085 384.117C191.478 384.117 190.941 383.983 190.473 383.714C190.014 383.437 189.663 383.094 189.42 382.687V387.38H188.237V376.876H189.42V378.189ZM194.256 380.412C194.256 379.875 194.148 379.407 193.931 379.008C193.714 378.609 193.42 378.306 193.047 378.098C192.683 377.89 192.28 377.786 191.838 377.786C191.405 377.786 191.002 377.894 190.629 378.111C190.265 378.319 189.97 378.627 189.745 379.034C189.528 379.433 189.42 379.896 189.42 380.425C189.42 380.962 189.528 381.435 189.745 381.842C189.97 382.241 190.265 382.548 190.629 382.765C191.002 382.973 191.405 383.077 191.838 383.077C192.28 383.077 192.683 382.973 193.047 382.765C193.42 382.548 193.714 382.241 193.931 381.842C194.148 381.435 194.256 380.958 194.256 380.412ZM196.424 383.051C197.525 382.167 198.387 381.443 199.011 380.88C199.635 380.308 200.16 379.714 200.584 379.099C201.018 378.475 201.234 377.864 201.234 377.266C201.234 376.703 201.096 376.261 200.818 375.94C200.55 375.611 200.112 375.446 199.505 375.446C198.916 375.446 198.457 375.632 198.127 376.005C197.807 376.369 197.633 376.859 197.607 377.474H196.463C196.498 376.503 196.793 375.754 197.347 375.225C197.902 374.696 198.617 374.432 199.492 374.432C200.385 374.432 201.091 374.679 201.611 375.173C202.14 375.667 202.404 376.347 202.404 377.214C202.404 377.933 202.188 378.635 201.754 379.32C201.33 379.996 200.844 380.594 200.298 381.114C199.752 381.625 199.055 382.223 198.205 382.908H202.677V383.896H196.424V383.051ZM205.163 378.189C205.397 377.782 205.743 377.444 206.203 377.175C206.671 376.898 207.212 376.759 207.828 376.759C208.46 376.759 209.032 376.911 209.544 377.214C210.064 377.517 210.471 377.946 210.766 378.501C211.06 379.047 211.208 379.684 211.208 380.412C211.208 381.131 211.06 381.773 210.766 382.336C210.471 382.899 210.064 383.337 209.544 383.649C209.032 383.961 208.46 384.117 207.828 384.117C207.221 384.117 206.684 383.983 206.216 383.714C205.756 383.437 205.405 383.094 205.163 382.687V387.38H203.98V376.876H205.163V378.189ZM209.999 380.412C209.999 379.875 209.89 379.407 209.674 379.008C209.457 378.609 209.162 378.306 208.79 378.098C208.426 377.89 208.023 377.786 207.581 377.786C207.147 377.786 206.744 377.894 206.372 378.111C206.008 378.319 205.713 378.627 205.488 379.034C205.271 379.433 205.163 379.896 205.163 380.425C205.163 380.962 205.271 381.435 205.488 381.842C205.713 382.241 206.008 382.548 206.372 382.765C206.744 382.973 207.147 383.077 207.581 383.077C208.023 383.077 208.426 382.973 208.79 382.765C209.162 382.548 209.457 382.241 209.674 381.842C209.89 381.435 209.999 380.958 209.999 380.412Z" fill="white"/>
<path fill-rule="evenodd" clip-rule="evenodd" d="M52.4391 290.642C50.7419 291.393 49.5198 292.902 49.2052 294.636L48.997 295.782L47.2836 294.349C45.0239 292.459 43.3746 292.059 39.9499 292.57C38.5294 292.782 34.6642 293.045 31.361 293.155C23.7788 293.406 23.6416 293.477 23.9696 296.984C24.2052 299.504 24.8139 301.157 25.7653 301.862C26.0937 302.106 26.3625 302.562 26.3625 302.877C26.3625 303.863 31.1167 307.789 32.9752 308.337C33.7041 308.553 34.3001 308.859 34.3001 309.018C34.3001 309.446 36.2957 310.292 37.3049 310.292C37.7865 310.292 38.3739 310.5 38.6106 310.755C38.8469 311.009 39.4946 311.307 40.0499 311.416L41.059 311.614L40.3858 312.796C39.5693 314.227 39.5188 316.119 40.2627 317.405L40.8129 318.357H33.0189H25.2245L24.1699 319.3L23.1152 320.243V336.101V351.959L24.1836 352.914L25.2519 353.87L37.565 353.777L49.8778 353.684L50.7484 352.778C51.2268 352.281 51.6251 351.482 51.6327 351.004L51.6468 350.135L52.1371 351.142C52.7187 352.337 53.9794 353.2 55.1444 353.2C56.4747 353.2 57.9796 352.342 58.3728 351.36C59.194 349.308 59.5563 348.115 59.5563 347.46C59.5563 347.079 59.8961 346.184 60.3114 345.472C61.2769 343.815 61.5598 341.916 61.0395 340.582C60.6502 339.584 60.7011 339.471 62.0732 338.293C62.8666 337.611 63.7921 336.585 64.1294 336.012C65.0159 334.51 64.9062 331.931 63.8935 330.466L63.0788 329.288L63.8011 328.581C65.2151 327.197 65.7794 325.767 65.5965 324.031C65.5012 323.128 65.3067 322.143 65.1642 321.841C64.9665 321.423 65.1909 321.186 66.1092 320.842C67.9309 320.159 69.6851 318.695 70.4236 317.241C71.2784 315.559 71.269 314.593 70.3832 313.039C69.6649 311.779 69.8298 311.278 70.9677 311.264C71.1914 311.262 71.5591 311.06 71.7846 310.817C72.0104 310.574 72.858 310.296 73.6683 310.199C74.4787 310.101 75.4911 309.733 75.9179 309.381C76.3451 309.029 77.3023 308.517 78.0456 308.243C79.4289 307.733 84.4516 303.539 84.4516 302.893C84.4516 302.696 84.8503 301.994 85.3381 301.332C85.8256 300.67 86.2968 299.621 86.3855 299C86.4743 298.379 86.663 297.404 86.8044 296.834C87.5206 293.952 86.1449 293.193 80.2028 293.193C77.8461 293.193 74.1442 292.968 71.9765 292.694C67.0476 292.07 65.5185 292.361 63.2985 294.346L61.7857 295.699L61.3953 294.312C60.3728 290.682 56.2069 288.974 52.4391 290.642ZM57.7122 293.051C59.7958 294.618 59.4239 297.409 56.9809 298.539C54.5736 299.652 51.61 297.974 51.6266 295.507C51.6457 292.691 55.2833 291.223 57.7122 293.051ZM44.2741 295.011C44.9578 295.301 46.0016 296.168 46.5934 296.937C48.5421 299.469 52.1504 301.257 55.3208 301.26C58.2862 301.263 60.2176 300.362 63.401 297.489C65.0195 296.028 66.7243 294.749 67.1894 294.646C67.6545 294.542 69.8088 294.681 71.9765 294.955C74.1442 295.228 77.8381 295.451 80.1848 295.451H84.4516V296.29C84.4516 296.812 84.0288 297.481 83.331 298.064C82.3139 298.913 82.2807 299 82.9702 299C83.388 299 83.73 299.113 83.73 299.251C83.73 299.833 82.5091 300.985 81.2722 301.569C80.1285 302.109 80.0599 302.2 80.7834 302.212C82.7342 302.245 80.3248 304.112 77.9666 304.395L76.4148 304.581L77.4319 305.058L78.449 305.534L77.4268 306.013C76.7463 306.332 75.7574 306.444 74.4682 306.348L72.5322 306.205L73.3216 306.956C73.756 307.37 74.0075 307.801 73.8805 307.915C73.415 308.331 70.7383 308.106 69.8305 307.574L68.896 307.026L69.4578 307.998C69.7666 308.532 70.0195 309.049 70.0195 309.146C70.0195 309.603 67.8489 309.251 67.0058 308.658L66.0597 307.993L66.2805 308.981C66.4765 309.856 66.4061 309.969 65.6647 309.969C65.2043 309.969 64.3719 309.579 63.8155 309.102L62.8035 308.235V309.263C62.8035 310.813 61.2546 310.669 60.288 309.029L59.829 308.251L59.3492 309.271C58.8956 310.236 58.5345 310.438 57.4817 310.316C57.1418 310.276 57.0307 311.254 57.0307 314.28V318.298L59.1547 317.723C62.8284 316.728 64.6075 316.026 64.6075 315.571C64.6075 315.045 64.2204 315.03 61.7103 315.455C59.3268 315.859 58.1131 315.32 58.1131 313.856C58.1131 312.35 59.5339 311.582 62.3225 311.582C65.1981 311.582 66.9047 312.199 67.8453 313.579C68.8173 315.005 68.765 315.849 67.6289 317.056C66.5147 318.24 64.8243 319.063 61.9964 319.798L59.9485 320.33L61.5562 321.708C62.9399 322.893 63.1643 323.268 63.1643 324.388C63.1643 325.96 62.267 327.085 60.0123 328.34L58.4042 329.235L59.7392 329.973C61.1658 330.761 62.4391 332.334 62.4412 333.31C62.4441 334.565 61.1654 336.231 59.2099 337.518L57.1869 338.849L58.011 339.942C59.2178 341.544 58.9945 343.729 57.4701 345.235C57.1439 345.557 56.8521 346.428 56.8207 347.171C56.7265 349.428 56.1911 350.78 55.3923 350.78C54.4329 350.78 53.1816 347.542 53.7914 346.637C54.0984 346.181 54.0724 345.956 53.6795 345.669C51.8308 344.32 51.3736 341.393 52.7649 339.812L53.5507 338.919L52.5845 338.289C51.8568 337.815 51.6186 337.383 51.6186 336.536V335.412L52.6664 336.079C53.243 336.446 53.8112 336.746 53.9292 336.746C54.0475 336.746 54.1442 335.44 54.1442 333.843C54.1442 332.246 54.0223 330.944 53.8736 330.949C53.725 330.955 53.2877 331.173 52.9027 331.433C52.5174 331.694 52.0711 331.907 51.9105 331.907C51.4523 331.907 51.5692 329.822 52.0516 329.391C52.3882 329.09 52.3882 329.003 52.0516 329.003C51.785 329.003 51.6186 328.494 51.6186 327.678C51.6186 326.629 51.7312 326.394 52.1598 326.549L53.2422 326.941C53.695 327.105 53.7834 326.736 53.7834 324.683C53.7834 322.157 53.6294 321.934 52.3164 322.562C51.6792 322.868 51.6186 322.781 51.6186 321.57C51.6186 320.534 51.3877 320.037 50.564 319.3C49.5942 318.433 49.3008 318.357 46.9202 318.357C44.4892 318.357 44.2673 318.296 43.2844 317.355C41.9296 316.058 41.8874 314.585 43.1665 313.226C44.3167 312.003 46.1077 311.506 48.8758 311.64C50.6704 311.727 51.1121 311.873 51.6951 312.573C52.5488 313.599 52.25 315.055 51.1059 315.444C50.6683 315.593 49.4884 315.562 48.4255 315.374C46.2452 314.988 45.1523 315.422 46.5804 316.105C47.2634 316.432 53.3249 318.357 53.6709 318.357C53.7326 318.357 53.7834 316.53 53.7834 314.298C53.7834 311.188 53.6781 310.272 53.3324 310.383C52.609 310.614 51.6154 310 51.1976 309.062C50.9215 308.443 50.7581 308.333 50.6264 308.678C50.2822 309.582 49.3448 310.292 48.4959 310.292C47.7992 310.292 47.6498 310.123 47.6498 309.338V308.385L46.764 309.177C46.2769 309.612 45.4767 309.969 44.9853 309.969C44.1497 309.969 44.1136 309.902 44.4278 308.923C44.6122 308.347 44.7634 307.826 44.7634 307.765C44.7634 307.704 44.2637 308.029 43.6532 308.488C42.9951 308.984 42.0996 309.324 41.4527 309.324H40.3623L41.1099 308.191L41.8578 307.058L40.7224 307.583C39.6746 308.067 36.9841 308.282 36.5728 307.915C36.4757 307.828 36.9394 307.301 37.6033 306.745C38.4216 306.059 38.5565 305.844 38.0221 306.077C36.4184 306.775 32.4961 306.343 32.4961 305.468C32.4961 305.311 32.9428 305.038 33.4883 304.859L34.4805 304.535L33.2177 304.504C31.8723 304.472 29.2233 303.3 28.9761 302.629C28.8823 302.374 29.2027 302.216 29.8503 302.2L30.8725 302.174L29.7475 301.732C29.1287 301.49 28.1737 300.814 27.6253 300.232C26.6294 299.173 26.6295 299.172 27.425 299.004L28.2213 298.836L27.2919 298.055C26.7186 297.573 26.3625 296.925 26.3625 296.363V295.451L30.7823 295.423C33.2134 295.407 36.5822 295.206 38.2689 294.976C42.4578 294.405 42.8508 294.407 44.2741 295.011ZM25.713 320.68C26.0312 320.395 29.1204 320.293 37.3669 320.293C45.6134 320.293 48.7026 320.395 49.0208 320.68C49.6443 321.237 49.6443 350.965 49.0208 351.522C48.4017 352.076 26.3321 352.076 25.713 351.522C25.0895 350.965 25.0895 321.237 25.713 320.68ZM56.6699 324.83V327.432L58.1618 326.685C59.8915 325.82 60.7538 324.808 60.4218 324.034C60.196 323.508 57.8039 322.228 57.0451 322.228C56.8163 322.228 56.6699 323.244 56.6699 324.83ZM27.3002 323.144C27.0252 323.542 26.9812 346.337 27.2547 346.733C27.6051 347.24 47.0079 347.192 47.5776 346.683C48.1441 346.176 48.1997 324.438 47.6372 323.498C47.2818 322.904 46.7824 322.874 37.3756 322.874C31.9372 322.874 27.4034 322.996 27.3002 323.144ZM45.485 334.972V345.134H37.3669H29.2489V334.972V324.809H37.3669H45.485V334.972ZM35.3825 329.971V331.584H33.5785H31.7745V333.359V335.133H33.5785H35.3825V336.746V338.359H37.3471H39.3117L39.4217 336.827L39.5317 335.294L41.2456 335.196L42.9594 335.098V333.359V331.62L41.2456 331.521L39.5317 331.423L39.4217 329.891L39.3117 328.358H37.3471H35.3825V329.971ZM56.6699 333.834C56.6699 335.436 56.7994 336.746 56.9574 336.746C57.3817 336.746 59.7774 334.419 60.0376 333.755C60.2959 333.095 59.4152 332.192 57.7714 331.432L56.6699 330.923V333.834ZM53.5911 341.674C53.4782 342.077 53.546 342.767 53.7419 343.206C54.0544 343.906 54.1013 343.816 54.1215 342.473C54.146 340.826 53.9234 340.491 53.5911 341.674ZM56.3091 342.392C56.3091 343.303 56.449 343.805 56.6699 343.683C56.8683 343.573 57.0307 342.992 57.0307 342.392C57.0307 341.792 56.8683 341.211 56.6699 341.102C56.449 340.98 56.3091 341.481 56.3091 342.392ZM36.5371 348.748C35.8876 349.328 36.015 350.231 36.7997 350.606C37.6808 351.028 38.5377 350.741 38.8264 349.928C39.2539 348.723 37.5484 347.843 36.5371 348.748ZM31.8975 349.411C31.8048 349.546 31.9708 349.739 32.2666 349.84C33.0351 350.104 34.5144 349.868 34.3001 349.516C34.0804 349.155 32.1331 349.07 31.8975 349.411ZM40.4341 349.57C40.4337 349.816 40.9266 349.974 41.6966 349.974C42.4827 349.974 42.9594 349.817 42.9594 349.56C42.9594 349.301 42.4885 349.151 41.6969 349.157C40.9335 349.163 40.4341 349.326 40.4341 349.57Z" fill="white"/>
<path d="M15.4862 383.985H11.5342L10.8062 386H9.55822L12.8342 376.991H14.1992L17.4622 386H16.2142L15.4862 383.985ZM15.1482 383.023L13.5102 378.447L11.8722 383.023H15.1482ZM24.688 379.591C24.688 380.345 24.428 380.973 23.908 381.476C23.3967 381.97 22.6123 382.217 21.555 382.217H19.813V386H18.63V376.939H21.555C22.5777 376.939 23.3533 377.186 23.882 377.68C24.4193 378.174 24.688 378.811 24.688 379.591ZM21.555 381.242C22.2137 381.242 22.699 381.099 23.011 380.813C23.323 380.527 23.479 380.12 23.479 379.591C23.479 378.473 22.8377 377.914 21.555 377.914H19.813V381.242H21.555ZM31.9563 379.591C31.9563 380.345 31.6963 380.973 31.1763 381.476C30.665 381.97 29.8806 382.217 28.8233 382.217H27.0813V386H25.8983V376.939H28.8233C29.846 376.939 30.6216 377.186 31.1503 377.68C31.6876 378.174 31.9563 378.811 31.9563 379.591ZM28.8233 381.242C29.482 381.242 29.9673 381.099 30.2793 380.813C30.5913 380.527 30.7473 380.12 30.7473 379.591C30.7473 378.473 30.106 377.914 28.8233 377.914H27.0813V381.242H28.8233ZM39.2454 386.091C38.6474 386.091 38.1101 385.987 37.6334 385.779C37.1654 385.562 36.7971 385.268 36.5284 384.895C36.2598 384.514 36.1211 384.076 36.1124 383.582H37.3734C37.4168 384.007 37.5901 384.366 37.8934 384.661C38.2054 384.947 38.6561 385.09 39.2454 385.09C39.8088 385.09 40.2508 384.951 40.5714 384.674C40.9008 384.388 41.0654 384.024 41.0654 383.582C41.0654 383.235 40.9701 382.954 40.7794 382.737C40.5888 382.52 40.3504 382.356 40.0644 382.243C39.7784 382.13 39.3928 382.009 38.9074 381.879C38.3094 381.723 37.8284 381.567 37.4644 381.411C37.1091 381.255 36.8014 381.012 36.5414 380.683C36.2901 380.345 36.1644 379.894 36.1644 379.331C36.1644 378.837 36.2901 378.399 36.5414 378.018C36.7928 377.637 37.1438 377.342 37.5944 377.134C38.0538 376.926 38.5781 376.822 39.1674 376.822C40.0168 376.822 40.7101 377.034 41.2474 377.459C41.7934 377.884 42.1011 378.447 42.1704 379.149H40.8704C40.8271 378.802 40.6451 378.499 40.3244 378.239C40.0038 377.97 39.5791 377.836 39.0504 377.836C38.5564 377.836 38.1534 377.966 37.8414 378.226C37.5294 378.477 37.3734 378.833 37.3734 379.292C37.3734 379.621 37.4644 379.89 37.6464 380.098C37.8371 380.306 38.0668 380.466 38.3354 380.579C38.6128 380.683 38.9984 380.804 39.4924 380.943C40.0904 381.108 40.5714 381.272 40.9354 381.437C41.2994 381.593 41.6114 381.84 41.8714 382.178C42.1314 382.507 42.2614 382.958 42.2614 383.53C42.2614 383.972 42.1444 384.388 41.9104 384.778C41.6764 385.168 41.3298 385.484 40.8704 385.727C40.4111 385.97 39.8694 386.091 39.2454 386.091ZM46.8493 386.117C46.182 386.117 45.5753 385.965 45.0293 385.662C44.492 385.359 44.0673 384.93 43.7553 384.375C43.452 383.812 43.3003 383.162 43.3003 382.425C43.3003 381.697 43.4563 381.056 43.7683 380.501C44.089 379.938 44.5223 379.509 45.0683 379.214C45.6143 378.911 46.2253 378.759 46.9013 378.759C47.5773 378.759 48.1883 378.911 48.7343 379.214C49.2803 379.509 49.7093 379.933 50.0213 380.488C50.342 381.043 50.5023 381.688 50.5023 382.425C50.5023 383.162 50.3377 383.812 50.0083 384.375C49.6877 384.93 49.25 385.359 48.6953 385.662C48.1407 385.965 47.5253 386.117 46.8493 386.117ZM46.8493 385.077C47.274 385.077 47.6727 384.977 48.0453 384.778C48.418 384.579 48.717 384.28 48.9423 383.881C49.1763 383.482 49.2933 382.997 49.2933 382.425C49.2933 381.853 49.1807 381.368 48.9553 380.969C48.73 380.57 48.4353 380.276 48.0713 380.085C47.7073 379.886 47.313 379.786 46.8883 379.786C46.455 379.786 46.0563 379.886 45.6923 380.085C45.337 380.276 45.051 380.57 44.8343 380.969C44.6177 381.368 44.5093 381.853 44.5093 382.425C44.5093 383.006 44.6133 383.495 44.8213 383.894C45.038 384.293 45.324 384.592 45.6793 384.791C46.0347 384.982 46.4247 385.077 46.8493 385.077ZM54.6968 379.851H53.2018V386H52.0188V379.851H51.0958V378.876H52.0188V378.369C52.0188 377.572 52.2224 376.991 52.6298 376.627C53.0458 376.254 53.7088 376.068 54.6188 376.068V377.056C54.0988 377.056 53.7304 377.16 53.5138 377.368C53.3058 377.567 53.2018 377.901 53.2018 378.369V378.876H54.6968V379.851ZM57.2591 379.851V384.05C57.2591 384.397 57.3327 384.644 57.4801 384.791C57.6274 384.93 57.8831 384.999 58.2471 384.999H59.1181V386H58.0521C57.3934 386 56.8994 385.848 56.5701 385.545C56.2407 385.242 56.0761 384.743 56.0761 384.05V379.851H55.1531V378.876H56.0761V377.082H57.2591V378.876H59.1181V379.851H57.2591ZM69.7814 378.876L67.5584 386H66.3364L64.6204 380.345L62.9044 386H61.6824L59.4464 378.876H60.6554L62.2934 384.856L64.0614 378.876H65.2704L66.9994 384.869L68.6114 378.876H69.7814ZM70.2535 382.412C70.2535 381.684 70.4008 381.047 70.6955 380.501C70.9902 379.946 71.3932 379.517 71.9045 379.214C72.4245 378.911 73.0008 378.759 73.6335 378.759C74.2575 378.759 74.7992 378.893 75.2585 379.162C75.7178 379.431 76.0602 379.769 76.2855 380.176V378.876H77.4815V386H76.2855V384.674C76.0515 385.09 75.7005 385.437 75.2325 385.714C74.7732 385.983 74.2358 386.117 73.6205 386.117C72.9878 386.117 72.4158 385.961 71.9045 385.649C71.3932 385.337 70.9902 384.899 70.6955 384.336C70.4008 383.773 70.2535 383.131 70.2535 382.412ZM76.2855 382.425C76.2855 381.888 76.1772 381.42 75.9605 381.021C75.7438 380.622 75.4492 380.319 75.0765 380.111C74.7125 379.894 74.3095 379.786 73.8675 379.786C73.4255 379.786 73.0225 379.89 72.6585 380.098C72.2945 380.306 72.0042 380.609 71.7875 381.008C71.5708 381.407 71.4625 381.875 71.4625 382.412C71.4625 382.958 71.5708 383.435 71.7875 383.842C72.0042 384.241 72.2945 384.548 72.6585 384.765C73.0225 384.973 73.4255 385.077 73.8675 385.077C74.3095 385.077 74.7125 384.973 75.0765 384.765C75.4492 384.548 75.7438 384.241 75.9605 383.842C76.1772 383.435 76.2855 382.962 76.2855 382.425ZM80.4037 380.033C80.6117 379.626 80.9063 379.309 81.2877 379.084C81.6777 378.859 82.15 378.746 82.7047 378.746V379.968H82.3927C81.0667 379.968 80.4037 380.687 80.4037 382.126V386H79.2207V378.876H80.4037V380.033ZM90.3103 382.165C90.3103 382.39 90.2973 382.629 90.2713 382.88H84.5773C84.6206 383.582 84.8589 384.132 85.2923 384.531C85.7343 384.921 86.2673 385.116 86.8913 385.116C87.4026 385.116 87.8273 384.999 88.1653 384.765C88.5119 384.522 88.7546 384.202 88.8933 383.803H90.1673C89.9766 384.488 89.5953 385.047 89.0233 385.48C88.4513 385.905 87.7406 386.117 86.8913 386.117C86.2153 386.117 85.6086 385.965 85.0713 385.662C84.5426 385.359 84.1266 384.93 83.8233 384.375C83.5199 383.812 83.3683 383.162 83.3683 382.425C83.3683 381.688 83.5156 381.043 83.8103 380.488C84.1049 379.933 84.5166 379.509 85.0453 379.214C85.5826 378.911 86.1979 378.759 86.8913 378.759C87.5673 378.759 88.1653 378.906 88.6853 379.201C89.2053 379.496 89.6039 379.903 89.8813 380.423C90.1673 380.934 90.3103 381.515 90.3103 382.165ZM89.0883 381.918C89.0883 381.467 88.9886 381.082 88.7893 380.761C88.5899 380.432 88.3169 380.185 87.9703 380.02C87.6323 379.847 87.2553 379.76 86.8393 379.76C86.2413 379.76 85.7299 379.951 85.3053 380.332C84.8893 380.713 84.6509 381.242 84.5903 381.918H89.0883Z" fill="white"/>
<path d="M349.79 147H322.849C321.828 147 320.849 147.383 320.127 148.065C319.405 148.747 319 149.671 319 150.636V194.265C319 195.229 319.405 196.154 320.127 196.836C320.849 197.517 321.828 197.9 322.849 197.9H349.79C350.81 197.9 351.789 197.517 352.511 196.836C353.233 196.154 353.638 195.229 353.638 194.265V150.636C353.638 149.671 353.233 148.747 352.511 148.065C351.789 147.383 350.81 147 349.79 147ZM338.244 194.265H334.395V190.629H338.244V194.265ZM322.849 186.993V150.636H349.79V186.993H322.849Z" fill="white"/>
<rect x="333.682" y="161.023" width="4.58786" height="10.1282" fill="white"/>
<rect x="341.939" y="164.14" width="3.89545" height="11.9285" transform="rotate(90 341.939 164.14)" fill="white"/>
<path d="M304.582 230.939V240H303.399V230.939H304.582ZM309.809 232.746C310.676 232.746 311.378 233.01 311.915 233.539C312.452 234.059 312.721 234.813 312.721 235.801V240H311.551V235.97C311.551 235.259 311.373 234.718 311.018 234.345C310.663 233.964 310.177 233.773 309.562 233.773C308.938 233.773 308.44 233.968 308.067 234.358C307.703 234.748 307.521 235.316 307.521 236.061V240H306.338V232.876H307.521V233.89C307.755 233.526 308.071 233.244 308.47 233.045C308.877 232.846 309.324 232.746 309.809 232.746ZM315.837 233.851V238.05C315.837 238.397 315.91 238.644 316.058 238.791C316.205 238.93 316.461 238.999 316.825 238.999H317.696V240H316.63C315.971 240 315.477 239.848 315.148 239.545C314.818 239.242 314.654 238.743 314.654 238.05V233.851H313.731V232.876H314.654V231.082H315.837V232.876H317.696V233.851H315.837ZM325.369 236.165C325.369 236.39 325.356 236.629 325.33 236.88H319.636C319.679 237.582 319.918 238.132 320.351 238.531C320.793 238.921 321.326 239.116 321.95 239.116C322.461 239.116 322.886 238.999 323.224 238.765C323.571 238.522 323.813 238.202 323.952 237.803H325.226C325.035 238.488 324.654 239.047 324.082 239.48C323.51 239.905 322.799 240.117 321.95 240.117C321.274 240.117 320.667 239.965 320.13 239.662C319.601 239.359 319.185 238.93 318.882 238.375C318.579 237.812 318.427 237.162 318.427 236.425C318.427 235.688 318.574 235.043 318.869 234.488C319.164 233.933 319.575 233.509 320.104 233.214C320.641 232.911 321.257 232.759 321.95 232.759C322.626 232.759 323.224 232.906 323.744 233.201C324.264 233.496 324.663 233.903 324.94 234.423C325.226 234.934 325.369 235.515 325.369 236.165ZM324.147 235.918C324.147 235.467 324.047 235.082 323.848 234.761C323.649 234.432 323.376 234.185 323.029 234.02C322.691 233.847 322.314 233.76 321.898 233.76C321.3 233.76 320.789 233.951 320.364 234.332C319.948 234.713 319.71 235.242 319.649 235.918H324.147ZM327.853 234.033C328.061 233.626 328.356 233.309 328.737 233.084C329.127 232.859 329.6 232.746 330.154 232.746V233.968H329.842C328.516 233.968 327.853 234.687 327.853 236.126V240H326.67V232.876H327.853V234.033ZM330.818 236.412C330.818 235.684 330.965 235.047 331.26 234.501C331.555 233.946 331.958 233.517 332.469 233.214C332.989 232.911 333.565 232.759 334.198 232.759C334.822 232.759 335.364 232.893 335.823 233.162C336.282 233.431 336.625 233.769 336.85 234.176V232.876H338.046V240H336.85V238.674C336.616 239.09 336.265 239.437 335.797 239.714C335.338 239.983 334.8 240.117 334.185 240.117C333.552 240.117 332.98 239.961 332.469 239.649C331.958 239.337 331.555 238.899 331.26 238.336C330.965 237.773 330.818 237.131 330.818 236.412ZM336.85 236.425C336.85 235.888 336.742 235.42 336.525 235.021C336.308 234.622 336.014 234.319 335.641 234.111C335.277 233.894 334.874 233.786 334.432 233.786C333.99 233.786 333.587 233.89 333.223 234.098C332.859 234.306 332.569 234.609 332.352 235.008C332.135 235.407 332.027 235.875 332.027 236.412C332.027 236.958 332.135 237.435 332.352 237.842C332.569 238.241 332.859 238.548 333.223 238.765C333.587 238.973 333.99 239.077 334.432 239.077C334.874 239.077 335.277 238.973 335.641 238.765C336.014 238.548 336.308 238.241 336.525 237.842C336.742 237.435 336.85 236.962 336.85 236.425ZM339.343 236.425C339.343 235.688 339.491 235.047 339.785 234.501C340.08 233.946 340.487 233.517 341.007 233.214C341.536 232.911 342.138 232.759 342.814 232.759C343.69 232.759 344.409 232.971 344.972 233.396C345.544 233.821 345.921 234.41 346.103 235.164H344.829C344.708 234.731 344.47 234.388 344.114 234.137C343.768 233.886 343.334 233.76 342.814 233.76C342.138 233.76 341.592 233.994 341.176 234.462C340.76 234.921 340.552 235.576 340.552 236.425C340.552 237.283 340.76 237.946 341.176 238.414C341.592 238.882 342.138 239.116 342.814 239.116C343.334 239.116 343.768 238.995 344.114 238.752C344.461 238.509 344.699 238.163 344.829 237.712H346.103C345.913 238.44 345.531 239.025 344.959 239.467C344.387 239.9 343.672 240.117 342.814 240.117C342.138 240.117 341.536 239.965 341.007 239.662C340.487 239.359 340.08 238.93 339.785 238.375C339.491 237.82 339.343 237.17 339.343 236.425ZM348.865 233.851V238.05C348.865 238.397 348.938 238.644 349.086 238.791C349.233 238.93 349.489 238.999 349.853 238.999H350.724V240H349.658C348.999 240 348.505 239.848 348.176 239.545C347.846 239.242 347.682 238.743 347.682 238.05V233.851H346.759V232.876H347.682V231.082H348.865V232.876H350.724V233.851H348.865ZM352.508 231.719C352.283 231.719 352.092 231.641 351.936 231.485C351.78 231.329 351.702 231.138 351.702 230.913C351.702 230.688 351.78 230.497 351.936 230.341C352.092 230.185 352.283 230.107 352.508 230.107C352.725 230.107 352.907 230.185 353.054 230.341C353.21 230.497 353.288 230.688 353.288 230.913C353.288 231.138 353.21 231.329 353.054 231.485C352.907 231.641 352.725 231.719 352.508 231.719ZM353.08 232.876V240H351.897V232.876H353.08ZM357.488 238.908L359.698 232.876H360.959L358.164 240H356.786L353.991 232.876H355.265L357.488 238.908ZM362.474 231.719C362.249 231.719 362.058 231.641 361.902 231.485C361.746 231.329 361.668 231.138 361.668 230.913C361.668 230.688 361.746 230.497 361.902 230.341C362.058 230.185 362.249 230.107 362.474 230.107C362.691 230.107 362.873 230.185 363.02 230.341C363.176 230.497 363.254 230.688 363.254 230.913C363.254 231.138 363.176 231.329 363.02 231.485C362.873 231.641 362.691 231.719 362.474 231.719ZM363.046 232.876V240H361.863V232.876H363.046ZM366.246 233.851V238.05C366.246 238.397 366.319 238.644 366.467 238.791C366.614 238.93 366.87 238.999 367.234 238.999H368.105V240H367.039C366.38 240 365.886 239.848 365.557 239.545C365.227 239.242 365.063 238.743 365.063 238.05V233.851H364.14V232.876H365.063V231.082H366.246V232.876H368.105V233.851H366.246ZM375.414 232.876L371.124 243.354H369.902L371.306 239.922L368.433 232.876H369.746L371.982 238.648L374.192 232.876H375.414Z" fill="white"/>
<path d="M232.972 153.156L228.846 161.211L221.196 155.299" stroke="#F2FFFF" stroke-width="2" stroke-linecap="round" stroke-linejoin="round"/>
<path d="M228.846 161.211L226.027 150.038C224.08 142.324 217.23 137.031 210.726 138.214L209.549 138.428" stroke="#F2FFFF" stroke-width="2" stroke-linecap="round" stroke-linejoin="round"/>
<path d="M165.336 193.543L167.907 185.035L176.564 189.844" stroke="#F2FFFF" stroke-width="2" stroke-linecap="round" stroke-linejoin="round"/>
<path d="M167.907 185.035L172.775 195.688C176.136 203.042 183.887 207.348 190.088 205.305L191.211 204.935" stroke="#F2FFFF" stroke-width="2" stroke-linecap="round" stroke-linejoin="round"/>
<path d="M161.109 180.967C161.109 180.967 160 180.967 160 179.96C160 178.954 161.109 175.935 166.652 175.935C172.196 175.935 173.305 178.954 173.305 179.96C173.305 180.967 172.196 180.967 172.196 180.967H161.109ZM166.652 174.929C167.535 174.929 168.381 174.61 169.004 174.044C169.628 173.478 169.979 172.71 169.979 171.91C169.979 171.109 169.628 170.341 169.004 169.775C168.381 169.209 167.535 168.891 166.652 168.891C165.77 168.891 164.924 169.209 164.3 169.775C163.677 170.341 163.326 171.109 163.326 171.91C163.326 172.71 163.677 173.478 164.3 174.044C164.924 174.61 165.77 174.929 166.652 174.929Z" fill="white"/>
<path fill-rule="evenodd" clip-rule="evenodd" d="M225.938 169.953C225.938 171.301 225.544 173.059 224.937 172.793C224.688 173.481 224.167 174.075 223.462 174.474C222.756 174.873 221.91 175.052 221.066 174.982C220.223 174.911 219.434 174.595 218.834 174.086C218.234 173.578 217.86 172.909 217.774 172.193C217.172 171.298 216.382 169.505 218.413 168.107C218.45 168.097 218.472 168.013 218.505 167.889C218.631 167.42 218.909 166.379 220.666 166.578C222.021 166.731 225.938 167.325 225.938 169.953V169.953ZM224.192 170.803C224.192 170.803 223.985 171.318 224.179 171.891C224.177 172.503 223.892 173.09 223.385 173.525C222.879 173.961 222.192 174.21 221.472 174.22C220.751 174.23 220.055 174 219.532 173.579C219.009 173.158 218.702 172.58 218.676 171.968C218.742 171.754 218.742 171.391 218.742 170.988C218.741 170.261 218.74 169.403 219.133 169.053C221.88 170.607 224.192 170.803 224.192 170.803Z" fill="white"/>
<path d="M216.379 178.597C216.379 178.175 216.642 177.806 217.037 177.6C217.022 177.552 217.008 177.503 216.995 177.454C216.925 177.188 216.871 176.919 216.832 176.649C216.792 176.389 216.769 176.129 216.761 175.867C214.824 176.513 213.168 177.638 213.168 178.819V180.934H229.684V178.819C229.684 177.688 228.166 176.608 226.336 175.952V175.963C226.344 176.2 226.329 176.473 226.298 176.735C226.271 176.978 226.23 177.22 226.181 177.428H226.473C226.558 177.428 226.641 177.448 226.714 177.486C226.786 177.524 226.845 177.579 226.883 177.644L227.342 178.423C227.374 178.477 227.39 178.536 227.39 178.597V179.376C227.39 179.479 227.342 179.578 227.256 179.651C227.17 179.724 227.053 179.765 226.932 179.765H226.014V178.986H226.473V178.689L226.189 178.207H224.921L224.638 178.689V178.986H225.096V179.765H224.179C224.057 179.765 223.94 179.724 223.854 179.651C223.768 179.578 223.72 179.479 223.72 179.376V178.597C223.72 178.536 223.737 178.477 223.769 178.423L224.227 177.644C224.266 177.579 224.324 177.524 224.397 177.486C224.469 177.448 224.552 177.428 224.638 177.428H225.241C225.251 177.395 225.261 177.358 225.271 177.317C225.317 177.133 225.358 176.901 225.385 176.66C225.413 176.42 225.426 176.181 225.419 175.984C225.417 175.903 225.41 175.822 225.396 175.741C225.386 175.686 225.376 175.661 225.374 175.655C225.374 175.654 225.374 175.654 225.374 175.654L225.376 175.654C225.132 175.59 224.886 175.534 224.638 175.485C224.407 175.441 224.168 175.71 224.064 175.879H218.673C218.66 175.857 218.647 175.835 218.634 175.813C218.537 175.649 218.417 175.446 218.215 175.485C218.038 175.519 217.861 175.558 217.685 175.601C217.679 175.669 217.677 175.738 217.677 175.806C217.679 176.022 217.704 176.286 217.743 176.552C217.782 176.818 217.834 177.076 217.889 177.28C217.905 177.339 217.921 177.392 217.935 177.438C218.198 177.467 218.444 177.56 218.646 177.705C218.848 177.851 218.996 178.042 219.073 178.257C219.15 178.472 219.152 178.701 219.079 178.917C219.007 179.133 218.862 179.327 218.664 179.475C218.465 179.623 218.22 179.719 217.958 179.752C217.696 179.785 217.429 179.754 217.188 179.661C216.947 179.568 216.743 179.419 216.599 179.23C216.456 179.041 216.38 178.821 216.379 178.597Z" fill="white"/>
<path d="M218.214 178.597C218.214 178.82 218.002 178.992 217.756 178.992C217.509 178.992 217.297 178.821 217.297 178.597C217.297 178.373 217.509 178.201 217.756 178.201C218.002 178.201 218.214 178.373 218.214 178.597Z" fill="white"/>
<path d="M212.924 147.175H186.841C185.853 147.175 184.905 147.563 184.207 148.255C183.508 148.947 183.115 149.886 183.115 150.864V195.135C183.115 196.113 183.508 197.052 184.207 197.744C184.905 198.436 185.853 198.824 186.841 198.824H212.924C213.912 198.824 214.86 198.436 215.559 197.744C216.258 197.052 216.65 196.113 216.65 195.135V150.864C216.65 149.886 216.258 148.947 215.559 148.255C214.86 147.563 213.912 147.175 212.924 147.175ZM201.746 195.135H198.02V191.446H201.746V195.135ZM186.841 187.757V150.864H212.924V187.757H186.841Z" fill="white"/>
<path d="M148.263 239.415L146.105 235.71H144.675V239.415H143.492V230.354H146.417C147.102 230.354 147.678 230.471 148.146 230.705C148.623 230.939 148.978 231.255 149.212 231.654C149.446 232.053 149.563 232.508 149.563 233.019C149.563 233.643 149.381 234.193 149.017 234.67C148.662 235.147 148.124 235.463 147.405 235.619L149.68 239.415H148.263ZM144.675 234.761H146.417C147.058 234.761 147.539 234.605 147.86 234.293C148.181 233.972 148.341 233.548 148.341 233.019C148.341 232.482 148.181 232.066 147.86 231.771C147.548 231.476 147.067 231.329 146.417 231.329H144.675V234.761ZM157.641 235.58C157.641 235.805 157.628 236.044 157.602 236.295H151.908C151.951 236.997 152.19 237.547 152.623 237.946C153.065 238.336 153.598 238.531 154.222 238.531C154.733 238.531 155.158 238.414 155.496 238.18C155.843 237.937 156.085 237.617 156.224 237.218H157.498C157.307 237.903 156.926 238.462 156.354 238.895C155.782 239.32 155.071 239.532 154.222 239.532C153.546 239.532 152.939 239.38 152.402 239.077C151.873 238.774 151.457 238.345 151.154 237.79C150.851 237.227 150.699 236.577 150.699 235.84C150.699 235.103 150.846 234.458 151.141 233.903C151.436 233.348 151.847 232.924 152.376 232.629C152.913 232.326 153.529 232.174 154.222 232.174C154.898 232.174 155.496 232.321 156.016 232.616C156.536 232.911 156.935 233.318 157.212 233.838C157.498 234.349 157.641 234.93 157.641 235.58ZM156.419 235.333C156.419 234.882 156.319 234.497 156.12 234.176C155.921 233.847 155.648 233.6 155.301 233.435C154.963 233.262 154.586 233.175 154.17 233.175C153.572 233.175 153.061 233.366 152.636 233.747C152.22 234.128 151.982 234.657 151.921 235.333H156.419ZM167.51 232.161C168.064 232.161 168.558 232.278 168.992 232.512C169.425 232.737 169.767 233.08 170.019 233.539C170.27 233.998 170.396 234.557 170.396 235.216V239.415H169.226V235.385C169.226 234.674 169.048 234.133 168.693 233.76C168.346 233.379 167.874 233.188 167.276 233.188C166.66 233.188 166.171 233.387 165.807 233.786C165.443 234.176 165.261 234.744 165.261 235.489V239.415H164.091V235.385C164.091 234.674 163.913 234.133 163.558 233.76C163.211 233.379 162.739 233.188 162.141 233.188C161.525 233.188 161.036 233.387 160.672 233.786C160.308 234.176 160.126 234.744 160.126 235.489V239.415H158.943V232.291H160.126V233.318C160.36 232.945 160.672 232.659 161.062 232.46C161.46 232.261 161.898 232.161 162.375 232.161C162.973 232.161 163.501 232.295 163.961 232.564C164.42 232.833 164.762 233.227 164.988 233.747C165.187 233.244 165.516 232.854 165.976 232.577C166.435 232.3 166.946 232.161 167.51 232.161ZM175.183 239.532C174.516 239.532 173.909 239.38 173.363 239.077C172.826 238.774 172.401 238.345 172.089 237.79C171.786 237.227 171.634 236.577 171.634 235.84C171.634 235.112 171.79 234.471 172.102 233.916C172.423 233.353 172.856 232.924 173.402 232.629C173.948 232.326 174.559 232.174 175.235 232.174C175.911 232.174 176.522 232.326 177.068 232.629C177.614 232.924 178.043 233.348 178.355 233.903C178.676 234.458 178.836 235.103 178.836 235.84C178.836 236.577 178.671 237.227 178.342 237.79C178.021 238.345 177.584 238.774 177.029 239.077C176.474 239.38 175.859 239.532 175.183 239.532ZM175.183 238.492C175.608 238.492 176.006 238.392 176.379 238.193C176.752 237.994 177.051 237.695 177.276 237.296C177.51 236.897 177.627 236.412 177.627 235.84C177.627 235.268 177.514 234.783 177.289 234.384C177.064 233.985 176.769 233.691 176.405 233.5C176.041 233.301 175.647 233.201 175.222 233.201C174.789 233.201 174.39 233.301 174.026 233.5C173.671 233.691 173.385 233.985 173.168 234.384C172.951 234.783 172.843 235.268 172.843 235.84C172.843 236.421 172.947 236.91 173.155 237.309C173.372 237.708 173.658 238.007 174.013 238.206C174.368 238.397 174.758 238.492 175.183 238.492ZM181.575 233.266V237.465C181.575 237.812 181.648 238.059 181.796 238.206C181.943 238.345 182.199 238.414 182.563 238.414H183.434V239.415H182.368C181.709 239.415 181.215 239.263 180.886 238.96C180.556 238.657 180.392 238.158 180.392 237.465V233.266H179.469V232.291H180.392V230.497H181.575V232.291H183.434V233.266H181.575ZM191.107 235.58C191.107 235.805 191.094 236.044 191.068 236.295H185.374C185.417 236.997 185.656 237.547 186.089 237.946C186.531 238.336 187.064 238.531 187.688 238.531C188.199 238.531 188.624 238.414 188.962 238.18C189.309 237.937 189.551 237.617 189.69 237.218H190.964C190.773 237.903 190.392 238.462 189.82 238.895C189.248 239.32 188.537 239.532 187.688 239.532C187.012 239.532 186.405 239.38 185.868 239.077C185.339 238.774 184.923 238.345 184.62 237.79C184.317 237.227 184.165 236.577 184.165 235.84C184.165 235.103 184.312 234.458 184.607 233.903C184.902 233.348 185.313 232.924 185.842 232.629C186.379 232.326 186.995 232.174 187.688 232.174C188.364 232.174 188.962 232.321 189.482 232.616C190.002 232.911 190.401 233.318 190.678 233.838C190.964 234.349 191.107 234.93 191.107 235.58ZM189.885 235.333C189.885 234.882 189.785 234.497 189.586 234.176C189.387 233.847 189.114 233.6 188.767 233.435C188.429 233.262 188.052 233.175 187.636 233.175C187.038 233.175 186.527 233.366 186.102 233.747C185.686 234.128 185.448 234.657 185.387 235.333H189.885ZM204.805 230.419V239.415H203.622V232.707L200.632 239.415H199.8L196.797 232.694V239.415H195.614V230.419H196.888L200.216 237.855L203.544 230.419H204.805ZM213.052 235.58C213.052 235.805 213.039 236.044 213.013 236.295H207.319C207.362 236.997 207.6 237.547 208.034 237.946C208.476 238.336 209.009 238.531 209.633 238.531C210.144 238.531 210.569 238.414 210.907 238.18C211.253 237.937 211.496 237.617 211.635 237.218H212.909C212.718 237.903 212.337 238.462 211.765 238.895C211.193 239.32 210.482 239.532 209.633 239.532C208.957 239.532 208.35 239.38 207.813 239.077C207.284 238.774 206.868 238.345 206.565 237.79C206.261 237.227 206.11 236.577 206.11 235.84C206.11 235.103 206.257 234.458 206.552 233.903C206.846 233.348 207.258 232.924 207.787 232.629C208.324 232.326 208.939 232.174 209.633 232.174C210.309 232.174 210.907 232.321 211.427 232.616C211.947 232.911 212.345 233.318 212.623 233.838C212.909 234.349 213.052 234.93 213.052 235.58ZM211.83 235.333C211.83 234.882 211.73 234.497 211.531 234.176C211.331 233.847 211.058 233.6 210.712 233.435C210.374 233.262 209.997 233.175 209.581 233.175C208.983 233.175 208.471 233.366 208.047 233.747C207.631 234.128 207.392 234.657 207.332 235.333H211.83ZM213.911 235.827C213.911 235.099 214.058 234.462 214.353 233.916C214.648 233.361 215.051 232.932 215.562 232.629C216.082 232.326 216.663 232.174 217.304 232.174C217.859 232.174 218.374 232.304 218.851 232.564C219.328 232.815 219.692 233.149 219.943 233.565V229.795H221.139V239.415H219.943V238.076C219.709 238.501 219.362 238.852 218.903 239.129C218.444 239.398 217.906 239.532 217.291 239.532C216.658 239.532 216.082 239.376 215.562 239.064C215.051 238.752 214.648 238.314 214.353 237.751C214.058 237.188 213.911 236.546 213.911 235.827ZM219.943 235.84C219.943 235.303 219.835 234.835 219.618 234.436C219.401 234.037 219.107 233.734 218.734 233.526C218.37 233.309 217.967 233.201 217.525 233.201C217.083 233.201 216.68 233.305 216.316 233.513C215.952 233.721 215.662 234.024 215.445 234.423C215.228 234.822 215.12 235.29 215.12 235.827C215.12 236.373 215.228 236.85 215.445 237.257C215.662 237.656 215.952 237.963 216.316 238.18C216.68 238.388 217.083 238.492 217.525 238.492C217.967 238.492 218.37 238.388 218.734 238.18C219.107 237.963 219.401 237.656 219.618 237.257C219.835 236.85 219.943 236.377 219.943 235.84ZM223.489 231.134C223.264 231.134 223.073 231.056 222.917 230.9C222.761 230.744 222.683 230.553 222.683 230.328C222.683 230.103 222.761 229.912 222.917 229.756C223.073 229.6 223.264 229.522 223.489 229.522C223.706 229.522 223.888 229.6 224.035 229.756C224.191 229.912 224.269 230.103 224.269 230.328C224.269 230.553 224.191 230.744 224.035 230.9C223.888 231.056 223.706 231.134 223.489 231.134ZM224.061 232.291V239.415H222.878V232.291H224.061ZM225.375 235.84C225.375 235.103 225.523 234.462 225.817 233.916C226.112 233.361 226.519 232.932 227.039 232.629C227.568 232.326 228.17 232.174 228.846 232.174C229.722 232.174 230.441 232.386 231.004 232.811C231.576 233.236 231.953 233.825 232.135 234.579H230.861C230.74 234.146 230.502 233.803 230.146 233.552C229.8 233.301 229.366 233.175 228.846 233.175C228.17 233.175 227.624 233.409 227.208 233.877C226.792 234.336 226.584 234.991 226.584 235.84C226.584 236.698 226.792 237.361 227.208 237.829C227.624 238.297 228.17 238.531 228.846 238.531C229.366 238.531 229.8 238.41 230.146 238.167C230.493 237.924 230.731 237.578 230.861 237.127H232.135C231.945 237.855 231.563 238.44 230.991 238.882C230.419 239.315 229.704 239.532 228.846 239.532C228.17 239.532 227.568 239.38 227.039 239.077C226.519 238.774 226.112 238.345 225.817 237.79C225.523 237.235 225.375 236.585 225.375 235.84ZM234.065 231.134C233.84 231.134 233.649 231.056 233.493 230.9C233.337 230.744 233.259 230.553 233.259 230.328C233.259 230.103 233.337 229.912 233.493 229.756C233.649 229.6 233.84 229.522 234.065 229.522C234.282 229.522 234.464 229.6 234.611 229.756C234.767 229.912 234.845 230.103 234.845 230.328C234.845 230.553 234.767 230.744 234.611 230.9C234.464 231.056 234.282 231.134 234.065 231.134ZM234.637 232.291V239.415H233.454V232.291H234.637ZM239.864 232.161C240.731 232.161 241.433 232.425 241.97 232.954C242.507 233.474 242.776 234.228 242.776 235.216V239.415H241.606V235.385C241.606 234.674 241.428 234.133 241.073 233.76C240.718 233.379 240.232 233.188 239.617 233.188C238.993 233.188 238.495 233.383 238.122 233.773C237.758 234.163 237.576 234.731 237.576 235.476V239.415H236.393V232.291H237.576V233.305C237.81 232.941 238.126 232.659 238.525 232.46C238.932 232.261 239.379 232.161 239.864 232.161ZM250.949 235.58C250.949 235.805 250.936 236.044 250.91 236.295H245.216C245.259 236.997 245.497 237.547 245.931 237.946C246.373 238.336 246.906 238.531 247.53 238.531C248.041 238.531 248.466 238.414 248.804 238.18C249.15 237.937 249.393 237.617 249.532 237.218H250.806C250.615 237.903 250.234 238.462 249.662 238.895C249.09 239.32 248.379 239.532 247.53 239.532C246.854 239.532 246.247 239.38 245.71 239.077C245.181 238.774 244.765 238.345 244.462 237.79C244.158 237.227 244.007 236.577 244.007 235.84C244.007 235.103 244.154 234.458 244.449 233.903C244.743 233.348 245.155 232.924 245.684 232.629C246.221 232.326 246.836 232.174 247.53 232.174C248.206 232.174 248.804 232.321 249.324 232.616C249.844 232.911 250.242 233.318 250.52 233.838C250.806 234.349 250.949 234.93 250.949 235.58ZM249.727 235.333C249.727 234.882 249.627 234.497 249.428 234.176C249.228 233.847 248.955 233.6 248.609 233.435C248.271 233.262 247.894 233.175 247.478 233.175C246.88 233.175 246.368 233.366 245.944 233.747C245.528 234.128 245.289 234.657 245.229 235.333H249.727Z" fill="white"/>
<path d="M23.678 168.426C23.1221 168.426 22.589 168.596 22.1959 168.899C21.8029 169.201 21.582 169.612 21.582 170.04V186.18C21.5811 189.754 23.2909 193.202 26.3843 195.866C29.4777 198.53 33.7376 200.222 38.3495 200.62V203.935C38.3495 208.215 40.5577 212.321 44.4883 215.348C48.4189 218.375 53.75 220.075 59.3088 220.075C64.8675 220.075 70.1986 218.375 74.1292 215.348C78.0598 212.321 80.2681 208.215 80.2681 203.935V200.545C82.8126 200.145 85.0737 199.032 86.6128 197.421C88.152 195.81 88.8597 193.817 88.5987 191.827C88.3377 189.837 87.1265 187.993 85.2001 186.652C83.2737 185.31 80.7691 184.568 78.1721 184.568C75.5751 184.568 73.0706 185.31 71.1442 186.652C69.2177 187.993 68.0066 189.837 67.7455 191.827C67.4845 193.817 68.1922 195.81 69.7314 197.421C71.2706 199.032 73.5316 200.145 76.0762 200.545V203.935C76.0762 207.359 74.3096 210.644 71.1651 213.065C68.0206 215.487 63.7558 216.847 59.3088 216.847C54.8618 216.847 50.5969 215.487 47.4524 213.065C44.3079 210.644 42.5413 207.359 42.5413 203.935V200.62C47.1532 200.222 51.4131 198.53 54.5065 195.866C57.5999 193.202 59.3097 189.754 59.3088 186.18V170.04C59.3088 169.612 59.0879 169.201 58.6949 168.899C58.3018 168.596 57.7687 168.426 57.2128 168.426H48.8291C48.2732 168.426 47.7401 168.596 47.3471 168.899C46.954 169.201 46.7332 169.612 46.7332 170.04C46.7332 170.468 46.954 170.878 47.3471 171.181C47.7401 171.484 48.2732 171.654 48.8291 171.654H55.1169V186.18C55.1169 189.177 53.5712 192.051 50.8197 194.169C48.0683 196.288 44.3365 197.479 40.4454 197.479C36.5543 197.479 32.8225 196.288 30.0711 194.169C27.3196 192.051 25.7739 189.177 25.7739 186.18V171.654H32.0617C32.6176 171.654 33.1507 171.484 33.5437 171.181C33.9368 170.878 34.1576 170.468 34.1576 170.04C34.1576 169.612 33.9368 169.201 33.5437 168.899C33.1507 168.596 32.6176 168.426 32.0617 168.426H23.678ZM78.1721 187.794C79.8397 187.794 81.4391 188.304 82.6183 189.213C83.7974 190.121 84.4599 191.352 84.4599 192.636C84.4599 193.921 83.7974 195.152 82.6183 196.06C81.4391 196.968 79.8397 197.479 78.1721 197.479C76.5045 197.479 74.9052 196.968 73.726 196.06C72.5468 195.152 71.8843 193.921 71.8843 192.636C71.8843 191.352 72.5468 190.121 73.726 189.213C74.9052 188.304 76.5045 187.794 78.1721 187.794V187.794Z" fill="white"/>
<path d="M53.6527 142H26.6385C25.615 142 24.6334 142.389 23.9096 143.081C23.1859 143.772 22.7793 144.711 22.7793 145.689V189.96C22.7793 190.939 23.1859 191.877 23.9096 192.569C24.6334 193.261 25.615 193.649 26.6385 193.649H53.6527C54.6762 193.649 55.6578 193.261 56.3815 192.569C57.1053 191.877 57.5119 190.939 57.5119 189.96V145.689C57.5119 144.711 57.1053 143.772 56.3815 143.081C55.6578 142.389 54.6762 142 53.6527 142ZM42.0752 189.96H38.216V186.271H42.0752V189.96ZM26.6385 182.582V145.689H53.6527V182.582H26.6385Z" fill="white"/>
<path d="M25.1748 158.399H29.001L31.2759 156.884L33.4475 159.704L35.8261 156.414L38.0491 160.018L40.5828 158.399H52.7213" stroke="#F2FFFF" stroke-width="2" stroke-linecap="round" stroke-linejoin="round"/>
<path d="M40.6613 234.901V237.93H43.9633V238.905H40.6613V242.025H44.3533V243H39.4783V233.926H44.3533V234.901H40.6613ZM50.7973 243L47.0663 238.866V243H45.8833V233.939H47.0663V238.138L50.8103 233.939H52.3053L48.1973 238.476L52.3443 243H50.7973ZM60.2696 236.565C60.0182 236.036 59.6542 235.629 59.1776 235.343C58.7009 235.048 58.1462 234.901 57.5136 234.901C56.8809 234.901 56.3089 235.048 55.7976 235.343C55.2949 235.629 54.8962 236.045 54.6016 236.591C54.3156 237.128 54.1726 237.752 54.1726 238.463C54.1726 239.174 54.3156 239.798 54.6016 240.335C54.8962 240.872 55.2949 241.288 55.7976 241.583C56.3089 241.869 56.8809 242.012 57.5136 242.012C58.3976 242.012 59.1256 241.748 59.6976 241.219C60.2696 240.69 60.6032 239.975 60.6986 239.074H57.0846V238.112H61.9596V239.022C61.8902 239.767 61.6562 240.452 61.2576 241.076C60.8589 241.691 60.3346 242.181 59.6846 242.545C59.0346 242.9 58.3109 243.078 57.5136 243.078C56.6729 243.078 55.9059 242.883 55.2126 242.493C54.5192 242.094 53.9689 241.544 53.5616 240.842C53.1629 240.14 52.9636 239.347 52.9636 238.463C52.9636 237.579 53.1629 236.786 53.5616 236.084C53.9689 235.373 54.5192 234.823 55.2126 234.433C55.9059 234.034 56.6729 233.835 57.5136 233.835C58.4756 233.835 59.3249 234.073 60.0616 234.55C60.8069 235.027 61.3486 235.698 61.6866 236.565H60.2696Z" fill="white"/>
<path d="M325.699 29.8105C325.511 29.8105 325.33 29.8659 325.197 29.9645C325.063 30.063 324.988 30.1967 324.988 30.336V35.5911C324.988 36.7546 325.568 37.8774 326.618 38.7447C327.667 39.612 329.112 40.163 330.677 40.2922V41.3716C330.677 42.7653 331.426 44.102 332.76 45.0875C334.094 46.073 335.902 46.6266 337.788 46.6266C339.674 46.6266 341.483 46.073 342.817 45.0875C344.15 44.102 344.9 42.7653 344.9 41.3716V40.2681C345.763 40.1378 346.53 39.7754 347.052 39.2509C347.575 38.7264 347.815 38.0774 347.726 37.4295C347.638 36.7817 347.227 36.1812 346.573 35.7446C345.919 35.3079 345.07 35.0661 344.188 35.0661C343.307 35.0661 342.458 35.3079 341.804 35.7446C341.15 36.1812 340.739 36.7817 340.651 37.4295C340.562 38.0774 340.802 38.7264 341.325 39.2509C341.847 39.7754 342.614 40.1378 343.477 40.2681V41.3716C343.477 42.4866 342.878 43.5559 341.811 44.3443C340.744 45.1327 339.297 45.5756 337.788 45.5756C336.28 45.5756 334.833 45.1327 333.766 44.3443C332.699 43.5559 332.099 42.4866 332.099 41.3716V40.2922C333.664 40.163 335.11 39.612 336.159 38.7447C337.209 37.8774 337.789 36.7546 337.788 35.5911V30.336C337.788 30.1967 337.714 30.063 337.58 29.9645C337.447 29.8659 337.266 29.8105 337.077 29.8105H334.233C334.044 29.8105 333.863 29.8659 333.73 29.9645C333.597 30.063 333.522 30.1967 333.522 30.336C333.522 30.4754 333.597 30.6091 333.73 30.7076C333.863 30.8062 334.044 30.8616 334.233 30.8616H336.366V35.5911C336.366 36.5667 335.842 37.5023 334.908 38.1922C333.975 38.882 332.709 39.2696 331.388 39.2696C330.068 39.2696 328.802 38.882 327.868 38.1922C326.935 37.5023 326.411 36.5667 326.411 35.5911V30.8616H328.544C328.732 30.8616 328.913 30.8062 329.047 30.7076C329.18 30.6091 329.255 30.4754 329.255 30.336C329.255 30.1967 329.18 30.063 329.047 29.9645C328.913 29.8659 328.732 29.8105 328.544 29.8105H325.699ZM344.188 36.1166C344.754 36.1166 345.297 36.2827 345.697 36.5783C346.097 36.874 346.322 37.275 346.322 37.6931C346.322 38.1112 346.097 38.5122 345.697 38.8079C345.297 39.1035 344.754 39.2696 344.188 39.2696C343.623 39.2696 343.08 39.1035 342.68 38.8079C342.28 38.5122 342.055 38.1112 342.055 37.6931C342.055 37.275 342.28 36.874 342.68 36.5783C343.08 36.2827 343.623 36.1166 344.188 36.1166Z" fill="white"/>
<path d="M348.809 19H322.726C321.738 19 320.79 19.3706 320.091 20.0303C319.393 20.69 319 21.5847 319 22.5177V64.7295C319 65.6624 319.393 66.5572 320.091 67.2169C320.79 67.8765 321.738 68.2472 322.726 68.2472H348.809C349.797 68.2472 350.745 67.8765 351.444 67.2169C352.142 66.5572 352.535 65.6624 352.535 64.7295V22.5177C352.535 21.5847 352.142 20.69 351.444 20.0303C350.745 19.3706 349.797 19 348.809 19ZM337.63 64.7295H333.904V61.2118H337.63V64.7295ZM322.726 57.6942V22.5177H348.809V57.6942H322.726Z" fill="white"/>
<path d="M320.525 84.8018C320.525 85.5127 320.434 86.1348 320.252 86.668C320.07 87.1969 319.804 87.637 319.452 87.9883C319.105 88.3353 318.678 88.5955 318.17 88.769C317.662 88.9425 317.057 89.0293 316.355 89.0293H314.616C314.518 89.0293 314.425 88.9976 314.336 88.9341C314.252 88.8664 314.209 88.75 314.209 88.585V81.2598C314.209 81.0947 314.252 80.9805 314.336 80.917C314.425 80.8493 314.518 80.8154 314.616 80.8154H316.475C317.186 80.8154 317.787 80.9085 318.278 81.0947C318.769 81.2767 319.18 81.5412 319.51 81.8882C319.844 82.231 320.096 82.6478 320.265 83.1387C320.438 83.6296 320.525 84.1839 320.525 84.8018ZM319.376 84.8462C319.376 84.4019 319.321 83.9893 319.211 83.6084C319.101 83.2233 318.928 82.8911 318.691 82.6118C318.458 82.3325 318.162 82.1146 317.802 81.958C317.442 81.8014 316.979 81.7231 316.412 81.7231H315.301V88.1152H316.425C316.949 88.1152 317.392 88.0496 317.751 87.9185C318.111 87.7873 318.411 87.5863 318.653 87.3154C318.894 87.0446 319.074 86.7061 319.192 86.2998C319.315 85.8893 319.376 85.4048 319.376 84.8462ZM322.874 88.8706C322.874 88.9045 322.866 88.9341 322.849 88.9595C322.832 88.9806 322.804 88.9997 322.766 89.0166C322.728 89.0335 322.675 89.0462 322.608 89.0547C322.54 89.0632 322.453 89.0674 322.347 89.0674C322.246 89.0674 322.161 89.0632 322.093 89.0547C322.026 89.0462 321.971 89.0335 321.928 89.0166C321.89 88.9997 321.863 88.9806 321.846 88.9595C321.833 88.9341 321.827 88.9045 321.827 88.8706V83.1577C321.827 83.1281 321.833 83.1006 321.846 83.0752C321.863 83.0498 321.89 83.0286 321.928 83.0117C321.971 82.9948 322.026 82.9821 322.093 82.9736C322.161 82.9652 322.246 82.9609 322.347 82.9609C322.453 82.9609 322.54 82.9652 322.608 82.9736C322.675 82.9821 322.728 82.9948 322.766 83.0117C322.804 83.0286 322.832 83.0498 322.849 83.0752C322.866 83.1006 322.874 83.1281 322.874 83.1577V88.8706ZM322.995 81.228C322.995 81.4735 322.948 81.6406 322.855 81.7295C322.762 81.8184 322.591 81.8628 322.341 81.8628C322.095 81.8628 321.926 81.8205 321.833 81.7358C321.744 81.647 321.7 81.4819 321.7 81.2407C321.7 80.9953 321.746 80.8281 321.839 80.7393C321.933 80.6504 322.104 80.606 322.354 80.606C322.599 80.606 322.766 80.6504 322.855 80.7393C322.948 80.8239 322.995 80.9868 322.995 81.228ZM328.854 88.877C328.854 88.9277 328.837 88.9658 328.803 88.9912C328.769 89.0166 328.723 89.0356 328.663 89.0483C328.604 89.061 328.517 89.0674 328.403 89.0674C328.293 89.0674 328.204 89.061 328.137 89.0483C328.073 89.0356 328.027 89.0166 327.997 88.9912C327.967 88.9658 327.952 88.9277 327.952 88.877V88.3057C327.703 88.5723 327.424 88.7796 327.115 88.9277C326.81 89.0758 326.486 89.1499 326.143 89.1499C325.843 89.1499 325.57 89.1097 325.325 89.0293C325.083 88.9531 324.876 88.841 324.702 88.6929C324.533 88.5448 324.4 88.3628 324.303 88.147C324.209 87.9312 324.163 87.6857 324.163 87.4106C324.163 87.089 324.229 86.8097 324.36 86.5728C324.491 86.3358 324.679 86.139 324.925 85.9824C325.17 85.8258 325.471 85.7095 325.826 85.6333C326.182 85.5529 326.581 85.5127 327.026 85.5127H327.813V85.0684C327.813 84.8483 327.79 84.6536 327.743 84.4844C327.696 84.3151 327.62 84.1755 327.515 84.0654C327.413 83.9512 327.28 83.8665 327.115 83.8115C326.95 83.7523 326.746 83.7227 326.505 83.7227C326.247 83.7227 326.014 83.7544 325.807 83.8179C325.604 83.8771 325.424 83.9448 325.267 84.021C325.115 84.0929 324.986 84.1606 324.88 84.2241C324.779 84.2834 324.702 84.313 324.652 84.313C324.618 84.313 324.588 84.3045 324.563 84.2876C324.537 84.2707 324.514 84.2453 324.493 84.2114C324.476 84.1776 324.463 84.1353 324.455 84.0845C324.446 84.0295 324.442 83.9702 324.442 83.9067C324.442 83.8009 324.449 83.7184 324.461 83.6592C324.478 83.5957 324.514 83.5365 324.569 83.4814C324.628 83.4264 324.728 83.363 324.868 83.291C325.007 83.2148 325.168 83.1471 325.35 83.0879C325.532 83.0244 325.731 82.9736 325.947 82.9355C326.162 82.8932 326.38 82.8721 326.6 82.8721C327.011 82.8721 327.36 82.9186 327.648 83.0117C327.936 83.1048 328.168 83.2424 328.346 83.4243C328.524 83.6021 328.653 83.8242 328.733 84.0908C328.814 84.3574 328.854 84.6685 328.854 85.0239V88.877ZM327.813 86.2681H326.918C326.63 86.2681 326.38 86.2935 326.169 86.3442C325.957 86.3908 325.782 86.4627 325.642 86.5601C325.502 86.6532 325.399 86.7674 325.331 86.9028C325.267 87.034 325.236 87.1864 325.236 87.3599C325.236 87.6561 325.329 87.8931 325.515 88.0708C325.705 88.2443 325.97 88.3311 326.308 88.3311C326.584 88.3311 326.837 88.2612 327.07 88.1216C327.307 87.9819 327.555 87.7682 327.813 87.4805V86.2681ZM335.297 83.418C335.297 83.5661 335.276 83.674 335.234 83.7417C335.195 83.8052 335.145 83.8369 335.081 83.8369H334.262C334.41 83.9893 334.514 84.1585 334.573 84.3447C334.633 84.5267 334.662 84.7171 334.662 84.916C334.662 85.2461 334.609 85.5381 334.504 85.792C334.398 86.0459 334.245 86.2617 334.047 86.4395C333.852 86.613 333.619 86.7463 333.348 86.8394C333.077 86.9325 332.777 86.979 332.447 86.979C332.214 86.979 331.992 86.9494 331.78 86.8901C331.573 86.8267 331.412 86.7484 331.298 86.6553C331.222 86.7314 331.158 86.8182 331.108 86.9155C331.061 87.0129 331.038 87.125 331.038 87.252C331.038 87.4001 331.105 87.5228 331.241 87.6201C331.38 87.7174 331.565 87.7703 331.793 87.7788L333.285 87.8423C333.568 87.8507 333.829 87.891 334.066 87.9629C334.303 88.0306 334.508 88.13 334.681 88.2612C334.855 88.3882 334.99 88.5469 335.088 88.7373C335.185 88.9235 335.234 89.1414 335.234 89.3911C335.234 89.6535 335.179 89.9032 335.068 90.1401C334.958 90.3771 334.789 90.5845 334.561 90.7622C334.336 90.9442 334.049 91.0859 333.697 91.1875C333.346 91.2933 332.931 91.3462 332.453 91.3462C331.992 91.3462 331.598 91.306 331.273 91.2256C330.951 91.1494 330.686 91.0436 330.479 90.9082C330.272 90.7728 330.122 90.6099 330.028 90.4194C329.935 90.2332 329.889 90.0301 329.889 89.8101C329.889 89.6704 329.906 89.535 329.94 89.4038C329.973 89.2726 330.024 89.1478 330.092 89.0293C330.164 88.9108 330.251 88.7987 330.352 88.6929C330.458 88.5828 330.579 88.4749 330.714 88.3691C330.507 88.2633 330.352 88.13 330.251 87.9692C330.153 87.8084 330.105 87.6349 330.105 87.4487C330.105 87.1906 330.158 86.96 330.263 86.7568C330.369 86.5537 330.5 86.3717 330.657 86.2109C330.526 86.0544 330.422 85.8787 330.346 85.6841C330.27 85.4852 330.232 85.2461 330.232 84.9668C330.232 84.641 330.287 84.349 330.397 84.0908C330.507 83.8327 330.659 83.6147 330.854 83.437C331.048 83.2593 331.281 83.1239 331.552 83.0308C331.827 82.9334 332.125 82.8848 332.447 82.8848C332.62 82.8848 332.781 82.8953 332.929 82.9165C333.082 82.9334 333.223 82.9588 333.355 82.9927H335.081C335.153 82.9927 335.206 83.0286 335.24 83.1006C335.278 83.1683 335.297 83.2741 335.297 83.418ZM333.659 84.9224C333.659 84.533 333.551 84.2305 333.336 84.0146C333.124 83.7946 332.821 83.6846 332.428 83.6846C332.225 83.6846 332.047 83.7184 331.895 83.7861C331.747 83.8538 331.622 83.9469 331.52 84.0654C331.423 84.1839 331.349 84.3215 331.298 84.478C331.251 84.6304 331.228 84.7912 331.228 84.9604C331.228 85.3371 331.334 85.6333 331.546 85.8491C331.761 86.0649 332.062 86.1729 332.447 86.1729C332.654 86.1729 332.834 86.1411 332.986 86.0776C333.139 86.0099 333.264 85.9189 333.361 85.8047C333.463 85.6862 333.537 85.5508 333.583 85.3984C333.634 85.2461 333.659 85.0874 333.659 84.9224ZM334.186 89.4482C334.186 89.2028 334.085 89.0145 333.881 88.8833C333.683 88.7479 333.412 88.6759 333.069 88.6675L331.59 88.6167C331.455 88.7225 331.342 88.8241 331.254 88.9214C331.169 89.0145 331.101 89.1034 331.05 89.188C331 89.2769 330.964 89.3636 330.942 89.4482C330.926 89.5329 330.917 89.6196 330.917 89.7085C330.917 89.9836 331.057 90.1909 331.336 90.3306C331.615 90.4744 332.005 90.5464 332.504 90.5464C332.821 90.5464 333.086 90.5146 333.297 90.4512C333.513 90.3919 333.687 90.3115 333.818 90.21C333.949 90.1084 334.042 89.992 334.097 89.8608C334.157 89.7297 334.186 89.5921 334.186 89.4482ZM341.302 88.8706C341.302 88.9045 341.294 88.9341 341.277 88.9595C341.26 88.9806 341.232 88.9997 341.194 89.0166C341.156 89.0335 341.103 89.0462 341.036 89.0547C340.968 89.0632 340.883 89.0674 340.782 89.0674C340.676 89.0674 340.589 89.0632 340.521 89.0547C340.454 89.0462 340.401 89.0335 340.363 89.0166C340.325 88.9997 340.297 88.9806 340.28 88.9595C340.263 88.9341 340.255 88.9045 340.255 88.8706V85.5254C340.255 85.1995 340.229 84.9372 340.179 84.7383C340.128 84.5394 340.054 84.368 339.956 84.2241C339.859 84.0802 339.732 83.9702 339.576 83.894C339.423 83.8179 339.245 83.7798 339.042 83.7798C338.78 83.7798 338.518 83.8729 338.255 84.0591C337.993 84.2453 337.718 84.5182 337.43 84.8779V88.8706C337.43 88.9045 337.422 88.9341 337.405 88.9595C337.388 88.9806 337.36 88.9997 337.322 89.0166C337.284 89.0335 337.231 89.0462 337.163 89.0547C337.096 89.0632 337.009 89.0674 336.903 89.0674C336.802 89.0674 336.717 89.0632 336.649 89.0547C336.582 89.0462 336.527 89.0335 336.484 89.0166C336.446 88.9997 336.419 88.9806 336.402 88.9595C336.389 88.9341 336.383 88.9045 336.383 88.8706V83.1577C336.383 83.1239 336.389 83.0964 336.402 83.0752C336.414 83.0498 336.44 83.0286 336.478 83.0117C336.516 82.9906 336.565 82.9779 336.624 82.9736C336.683 82.9652 336.761 82.9609 336.859 82.9609C336.952 82.9609 337.028 82.9652 337.087 82.9736C337.151 82.9779 337.199 82.9906 337.233 83.0117C337.267 83.0286 337.29 83.0498 337.303 83.0752C337.32 83.0964 337.328 83.1239 337.328 83.1577V83.9131C337.65 83.5534 337.97 83.291 338.287 83.126C338.609 82.9567 338.932 82.8721 339.258 82.8721C339.639 82.8721 339.959 82.9377 340.217 83.0688C340.479 83.1958 340.691 83.3672 340.851 83.583C341.012 83.7988 341.127 84.0527 341.194 84.3447C341.266 84.6325 341.302 84.9795 341.302 85.3857V88.8706ZM348.266 85.9507C348.266 86.4162 348.204 86.8457 348.082 87.2393C347.959 87.6286 347.775 87.965 347.529 88.2485C347.288 88.5321 346.984 88.7542 346.615 88.915C346.251 89.0716 345.828 89.1499 345.346 89.1499C344.876 89.1499 344.466 89.0801 344.114 88.9404C343.767 88.8008 343.478 88.5977 343.245 88.3311C343.012 88.0645 342.839 87.7407 342.724 87.3599C342.61 86.979 342.553 86.5474 342.553 86.0649C342.553 85.5994 342.612 85.172 342.731 84.7827C342.853 84.3892 343.035 84.0506 343.277 83.7671C343.522 83.4836 343.827 83.2635 344.191 83.1069C344.554 82.9504 344.98 82.8721 345.466 82.8721C345.936 82.8721 346.345 82.9419 346.692 83.0815C347.043 83.2212 347.335 83.4243 347.568 83.6909C347.8 83.9575 347.974 84.2812 348.088 84.6621C348.207 85.043 348.266 85.4725 348.266 85.9507ZM347.161 86.0205C347.161 85.7116 347.132 85.4196 347.072 85.1445C347.017 84.8695 346.924 84.6283 346.793 84.4209C346.662 84.2135 346.484 84.0506 346.26 83.9321C346.036 83.8094 345.756 83.748 345.422 83.748C345.113 83.748 344.846 83.8031 344.622 83.9131C344.402 84.0231 344.22 84.1797 344.076 84.3828C343.932 84.5817 343.825 84.8187 343.753 85.0938C343.685 85.3688 343.651 85.6693 343.651 85.9951C343.651 86.3083 343.679 86.6024 343.734 86.8774C343.793 87.1525 343.888 87.3937 344.019 87.6011C344.155 87.8042 344.334 87.9671 344.559 88.0898C344.783 88.2083 345.062 88.2676 345.397 88.2676C345.701 88.2676 345.966 88.2126 346.19 88.1025C346.414 87.9925 346.598 87.8381 346.742 87.6392C346.886 87.4403 346.992 87.2033 347.06 86.9282C347.127 86.6532 347.161 86.3506 347.161 86.0205ZM353.135 87.3154C353.135 87.6074 353.08 87.8677 352.97 88.0962C352.864 88.3247 352.711 88.5173 352.513 88.6738C352.314 88.8304 352.077 88.9489 351.802 89.0293C351.527 89.1097 351.224 89.1499 350.894 89.1499C350.691 89.1499 350.496 89.133 350.31 89.0991C350.128 89.0695 349.963 89.0314 349.815 88.9849C349.671 88.9341 349.548 88.8833 349.447 88.8325C349.345 88.7775 349.271 88.7288 349.225 88.6865C349.178 88.6442 349.144 88.585 349.123 88.5088C349.102 88.4326 349.091 88.3289 349.091 88.1978C349.091 88.1174 349.095 88.0496 349.104 87.9946C349.112 87.9396 349.123 87.8952 349.136 87.8613C349.148 87.8275 349.165 87.8042 349.186 87.7915C349.212 87.7746 349.239 87.7661 349.269 87.7661C349.315 87.7661 349.383 87.7957 349.472 87.855C349.565 87.91 349.677 87.9714 349.808 88.0391C349.944 88.1068 350.103 88.1702 350.285 88.2295C350.467 88.2845 350.676 88.312 350.913 88.312C351.091 88.312 351.252 88.293 351.395 88.2549C351.539 88.2168 351.664 88.1618 351.77 88.0898C351.876 88.0137 351.956 87.9185 352.011 87.8042C352.07 87.6899 352.1 87.5545 352.1 87.3979C352.1 87.2371 352.058 87.1017 351.973 86.9917C351.893 86.8817 351.785 86.7843 351.649 86.6997C351.514 86.6151 351.362 86.541 351.192 86.4775C351.023 86.4098 350.847 86.34 350.665 86.2681C350.488 86.1961 350.312 86.1157 350.139 86.0269C349.969 85.9338 349.817 85.8216 349.682 85.6904C349.546 85.5592 349.436 85.4027 349.351 85.2207C349.271 85.0387 349.231 84.8208 349.231 84.5669C349.231 84.3426 349.273 84.1289 349.358 83.9258C349.447 83.7184 349.578 83.5386 349.751 83.3862C349.925 83.2297 350.141 83.1048 350.399 83.0117C350.661 82.9186 350.966 82.8721 351.313 82.8721C351.465 82.8721 351.618 82.8848 351.77 82.9102C351.922 82.9355 352.06 82.9673 352.183 83.0054C352.305 83.0435 352.409 83.0858 352.494 83.1323C352.582 83.1746 352.648 83.2127 352.69 83.2466C352.737 83.2804 352.767 83.3101 352.779 83.3354C352.796 83.3608 352.807 83.3905 352.811 83.4243C352.819 83.4539 352.826 83.492 352.83 83.5386C352.838 83.5851 352.843 83.6423 352.843 83.71C352.843 83.7819 352.838 83.8454 352.83 83.9004C352.826 83.9512 352.815 83.9935 352.798 84.0273C352.786 84.0612 352.769 84.0866 352.747 84.1035C352.726 84.1162 352.703 84.1226 352.678 84.1226C352.64 84.1226 352.585 84.0993 352.513 84.0527C352.441 84.0062 352.348 83.9575 352.233 83.9067C352.119 83.8517 351.984 83.8009 351.827 83.7544C351.675 83.7078 351.499 83.6846 351.3 83.6846C351.122 83.6846 350.966 83.7057 350.83 83.748C350.695 83.7861 350.583 83.8433 350.494 83.9194C350.409 83.9914 350.344 84.0781 350.297 84.1797C350.255 84.2812 350.234 84.3913 350.234 84.5098C350.234 84.6748 350.276 84.8145 350.361 84.9287C350.445 85.0387 350.555 85.1361 350.691 85.2207C350.826 85.3053 350.981 85.3815 351.154 85.4492C351.328 85.5169 351.503 85.5868 351.681 85.6587C351.863 85.7306 352.041 85.811 352.214 85.8999C352.392 85.9888 352.549 86.0967 352.684 86.2236C352.819 86.3506 352.927 86.5029 353.008 86.6807C353.092 86.8584 353.135 87.07 353.135 87.3154ZM359.254 85.7666C359.254 85.9316 359.212 86.0501 359.127 86.1221C359.047 86.1898 358.954 86.2236 358.848 86.2236H355.103C355.103 86.541 355.134 86.8267 355.198 87.0806C355.261 87.3345 355.367 87.5524 355.515 87.7344C355.663 87.9163 355.856 88.056 356.093 88.1533C356.33 88.2507 356.62 88.2993 356.963 88.2993C357.233 88.2993 357.475 88.2782 357.686 88.2358C357.898 88.1893 358.08 88.1385 358.232 88.0835C358.389 88.0285 358.516 87.9798 358.613 87.9375C358.715 87.891 358.791 87.8677 358.841 87.8677C358.871 87.8677 358.896 87.8761 358.918 87.8931C358.943 87.9058 358.962 87.9269 358.975 87.9565C358.987 87.9862 358.996 88.0285 359 88.0835C359.009 88.1343 359.013 88.1978 359.013 88.2739C359.013 88.3289 359.011 88.3776 359.007 88.4199C359.002 88.458 358.996 88.494 358.987 88.5278C358.983 88.5575 358.973 88.585 358.956 88.6104C358.943 88.6357 358.924 88.6611 358.899 88.6865C358.877 88.7077 358.81 88.7458 358.695 88.8008C358.581 88.8516 358.433 88.9023 358.251 88.9531C358.069 89.0039 357.858 89.0483 357.616 89.0864C357.379 89.1287 357.125 89.1499 356.855 89.1499C356.385 89.1499 355.972 89.0843 355.617 88.9531C355.266 88.8219 354.969 88.6273 354.728 88.3691C354.487 88.111 354.305 87.7873 354.182 87.3979C354.06 87.0086 353.998 86.5558 353.998 86.0396C353.998 85.5487 354.062 85.1086 354.189 84.7192C354.316 84.3257 354.498 83.9935 354.735 83.7227C354.976 83.4476 355.266 83.2381 355.604 83.0942C355.943 82.9461 356.321 82.8721 356.74 82.8721C357.189 82.8721 357.57 82.944 357.883 83.0879C358.2 83.2318 358.461 83.4264 358.664 83.6719C358.867 83.9131 359.015 84.1987 359.108 84.5288C359.205 84.8547 359.254 85.2038 359.254 85.5762V85.7666ZM358.2 85.4556C358.213 84.9054 358.09 84.4738 357.832 84.1606C357.578 83.8475 357.2 83.6909 356.696 83.6909C356.438 83.6909 356.211 83.7396 356.017 83.8369C355.822 83.9342 355.659 84.0633 355.528 84.2241C355.397 84.3849 355.295 84.5732 355.223 84.7891C355.151 85.0007 355.111 85.2228 355.103 85.4556H358.2Z" fill="white"/>
<path d="M215.56 20.9803C216.404 20.9803 217.213 21.2942 217.81 21.8532C218.407 22.4121 218.742 23.1701 218.742 23.9605V47.8025C218.742 48.593 218.407 49.351 217.81 49.9099C217.213 50.4688 216.404 50.7828 215.56 50.7828H185.049C183.361 50.7831 181.742 51.4113 180.548 52.5292L174.183 58.4897V23.9605C174.183 23.1701 174.518 22.4121 175.115 21.8532C175.712 21.2942 176.522 20.9803 177.366 20.9803H215.56ZM177.366 18C175.677 18 174.058 18.628 172.864 19.7458C171.671 20.8636 171 22.3797 171 23.9605V62.0869C171 62.3818 171.094 62.67 171.269 62.9151C171.444 63.1601 171.692 63.3511 171.983 63.4637C172.275 63.5763 172.595 63.6056 172.903 63.5478C173.212 63.49 173.496 63.3477 173.718 63.1389L182.799 54.6363C183.396 54.0773 184.205 53.7632 185.049 53.7631H215.56C217.248 53.7631 218.867 53.1351 220.061 52.0173C221.255 50.8995 221.925 49.3834 221.925 47.8025V23.9605C221.925 22.3797 221.255 20.8636 220.061 19.7458C218.867 18.628 217.248 18 215.56 18H177.366Z" fill="white"/>
<path d="M180.549 28.4315C180.549 28.0363 180.716 27.6573 181.015 27.3779C181.313 27.0984 181.718 26.9414 182.14 26.9414H210.786C211.208 26.9414 211.613 27.0984 211.911 27.3779C212.209 27.6573 212.377 28.0363 212.377 28.4315C212.377 28.8267 212.209 29.2058 211.911 29.4852C211.613 29.7647 211.208 29.9217 210.786 29.9217H182.14C181.718 29.9217 181.313 29.7647 181.015 29.4852C180.716 29.2058 180.549 28.8267 180.549 28.4315ZM180.549 35.8822C180.549 35.487 180.716 35.1079 181.015 34.8285C181.313 34.549 181.718 34.392 182.14 34.392H210.786C211.208 34.392 211.613 34.549 211.911 34.8285C212.209 35.1079 212.377 35.487 212.377 35.8822C212.377 36.2774 212.209 36.6564 211.911 36.9359C211.613 37.2153 211.208 37.3723 210.786 37.3723H182.14C181.718 37.3723 181.313 37.2153 181.015 36.9359C180.716 36.6564 180.549 36.2774 180.549 35.8822ZM180.549 43.3328C180.549 42.9376 180.716 42.5586 181.015 42.2791C181.313 41.9997 181.718 41.8427 182.14 41.8427H198.054C198.476 41.8427 198.881 41.9997 199.18 42.2791C199.478 42.5586 199.646 42.9376 199.646 43.3328C199.646 43.728 199.478 44.107 199.18 44.3865C198.881 44.6659 198.476 44.8229 198.054 44.8229H182.14C181.718 44.8229 181.313 44.6659 181.015 44.3865C180.716 44.107 180.549 43.728 180.549 43.3328Z" fill="white"/>
<path d="M183.05 84.052C183.05 83.3153 183.197 82.674 183.492 82.128C183.786 81.5733 184.194 81.1443 184.714 80.841C185.242 80.5376 185.845 80.386 186.521 80.386C187.396 80.386 188.115 80.5983 188.679 81.023C189.251 81.4476 189.628 82.037 189.81 82.791H188.536C188.414 82.3576 188.176 82.0153 187.821 81.764C187.474 81.5126 187.041 81.387 186.521 81.387C185.845 81.387 185.299 81.621 184.883 82.089C184.467 82.5483 184.259 83.2026 184.259 84.052C184.259 84.91 184.467 85.573 184.883 86.041C185.299 86.509 185.845 86.743 186.521 86.743C187.041 86.743 187.474 86.6216 187.821 86.379C188.167 86.1363 188.406 85.7896 188.536 85.339H189.81C189.619 86.067 189.238 86.652 188.666 87.094C188.094 87.5273 187.379 87.744 186.521 87.744C185.845 87.744 185.242 87.5923 184.714 87.289C184.194 86.9856 183.786 86.5566 183.492 86.002C183.197 85.4473 183.05 84.7973 183.05 84.052ZM194.664 80.373C195.201 80.373 195.687 80.49 196.12 80.724C196.553 80.9493 196.891 81.2916 197.134 81.751C197.385 82.2103 197.511 82.7693 197.511 83.428V87.627H196.341V83.597C196.341 82.8863 196.163 82.3446 195.808 81.972C195.453 81.5906 194.967 81.4 194.352 81.4C193.728 81.4 193.23 81.595 192.857 81.985C192.493 82.375 192.311 82.9426 192.311 83.688V87.627H191.128V78.007H192.311V81.517C192.545 81.153 192.866 80.8713 193.273 80.672C193.689 80.4726 194.153 80.373 194.664 80.373ZM198.741 84.039C198.741 83.311 198.889 82.674 199.183 82.128C199.478 81.5733 199.881 81.1443 200.392 80.841C200.912 80.5376 201.489 80.386 202.121 80.386C202.746 80.386 203.287 80.5203 203.747 80.789C204.206 81.0576 204.548 81.3956 204.774 81.803V80.503H205.97V87.627H204.774V86.301C204.54 86.717 204.189 87.0636 203.721 87.341C203.261 87.6096 202.724 87.744 202.109 87.744C201.476 87.744 200.904 87.588 200.392 87.276C199.881 86.964 199.478 86.5263 199.183 85.963C198.889 85.3996 198.741 84.7583 198.741 84.039ZM204.774 84.052C204.774 83.5146 204.665 83.0466 204.449 82.648C204.232 82.2493 203.937 81.946 203.565 81.738C203.201 81.5213 202.798 81.413 202.356 81.413C201.914 81.413 201.511 81.517 201.147 81.725C200.782 81.933 200.492 82.2363 200.276 82.635C200.059 83.0336 199.95 83.5016 199.95 84.039C199.95 84.585 200.059 85.0616 200.276 85.469C200.492 85.8676 200.782 86.1753 201.147 86.392C201.511 86.6 201.914 86.704 202.356 86.704C202.798 86.704 203.201 86.6 203.565 86.392C203.937 86.1753 204.232 85.8676 204.449 85.469C204.665 85.0616 204.774 84.5893 204.774 84.052ZM209.152 81.478V85.677C209.152 86.0236 209.225 86.2706 209.373 86.418C209.52 86.5566 209.776 86.626 210.14 86.626H211.011V87.627H209.945C209.286 87.627 208.792 87.4753 208.463 87.172C208.133 86.8686 207.969 86.3703 207.969 85.677V81.478H207.046V80.503H207.969V78.709H209.152V80.503H211.011V81.478H209.152Z" fill="white"/>
<path d="M45.0609 14.8923C44.5035 13.5435 43.6996 12.3213 42.6944 11.294C41.6885 10.2637 40.5025 9.44492 39.2008 8.8822C37.8511 8.29637 36.4035 7.99652 34.9419 8.00003C32.8915 8.00003 30.891 8.58669 29.1525 9.69484C28.7366 9.95992 28.3415 10.2511 27.9672 10.5683C27.5929 10.2511 27.1977 9.95992 26.7818 9.69484C25.0433 8.58669 23.0428 8.00003 20.9924 8.00003C19.5159 8.00003 18.0852 8.29554 16.7335 8.8822C15.4276 9.44714 14.2506 10.2598 13.2399 11.294C12.2334 12.3201 11.4294 13.5426 10.8734 14.8923C10.2953 16.2959 10 17.7865 10 19.3205C10 20.7676 10.2828 22.2755 10.8443 23.8095C11.3143 25.0915 11.988 26.4213 12.849 27.7641C14.2131 29.8891 16.0889 32.1054 18.418 34.3521C22.2776 38.0764 26.0998 40.649 26.262 40.7533L27.2477 41.4138C27.6844 41.705 28.2458 41.705 28.6825 41.4138L29.6682 40.7533C29.8304 40.6446 33.6485 38.0764 37.5122 34.3521C39.8413 32.1054 41.7171 29.8891 43.0812 27.7641C43.9422 26.4213 44.6201 25.0915 45.0859 23.8095C45.6474 22.2755 45.9302 20.7676 45.9302 19.3205C45.9343 17.7865 45.6391 16.2959 45.0609 14.8923ZM27.9672 37.9764C27.9672 37.9764 13.1609 28.064 13.1609 19.3205C13.1609 14.8923 16.667 11.3027 20.9924 11.3027C24.0327 11.3027 26.6695 13.0758 27.9672 15.6658C29.2648 13.0758 31.9017 11.3027 34.9419 11.3027C39.2674 11.3027 42.7735 14.8923 42.7735 19.3205C42.7735 28.064 27.9672 37.9764 27.9672 37.9764Z" fill="white"/>
<path d="M64.8265 17.6094H37.8123C36.7888 17.6094 35.8072 17.989 35.0835 18.6648C34.3597 19.3406 33.9531 20.2571 33.9531 21.2128V64.4542C33.9531 65.4099 34.3597 66.3265 35.0835 67.0023C35.8072 67.678 36.7888 68.0577 37.8123 68.0577H64.8265C65.85 68.0577 66.8316 67.678 67.5554 67.0023C68.2791 66.3265 68.6857 65.4099 68.6857 64.4542V21.2128C68.6857 20.2571 68.2791 19.3406 67.5554 18.6648C66.8316 17.989 65.85 17.6094 64.8265 17.6094ZM53.249 64.4542H49.3898V60.8508H53.249V64.4542ZM37.8123 57.2473V21.2128H64.8265V57.2473H37.8123Z" fill="white"/>
<path d="M13.5928 24.3986H17.419L19.6939 22.884L21.8655 25.7042L24.2441 22.4141L26.4671 26.0175L29.0008 24.3986H41.1393" stroke="#F2FFFF" stroke-width="2" stroke-linecap="round" stroke-linejoin="round"/>
<path d="M30.4807 82.004V91H29.2977V84.292L26.3077 91H25.4757L22.4727 84.279V91H21.2897V82.004H22.5637L25.8917 89.44L29.2197 82.004H30.4807ZM35.3339 91.117C34.6666 91.117 34.0599 90.9653 33.5139 90.662C32.9766 90.3587 32.5519 89.9297 32.2399 89.375C31.9366 88.8117 31.7849 88.1617 31.7849 87.425C31.7849 86.697 31.9409 86.0557 32.2529 85.501C32.5736 84.9377 33.0069 84.5087 33.5529 84.214C34.0989 83.9107 34.7099 83.759 35.3859 83.759C36.0619 83.759 36.6729 83.9107 37.2189 84.214C37.7649 84.5087 38.1939 84.9333 38.5059 85.488C38.8266 86.0427 38.9869 86.6883 38.9869 87.425C38.9869 88.1617 38.8222 88.8117 38.4929 89.375C38.1722 89.9297 37.7346 90.3587 37.1799 90.662C36.6252 90.9653 36.0099 91.117 35.3339 91.117ZM35.3339 90.077C35.7586 90.077 36.1572 89.9773 36.5299 89.778C36.9026 89.5787 37.2016 89.2797 37.4269 88.881C37.6609 88.4823 37.7779 87.997 37.7779 87.425C37.7779 86.853 37.6652 86.3677 37.4399 85.969C37.2146 85.5703 36.9199 85.2757 36.5559 85.085C36.1919 84.8857 35.7976 84.786 35.3729 84.786C34.9396 84.786 34.5409 84.8857 34.1769 85.085C33.8216 85.2757 33.5356 85.5703 33.3189 85.969C33.1022 86.3677 32.9939 86.853 32.9939 87.425C32.9939 88.0057 33.0979 88.4953 33.3059 88.894C33.5226 89.2927 33.8086 89.5917 34.1639 89.791C34.5192 89.9817 34.9092 90.077 35.3339 90.077ZM43.7533 83.746C44.62 83.746 45.322 84.0103 45.8593 84.539C46.3967 85.059 46.6653 85.813 46.6653 86.801V91H45.4953V86.97C45.4953 86.2593 45.3177 85.7177 44.9623 85.345C44.607 84.9637 44.1217 84.773 43.5063 84.773C42.8823 84.773 42.384 84.968 42.0113 85.358C41.6473 85.748 41.4653 86.3157 41.4653 87.061V91H40.2823V83.876H41.4653V84.89C41.6993 84.526 42.0157 84.2443 42.4143 84.045C42.8217 83.8457 43.268 83.746 43.7533 83.746ZM48.9488 82.719C48.7234 82.719 48.5328 82.641 48.3768 82.485C48.2208 82.329 48.1428 82.1383 48.1428 81.913C48.1428 81.6877 48.2208 81.497 48.3768 81.341C48.5328 81.185 48.7234 81.107 48.9488 81.107C49.1654 81.107 49.3474 81.185 49.4948 81.341C49.6508 81.497 49.7288 81.6877 49.7288 81.913C49.7288 82.1383 49.6508 82.329 49.4948 82.485C49.3474 82.641 49.1654 82.719 48.9488 82.719ZM49.5208 83.876V91H48.3378V83.876H49.5208ZM52.72 84.851V89.05C52.72 89.3967 52.7937 89.6437 52.941 89.791C53.0883 89.9297 53.344 89.999 53.708 89.999H54.579V91H53.513C52.8543 91 52.3603 90.8483 52.031 90.545C51.7017 90.2417 51.537 89.7433 51.537 89.05V84.851H50.614V83.876H51.537V82.082H52.72V83.876H54.579V84.851H52.72ZM58.8593 91.117C58.192 91.117 57.5853 90.9653 57.0393 90.662C56.502 90.3587 56.0773 89.9297 55.7653 89.375C55.462 88.8117 55.3103 88.1617 55.3103 87.425C55.3103 86.697 55.4663 86.0557 55.7783 85.501C56.099 84.9377 56.5323 84.5087 57.0783 84.214C57.6243 83.9107 58.2353 83.759 58.9113 83.759C59.5873 83.759 60.1983 83.9107 60.7443 84.214C61.2903 84.5087 61.7193 84.9333 62.0313 85.488C62.352 86.0427 62.5123 86.6883 62.5123 87.425C62.5123 88.1617 62.3477 88.8117 62.0183 89.375C61.6977 89.9297 61.26 90.3587 60.7053 90.662C60.1507 90.9653 59.5353 91.117 58.8593 91.117ZM58.8593 90.077C59.284 90.077 59.6827 89.9773 60.0553 89.778C60.428 89.5787 60.727 89.2797 60.9523 88.881C61.1863 88.4823 61.3033 87.997 61.3033 87.425C61.3033 86.853 61.1907 86.3677 60.9653 85.969C60.74 85.5703 60.4453 85.2757 60.0813 85.085C59.7173 84.8857 59.323 84.786 58.8983 84.786C58.465 84.786 58.0663 84.8857 57.7023 85.085C57.347 85.2757 57.061 85.5703 56.8443 85.969C56.6277 86.3677 56.5193 86.853 56.5193 87.425C56.5193 88.0057 56.6233 88.4953 56.8313 88.894C57.048 89.2927 57.334 89.5917 57.6893 89.791C58.0447 89.9817 58.4347 90.077 58.8593 90.077ZM64.9908 85.033C65.1988 84.6257 65.4934 84.3093 65.8748 84.084C66.2648 83.8587 66.7371 83.746 67.2918 83.746V84.968H66.9798C65.6538 84.968 64.9908 85.6873 64.9908 87.126V91H63.8078V83.876H64.9908V85.033ZM69.0084 82.719C68.7831 82.719 68.5924 82.641 68.4364 82.485C68.2804 82.329 68.2024 82.1383 68.2024 81.913C68.2024 81.6877 68.2804 81.497 68.4364 81.341C68.5924 81.185 68.7831 81.107 69.0084 81.107C69.2251 81.107 69.4071 81.185 69.5544 81.341C69.7104 81.497 69.7884 81.6877 69.7884 81.913C69.7884 82.1383 69.7104 82.329 69.5544 82.485C69.4071 82.641 69.2251 82.719 69.0084 82.719ZM69.5804 83.876V91H68.3974V83.876H69.5804ZM74.8076 83.746C75.6743 83.746 76.3763 84.0103 76.9136 84.539C77.4509 85.059 77.7196 85.813 77.7196 86.801V91H76.5496V86.97C76.5496 86.2593 76.3719 85.7177 76.0166 85.345C75.6613 84.9637 75.1759 84.773 74.5606 84.773C73.9366 84.773 73.4383 84.968 73.0656 85.358C72.7016 85.748 72.5196 86.3157 72.5196 87.061V91H71.3366V83.876H72.5196V84.89C72.7536 84.526 73.0699 84.2443 73.4686 84.045C73.8759 83.8457 74.3223 83.746 74.8076 83.746ZM82.33 83.759C82.9454 83.759 83.4827 83.8933 83.942 84.162C84.41 84.4307 84.7567 84.7687 84.982 85.176V83.876H86.178V91.156C86.178 91.806 86.0394 92.3823 85.762 92.885C85.4847 93.3963 85.086 93.795 84.566 94.081C84.0547 94.367 83.4567 94.51 82.772 94.51C81.836 94.51 81.056 94.289 80.432 93.847C79.808 93.405 79.4397 92.8027 79.327 92.04H80.497C80.627 92.4733 80.8957 92.82 81.303 93.08C81.7104 93.3487 82.2 93.483 82.772 93.483C83.422 93.483 83.9507 93.2793 84.358 92.872C84.774 92.4647 84.982 91.8927 84.982 91.156V89.661C84.748 90.077 84.4014 90.4237 83.942 90.701C83.4827 90.9783 82.9454 91.117 82.33 91.117C81.6974 91.117 81.121 90.961 80.601 90.649C80.0897 90.337 79.6867 89.8993 79.392 89.336C79.0974 88.7727 78.95 88.1313 78.95 87.412C78.95 86.684 79.0974 86.047 79.392 85.501C79.6867 84.9463 80.0897 84.5173 80.601 84.214C81.121 83.9107 81.6974 83.759 82.33 83.759ZM84.982 87.425C84.982 86.8877 84.8737 86.4197 84.657 86.021C84.4404 85.6223 84.1457 85.319 83.773 85.111C83.409 84.8943 83.006 84.786 82.564 84.786C82.122 84.786 81.719 84.89 81.355 85.098C80.991 85.306 80.7007 85.6093 80.484 86.008C80.2674 86.4067 80.159 86.8747 80.159 87.412C80.159 87.958 80.2674 88.4347 80.484 88.842C80.7007 89.2407 80.991 89.5483 81.355 89.765C81.719 89.973 82.122 90.077 82.564 90.077C83.006 90.077 83.409 89.973 83.773 89.765C84.1457 89.5483 84.4404 89.2407 84.657 88.842C84.8737 88.4347 84.982 87.9623 84.982 87.425Z" fill="white"/>
</g>
<defs>
<clipPath id="clip0_510_195">
<rect width="425" height="401" fill="white"/>
</clipPath>
</defs>
</svg>
