<svg width="48" height="48" viewBox="0 0 48 48" fill="none" xmlns="http://www.w3.org/2000/svg">
<path d="M30 12.75H18C15.1005 12.75 12.75 15.1005 12.75 18V30C12.75 32.8995 15.1005 35.25 18 35.25H30C32.8995 35.25 35.25 32.8995 35.25 30V18C35.25 15.1005 32.8995 12.75 30 12.75Z" fill="#0C9093"/>
<path d="M31.5 9V3C31.5 2.60218 31.342 2.22064 31.0607 1.93934C30.7794 1.65804 30.3978 1.5 30 1.5H18C17.6022 1.5 17.2206 1.65804 16.9393 1.93934C16.658 2.22064 16.5 2.60218 16.5 3V9C14.5116 9.00223 12.6052 9.79313 11.1992 11.1992C9.79313 12.6052 9.00223 14.5116 9 16.5V31.5C9.00223 33.4884 9.79313 35.3948 11.1992 36.8008C12.6052 38.2069 14.5116 38.9978 16.5 39V45C16.5 45.3978 16.658 45.7794 16.9393 46.0607C17.2206 46.342 17.6022 46.5 18 46.5H30C30.3978 46.5 30.7794 46.342 31.0607 46.0607C31.342 45.7794 31.5 45.3978 31.5 45V39C33.4884 38.9978 35.3948 38.2069 36.8008 36.8008C38.2069 35.3948 38.9978 33.4884 39 31.5V16.5C38.9978 14.5116 38.2069 12.6052 36.8008 11.1992C35.3948 9.79313 33.4884 9.00223 31.5 9V9ZM36.75 30C36.748 31.7896 36.0362 33.5053 34.7708 34.7708C33.5053 36.0362 31.7896 36.748 30 36.75H18C16.2104 36.748 14.4947 36.0362 13.2292 34.7708C11.9638 33.5053 11.252 31.7896 11.25 30V18C11.252 16.2104 11.9638 14.4947 13.2292 13.2292C14.4947 11.9638 16.2104 11.252 18 11.25H30C31.7896 11.252 33.5053 11.9638 34.7708 13.2292C36.0362 14.4947 36.748 16.2104 36.75 18V30Z" fill="#0C9093"/>
</svg>
