<svg width="200" height="200" viewBox="0 0 200 200" fill="none" xmlns="http://www.w3.org/2000/svg">
<circle cx="100" cy="100" r="98.5" stroke="#4FCACA" stroke-width="3" stroke-dasharray="12 12"/>
<path d="M99.5 82.667L86.375 90.0316V104.761L99.5 112.125L112.625 104.761V90.0316L99.5 82.667ZM106.137 91.252L99.4431 95.0058L92.8063 91.2814L99.5 87.5276L106.137 91.252ZM90.7062 94.9637L97.1987 98.6081V105.973L90.7062 102.333V94.9637ZM101.53 106.128V98.6923L108.294 94.8964V102.333L101.53 106.128Z" fill="#4FCACA"/>
<path d="M60.125 49L47 56.3646V71.0937L60.125 78.4583L73.25 71.0937V56.3646L60.125 49ZM66.7619 57.585L60.0681 61.3388L53.4313 57.6144L60.125 53.8606L66.7619 57.585ZM51.3313 61.2925L57.8237 64.9369V72.3015L51.3313 68.6697V61.2925ZM62.155 72.4572V65.0253L68.9188 61.2294V68.6655L62.155 72.4572Z" fill="#4FCACA"/>
<path d="M60.125 120.542L47 127.907V142.636L60.125 150L73.25 142.636V127.907L60.125 120.542ZM66.7619 129.127L60.0681 132.881L53.4313 129.156L60.125 125.403L66.7619 129.127ZM51.3313 132.839L57.8237 136.483V143.848L51.3313 140.212V132.839ZM62.155 144.003V136.567L68.9188 132.771V140.208L62.155 144.003Z" fill="#4FCACA"/>
<path d="M138.875 49L125.75 56.3646V71.0937L138.875 78.4583L152 71.0937V56.3646L138.875 49ZM145.512 57.585L138.818 61.3388L132.181 57.6144L138.875 53.8606L145.512 57.585ZM130.081 61.2967L136.574 64.9411V72.3057L130.081 68.6655V61.2967ZM140.905 72.4614V65.0253L147.669 61.2294V68.6655L140.905 72.4614Z" fill="#4FCACA"/>
<path d="M138.875 120.542L125.75 127.907V142.636L138.875 150L152 142.636V127.907L138.875 120.542ZM145.512 129.127L138.818 132.881L132.181 129.156L138.875 125.403L145.512 129.127ZM130.081 132.839L136.574 136.483V143.848L130.081 140.208V132.839ZM140.905 144.003V136.567L147.669 132.771V140.208L140.905 144.003Z" fill="#4FCACA"/>
<path d="M86.375 61.625H112.625V65.8333H86.375V61.625Z" fill="#4FCACA"/>
<path d="M86.375 133.167H112.625V137.375H86.375V133.167Z" fill="#4FCACA"/>
<path d="M62.3125 86.875V112.125H57.9375V86.875H62.3125Z" fill="#4FCACA"/>
<path d="M78.9073 86.1512L69.6191 77.2295L72.7166 74.25L82.0004 83.1759L78.9073 86.1512Z" fill="#4FCACA"/>
<path d="M117 83.9005L126.279 74.9746L129.372 77.9499L120.097 86.8758L117 83.9005Z" fill="#4FCACA"/>
<path d="M82.5644 111.612L73.285 120.542L70.1875 117.562L79.4712 108.641L82.5644 111.612Z" fill="#4FCACA"/>
<path d="M120.846 108.46L130.125 117.386L127.032 120.361L117.753 111.435L120.846 108.46Z" fill="#4FCACA"/>
<path d="M141.062 86.875V112.125H136.688V86.875H141.062Z" fill="#4FCACA"/>
</svg>
