<svg width="39" height="38" viewBox="0 0 39 38" fill="none" xmlns="http://www.w3.org/2000/svg">
<path d="M19.7103 12.3699L14.8879 15.0758V20.4875L19.7103 23.1934L24.5327 20.4875V15.0758L19.7103 12.3699ZM22.1488 15.5242L19.6894 16.9034L17.2509 15.535L19.7103 14.1558L22.1488 15.5242ZM16.4793 16.8879L18.8648 18.227V20.9329L16.4793 19.5954V16.8879ZM20.4562 20.9901V18.2579L22.9413 16.8632V19.5954L20.4562 20.9901Z" fill="#0C9093"/>
<path d="M19.7103 12.3699L14.8879 15.0758V20.4875L19.7103 23.1934L24.5327 20.4875V15.0758L19.7103 12.3699ZM22.1488 15.5242L19.6894 16.9034L17.2509 15.535L19.7103 14.1558L22.1488 15.5242ZM16.4793 16.8879L18.8648 18.227V20.9329L16.4793 19.5954V16.8879ZM20.4562 20.9901V18.2579L22.9413 16.8632V19.5954L20.4562 20.9901Z" fill="#0C9093"/>
<path d="M5.24329 0L0.420898 2.70589V8.11767L5.24329 10.8236L10.0657 8.11767V2.70589L5.24329 0ZM7.68181 3.1543L5.22239 4.53353L2.78387 3.16512L5.24329 1.78589L7.68181 3.1543ZM2.01229 4.51652L4.39776 5.85555V8.56144L2.01229 7.22705V4.51652ZM5.98915 8.61865V5.88802L8.47429 4.49333V7.2255L5.98915 8.61865Z" fill="#0C9093"/>
<path d="M5.24329 0L0.420898 2.70589V8.11767L5.24329 10.8236L10.0657 8.11767V2.70589L5.24329 0ZM7.68181 3.1543L5.22239 4.53353L2.78387 3.16512L5.24329 1.78589L7.68181 3.1543ZM2.01229 4.51652L4.39776 5.85555V8.56144L2.01229 7.22705V4.51652ZM5.98915 8.61865V5.88802L8.47429 4.49333V7.2255L5.98915 8.61865Z" fill="#0C9093"/>
<path d="M5.24329 26.286L0.420898 28.9919V34.4037L5.24329 37.1096L10.0657 34.4037V28.9919L5.24329 26.286ZM7.68181 29.4403L5.22239 30.8195L2.78387 29.4511L5.24329 28.0719L7.68181 29.4403ZM2.01229 30.8041L4.39776 32.1431V34.849L2.01229 33.5131V30.8041ZM5.98915 34.9062V32.174L8.47429 30.7793V33.5115L5.98915 34.9062Z" fill="#0C9093"/>
<path d="M5.24329 26.286L0.420898 28.9919V34.4037L5.24329 37.1096L10.0657 34.4037V28.9919L5.24329 26.286ZM7.68181 29.4403L5.22239 30.8195L2.78387 29.4511L5.24329 28.0719L7.68181 29.4403ZM2.01229 30.8041L4.39776 32.1431V34.849L2.01229 33.5131V30.8041ZM5.98915 34.9062V32.174L8.47429 30.7793V33.5115L5.98915 34.9062Z" fill="#0C9093"/>
<path d="M34.1776 0L29.3552 2.70589V8.11767L34.1776 10.8236L39 8.11767V2.70589L34.1776 0ZM36.6161 3.1543L34.1567 4.53353L31.7182 3.16512L34.1776 1.78589L36.6161 3.1543ZM30.9466 4.51807L33.3321 5.85709V8.56299L30.9466 7.2255V4.51807ZM34.9235 8.6202V5.88802L37.4086 4.49333V7.2255L34.9235 8.6202Z" fill="#0C9093"/>
<path d="M34.1776 0L29.3552 2.70589V8.11767L34.1776 10.8236L39 8.11767V2.70589L34.1776 0ZM36.6161 3.1543L34.1567 4.53353L31.7182 3.16512L34.1776 1.78589L36.6161 3.1543ZM30.9466 4.51807L33.3321 5.85709V8.56299L30.9466 7.2255V4.51807ZM34.9235 8.6202V5.88802L37.4086 4.49333V7.2255L34.9235 8.6202Z" fill="#0C9093"/>
<path d="M34.1776 26.286L29.3552 28.9919V34.4037L34.1776 37.1096L39 34.4037V28.9919L34.1776 26.286ZM36.6161 29.4403L34.1567 30.8195L31.7182 29.4511L34.1776 28.0719L36.6161 29.4403ZM30.9466 30.8041L33.3321 32.1431V34.849L30.9466 33.5115V30.8041ZM34.9235 34.9062V32.174L37.4086 30.7793V33.5115L34.9235 34.9062Z" fill="#0C9093"/>
<path d="M34.1776 26.286L29.3552 28.9919V34.4037L34.1776 37.1096L39 34.4037V28.9919L34.1776 26.286ZM36.6161 29.4403L34.1567 30.8195L31.7182 29.4511L34.1776 28.0719L36.6161 29.4403ZM30.9466 30.8041L33.3321 32.1431V34.849L30.9466 33.5115V30.8041ZM34.9235 34.9062V32.174L37.4086 30.7793V33.5115L34.9235 34.9062Z" fill="#0C9093"/>
<path d="M14.8879 4.63867H24.5327V6.1849H14.8879V4.63867Z" fill="#0C9093"/>
<path d="M14.8879 4.63867H24.5327V6.1849H14.8879V4.63867Z" fill="#0C9093"/>
<path d="M14.8879 30.9248H24.5327V32.471H14.8879V30.9248Z" fill="#0C9093"/>
<path d="M14.8879 30.9248H24.5327V32.471H14.8879V30.9248Z" fill="#0C9093"/>
<path d="M6.04698 13.916V23.1934H4.43951V13.916H6.04698Z" fill="#0C9093"/>
<path d="M6.04698 13.916V23.1934H4.43951V13.916H6.04698Z" fill="#0C9093"/>
<path d="M12.1443 13.6501L8.73163 10.3721L9.86971 9.27734L13.2807 12.5569L12.1443 13.6501Z" fill="#0C9093"/>
<path d="M12.1443 13.6501L8.73163 10.3721L9.86971 9.27734L13.2807 12.5569L12.1443 13.6501Z" fill="#0C9093"/>
<path d="M26.1403 12.8231L29.5497 9.54358L30.6862 10.6368L27.2784 13.9163L26.1403 12.8231Z" fill="#0C9093"/>
<path d="M26.1403 12.8231L29.5497 9.54358L30.6862 10.6368L27.2784 13.9163L26.1403 12.8231Z" fill="#0C9093"/>
<path d="M13.488 23.0047L10.0786 26.2858L8.94049 25.1911L12.3515 21.9131L13.488 23.0047Z" fill="#0C9093"/>
<path d="M13.488 23.0047L10.0786 26.2858L8.94049 25.1911L12.3515 21.9131L13.488 23.0047Z" fill="#0C9093"/>
<path d="M27.5535 21.8467L30.9629 25.1262L29.8264 26.2194L26.417 22.9399L27.5535 21.8467Z" fill="#0C9093"/>
<path d="M27.5535 21.8467L30.9629 25.1262L29.8264 26.2194L26.417 22.9399L27.5535 21.8467Z" fill="#0C9093"/>
<path d="M34.9812 13.916V23.1934H33.3738V13.916H34.9812Z" fill="#0C9093"/>
<path d="M34.9812 13.916V23.1934H33.3738V13.916H34.9812Z" fill="#0C9093"/>
</svg>
