<svg width="356" height="410" viewBox="0 0 356 410" fill="none" xmlns="http://www.w3.org/2000/svg">
<path d="M336.001 384.499L177.372 4.70508H52.9414" stroke="#092323" stroke-dasharray="5 5"/>
<path d="M175.881 5.88281V362.353H52.3516" stroke="#092323" stroke-dasharray="5 5"/>
<path d="M175.882 104.707L51.1758 104.707" stroke="#092323" stroke-dasharray="5 5"/>
<path d="M175.881 180L52.3516 180" stroke="#092323" stroke-dasharray="5 5"/>
<path d="M175.293 271.176L52.3516 271.176" stroke="#092323" stroke-dasharray="5 5"/>
<circle cx="46.4715" cy="4.70588" r="4.70588" fill="#4DC9C9"/>
<circle cx="46.4715" cy="104.706" r="4.70588" fill="#4DC9C9"/>
<circle cx="46.4715" cy="180.001" r="4.70588" fill="#4DC9C9"/>
<circle cx="46.4715" cy="271.177" r="4.70588" fill="#4DC9C9"/>
<circle cx="46.4715" cy="362.352" r="4.70588" fill="#4DC9C9"/>
<path fill-rule="evenodd" clip-rule="evenodd" d="M30.1793 167.655C30.1793 166.873 30.5107 166.124 31.1006 165.571C31.6904 165.018 32.4905 164.707 33.3247 164.707C34.1589 164.707 34.959 165.018 35.5489 165.571C36.1387 166.124 36.4701 166.873 36.4701 167.655V172.71C36.4701 174.043 35.5265 175.17 34.2306 175.534C34.2378 176.422 34.2495 177.282 34.262 178.112C34.307 181.248 34.3447 183.967 34.094 186.203C33.7345 189.407 32.754 191.927 30.0894 193.398C27.0635 195.07 22.7156 195.575 19.1514 195.155C17.363 194.943 15.6861 194.489 14.4288 193.77C13.5166 193.248 12.7608 192.54 12.4121 191.644C10.5383 191.566 8.67356 191.247 7.1997 190.674C5.61351 190.057 4.11719 188.989 4.11719 187.317V170.707H4.11988C4.11811 170.672 4.11721 170.638 4.11719 170.604C4.11719 168.278 8.14064 166.392 13.1041 166.392C18.0676 166.392 22.091 168.278 22.091 170.604C22.091 170.638 22.0901 170.673 22.0883 170.707H22.091V175.718C22.4673 175.768 22.8379 175.851 23.1982 175.964C24.5386 176.388 25.6876 177.223 26.4597 178.334C27.2319 179.445 27.5822 180.767 27.4542 182.088C27.3261 183.408 26.7272 184.65 25.754 185.612C24.7808 186.575 23.4901 187.202 22.0901 187.392C22.0488 189.089 20.601 190.163 19.004 190.773C17.7018 191.27 16.1013 191.548 14.462 191.634C14.6786 191.875 14.9761 192.109 15.3661 192.332C16.3304 192.885 17.7342 193.289 19.3761 193.483C22.6725 193.872 26.589 193.376 29.1763 191.947C31.1022 190.884 31.9677 189.043 32.3065 186.026C32.5455 183.895 32.5096 181.332 32.4656 178.256V178.255C32.453 177.391 32.4404 176.485 32.4323 175.538C31.7816 175.357 31.2107 174.984 30.8047 174.475C30.3986 173.965 30.1793 173.346 30.1793 172.71V167.655ZM18.6553 172.075C20.0906 171.402 20.2937 170.785 20.2937 170.604C20.2937 170.423 20.0906 169.805 18.6553 169.132C17.3271 168.51 15.367 168.077 13.1041 168.077C10.8412 168.077 8.88026 168.51 7.55289 169.132C6.11768 169.805 5.91457 170.423 5.91457 170.604C5.91457 170.785 6.11768 171.402 7.55289 172.075C8.88116 172.697 10.8412 173.131 13.1041 173.131C15.367 173.131 17.328 172.697 18.6553 172.075ZM13.1041 174.816C16.0437 174.816 18.6535 174.155 20.2937 173.131V175.717C19.9173 175.768 19.5467 175.85 19.1865 175.964C17.8461 176.388 16.6971 177.222 15.9248 178.333C15.1525 179.444 14.8019 180.766 14.9296 182.087C15.0573 183.407 15.6559 184.649 16.6288 185.611C17.6016 186.574 18.8921 187.201 20.2919 187.392C20.2514 188.047 19.6861 188.694 18.3255 189.212C16.9559 189.736 15.0624 189.998 13.114 189.978C12.8382 189.975 12.5626 189.966 12.2872 189.952V174.799C12.5568 174.81 12.8291 174.816 13.1041 174.816V174.816ZM21.1924 177.764L19.8443 181.976L21.1924 183.661L22.5404 181.976L21.1924 177.764Z" fill="#12A3A9"/>
<path d="M25.2433 274.573V257.365H18.4878V274.569C16.1183 275.721 14.4784 278.017 14.4784 280.689C14.5076 282.506 15.2988 284.239 16.6813 285.514C18.0638 286.79 19.9265 287.505 21.8672 287.505C23.808 287.505 25.6709 286.79 27.0537 285.516C28.4365 284.241 29.2282 282.507 29.2577 280.691C29.2577 278.018 27.6195 275.722 25.245 274.574L25.2433 274.573ZM30.3099 252.024C30.3099 247.666 26.5201 244.117 21.8655 244.117C17.211 244.117 13.4212 247.667 13.4212 252.024V272.148C12.156 273.233 11.1459 274.552 10.4553 276.022C9.76471 277.493 9.40877 279.081 9.41016 280.687C9.41016 287.117 15.0003 292.352 21.8672 292.352C28.7342 292.352 34.3226 287.118 34.3226 280.687C34.3226 277.389 32.8398 274.315 30.3116 272.145V252.027L30.3099 252.024ZM30.9432 280.692C30.9401 282.945 29.9825 285.105 28.2807 286.697C26.5788 288.29 24.2717 289.185 21.8655 289.187C19.4599 289.184 17.1536 288.288 15.4525 286.695C13.7514 285.102 12.7944 282.943 12.7913 280.691C12.7913 277.852 14.3045 275.246 16.804 273.673V252.027C16.804 249.413 19.0722 247.283 21.8655 247.283C24.6589 247.283 26.9321 249.411 26.9321 252.027V273.674C28.166 274.444 29.1777 275.488 29.8774 276.712C30.5771 277.935 30.9432 279.302 30.9432 280.691V280.692ZM32.9867 257.365L40.5866 261.473V253.26L32.9867 257.365V257.365Z" fill="#12A3A9"/>
<path d="M27.4505 92.3535H5.48974C4.7317 92.3535 4.11719 93.0448 4.11719 93.8976V109.339C4.11719 110.192 4.7317 110.883 5.48974 110.883H27.4505C28.2086 110.883 28.8231 110.192 28.8231 109.339V93.8976C28.8231 93.0448 28.2086 92.3535 27.4505 92.3535Z" stroke="#12A3A9" stroke-width="4" stroke-linecap="round" stroke-linejoin="round"/>
<path d="M9.60938 117.059H23.3349" stroke="#12A3A9" stroke-width="4" stroke-linecap="round" stroke-linejoin="round"/>
<path d="M12.3516 110.883V117.059" stroke="#12A3A9" stroke-width="4" stroke-linecap="round" stroke-linejoin="round"/>
<path d="M20.5859 110.883V117.059" stroke="#12A3A9" stroke-width="4" stroke-linecap="round" stroke-linejoin="round"/>
<path d="M9.60938 101.619H12.3545L15.0995 106.251L17.8446 96.9863L19.2172 101.619H23.3348" stroke="#12A3A9" stroke-width="4" stroke-linecap="round" stroke-linejoin="round"/>
<path d="M9.41016 362.058H13.0964L17.7043 354.117L21.3905 370L26.92 358.088L30.7813 366.029L33.3709 362.058H37.0572" stroke="#12A3A9" stroke-width="4" stroke-linecap="round" stroke-linejoin="round"/>
<path fill-rule="evenodd" clip-rule="evenodd" d="M2.25132 2.1891C0.809822 3.59075 0 5.49181 0 7.47405V18.6851C0 20.6674 0.809822 22.5684 2.25132 23.9701C3.69281 25.3717 5.64791 26.1592 7.68649 26.1592C9.72508 26.1592 11.6802 25.3717 13.1217 23.9701C14.5632 22.5684 15.373 20.6674 15.373 18.6851V7.47405C15.373 5.49181 14.5632 3.59075 13.1217 2.1891C11.6802 0.787441 9.72508 0 7.68649 0C5.64791 0 3.69281 0.787441 2.25132 2.1891ZM4.9689 4.83158C5.68965 4.13075 6.6672 3.73702 7.68649 3.73702C8.70578 3.73702 9.68333 4.13075 10.4041 4.83158C11.1248 5.5324 11.5297 6.48293 11.5297 7.47405V18.6851C11.5297 19.6762 11.1248 20.6268 10.4041 21.3276C9.68333 22.0284 8.70578 22.4221 7.68649 22.4221C6.6672 22.4221 5.68965 22.0284 4.9689 21.3276C4.24815 20.6268 3.84324 19.6762 3.84324 18.6851V7.47405C3.84324 6.48293 4.24815 5.5324 4.9689 4.83158ZM23.0595 16.8166H17.2946V13.0796H23.0595C24.5884 13.0796 26.0547 13.6702 27.1359 14.7214C28.217 15.7726 28.8243 17.1984 28.8243 18.6851C28.8243 20.1718 28.217 21.5976 27.1359 22.6488C26.0547 23.7001 24.5884 24.2907 23.0595 24.2907C22.5498 24.2907 22.0611 24.4875 21.7007 24.8379C21.3403 25.1883 21.1379 25.6636 21.1379 26.1592V28.0277H28.8243V31.7647H19.2162C18.7066 31.7647 18.2178 31.5678 17.8574 31.2174C17.4971 30.867 17.2946 30.3918 17.2946 29.8962V26.1592C17.2946 24.6725 17.902 23.2467 18.9831 22.1955C20.0642 21.1442 21.5305 20.5536 23.0595 20.5536C23.5691 20.5536 24.0579 20.3568 24.4183 20.0064C24.7786 19.6559 24.9811 19.1807 24.9811 18.6851C24.9811 18.1896 24.7786 17.7143 24.4183 17.3639C24.0579 17.0135 23.5691 16.8166 23.0595 16.8166Z" fill="#12A3A9"/>
<path opacity="0.6" d="M58.7254 45.8865C57.5787 45.8865 56.6107 45.6332 55.8214 45.1265C55.0321 44.6145 54.4347 43.9078 54.0294 43.0065C53.6241 42.1052 53.4214 41.0652 53.4214 39.8865C53.4214 38.7078 53.6241 37.6678 54.0294 36.7665C54.4347 35.8652 55.0321 35.1612 55.8214 34.6545C56.6107 34.1425 57.5787 33.8865 58.7254 33.8865C59.8774 33.8865 60.8454 34.1425 61.6294 34.6545C62.4187 35.1612 63.0161 35.8652 63.4214 36.7665C63.8321 37.6678 64.0374 38.7078 64.0374 39.8865C64.0374 41.0652 63.8321 42.1052 63.4214 43.0065C63.0161 43.9078 62.4187 44.6145 61.6294 45.1265C60.8454 45.6332 59.8774 45.8865 58.7254 45.8865ZM58.7254 44.7585C59.6267 44.7585 60.3787 44.5532 60.9814 44.1425C61.5841 43.7318 62.0347 43.1612 62.3334 42.4305C62.6374 41.6945 62.7894 40.8465 62.7894 39.8865C62.7894 38.9265 62.6374 38.0812 62.3334 37.3505C62.0347 36.6198 61.5841 36.0492 60.9814 35.6385C60.3787 35.2278 59.6267 35.0198 58.7254 35.0145C57.8241 35.0145 57.0747 35.2198 56.4774 35.6305C55.8801 36.0412 55.4294 36.6145 55.1254 37.3505C54.8267 38.0812 54.6747 38.9265 54.6694 39.8865C54.6641 40.8465 54.8107 41.6918 55.1094 42.4225C55.4134 43.1478 55.8667 43.7185 56.4694 44.1345C57.0721 44.5452 57.8241 44.7532 58.7254 44.7585ZM64.367 45.6465L67.743 41.2785L64.439 37.0065H65.847L68.431 40.3745L70.991 37.0065H72.399L69.095 41.2785L72.479 45.6465H71.063L68.431 42.1825L65.783 45.6465H64.367ZM74.9965 49.4865L76.6685 44.9505L76.6925 46.2945L72.9085 37.0065H74.1565L77.2605 44.7745H76.7485L79.6125 37.0065H80.8125L76.1725 49.4865H74.9965ZM85.4309 49.7265C84.9882 49.7265 84.5509 49.6598 84.1189 49.5265C83.6922 49.3985 83.2976 49.1932 82.9349 48.9105C82.5722 48.6332 82.2682 48.2705 82.0229 47.8225L83.0869 47.2305C83.3269 47.7105 83.6629 48.0545 84.0949 48.2625C84.5322 48.4758 84.9776 48.5825 85.4309 48.5825C86.0549 48.5825 86.5589 48.4652 86.9429 48.2305C87.3322 48.0012 87.6149 47.6598 87.7909 47.2065C87.9669 46.7532 88.0522 46.1878 88.0469 45.5105V43.2065H88.1829V37.0065H89.2309V45.5265C89.2309 45.7718 89.2229 46.0065 89.2069 46.2305C89.1962 46.4598 89.1722 46.6838 89.1349 46.9025C89.0336 47.5478 88.8229 48.0785 88.5029 48.4945C88.1882 48.9105 87.7722 49.2198 87.2549 49.4225C86.7429 49.6252 86.1349 49.7265 85.4309 49.7265ZM85.3509 45.8865C84.5456 45.8865 83.8576 45.6865 83.2869 45.2865C82.7162 44.8812 82.2789 44.3345 81.9749 43.6465C81.6709 42.9585 81.5189 42.1825 81.5189 41.3185C81.5189 40.4598 81.6682 39.6865 81.9669 38.9985C82.2709 38.3105 82.7056 37.7665 83.2709 37.3665C83.8362 36.9665 84.5136 36.7665 85.3029 36.7665C86.1136 36.7665 86.7962 36.9638 87.3509 37.3585C87.9056 37.7532 88.3242 38.2945 88.6069 38.9825C88.8949 39.6652 89.0389 40.4438 89.0389 41.3185C89.0389 42.1772 88.8976 42.9532 88.6149 43.6465C88.3322 44.3345 87.9162 44.8812 87.3669 45.2865C86.8176 45.6865 86.1456 45.8865 85.3509 45.8865ZM85.4709 44.7905C86.0842 44.7905 86.5909 44.6412 86.9909 44.3425C87.3909 44.0438 87.6896 43.6332 87.8869 43.1105C88.0842 42.5825 88.1829 41.9852 88.1829 41.3185C88.1829 40.6412 88.0842 40.0438 87.8869 39.5265C87.6896 39.0038 87.3909 38.5958 86.9909 38.3025C86.5962 38.0092 86.0976 37.8625 85.4949 37.8625C84.8762 37.8625 84.3642 38.0145 83.9589 38.3185C83.5536 38.6225 83.2522 39.0358 83.0549 39.5585C82.8629 40.0812 82.7669 40.6678 82.7669 41.3185C82.7669 41.9745 82.8656 42.5665 83.0629 43.0945C83.2656 43.6172 83.5669 44.0305 83.9669 44.3345C84.3669 44.6385 84.8682 44.7905 85.4709 44.7905ZM95.1237 45.8865C94.281 45.8865 93.5503 45.6998 92.9317 45.3265C92.3183 44.9532 91.841 44.4278 91.4997 43.7505C91.1583 43.0732 90.9877 42.2785 90.9877 41.3665C90.9877 40.4225 91.1557 39.6065 91.4917 38.9185C91.8277 38.2305 92.2997 37.6998 92.9077 37.3265C93.521 36.9532 94.2437 36.7665 95.0757 36.7665C95.929 36.7665 96.657 36.9638 97.2597 37.3585C97.8623 37.7478 98.3183 38.3078 98.6277 39.0385C98.937 39.7692 99.0783 40.6412 99.0517 41.6545H97.8517V41.2385C97.8303 40.1185 97.5877 39.2732 97.1237 38.7025C96.665 38.1318 95.993 37.8465 95.1077 37.8465C94.1797 37.8465 93.4677 38.1478 92.9717 38.7505C92.481 39.3532 92.2357 40.2118 92.2357 41.3265C92.2357 42.4145 92.481 43.2598 92.9717 43.8625C93.4677 44.4598 94.169 44.7585 95.0757 44.7585C95.6943 44.7585 96.233 44.6172 96.6917 44.3345C97.1557 44.0465 97.521 43.6332 97.7877 43.0945L98.8837 43.5185C98.5423 44.2705 98.0383 44.8545 97.3717 45.2705C96.7103 45.6812 95.961 45.8865 95.1237 45.8865ZM91.8197 41.6545V40.6705H98.4197V41.6545H91.8197ZM106.833 45.6465V41.2385C106.833 40.7585 106.787 40.3185 106.697 39.9185C106.606 39.5132 106.459 39.1612 106.257 38.8625C106.059 38.5585 105.801 38.3238 105.481 38.1585C105.166 37.9932 104.782 37.9105 104.329 37.9105C103.913 37.9105 103.545 37.9825 103.225 38.1265C102.91 38.2705 102.643 38.4785 102.425 38.7505C102.211 39.0172 102.049 39.3425 101.937 39.7265C101.825 40.1105 101.769 40.5478 101.769 41.0385L100.937 40.8545C100.937 39.9692 101.091 39.2252 101.401 38.6225C101.71 38.0198 102.137 37.5638 102.681 37.2545C103.225 36.9452 103.849 36.7905 104.553 36.7905C105.07 36.7905 105.521 36.8705 105.905 37.0305C106.294 37.1905 106.622 37.4065 106.889 37.6785C107.161 37.9505 107.379 38.2625 107.545 38.6145C107.71 38.9612 107.83 39.3318 107.905 39.7265C107.979 40.1158 108.017 40.5052 108.017 40.8945V45.6465H106.833ZM100.585 45.6465V37.0065H101.649V39.1345H101.769V45.6465H100.585Z" fill="#191B21"/>
<path opacity="0.6" d="M62.067 146.824V142.416C62.067 141.936 62.0217 141.496 61.931 141.096C61.8404 140.691 61.6937 140.339 61.491 140.04C61.2937 139.736 61.035 139.502 60.715 139.336C60.4004 139.171 60.0164 139.088 59.563 139.088C59.147 139.088 58.779 139.16 58.459 139.304C58.1444 139.448 57.8777 139.656 57.659 139.928C57.4457 140.195 57.283 140.52 57.171 140.904C57.059 141.288 57.003 141.726 57.003 142.216L56.171 142.032C56.171 141.147 56.3257 140.403 56.635 139.8C56.9444 139.198 57.371 138.742 57.915 138.432C58.459 138.123 59.083 137.968 59.787 137.968C60.3044 137.968 60.755 138.048 61.139 138.208C61.5284 138.368 61.8564 138.584 62.123 138.856C62.395 139.128 62.6137 139.44 62.779 139.792C62.9444 140.139 63.0644 140.51 63.139 140.904C63.2137 141.294 63.251 141.683 63.251 142.072V146.824H62.067ZM55.819 146.824V135.304H56.883V141.808H57.003V146.824H55.819ZM68.983 147.064C68.1404 147.064 67.4097 146.878 66.791 146.504C66.1777 146.131 65.7004 145.606 65.359 144.928C65.0177 144.251 64.847 143.456 64.847 142.544C64.847 141.6 65.015 140.784 65.351 140.096C65.687 139.408 66.159 138.878 66.767 138.504C67.3804 138.131 68.103 137.944 68.935 137.944C69.7884 137.944 70.5164 138.142 71.119 138.536C71.7217 138.926 72.1777 139.486 72.487 140.216C72.7964 140.947 72.9377 141.819 72.911 142.832H71.711V142.416C71.6897 141.296 71.447 140.451 70.983 139.88C70.5244 139.31 69.8524 139.024 68.967 139.024C68.039 139.024 67.327 139.326 66.831 139.928C66.3404 140.531 66.095 141.39 66.095 142.504C66.095 143.592 66.3404 144.438 66.831 145.04C67.327 145.638 68.0284 145.936 68.935 145.936C69.5537 145.936 70.0924 145.795 70.551 145.512C71.015 145.224 71.3804 144.811 71.647 144.272L72.743 144.696C72.4017 145.448 71.8977 146.032 71.231 146.448C70.5697 146.859 69.8204 147.064 68.983 147.064ZM65.679 142.832V141.848H72.279V142.832H65.679ZM77.0022 147.064C76.3515 147.064 75.8048 146.947 75.3622 146.712C74.9248 146.478 74.5968 146.166 74.3782 145.776C74.1595 145.387 74.0502 144.963 74.0502 144.504C74.0502 144.035 74.1435 143.635 74.3302 143.304C74.5222 142.968 74.7808 142.694 75.1062 142.48C75.4368 142.267 75.8182 142.104 76.2502 141.992C76.6875 141.886 77.1702 141.792 77.6982 141.712C78.2315 141.627 78.7515 141.555 79.2582 141.496C79.7702 141.432 80.2182 141.371 80.6022 141.312L80.1862 141.568C80.2022 140.715 80.0368 140.083 79.6902 139.672C79.3435 139.262 78.7408 139.056 77.8822 139.056C77.2902 139.056 76.7888 139.19 76.3782 139.456C75.9728 139.723 75.6875 140.144 75.5222 140.72L74.3782 140.384C74.5755 139.611 74.9728 139.011 75.5702 138.584C76.1675 138.158 76.9435 137.944 77.8982 137.944C78.6875 137.944 79.3568 138.094 79.9062 138.392C80.4608 138.686 80.8528 139.112 81.0822 139.672C81.1888 139.923 81.2582 140.203 81.2902 140.512C81.3222 140.822 81.3382 141.136 81.3382 141.456V146.824H80.2902V144.656L80.5942 144.784C80.3008 145.526 79.8448 146.091 79.2262 146.48C78.6075 146.87 77.8662 147.064 77.0022 147.064ZM77.1382 146.048C77.6875 146.048 78.1675 145.95 78.5782 145.752C78.9888 145.555 79.3195 145.286 79.5702 144.944C79.8208 144.598 79.9835 144.208 80.0582 143.776C80.1222 143.499 80.1568 143.195 80.1622 142.864C80.1675 142.528 80.1702 142.278 80.1702 142.112L80.6182 142.344C80.2182 142.398 79.7835 142.451 79.3142 142.504C78.8502 142.558 78.3915 142.619 77.9382 142.688C77.4902 142.758 77.0848 142.84 76.7222 142.936C76.4768 143.006 76.2395 143.104 76.0102 143.232C75.7808 143.355 75.5915 143.52 75.4422 143.728C75.2982 143.936 75.2262 144.195 75.2262 144.504C75.2262 144.755 75.2875 144.998 75.4102 145.232C75.5382 145.467 75.7408 145.662 76.0182 145.816C76.3008 145.971 76.6742 146.048 77.1382 146.048ZM83.4208 146.824V138.184H84.4768V140.264L84.2688 139.992C84.3648 139.736 84.4901 139.502 84.6448 139.288C84.7994 139.07 84.9674 138.891 85.1488 138.752C85.3728 138.555 85.6341 138.406 85.9328 138.304C86.2314 138.198 86.5328 138.136 86.8368 138.12C87.1408 138.099 87.4181 138.12 87.6688 138.184V139.288C87.3541 139.208 87.0101 139.19 86.6368 139.232C86.2634 139.275 85.9194 139.424 85.6048 139.68C85.3168 139.904 85.1008 140.174 84.9568 140.488C84.8128 140.798 84.7168 141.128 84.6688 141.48C84.6208 141.827 84.5968 142.171 84.5968 142.512V146.824H83.4208ZM93.8904 146.824C93.4051 146.926 92.9251 146.966 92.4504 146.944C91.9811 146.923 91.5597 146.822 91.1864 146.64C90.8184 146.459 90.5384 146.176 90.3464 145.792C90.1917 145.472 90.1064 145.15 90.0904 144.824C90.0797 144.494 90.0744 144.118 90.0744 143.696V135.784H91.2424V143.648C91.2424 144.011 91.2451 144.315 91.2504 144.56C91.2611 144.8 91.3171 145.014 91.4184 145.2C91.6104 145.558 91.9144 145.771 92.3304 145.84C92.7517 145.91 93.2717 145.894 93.8904 145.792V146.824ZM88.2264 139.192V138.184H93.8904V139.192H88.2264ZM98.7958 146.824V135.304H103.244C103.356 135.304 103.481 135.31 103.62 135.32C103.764 135.326 103.908 135.342 104.052 135.368C104.654 135.459 105.164 135.67 105.58 136C106.001 136.326 106.318 136.736 106.532 137.232C106.75 137.728 106.86 138.278 106.86 138.88C106.86 139.75 106.63 140.504 106.172 141.144C105.713 141.784 105.057 142.187 104.204 142.352L103.796 142.448H99.9718V146.824H98.7958ZM105.772 146.824L103.5 142.136L104.628 141.704L107.124 146.824H105.772ZM99.9718 141.328H103.212C103.308 141.328 103.42 141.323 103.548 141.312C103.676 141.302 103.801 141.283 103.924 141.256C104.318 141.171 104.641 141.008 104.892 140.768C105.148 140.528 105.337 140.243 105.46 139.912C105.588 139.582 105.652 139.238 105.652 138.88C105.652 138.523 105.588 138.179 105.46 137.848C105.337 137.512 105.148 137.224 104.892 136.984C104.641 136.744 104.318 136.582 103.924 136.496C103.801 136.47 103.676 136.454 103.548 136.448C103.42 136.438 103.308 136.432 103.212 136.432H99.9718V141.328ZM111.362 147.064C110.711 147.064 110.164 146.947 109.722 146.712C109.284 146.478 108.956 146.166 108.738 145.776C108.519 145.387 108.41 144.963 108.41 144.504C108.41 144.035 108.503 143.635 108.69 143.304C108.882 142.968 109.14 142.694 109.466 142.48C109.796 142.267 110.178 142.104 110.61 141.992C111.047 141.886 111.53 141.792 112.058 141.712C112.591 141.627 113.111 141.555 113.618 141.496C114.13 141.432 114.578 141.371 114.962 141.312L114.546 141.568C114.562 140.715 114.396 140.083 114.05 139.672C113.703 139.262 113.1 139.056 112.242 139.056C111.65 139.056 111.148 139.19 110.738 139.456C110.332 139.723 110.047 140.144 109.882 140.72L108.738 140.384C108.935 139.611 109.332 139.011 109.93 138.584C110.527 138.158 111.303 137.944 112.258 137.944C113.047 137.944 113.716 138.094 114.266 138.392C114.82 138.686 115.212 139.112 115.442 139.672C115.548 139.923 115.618 140.203 115.65 140.512C115.682 140.822 115.698 141.136 115.698 141.456V146.824H114.65V144.656L114.954 144.784C114.66 145.526 114.204 146.091 113.586 146.48C112.967 146.87 112.226 147.064 111.362 147.064ZM111.498 146.048C112.047 146.048 112.527 145.95 112.938 145.752C113.348 145.555 113.679 145.286 113.93 144.944C114.18 144.598 114.343 144.208 114.418 143.776C114.482 143.499 114.516 143.195 114.522 142.864C114.527 142.528 114.53 142.278 114.53 142.112L114.978 142.344C114.578 142.398 114.143 142.451 113.674 142.504C113.21 142.558 112.751 142.619 112.298 142.688C111.85 142.758 111.444 142.84 111.082 142.936C110.836 143.006 110.599 143.104 110.37 143.232C110.14 143.355 109.951 143.52 109.802 143.728C109.658 143.936 109.586 144.195 109.586 144.504C109.586 144.755 109.647 144.998 109.77 145.232C109.898 145.467 110.1 145.662 110.378 145.816C110.66 145.971 111.034 146.048 111.498 146.048ZM122.484 146.824C121.999 146.926 121.519 146.966 121.044 146.944C120.575 146.923 120.153 146.822 119.78 146.64C119.412 146.459 119.132 146.176 118.94 145.792C118.785 145.472 118.7 145.15 118.684 144.824C118.673 144.494 118.668 144.118 118.668 143.696V135.784H119.836V143.648C119.836 144.011 119.839 144.315 119.844 144.56C119.855 144.8 119.911 145.014 120.012 145.2C120.204 145.558 120.508 145.771 120.924 145.84C121.345 145.91 121.865 145.894 122.484 145.792V146.824ZM116.82 139.192V138.184H122.484V139.192H116.82ZM127.53 147.064C126.687 147.064 125.957 146.878 125.338 146.504C124.725 146.131 124.247 145.606 123.906 144.928C123.565 144.251 123.394 143.456 123.394 142.544C123.394 141.6 123.562 140.784 123.898 140.096C124.234 139.408 124.706 138.878 125.314 138.504C125.927 138.131 126.65 137.944 127.482 137.944C128.335 137.944 129.063 138.142 129.666 138.536C130.269 138.926 130.725 139.486 131.034 140.216C131.343 140.947 131.485 141.819 131.458 142.832H130.258V142.416C130.237 141.296 129.994 140.451 129.53 139.88C129.071 139.31 128.399 139.024 127.514 139.024C126.586 139.024 125.874 139.326 125.378 139.928C124.887 140.531 124.642 141.39 124.642 142.504C124.642 143.592 124.887 144.438 125.378 145.04C125.874 145.638 126.575 145.936 127.482 145.936C128.101 145.936 128.639 145.795 129.098 145.512C129.562 145.224 129.927 144.811 130.194 144.272L131.29 144.696C130.949 145.448 130.445 146.032 129.778 146.448C129.117 146.859 128.367 147.064 127.53 147.064ZM124.226 142.832V141.848H130.826V142.832H124.226Z" fill="#191B21"/>
<path opacity="0.6" d="M60 227.24C59.2053 227.24 58.5333 227.04 57.984 226.64C57.4347 226.235 57.0187 225.688 56.736 225C56.4533 224.307 56.312 223.531 56.312 222.672C56.312 221.797 56.4533 221.019 56.736 220.336C57.024 219.648 57.4453 219.107 58 218.712C58.5547 218.317 59.2373 218.12 60.048 218.12C60.8373 218.12 61.5147 218.32 62.08 218.72C62.6453 219.12 63.0773 219.664 63.376 220.352C63.68 221.04 63.832 221.813 63.832 222.672C63.832 223.536 63.68 224.312 63.376 225C63.072 225.688 62.6347 226.235 62.064 226.64C61.4933 227.04 60.8053 227.24 60 227.24ZM56.112 227V215.48H57.296V220.496H57.168V227H56.112ZM59.88 226.144C60.4827 226.144 60.984 225.992 61.384 225.688C61.784 225.384 62.0827 224.971 62.28 224.448C62.4827 223.92 62.584 223.328 62.584 222.672C62.584 222.021 62.4853 221.435 62.288 220.912C62.0907 220.389 61.7893 219.976 61.384 219.672C60.984 219.368 60.4747 219.216 59.856 219.216C59.2533 219.216 58.752 219.363 58.352 219.656C57.9573 219.949 57.6613 220.357 57.464 220.88C57.2667 221.397 57.168 221.995 57.168 222.672C57.168 223.339 57.2667 223.936 57.464 224.464C57.6613 224.987 57.96 225.397 58.36 225.696C58.76 225.995 59.2667 226.144 59.88 226.144ZM65.7488 227V215.24H66.9248V227H65.7488ZM72.9311 227.24C72.0725 227.24 71.3391 227.045 70.7311 226.656C70.1231 226.267 69.6565 225.728 69.3311 225.04C69.0058 224.352 68.8431 223.563 68.8431 222.672C68.8431 221.765 69.0085 220.971 69.3391 220.288C69.6698 219.605 70.1391 219.075 70.7471 218.696C71.3605 218.312 72.0885 218.12 72.9311 218.12C73.7951 218.12 74.5311 218.315 75.1391 218.704C75.7525 219.088 76.2191 219.624 76.5391 220.312C76.8645 220.995 77.0271 221.781 77.0271 222.672C77.0271 223.579 76.8645 224.376 76.5391 225.064C76.2138 225.747 75.7445 226.28 75.1311 226.664C74.5178 227.048 73.7845 227.24 72.9311 227.24ZM72.9311 226.112C73.8911 226.112 74.6058 225.795 75.0751 225.16C75.5445 224.52 75.7791 223.691 75.7791 222.672C75.7791 221.627 75.5418 220.795 75.0671 220.176C74.5978 219.557 73.8858 219.248 72.9311 219.248C72.2858 219.248 71.7525 219.395 71.3311 219.688C70.9151 219.976 70.6031 220.379 70.3951 220.896C70.1925 221.408 70.0911 222 70.0911 222.672C70.0911 223.712 70.3311 224.547 70.8111 225.176C71.2911 225.8 71.9978 226.112 72.9311 226.112ZM82.3999 227.24C81.5412 227.24 80.8079 227.045 80.1999 226.656C79.5919 226.267 79.1252 225.728 78.7999 225.04C78.4745 224.352 78.3119 223.563 78.3119 222.672C78.3119 221.765 78.4772 220.971 78.8079 220.288C79.1385 219.605 79.6079 219.075 80.2159 218.696C80.8292 218.312 81.5572 218.12 82.3999 218.12C83.2639 218.12 83.9999 218.315 84.6079 218.704C85.2212 219.088 85.6879 219.624 86.0079 220.312C86.3332 220.995 86.4959 221.781 86.4959 222.672C86.4959 223.579 86.3332 224.376 86.0079 225.064C85.6825 225.747 85.2132 226.28 84.5999 226.664C83.9865 227.048 83.2532 227.24 82.3999 227.24ZM82.3999 226.112C83.3599 226.112 84.0745 225.795 84.5439 225.16C85.0132 224.52 85.2479 223.691 85.2479 222.672C85.2479 221.627 85.0105 220.795 84.5359 220.176C84.0665 219.557 83.3545 219.248 82.3999 219.248C81.7545 219.248 81.2212 219.395 80.7999 219.688C80.3839 219.976 80.0719 220.379 79.8639 220.896C79.6612 221.408 79.5599 222 79.5599 222.672C79.5599 223.712 79.7999 224.547 80.2799 225.176C80.7599 225.8 81.4665 226.112 82.3999 226.112ZM91.6126 227.24C90.8073 227.24 90.1193 227.04 89.5486 226.64C88.978 226.235 88.5406 225.688 88.2366 225C87.9326 224.312 87.7806 223.536 87.7806 222.672C87.7806 221.813 87.93 221.04 88.2286 220.352C88.5326 219.664 88.9673 219.12 89.5326 218.72C90.098 218.32 90.7753 218.12 91.5646 218.12C92.3753 218.12 93.058 218.317 93.6126 218.712C94.1673 219.107 94.586 219.648 94.8686 220.336C95.1566 221.019 95.3006 221.797 95.3006 222.672C95.3006 223.531 95.1593 224.307 94.8766 225C94.594 225.688 94.178 226.235 93.6286 226.64C93.0793 227.04 92.4073 227.24 91.6126 227.24ZM91.7326 226.144C92.346 226.144 92.8526 225.995 93.2526 225.696C93.6526 225.397 93.9513 224.987 94.1486 224.464C94.346 223.936 94.4446 223.339 94.4446 222.672C94.4446 221.995 94.346 221.397 94.1486 220.88C93.9513 220.357 93.6526 219.949 93.2526 219.656C92.858 219.363 92.3593 219.216 91.7566 219.216C91.138 219.216 90.626 219.368 90.2206 219.672C89.8153 219.976 89.514 220.389 89.3166 220.912C89.1246 221.435 89.0286 222.021 89.0286 222.672C89.0286 223.328 89.1273 223.92 89.3246 224.448C89.5273 224.971 89.8286 225.384 90.2286 225.688C90.6286 225.992 91.13 226.144 91.7326 226.144ZM94.4446 227V220.496H94.3166V215.48H95.5006V227H94.4446ZM104.828 227.24C104.033 227.24 103.361 227.04 102.812 226.64C102.263 226.235 101.847 225.688 101.564 225C101.281 224.307 101.14 223.531 101.14 222.672C101.14 221.797 101.281 221.019 101.564 220.336C101.852 219.648 102.273 219.107 102.828 218.712C103.383 218.317 104.065 218.12 104.876 218.12C105.665 218.12 106.343 218.32 106.908 218.72C107.473 219.12 107.905 219.664 108.204 220.352C108.508 221.04 108.66 221.813 108.66 222.672C108.66 223.536 108.508 224.312 108.204 225C107.9 225.688 107.463 226.235 106.892 226.64C106.321 227.04 105.633 227.24 104.828 227.24ZM100.94 230.84V218.36H101.996V224.864H102.124V230.84H100.94ZM104.708 226.144C105.311 226.144 105.812 225.992 106.212 225.688C106.612 225.384 106.911 224.971 107.108 224.448C107.311 223.92 107.412 223.328 107.412 222.672C107.412 222.021 107.313 221.435 107.116 220.912C106.919 220.389 106.617 219.976 106.212 219.672C105.812 219.368 105.303 219.216 104.684 219.216C104.081 219.216 103.58 219.363 103.18 219.656C102.785 219.949 102.489 220.357 102.292 220.88C102.095 221.397 101.996 221.995 101.996 222.672C101.996 223.339 102.095 223.936 102.292 224.464C102.489 224.987 102.788 225.397 103.188 225.696C103.588 225.995 104.095 226.144 104.708 226.144ZM110.417 227V218.36H111.473V220.44L111.265 220.168C111.361 219.912 111.486 219.677 111.641 219.464C111.796 219.245 111.964 219.067 112.145 218.928C112.369 218.731 112.63 218.581 112.929 218.48C113.228 218.373 113.529 218.312 113.833 218.296C114.137 218.275 114.414 218.296 114.665 218.36V219.464C114.35 219.384 114.006 219.365 113.633 219.408C113.26 219.451 112.916 219.6 112.601 219.856C112.313 220.08 112.097 220.349 111.953 220.664C111.809 220.973 111.713 221.304 111.665 221.656C111.617 222.003 111.593 222.347 111.593 222.688V227H110.417ZM119.682 227.24C118.84 227.24 118.109 227.053 117.49 226.68C116.877 226.307 116.4 225.781 116.058 225.104C115.717 224.427 115.546 223.632 115.546 222.72C115.546 221.776 115.714 220.96 116.05 220.272C116.386 219.584 116.858 219.053 117.466 218.68C118.08 218.307 118.802 218.12 119.634 218.12C120.488 218.12 121.216 218.317 121.818 218.712C122.421 219.101 122.877 219.661 123.186 220.392C123.496 221.123 123.637 221.995 123.61 223.008H122.41V222.592C122.389 221.472 122.146 220.627 121.682 220.056C121.224 219.485 120.552 219.2 119.666 219.2C118.738 219.2 118.026 219.501 117.53 220.104C117.04 220.707 116.794 221.565 116.794 222.68C116.794 223.768 117.04 224.613 117.53 225.216C118.026 225.813 118.728 226.112 119.634 226.112C120.253 226.112 120.792 225.971 121.25 225.688C121.714 225.4 122.08 224.987 122.346 224.448L123.442 224.872C123.101 225.624 122.597 226.208 121.93 226.624C121.269 227.035 120.52 227.24 119.682 227.24ZM116.378 223.008V222.024H122.978V223.008H116.378ZM128.61 227.232C127.596 227.232 126.762 227.013 126.106 226.576C125.455 226.139 125.055 225.531 124.906 224.752L126.106 224.552C126.234 225.043 126.524 225.435 126.978 225.728C127.436 226.016 128.002 226.16 128.674 226.16C129.33 226.16 129.847 226.024 130.226 225.752C130.604 225.475 130.794 225.099 130.794 224.624C130.794 224.357 130.732 224.141 130.61 223.976C130.492 223.805 130.25 223.648 129.882 223.504C129.514 223.36 128.964 223.189 128.234 222.992C127.45 222.779 126.836 222.565 126.394 222.352C125.951 222.139 125.636 221.893 125.45 221.616C125.263 221.333 125.17 220.989 125.17 220.584C125.17 220.093 125.308 219.664 125.586 219.296C125.863 218.923 126.247 218.635 126.738 218.432C127.228 218.224 127.799 218.12 128.45 218.12C129.1 218.12 129.682 218.227 130.194 218.44C130.711 218.648 131.127 218.941 131.442 219.32C131.756 219.699 131.943 220.139 132.002 220.64L130.802 220.856C130.722 220.349 130.468 219.949 130.042 219.656C129.62 219.357 129.084 219.203 128.434 219.192C127.82 219.176 127.322 219.293 126.938 219.544C126.554 219.789 126.362 220.117 126.362 220.528C126.362 220.757 126.431 220.955 126.57 221.12C126.708 221.28 126.959 221.432 127.322 221.576C127.69 221.72 128.212 221.877 128.89 222.048C129.684 222.251 130.308 222.464 130.762 222.688C131.215 222.912 131.538 223.176 131.73 223.48C131.922 223.784 132.018 224.16 132.018 224.608C132.018 225.424 131.714 226.067 131.106 226.536C130.503 227 129.671 227.232 128.61 227.232ZM137.096 227.216C136.579 227.216 136.125 227.136 135.736 226.976C135.352 226.816 135.024 226.6 134.752 226.328C134.485 226.056 134.269 225.747 134.104 225.4C133.939 225.048 133.819 224.677 133.744 224.288C133.669 223.893 133.632 223.501 133.632 223.112V218.36H134.816V222.768C134.816 223.243 134.861 223.683 134.952 224.088C135.043 224.493 135.187 224.848 135.384 225.152C135.587 225.451 135.845 225.683 136.16 225.848C136.48 226.013 136.867 226.096 137.32 226.096C137.736 226.096 138.101 226.024 138.416 225.88C138.736 225.736 139.003 225.531 139.216 225.264C139.435 224.992 139.6 224.664 139.712 224.28C139.824 223.891 139.88 223.453 139.88 222.968L140.712 223.152C140.712 224.037 140.557 224.781 140.248 225.384C139.939 225.987 139.512 226.443 138.968 226.752C138.424 227.061 137.8 227.216 137.096 227.216ZM140 227V224.872H139.88V218.36H141.056V227H140ZM143.292 227V218.36H144.348V220.44L144.14 220.168C144.236 219.912 144.361 219.677 144.516 219.464C144.671 219.245 144.839 219.067 145.02 218.928C145.244 218.731 145.505 218.581 145.804 218.48C146.103 218.373 146.404 218.312 146.708 218.296C147.012 218.275 147.289 218.296 147.54 218.36V219.464C147.225 219.384 146.881 219.365 146.508 219.408C146.135 219.451 145.791 219.6 145.476 219.856C145.188 220.08 144.972 220.349 144.828 220.664C144.684 220.973 144.588 221.304 144.54 221.656C144.492 222.003 144.468 222.347 144.468 222.688V227H143.292ZM152.557 227.24C151.715 227.24 150.984 227.053 150.365 226.68C149.752 226.307 149.275 225.781 148.933 225.104C148.592 224.427 148.421 223.632 148.421 222.72C148.421 221.776 148.589 220.96 148.925 220.272C149.261 219.584 149.733 219.053 150.341 218.68C150.955 218.307 151.677 218.12 152.509 218.12C153.363 218.12 154.091 218.317 154.693 218.712C155.296 219.101 155.752 219.661 156.061 220.392C156.371 221.123 156.512 221.995 156.485 223.008H155.285V222.592C155.264 221.472 155.021 220.627 154.557 220.056C154.099 219.485 153.427 219.2 152.541 219.2C151.613 219.2 150.901 219.501 150.405 220.104C149.915 220.707 149.669 221.565 149.669 222.68C149.669 223.768 149.915 224.613 150.405 225.216C150.901 225.813 151.603 226.112 152.509 226.112C153.128 226.112 153.667 225.971 154.125 225.688C154.589 225.4 154.955 224.987 155.221 224.448L156.317 224.872C155.976 225.624 155.472 226.208 154.805 226.624C154.144 227.035 153.395 227.24 152.557 227.24ZM149.253 223.008V222.024H155.853V223.008H149.253Z" fill="#191B21"/>
<path opacity="0.6" d="M51.8285 323.883V313.491H47.8045V312.363H57.0285V313.491H53.0045V323.883H51.8285ZM60.6862 324.123C59.8435 324.123 59.1128 323.936 58.4942 323.563C57.8808 323.189 57.4035 322.664 57.0622 321.987C56.7208 321.309 56.5502 320.515 56.5502 319.603C56.5502 318.659 56.7182 317.843 57.0542 317.155C57.3902 316.467 57.8622 315.936 58.4702 315.563C59.0835 315.189 59.8062 315.003 60.6382 315.003C61.4915 315.003 62.2195 315.2 62.8222 315.595C63.4248 315.984 63.8808 316.544 64.1902 317.275C64.4995 318.005 64.6408 318.877 64.6142 319.891H63.4142V319.475C63.3928 318.355 63.1502 317.509 62.6862 316.939C62.2275 316.368 61.5555 316.083 60.6702 316.083C59.7422 316.083 59.0302 316.384 58.5342 316.987C58.0435 317.589 57.7982 318.448 57.7982 319.563C57.7982 320.651 58.0435 321.496 58.5342 322.099C59.0302 322.696 59.7315 322.995 60.6382 322.995C61.2568 322.995 61.7955 322.853 62.2542 322.571C62.7182 322.283 63.0835 321.869 63.3502 321.331L64.4462 321.755C64.1048 322.507 63.6008 323.091 62.9342 323.507C62.2728 323.917 61.5235 324.123 60.6862 324.123ZM57.3822 319.891V318.907H63.9822V319.891H57.3822ZM76.4592 323.883L76.4672 318.211C76.4672 317.544 76.2805 317.021 75.9072 316.643C75.5392 316.259 75.0698 316.067 74.4992 316.067C74.1738 316.067 73.8565 316.141 73.5472 316.291C73.2378 316.44 72.9818 316.68 72.7792 317.011C72.5818 317.341 72.4832 317.773 72.4832 318.307L71.7872 318.107C71.7712 317.488 71.8912 316.947 72.1472 316.483C72.4085 316.019 72.7658 315.659 73.2192 315.403C73.6778 315.141 74.1952 315.011 74.7712 315.011C75.6405 315.011 76.3365 315.28 76.8592 315.819C77.3818 316.352 77.6432 317.075 77.6432 317.987L77.6352 323.883H76.4592ZM66.1472 323.883V315.243H67.2032V317.371H67.3312V323.883H66.1472ZM71.3152 323.883L71.3232 318.291C71.3232 317.603 71.1392 317.061 70.7712 316.667C70.4085 316.267 69.9285 316.067 69.3312 316.067C68.7338 316.067 68.2512 316.272 67.8832 316.683C67.5152 317.088 67.3312 317.629 67.3312 318.307L66.6272 317.923C66.6272 317.368 66.7578 316.872 67.0192 316.435C67.2805 315.992 67.6378 315.645 68.0912 315.395C68.5445 315.139 69.0592 315.011 69.6352 315.011C70.1845 315.011 70.6725 315.128 71.0992 315.363C71.5312 315.597 71.8698 315.939 72.1152 316.387C72.3605 316.835 72.4832 317.379 72.4832 318.019L72.4752 323.883H71.3152ZM83.5977 324.123C82.803 324.123 82.131 323.923 81.5817 323.523C81.0323 323.117 80.6163 322.571 80.3337 321.883C80.051 321.189 79.9097 320.413 79.9097 319.555C79.9097 318.68 80.051 317.901 80.3337 317.219C80.6217 316.531 81.043 315.989 81.5977 315.595C82.1523 315.2 82.835 315.003 83.6457 315.003C84.435 315.003 85.1123 315.203 85.6777 315.603C86.243 316.003 86.675 316.547 86.9737 317.235C87.2777 317.923 87.4297 318.696 87.4297 319.555C87.4297 320.419 87.2777 321.195 86.9737 321.883C86.6697 322.571 86.2323 323.117 85.6617 323.523C85.091 323.923 84.403 324.123 83.5977 324.123ZM79.7097 327.723V315.243H80.7657V321.747H80.8937V327.723H79.7097ZM83.4777 323.027C84.0803 323.027 84.5817 322.875 84.9817 322.571C85.3817 322.267 85.6803 321.853 85.8777 321.331C86.0803 320.803 86.1817 320.211 86.1817 319.555C86.1817 318.904 86.083 318.317 85.8857 317.795C85.6883 317.272 85.387 316.859 84.9817 316.555C84.5817 316.251 84.0723 316.099 83.4537 316.099C82.851 316.099 82.3497 316.245 81.9497 316.539C81.555 316.832 81.259 317.24 81.0617 317.763C80.8643 318.28 80.7657 318.877 80.7657 319.555C80.7657 320.221 80.8643 320.819 81.0617 321.347C81.259 321.869 81.5577 322.28 81.9577 322.579C82.3577 322.877 82.8643 323.027 83.4777 323.027ZM89.1864 323.883V315.243H90.2424V317.323L90.0344 317.051C90.1304 316.795 90.2557 316.56 90.4104 316.347C90.5651 316.128 90.7331 315.949 90.9144 315.811C91.1384 315.613 91.3997 315.464 91.6984 315.363C91.9971 315.256 92.2984 315.195 92.6024 315.179C92.9064 315.157 93.1837 315.179 93.4344 315.243V316.347C93.1197 316.267 92.7757 316.248 92.4024 316.291C92.0291 316.333 91.6851 316.483 91.3704 316.739C91.0824 316.963 90.8664 317.232 90.7224 317.547C90.5784 317.856 90.4824 318.187 90.4344 318.539C90.3864 318.885 90.3624 319.229 90.3624 319.571V323.883H89.1864ZM97.0959 324.123C96.4452 324.123 95.8986 324.005 95.4559 323.771C95.0186 323.536 94.6906 323.224 94.4719 322.835C94.2532 322.445 94.1439 322.021 94.1439 321.563C94.1439 321.093 94.2372 320.693 94.4239 320.363C94.6159 320.027 94.8746 319.752 95.1999 319.539C95.5306 319.325 95.9119 319.163 96.3439 319.051C96.7812 318.944 97.2639 318.851 97.7919 318.771C98.3252 318.685 98.8452 318.613 99.3519 318.555C99.8639 318.491 100.312 318.429 100.696 318.371L100.28 318.627C100.296 317.773 100.131 317.141 99.7839 316.731C99.4372 316.32 98.8346 316.115 97.9759 316.115C97.3839 316.115 96.8826 316.248 96.4719 316.515C96.0666 316.781 95.7812 317.203 95.6159 317.779L94.4719 317.443C94.6692 316.669 95.0666 316.069 95.6639 315.643C96.2612 315.216 97.0372 315.003 97.9919 315.003C98.7812 315.003 99.4506 315.152 99.9999 315.451C100.555 315.744 100.947 316.171 101.176 316.731C101.283 316.981 101.352 317.261 101.384 317.571C101.416 317.88 101.432 318.195 101.432 318.515V323.883H100.384V321.715L100.688 321.843C100.395 322.584 99.9386 323.149 99.3199 323.539C98.7012 323.928 97.9599 324.123 97.0959 324.123ZM97.2319 323.107C97.7812 323.107 98.2612 323.008 98.6719 322.811C99.0826 322.613 99.4132 322.344 99.6639 322.003C99.9146 321.656 100.077 321.267 100.152 320.835C100.216 320.557 100.251 320.253 100.256 319.923C100.261 319.587 100.264 319.336 100.264 319.171L100.712 319.403C100.312 319.456 99.8772 319.509 99.4079 319.563C98.9439 319.616 98.4852 319.677 98.0319 319.747C97.5839 319.816 97.1786 319.899 96.8159 319.995C96.5706 320.064 96.3332 320.163 96.1039 320.291C95.8746 320.413 95.6852 320.579 95.5359 320.787C95.3919 320.995 95.3199 321.253 95.3199 321.563C95.3199 321.813 95.3812 322.056 95.5039 322.291C95.6319 322.525 95.8346 322.72 96.1119 322.875C96.3946 323.029 96.7679 323.107 97.2319 323.107ZM108.219 323.883C107.733 323.984 107.253 324.024 106.779 324.003C106.309 323.981 105.888 323.88 105.515 323.699C105.147 323.517 104.867 323.235 104.675 322.851C104.52 322.531 104.435 322.208 104.419 321.883C104.408 321.552 104.403 321.176 104.403 320.755V312.843H105.571V320.707C105.571 321.069 105.573 321.373 105.579 321.619C105.589 321.859 105.645 322.072 105.747 322.259C105.939 322.616 106.243 322.829 106.659 322.899C107.08 322.968 107.6 322.952 108.219 322.851V323.883ZM102.555 316.251V315.243H108.219V316.251H102.555ZM113.225 324.099C112.707 324.099 112.254 324.019 111.865 323.859C111.481 323.699 111.153 323.483 110.881 323.211C110.614 322.939 110.398 322.629 110.233 322.283C110.067 321.931 109.947 321.56 109.873 321.171C109.798 320.776 109.761 320.384 109.761 319.995V315.243H110.945V319.651C110.945 320.125 110.99 320.565 111.081 320.971C111.171 321.376 111.315 321.731 111.513 322.035C111.715 322.333 111.974 322.565 112.289 322.731C112.609 322.896 112.995 322.979 113.449 322.979C113.865 322.979 114.23 322.907 114.545 322.763C114.865 322.619 115.131 322.413 115.345 322.147C115.563 321.875 115.729 321.547 115.841 321.163C115.953 320.773 116.009 320.336 116.009 319.851L116.841 320.035C116.841 320.92 116.686 321.664 116.377 322.267C116.067 322.869 115.641 323.325 115.097 323.635C114.553 323.944 113.929 324.099 113.225 324.099ZM116.129 323.883V321.755H116.009V315.243H117.185V323.883H116.129ZM119.421 323.883V315.243H120.477V317.323L120.269 317.051C120.365 316.795 120.49 316.56 120.645 316.347C120.799 316.128 120.967 315.949 121.149 315.811C121.373 315.613 121.634 315.464 121.933 315.363C122.231 315.256 122.533 315.195 122.837 315.179C123.141 315.157 123.418 315.179 123.669 315.243V316.347C123.354 316.267 123.01 316.248 122.637 316.291C122.263 316.333 121.919 316.483 121.605 316.739C121.317 316.963 121.101 317.232 120.957 317.547C120.813 317.856 120.717 318.187 120.669 318.539C120.621 318.885 120.597 319.229 120.597 319.571V323.883H119.421ZM128.686 324.123C127.843 324.123 127.113 323.936 126.494 323.563C125.881 323.189 125.403 322.664 125.062 321.987C124.721 321.309 124.55 320.515 124.55 319.603C124.55 318.659 124.718 317.843 125.054 317.155C125.39 316.467 125.862 315.936 126.47 315.563C127.083 315.189 127.806 315.003 128.638 315.003C129.491 315.003 130.219 315.2 130.822 315.595C131.425 315.984 131.881 316.544 132.19 317.275C132.499 318.005 132.641 318.877 132.614 319.891H131.414V319.475C131.393 318.355 131.15 317.509 130.686 316.939C130.227 316.368 129.555 316.083 128.67 316.083C127.742 316.083 127.03 316.384 126.534 316.987C126.043 317.589 125.798 318.448 125.798 319.563C125.798 320.651 126.043 321.496 126.534 322.099C127.03 322.696 127.731 322.995 128.638 322.995C129.257 322.995 129.795 322.853 130.254 322.571C130.718 322.283 131.083 321.869 131.35 321.331L132.446 321.755C132.105 322.507 131.601 323.091 130.934 323.507C130.273 323.917 129.523 324.123 128.686 324.123ZM125.382 319.891V318.907H131.982V319.891H125.382Z" fill="#191B21"/>
<path opacity="0.6" d="M49.9442 409.176V397.656H57.1442V398.784H51.1202V402.768H56.1842V403.896H51.1202V408.048H57.1442V409.176H49.9442ZM63.327 409.416C62.1803 409.416 61.2123 409.162 60.423 408.656C59.6336 408.144 59.0363 407.437 58.631 406.536C58.2256 405.634 58.023 404.594 58.023 403.416C58.023 402.237 58.2256 401.197 58.631 400.296C59.0363 399.394 59.6336 398.69 60.423 398.184C61.2123 397.672 62.1803 397.416 63.327 397.416C64.6656 397.416 65.759 397.76 66.607 398.448C67.455 399.13 68.0363 400.048 68.351 401.2L67.151 401.512C66.9056 400.6 66.4656 399.877 65.831 399.344C65.1963 398.81 64.3616 398.544 63.327 398.544C62.4256 398.544 61.6763 398.749 61.079 399.16C60.4816 399.57 60.031 400.144 59.727 400.88C59.4283 401.61 59.2736 402.456 59.263 403.416C59.2576 404.376 59.4043 405.221 59.703 405.952C60.007 406.682 60.4603 407.256 61.063 407.672C61.671 408.082 62.4256 408.288 63.327 408.288C64.3616 408.288 65.1963 408.021 65.831 407.488C66.4656 406.949 66.9056 406.226 67.151 405.32L68.351 405.632C68.0363 406.784 67.455 407.704 66.607 408.392C65.759 409.074 64.6656 409.416 63.327 409.416ZM74.7321 409.416C73.9214 409.416 73.1908 409.274 72.5401 408.992C71.8894 408.709 71.3348 408.306 70.8761 407.784C70.4228 407.261 70.0761 406.632 69.8361 405.896C69.5961 405.154 69.4761 404.328 69.4761 403.416C69.4761 402.21 69.6841 401.16 70.1001 400.264C70.5214 399.362 71.1241 398.664 71.9081 398.168C72.6921 397.672 73.6334 397.424 74.7321 397.424C75.9588 397.424 76.9561 397.712 77.7241 398.288C78.4974 398.858 79.0361 399.626 79.3401 400.592L78.1561 400.88C77.9054 400.176 77.4921 399.613 76.9161 399.192C76.3454 398.77 75.6334 398.56 74.7801 398.56C73.8788 398.554 73.1294 398.757 72.5321 399.168C71.9348 399.573 71.4841 400.144 71.1801 400.88C70.8814 401.61 70.7294 402.456 70.7241 403.416C70.7188 404.376 70.8654 405.221 71.1641 405.952C71.4681 406.677 71.9214 407.248 72.5241 407.664C73.1268 408.074 73.8788 408.282 74.7801 408.288C75.6068 408.288 76.2894 408.128 76.8281 407.808C77.3668 407.488 77.7748 407.029 78.0521 406.432C78.3348 405.834 78.4948 405.128 78.5321 404.312H75.8761V403.304H79.7641C79.7801 403.426 79.7881 403.557 79.7881 403.696C79.7934 403.829 79.7961 403.925 79.7961 403.984C79.7961 405.024 79.6094 405.954 79.2361 406.776C78.8628 407.592 78.3001 408.237 77.5481 408.712C76.8014 409.181 75.8628 409.416 74.7321 409.416Z" fill="#191B21"/>
<ellipse cx="338.809" cy="387.933" rx="3.02753" ry="2.7905" fill="white"/>
<path d="M352.867 387.379C352.867 394.544 346.501 400.692 338.211 400.692C329.921 400.692 323.555 394.544 323.555 387.379C323.555 380.215 329.921 374.066 338.211 374.066C346.501 374.066 352.867 380.215 352.867 387.379Z" stroke="white" stroke-opacity="0.56" stroke-width="5"/>
</svg>
