<svg width="440" height="697" viewBox="0 0 440 697" fill="none" xmlns="http://www.w3.org/2000/svg">
<path d="M423 134.5L301.531 8H90" stroke="#092323" stroke-dasharray="10 10"/>
<path d="M299 10V616H89" stroke="#092323" stroke-dasharray="10 10"/>
<path d="M299 178L87 178" stroke="#092323" stroke-dasharray="10 10"/>
<path d="M299 306L89 306" stroke="#092323" stroke-dasharray="10 10"/>
<path d="M298 461L89 461" stroke="#092323" stroke-dasharray="10 10"/>
<circle cx="79" cy="8" r="8" fill="#4DC9C9"/>
<circle cx="423" cy="134" r="3" fill="white"/>
<circle cx="423" cy="134" r="14.5" stroke="white" stroke-opacity="0.56" stroke-width="5"/>
<circle cx="79" cy="178" r="8" fill="#4DC9C9"/>
<circle cx="79" cy="306" r="8" fill="#4DC9C9"/>
<circle cx="79" cy="461" r="8" fill="#4DC9C9"/>
<circle cx="79" cy="616" r="8" fill="#4DC9C9"/>
<path fill-rule="evenodd" clip-rule="evenodd" d="M51.3056 285.012C51.3056 283.683 51.8689 282.408 52.8717 281.468C53.8745 280.528 55.2346 280 56.6528 280C58.0709 280 59.431 280.528 60.4338 281.468C61.4366 282.408 62 283.683 62 285.012V293.605C62 295.872 60.3958 297.786 58.1928 298.407C58.205 299.916 58.2249 301.377 58.2463 302.789C58.3226 308.119 58.3868 312.742 57.9606 316.542C57.3494 321.99 55.6826 326.273 51.1528 328.775C46.0088 331.618 38.6174 332.476 32.5582 331.761C29.5179 331.402 26.6671 330.63 24.5297 329.407C22.979 328.519 21.6942 327.316 21.1014 325.794C17.916 325.66 14.7458 325.118 12.2403 324.144C9.54375 323.096 7 321.28 7 318.437V290.199H7.00458C7.00157 290.141 7.00005 290.083 7 290.025C7 286.071 13.8399 282.864 22.2778 282.864C30.7157 282.864 37.5556 286.071 37.5556 290.025C37.5556 290.082 37.554 290.142 37.551 290.199H37.5556V298.719C38.1952 298.804 38.8253 298.944 39.4378 299.137C41.7164 299.857 43.6697 301.277 44.9823 303.165C46.295 305.054 46.8905 307.302 46.6728 309.547C46.4552 311.792 45.437 313.903 43.7826 315.539C42.1281 317.175 39.9339 318.241 37.554 318.564C37.4838 321.45 35.0225 323.276 32.3076 324.313C30.0939 325.158 27.3729 325.63 24.5863 325.776C24.9544 326.186 25.4601 326.583 26.1232 326.962C27.7625 327.903 30.1489 328.589 32.9401 328.918C38.544 329.58 45.2021 328.738 49.6006 326.308C52.8746 324.5 54.3458 321.371 54.9218 316.243C55.3282 312.62 55.2671 308.262 55.1922 303.034V303.032C55.1708 301.563 55.1494 300.023 55.1357 298.412C54.0296 298.105 53.059 297.471 52.3687 296.605C51.6785 295.738 51.3055 294.686 51.3056 293.605V285.012ZM31.7149 292.526C34.1547 291.382 34.5 290.332 34.5 290.025C34.5 289.717 34.1547 288.667 31.7149 287.523C29.4568 286.466 26.1247 285.728 22.2778 285.728C18.4308 285.728 15.0972 286.466 12.8407 287.523C10.4008 288.667 10.0556 289.717 10.0556 290.025C10.0556 290.332 10.4008 291.382 12.8407 292.526C15.0988 293.583 18.4308 294.321 22.2778 294.321C26.1247 294.321 29.4583 293.583 31.7149 292.526ZM22.2778 297.185C27.2751 297.185 31.7118 296.061 34.5 294.321V298.717C33.8603 298.803 33.2302 298.944 32.6178 299.137C30.3392 299.857 28.3858 301.276 27.0729 303.164C25.7599 305.053 25.164 307.301 25.3811 309.546C25.5983 311.79 26.6158 313.901 28.2697 315.538C29.9236 317.174 32.1173 318.24 34.4969 318.564C34.4282 319.679 33.4672 320.777 31.1542 321.659C28.8258 322.548 25.6068 322.995 22.2946 322.961C21.8258 322.956 21.3571 322.941 20.889 322.917V297.156C21.3474 297.175 21.8103 297.185 22.2778 297.185ZM36.0278 302.197L33.7361 309.358L36.0278 312.222L38.3194 309.358L36.0278 302.197Z" fill="#12A3A9"/>
<path d="M42.9163 466.774V437.522H31.432V466.769C27.4039 468.726 24.6161 472.629 24.6161 477.172C24.6656 480.261 26.0107 483.207 28.3609 485.375C30.7111 487.543 33.8778 488.759 37.1771 488.759C40.4763 488.759 43.6433 487.545 45.994 485.377C48.3448 483.21 49.6906 480.263 49.7409 477.175C49.7409 472.632 46.9559 468.728 42.9192 466.777L42.9163 466.774ZM51.5295 428.441C51.5295 421.032 45.0868 415 37.1742 415C29.2615 415 22.8188 421.035 22.8188 428.441V462.653C20.6679 464.497 18.9507 466.74 17.7767 469.239C16.6027 471.738 15.9976 474.439 16 477.169C16 488.099 25.5033 497 37.177 497C48.8508 497 58.3512 488.102 58.3512 477.169C58.3512 471.562 55.8304 466.336 51.5324 462.648V428.446L51.5295 428.441ZM52.6062 477.177C52.6009 481.007 50.973 484.679 48.0798 487.386C45.1867 490.093 41.2646 491.615 37.1742 491.618C33.0845 491.613 29.1639 490.09 26.272 487.382C23.3802 484.675 21.7532 481.004 21.7479 477.175C21.7479 472.349 24.3204 467.919 28.5696 465.245V428.446C28.5696 424.003 32.4254 420.382 37.1742 420.382C41.9229 420.382 45.7874 424 45.7874 428.446V465.247C47.8849 466.556 49.6048 468.33 50.7943 470.41C51.9838 472.491 52.6062 474.815 52.6062 477.175V477.177ZM56.0802 437.522L69 444.505V430.543L56.0802 437.522Z" fill="#12A3A9"/>
<path d="M46.6667 157H9.33333C8.04467 157 7 158.175 7 159.625V185.875C7 187.325 8.04467 188.5 9.33333 188.5H46.6667C47.9553 188.5 49 187.325 49 185.875V159.625C49 158.175 47.9553 157 46.6667 157Z" stroke="#12A3A9" stroke-width="4" stroke-linecap="round" stroke-linejoin="round"/>
<path d="M16.334 199H39.6673" stroke="#12A3A9" stroke-width="4" stroke-linecap="round" stroke-linejoin="round"/>
<path d="M21.002 188.5V199" stroke="#12A3A9" stroke-width="4" stroke-linecap="round" stroke-linejoin="round"/>
<path d="M35 188.5V199" stroke="#12A3A9" stroke-width="4" stroke-linecap="round" stroke-linejoin="round"/>
<path d="M16.334 172.75H21.0006L25.6673 180.625L30.3339 164.875L32.6672 172.75H39.6672" stroke="#12A3A9" stroke-width="4" stroke-linecap="round" stroke-linejoin="round"/>
<path d="M16 615.5H22.2667L30.1 602L36.3667 629L45.7667 608.75L52.331 622.25L56.7333 615.5H63" stroke="#12A3A9" stroke-width="4" stroke-linecap="round" stroke-linejoin="round"/>
<path fill-rule="evenodd" clip-rule="evenodd" d="M3.82724 3.72146C1.3767 6.10428 0 9.33607 0 12.7059V31.7647C0 35.1345 1.3767 38.3663 3.82724 40.7491C6.27779 43.1319 9.60145 44.4706 13.067 44.4706C16.5326 44.4706 19.8563 43.1319 22.3068 40.7491C24.7574 38.3663 26.1341 35.1345 26.1341 31.7647V12.7059C26.1341 9.33607 24.7574 6.10428 22.3068 3.72146C19.8563 1.33865 16.5326 0 13.067 0C9.60145 0 6.27779 1.33865 3.82724 3.72146ZM8.44714 8.21368C9.67241 7.02227 11.3342 6.35294 13.067 6.35294C14.7998 6.35294 16.4617 7.02227 17.6869 8.21368C18.9122 9.40508 19.6006 11.021 19.6006 12.7059V31.7647C19.6006 33.4496 18.9122 35.0655 17.6869 36.2569C16.4617 37.4483 14.7998 38.1176 13.067 38.1176C11.3342 38.1176 9.67241 37.4483 8.44714 36.2569C7.22186 35.0655 6.53351 33.4496 6.53351 31.7647V12.7059C6.53351 11.021 7.22186 9.40508 8.44714 8.21368ZM39.2011 28.5882H29.4008V22.2353H39.2011C41.8003 22.2353 44.293 23.2393 46.131 25.0264C47.9689 26.8135 49.0014 29.2373 49.0014 31.7647C49.0014 34.2921 47.9689 36.7159 46.131 38.503C44.293 40.2901 41.8003 41.2941 39.2011 41.2941C38.3347 41.2941 37.5038 41.6288 36.8912 42.2245C36.2785 42.8202 35.9344 43.6281 35.9344 44.4706V47.6471H49.0014V54H32.6676C31.8012 54 30.9703 53.6653 30.3576 53.0696C29.745 52.4739 29.4008 51.666 29.4008 50.8235V44.4706C29.4008 41.9432 30.4334 39.5194 32.2713 37.7323C34.1092 35.9452 36.6019 34.9412 39.2011 34.9412C40.0675 34.9412 40.8984 34.6065 41.5111 34.0108C42.1237 33.4151 42.4679 32.6072 42.4679 31.7647C42.4679 30.9223 42.1237 30.1143 41.5111 29.5186C40.8984 28.9229 40.0675 28.5882 39.2011 28.5882Z" fill="#12A3A9"/>
<path opacity="0.6" d="M100.312 43.3281C102.922 43.3281 105.105 44.1992 106.863 45.9414C108.621 47.6836 109.5 49.8281 109.5 52.375C109.5 54.8984 108.621 57.0391 106.863 58.7969C105.113 60.5547 102.977 61.4336 100.453 61.4336C97.8984 61.4336 95.7422 60.5586 93.9844 58.8086C92.2266 57.0586 91.3477 54.9414 91.3477 52.457C91.3477 50.8008 91.7461 49.2656 92.543 47.8516C93.3477 46.4375 94.4414 45.332 95.8242 44.5352C97.207 43.7305 98.7031 43.3281 100.312 43.3281ZM100.395 45.0156C99.1211 45.0156 97.9141 45.3477 96.7734 46.0117C95.6328 46.6758 94.7422 47.5703 94.1016 48.6953C93.4609 49.8203 93.1406 51.0742 93.1406 52.457C93.1406 54.5039 93.8477 56.2344 95.2617 57.6484C96.6836 59.0547 98.3945 59.7578 100.395 59.7578C101.73 59.7578 102.965 59.4336 104.098 58.7852C105.238 58.1367 106.125 57.25 106.758 56.125C107.398 55 107.719 53.75 107.719 52.375C107.719 51.0078 107.398 49.7734 106.758 48.6719C106.125 47.5625 105.23 46.6758 104.074 46.0117C102.918 45.3477 101.691 45.0156 100.395 45.0156ZM111.234 48.25H113.203L116.578 52.9727L119.953 48.25H121.922L117.562 54.3086L122.473 61H120.48L116.578 55.6445L112.734 61H110.777L115.605 54.3086L111.234 48.25ZM122.848 48.25H124.582L128.965 58.0703L133.219 48.25H134.965L127.359 65.6641H125.625L128.086 60.0391L122.848 48.25ZM148.066 48.25H149.719V58.4102C149.719 60.1992 149.562 61.5078 149.25 62.3359C148.82 63.5078 148.074 64.4102 147.012 65.043C145.949 65.6758 144.672 65.9922 143.18 65.9922C142.086 65.9922 141.102 65.8359 140.227 65.5234C139.359 65.2188 138.652 64.8047 138.105 64.2812C137.559 63.7656 137.055 63.0078 136.594 62.0078H138.375C138.859 62.8516 139.484 63.4766 140.25 63.8828C141.016 64.2891 141.965 64.4922 143.098 64.4922C144.215 64.4922 145.156 64.2812 145.922 63.8594C146.695 63.4453 147.246 62.9219 147.574 62.2891C147.902 61.6562 148.066 60.6367 148.066 59.2305V58.5742C147.449 59.3555 146.695 59.957 145.805 60.3789C144.914 60.793 143.969 61 142.969 61C141.797 61 140.695 60.7109 139.664 60.1328C138.633 59.5469 137.836 58.7617 137.273 57.7773C136.711 56.793 136.43 55.7109 136.43 54.5312C136.43 53.3516 136.723 52.2539 137.309 51.2383C137.895 50.2148 138.703 49.4062 139.734 48.8125C140.773 48.2188 141.867 47.9219 143.016 47.9219C143.969 47.9219 144.855 48.1211 145.676 48.5195C146.504 48.9102 147.301 49.5586 148.066 50.4648V48.25ZM143.227 49.5039C142.297 49.5039 141.434 49.7305 140.637 50.1836C139.84 50.6289 139.215 51.25 138.762 52.0469C138.309 52.8359 138.082 53.6914 138.082 54.6133C138.082 56.0117 138.551 57.168 139.488 58.082C140.426 58.9961 141.641 59.4531 143.133 59.4531C144.641 59.4531 145.852 59 146.766 58.0938C147.688 57.1875 148.148 55.9961 148.148 54.5195C148.148 53.5586 147.938 52.7031 147.516 51.9531C147.094 51.1953 146.496 50.5977 145.723 50.1602C144.949 49.7227 144.117 49.5039 143.227 49.5039ZM163.969 56.7695L165.352 57.4961C164.898 58.3867 164.375 59.1055 163.781 59.6523C163.188 60.1992 162.52 60.6172 161.777 60.9062C161.035 61.1875 160.195 61.3281 159.258 61.3281C157.18 61.3281 155.555 60.6484 154.383 59.2891C153.211 57.9219 152.625 56.3789 152.625 54.6602C152.625 53.043 153.121 51.6016 154.113 50.3359C155.371 48.7266 157.055 47.9219 159.164 47.9219C161.336 47.9219 163.07 48.7461 164.367 50.3945C165.289 51.5586 165.758 53.0117 165.773 54.7539H154.312C154.344 56.2383 154.816 57.457 155.73 58.4102C156.645 59.3555 157.773 59.8281 159.117 59.8281C159.766 59.8281 160.395 59.7148 161.004 59.4883C161.621 59.2617 162.145 58.9609 162.574 58.5859C163.004 58.2109 163.469 57.6055 163.969 56.7695ZM163.969 53.3359C163.75 52.4609 163.43 51.7617 163.008 51.2383C162.594 50.7148 162.043 50.293 161.355 49.9727C160.668 49.6523 159.945 49.4922 159.188 49.4922C157.938 49.4922 156.863 49.8945 155.965 50.6992C155.309 51.2852 154.812 52.1641 154.477 53.3359H163.969ZM168.844 48.25H170.484V50.5352C171.141 49.6602 171.867 49.0078 172.664 48.5781C173.461 48.1406 174.328 47.9219 175.266 47.9219C176.219 47.9219 177.062 48.1641 177.797 48.6484C178.539 49.1328 179.086 49.7852 179.438 50.6055C179.789 51.4258 179.965 52.7031 179.965 54.4375V61H178.336V54.918C178.336 53.4492 178.273 52.4688 178.148 51.9766C177.953 51.1328 177.586 50.5 177.047 50.0781C176.508 49.6484 175.805 49.4336 174.938 49.4336C173.945 49.4336 173.055 49.7617 172.266 50.418C171.484 51.0742 170.969 51.8867 170.719 52.8555C170.562 53.4883 170.484 54.6445 170.484 56.3242V61H168.844V48.25Z" fill="#191B21"/>
<path opacity="0.6" d="M94.8281 215.328H96.4688V222.535C97.1328 221.66 97.8633 221.008 98.6602 220.578C99.457 220.141 100.32 219.922 101.25 219.922C102.203 219.922 103.047 220.164 103.781 220.648C104.523 221.133 105.07 221.785 105.422 222.605C105.773 223.418 105.949 224.695 105.949 226.438V233H104.309V226.918C104.309 225.449 104.25 224.469 104.133 223.977C103.93 223.133 103.559 222.5 103.02 222.078C102.488 221.648 101.789 221.434 100.922 221.434C99.9297 221.434 99.0391 221.762 98.25 222.418C97.4688 223.074 96.9531 223.887 96.7031 224.855C96.5469 225.48 96.4688 226.637 96.4688 228.324V233H94.8281V215.328ZM120.211 228.77L121.594 229.496C121.141 230.387 120.617 231.105 120.023 231.652C119.43 232.199 118.762 232.617 118.02 232.906C117.277 233.188 116.438 233.328 115.5 233.328C113.422 233.328 111.797 232.648 110.625 231.289C109.453 229.922 108.867 228.379 108.867 226.66C108.867 225.043 109.363 223.602 110.355 222.336C111.613 220.727 113.297 219.922 115.406 219.922C117.578 219.922 119.312 220.746 120.609 222.395C121.531 223.559 122 225.012 122.016 226.754H110.555C110.586 228.238 111.059 229.457 111.973 230.41C112.887 231.355 114.016 231.828 115.359 231.828C116.008 231.828 116.637 231.715 117.246 231.488C117.863 231.262 118.387 230.961 118.816 230.586C119.246 230.211 119.711 229.605 120.211 228.77ZM120.211 225.336C119.992 224.461 119.672 223.762 119.25 223.238C118.836 222.715 118.285 222.293 117.598 221.973C116.91 221.652 116.188 221.492 115.43 221.492C114.18 221.492 113.105 221.895 112.207 222.699C111.551 223.285 111.055 224.164 110.719 225.336H120.211ZM137.789 220.25V233H136.172V230.809C135.484 231.645 134.711 232.273 133.852 232.695C133 233.117 132.066 233.328 131.051 233.328C129.246 233.328 127.703 232.676 126.422 231.371C125.148 230.059 124.512 228.465 124.512 226.59C124.512 224.754 125.156 223.184 126.445 221.879C127.734 220.574 129.285 219.922 131.098 219.922C132.145 219.922 133.09 220.145 133.934 220.59C134.785 221.035 135.531 221.703 136.172 222.594V220.25H137.789ZM131.227 221.504C130.312 221.504 129.469 221.73 128.695 222.184C127.922 222.629 127.305 223.258 126.844 224.07C126.391 224.883 126.164 225.742 126.164 226.648C126.164 227.547 126.395 228.406 126.855 229.227C127.316 230.047 127.934 230.688 128.707 231.148C129.488 231.602 130.324 231.828 131.215 231.828C132.113 231.828 132.965 231.602 133.77 231.148C134.574 230.695 135.191 230.082 135.621 229.309C136.059 228.535 136.277 227.664 136.277 226.695C136.277 225.219 135.789 223.984 134.812 222.992C133.844 222 132.648 221.504 131.227 221.504ZM140.871 220.25H142.547V222.113C143.047 221.379 143.574 220.832 144.129 220.473C144.684 220.105 145.262 219.922 145.863 219.922C146.316 219.922 146.801 220.066 147.316 220.355L146.461 221.738C146.117 221.59 145.828 221.516 145.594 221.516C145.047 221.516 144.52 221.742 144.012 222.195C143.504 222.641 143.117 223.336 142.852 224.281C142.648 225.008 142.547 226.477 142.547 228.688V233H140.871V220.25ZM150.141 215.516H151.793V220.25H154.395V221.656H151.793V233H150.141V221.656H147.902V220.25H150.141V215.516ZM163.863 215.762H167.297C169.211 215.762 170.508 215.84 171.188 215.996C172.211 216.23 173.043 216.734 173.684 217.508C174.324 218.273 174.645 219.219 174.645 220.344C174.645 221.281 174.422 222.105 173.977 222.816C173.539 223.527 172.91 224.066 172.09 224.434C171.27 224.793 170.137 224.977 168.691 224.984L174.891 233H172.758L166.57 224.984H165.586V233H163.863V215.762ZM165.586 217.449V223.309L168.551 223.332C169.699 223.332 170.547 223.223 171.094 223.004C171.648 222.785 172.078 222.438 172.383 221.961C172.695 221.477 172.852 220.938 172.852 220.344C172.852 219.766 172.695 219.242 172.383 218.773C172.07 218.297 171.66 217.957 171.152 217.754C170.645 217.551 169.801 217.449 168.621 217.449H165.586ZM190.781 220.25V233H189.164V230.809C188.477 231.645 187.703 232.273 186.844 232.695C185.992 233.117 185.059 233.328 184.043 233.328C182.238 233.328 180.695 232.676 179.414 231.371C178.141 230.059 177.504 228.465 177.504 226.59C177.504 224.754 178.148 223.184 179.438 221.879C180.727 220.574 182.277 219.922 184.09 219.922C185.137 219.922 186.082 220.145 186.926 220.59C187.777 221.035 188.523 221.703 189.164 222.594V220.25H190.781ZM184.219 221.504C183.305 221.504 182.461 221.73 181.688 222.184C180.914 222.629 180.297 223.258 179.836 224.07C179.383 224.883 179.156 225.742 179.156 226.648C179.156 227.547 179.387 228.406 179.848 229.227C180.309 230.047 180.926 230.688 181.699 231.148C182.48 231.602 183.316 231.828 184.207 231.828C185.105 231.828 185.957 231.602 186.762 231.148C187.566 230.695 188.184 230.082 188.613 229.309C189.051 228.535 189.27 227.664 189.27 226.695C189.27 225.219 188.781 223.984 187.805 222.992C186.836 222 185.641 221.504 184.219 221.504ZM195.914 215.516H197.566V220.25H200.168V221.656H197.566V233H195.914V221.656H193.676V220.25H195.914V215.516ZM213.352 228.77L214.734 229.496C214.281 230.387 213.758 231.105 213.164 231.652C212.57 232.199 211.902 232.617 211.16 232.906C210.418 233.188 209.578 233.328 208.641 233.328C206.562 233.328 204.938 232.648 203.766 231.289C202.594 229.922 202.008 228.379 202.008 226.66C202.008 225.043 202.504 223.602 203.496 222.336C204.754 220.727 206.438 219.922 208.547 219.922C210.719 219.922 212.453 220.746 213.75 222.395C214.672 223.559 215.141 225.012 215.156 226.754H203.695C203.727 228.238 204.199 229.457 205.113 230.41C206.027 231.355 207.156 231.828 208.5 231.828C209.148 231.828 209.777 231.715 210.387 231.488C211.004 231.262 211.527 230.961 211.957 230.586C212.387 230.211 212.852 229.605 213.352 228.77ZM213.352 225.336C213.133 224.461 212.812 223.762 212.391 223.238C211.977 222.715 211.426 222.293 210.738 221.973C210.051 221.652 209.328 221.492 208.57 221.492C207.32 221.492 206.246 221.895 205.348 222.699C204.691 223.285 204.195 224.164 203.859 225.336H213.352Z" fill="#191B21"/>
<path opacity="0.6" d="M94.9336 370V352.328H96.5625V359.441C97.25 358.598 98.0195 357.969 98.8711 357.555C99.7227 357.133 100.656 356.922 101.672 356.922C103.477 356.922 105.016 357.578 106.289 358.891C107.57 360.195 108.211 361.781 108.211 363.648C108.211 365.492 107.566 367.066 106.277 368.371C104.988 369.676 103.438 370.328 101.625 370.328C100.586 370.328 99.6445 370.105 98.8008 369.66C97.957 369.215 97.2109 368.547 96.5625 367.656V370H94.9336ZM101.496 368.746C102.41 368.746 103.254 368.523 104.027 368.078C104.801 367.625 105.414 366.992 105.867 366.18C106.328 365.367 106.559 364.508 106.559 363.602C106.559 362.695 106.328 361.832 105.867 361.012C105.406 360.191 104.785 359.555 104.004 359.102C103.23 358.641 102.402 358.41 101.52 358.41C100.621 358.41 99.7656 358.641 98.9531 359.102C98.1484 359.555 97.5273 360.168 97.0898 360.941C96.6602 361.715 96.4453 362.586 96.4453 363.555C96.4453 365.031 96.9297 366.266 97.8984 367.258C98.875 368.25 100.074 368.746 101.496 368.746ZM110.965 352.328H112.605V370H110.965V352.328ZM122.051 356.922C124.012 356.922 125.637 357.633 126.926 359.055C128.098 360.352 128.684 361.887 128.684 363.66C128.684 365.441 128.062 367 126.82 368.336C125.586 369.664 123.996 370.328 122.051 370.328C120.098 370.328 118.5 369.664 117.258 368.336C116.023 367 115.406 365.441 115.406 363.66C115.406 361.895 115.992 360.363 117.164 359.066C118.453 357.637 120.082 356.922 122.051 356.922ZM122.051 358.527C120.691 358.527 119.523 359.031 118.547 360.039C117.57 361.047 117.082 362.266 117.082 363.695C117.082 364.617 117.305 365.477 117.75 366.273C118.195 367.07 118.797 367.688 119.555 368.125C120.312 368.555 121.145 368.77 122.051 368.77C122.957 368.77 123.789 368.555 124.547 368.125C125.305 367.688 125.906 367.07 126.352 366.273C126.797 365.477 127.02 364.617 127.02 363.695C127.02 362.266 126.527 361.047 125.543 360.039C124.566 359.031 123.402 358.527 122.051 358.527ZM137.777 356.922C139.738 356.922 141.363 357.633 142.652 359.055C143.824 360.352 144.41 361.887 144.41 363.66C144.41 365.441 143.789 367 142.547 368.336C141.312 369.664 139.723 370.328 137.777 370.328C135.824 370.328 134.227 369.664 132.984 368.336C131.75 367 131.133 365.441 131.133 363.66C131.133 361.895 131.719 360.363 132.891 359.066C134.18 357.637 135.809 356.922 137.777 356.922ZM137.777 358.527C136.418 358.527 135.25 359.031 134.273 360.039C133.297 361.047 132.809 362.266 132.809 363.695C132.809 364.617 133.031 365.477 133.477 366.273C133.922 367.07 134.523 367.688 135.281 368.125C136.039 368.555 136.871 368.77 137.777 368.77C138.684 368.77 139.516 368.555 140.273 368.125C141.031 367.688 141.633 367.07 142.078 366.273C142.523 365.477 142.746 364.617 142.746 363.695C142.746 362.266 142.254 361.047 141.27 360.039C140.293 359.031 139.129 358.527 137.777 358.527ZM160.195 352.328V370H158.578V367.809C157.891 368.645 157.117 369.273 156.258 369.695C155.406 370.117 154.473 370.328 153.457 370.328C151.652 370.328 150.109 369.676 148.828 368.371C147.555 367.059 146.918 365.465 146.918 363.59C146.918 361.754 147.562 360.184 148.852 358.879C150.141 357.574 151.691 356.922 153.504 356.922C154.551 356.922 155.496 357.145 156.34 357.59C157.191 358.035 157.938 358.703 158.578 359.594V352.328H160.195ZM153.633 358.504C152.719 358.504 151.875 358.73 151.102 359.184C150.328 359.629 149.711 360.258 149.25 361.07C148.797 361.883 148.57 362.742 148.57 363.648C148.57 364.547 148.801 365.406 149.262 366.227C149.723 367.047 150.34 367.688 151.113 368.148C151.895 368.602 152.73 368.828 153.621 368.828C154.52 368.828 155.371 368.602 156.176 368.148C156.98 367.695 157.598 367.082 158.027 366.309C158.465 365.535 158.684 364.664 158.684 363.695C158.684 362.219 158.195 360.984 157.219 359.992C156.25 359 155.055 358.504 153.633 358.504ZM170.602 357.25H172.23V359.594C172.879 358.703 173.625 358.035 174.469 357.59C175.312 357.145 176.254 356.922 177.293 356.922C179.105 356.922 180.656 357.574 181.945 358.879C183.234 360.184 183.879 361.754 183.879 363.59C183.879 365.465 183.238 367.059 181.957 368.371C180.684 369.676 179.145 370.328 177.34 370.328C176.324 370.328 175.391 370.117 174.539 369.695C173.688 369.273 172.918 368.645 172.23 367.809V374.664H170.602V357.25ZM177.164 358.504C175.742 358.504 174.543 359 173.566 359.992C172.598 360.984 172.113 362.219 172.113 363.695C172.113 364.664 172.328 365.535 172.758 366.309C173.195 367.082 173.816 367.695 174.621 368.148C175.434 368.602 176.289 368.828 177.188 368.828C178.07 368.828 178.898 368.602 179.672 368.148C180.453 367.688 181.074 367.047 181.535 366.227C181.996 365.406 182.227 364.547 182.227 363.648C182.227 362.742 181.996 361.883 181.535 361.07C181.082 360.258 180.469 359.629 179.695 359.184C178.922 358.73 178.078 358.504 177.164 358.504ZM186.34 357.25H188.016V359.113C188.516 358.379 189.043 357.832 189.598 357.473C190.152 357.105 190.73 356.922 191.332 356.922C191.785 356.922 192.27 357.066 192.785 357.355L191.93 358.738C191.586 358.59 191.297 358.516 191.062 358.516C190.516 358.516 189.988 358.742 189.48 359.195C188.973 359.641 188.586 360.336 188.32 361.281C188.117 362.008 188.016 363.477 188.016 365.688V370H186.34V357.25ZM204.914 365.77L206.297 366.496C205.844 367.387 205.32 368.105 204.727 368.652C204.133 369.199 203.465 369.617 202.723 369.906C201.98 370.188 201.141 370.328 200.203 370.328C198.125 370.328 196.5 369.648 195.328 368.289C194.156 366.922 193.57 365.379 193.57 363.66C193.57 362.043 194.066 360.602 195.059 359.336C196.316 357.727 198 356.922 200.109 356.922C202.281 356.922 204.016 357.746 205.312 359.395C206.234 360.559 206.703 362.012 206.719 363.754H195.258C195.289 365.238 195.762 366.457 196.676 367.41C197.59 368.355 198.719 368.828 200.062 368.828C200.711 368.828 201.34 368.715 201.949 368.488C202.566 368.262 203.09 367.961 203.52 367.586C203.949 367.211 204.414 366.605 204.914 365.77ZM204.914 362.336C204.695 361.461 204.375 360.762 203.953 360.238C203.539 359.715 202.988 359.293 202.301 358.973C201.613 358.652 200.891 358.492 200.133 358.492C198.883 358.492 197.809 358.895 196.91 359.699C196.254 360.285 195.758 361.164 195.422 362.336H204.914ZM216.199 358.645L215.145 359.734C214.27 358.883 213.414 358.457 212.578 358.457C212.047 358.457 211.59 358.633 211.207 358.984C210.832 359.336 210.645 359.746 210.645 360.215C210.645 360.629 210.801 361.023 211.113 361.398C211.426 361.781 212.082 362.23 213.082 362.746C214.301 363.379 215.129 363.988 215.566 364.574C215.996 365.168 216.211 365.836 216.211 366.578C216.211 367.625 215.844 368.512 215.109 369.238C214.375 369.965 213.457 370.328 212.355 370.328C211.621 370.328 210.918 370.168 210.246 369.848C209.582 369.527 209.031 369.086 208.594 368.523L209.625 367.352C210.461 368.297 211.348 368.77 212.285 368.77C212.941 368.77 213.5 368.559 213.961 368.137C214.422 367.715 214.652 367.219 214.652 366.648C214.652 366.18 214.5 365.762 214.195 365.395C213.891 365.035 213.203 364.582 212.133 364.035C210.984 363.441 210.203 362.855 209.789 362.277C209.375 361.699 209.168 361.039 209.168 360.297C209.168 359.328 209.496 358.523 210.152 357.883C210.816 357.242 211.652 356.922 212.66 356.922C213.832 356.922 215.012 357.496 216.199 358.645ZM218.906 357.25H220.559V363.203C220.559 364.656 220.637 365.656 220.793 366.203C221.027 366.984 221.473 367.602 222.129 368.055C222.793 368.508 223.582 368.734 224.496 368.734C225.41 368.734 226.184 368.516 226.816 368.078C227.457 367.633 227.898 367.051 228.141 366.332C228.305 365.84 228.387 364.797 228.387 363.203V357.25H230.062V363.508C230.062 365.266 229.855 366.59 229.441 367.48C229.035 368.371 228.418 369.07 227.59 369.578C226.77 370.078 225.738 370.328 224.496 370.328C223.254 370.328 222.215 370.078 221.379 369.578C220.551 369.07 219.93 368.367 219.516 367.469C219.109 366.562 218.906 365.203 218.906 363.391V357.25ZM233.098 357.25H234.773V359.113C235.273 358.379 235.801 357.832 236.355 357.473C236.91 357.105 237.488 356.922 238.09 356.922C238.543 356.922 239.027 357.066 239.543 357.355L238.688 358.738C238.344 358.59 238.055 358.516 237.82 358.516C237.273 358.516 236.746 358.742 236.238 359.195C235.73 359.641 235.344 360.336 235.078 361.281C234.875 362.008 234.773 363.477 234.773 365.688V370H233.098V357.25ZM251.672 365.77L253.055 366.496C252.602 367.387 252.078 368.105 251.484 368.652C250.891 369.199 250.223 369.617 249.48 369.906C248.738 370.188 247.898 370.328 246.961 370.328C244.883 370.328 243.258 369.648 242.086 368.289C240.914 366.922 240.328 365.379 240.328 363.66C240.328 362.043 240.824 360.602 241.816 359.336C243.074 357.727 244.758 356.922 246.867 356.922C249.039 356.922 250.773 357.746 252.07 359.395C252.992 360.559 253.461 362.012 253.477 363.754H242.016C242.047 365.238 242.52 366.457 243.434 367.41C244.348 368.355 245.477 368.828 246.82 368.828C247.469 368.828 248.098 368.715 248.707 368.488C249.324 368.262 249.848 367.961 250.277 367.586C250.707 367.211 251.172 366.605 251.672 365.77ZM251.672 362.336C251.453 361.461 251.133 360.762 250.711 360.238C250.297 359.715 249.746 359.293 249.059 358.973C248.371 358.652 247.648 358.492 246.891 358.492C245.641 358.492 244.566 358.895 243.668 359.699C243.012 360.285 242.516 361.164 242.18 362.336H251.672Z" fill="#191B21"/>
<path opacity="0.6" d="M81.3867 518.438V516.762H90.8438V518.438H87V534H85.2422V518.438H81.3867ZM103.781 529.77L105.164 530.496C104.711 531.387 104.188 532.105 103.594 532.652C103 533.199 102.332 533.617 101.59 533.906C100.848 534.188 100.008 534.328 99.0703 534.328C96.9922 534.328 95.3672 533.648 94.1953 532.289C93.0234 530.922 92.4375 529.379 92.4375 527.66C92.4375 526.043 92.9336 524.602 93.9258 523.336C95.1836 521.727 96.8672 520.922 98.9766 520.922C101.148 520.922 102.883 521.746 104.18 523.395C105.102 524.559 105.57 526.012 105.586 527.754H94.125C94.1562 529.238 94.6289 530.457 95.543 531.41C96.457 532.355 97.5859 532.828 98.9297 532.828C99.5781 532.828 100.207 532.715 100.816 532.488C101.434 532.262 101.957 531.961 102.387 531.586C102.816 531.211 103.281 530.605 103.781 529.77ZM103.781 526.336C103.562 525.461 103.242 524.762 102.82 524.238C102.406 523.715 101.855 523.293 101.168 522.973C100.48 522.652 99.7578 522.492 99 522.492C97.75 522.492 96.6758 522.895 95.7773 523.699C95.1211 524.285 94.625 525.164 94.2891 526.336H103.781ZM108.645 521.25H110.273V523.453C110.844 522.641 111.43 522.047 112.031 521.672C112.859 521.172 113.73 520.922 114.645 520.922C115.262 520.922 115.848 521.043 116.402 521.285C116.957 521.527 117.41 521.852 117.762 522.258C118.113 522.656 118.418 523.23 118.676 523.98C119.223 522.98 119.906 522.223 120.727 521.707C121.547 521.184 122.43 520.922 123.375 520.922C124.258 520.922 125.035 521.145 125.707 521.59C126.387 522.035 126.891 522.656 127.219 523.453C127.547 524.25 127.711 525.445 127.711 527.039V534H126.035V527.039C126.035 525.672 125.938 524.734 125.742 524.227C125.547 523.711 125.211 523.297 124.734 522.984C124.266 522.672 123.703 522.516 123.047 522.516C122.25 522.516 121.52 522.75 120.855 523.219C120.199 523.688 119.719 524.312 119.414 525.094C119.109 525.875 118.957 527.18 118.957 529.008V534H117.328V527.473C117.328 525.934 117.23 524.891 117.035 524.344C116.848 523.789 116.516 523.348 116.039 523.02C115.562 522.684 114.996 522.516 114.34 522.516C113.582 522.516 112.871 522.746 112.207 523.207C111.551 523.66 111.062 524.273 110.742 525.047C110.43 525.82 110.273 527.004 110.273 528.598V534H108.645V521.25ZM131.203 521.25H132.832V523.594C133.48 522.703 134.227 522.035 135.07 521.59C135.914 521.145 136.855 520.922 137.895 520.922C139.707 520.922 141.258 521.574 142.547 522.879C143.836 524.184 144.48 525.754 144.48 527.59C144.48 529.465 143.84 531.059 142.559 532.371C141.285 533.676 139.746 534.328 137.941 534.328C136.926 534.328 135.992 534.117 135.141 533.695C134.289 533.273 133.52 532.645 132.832 531.809V538.664H131.203V521.25ZM137.766 522.504C136.344 522.504 135.145 523 134.168 523.992C133.199 524.984 132.715 526.219 132.715 527.695C132.715 528.664 132.93 529.535 133.359 530.309C133.797 531.082 134.418 531.695 135.223 532.148C136.035 532.602 136.891 532.828 137.789 532.828C138.672 532.828 139.5 532.602 140.273 532.148C141.055 531.688 141.676 531.047 142.137 530.227C142.598 529.406 142.828 528.547 142.828 527.648C142.828 526.742 142.598 525.883 142.137 525.07C141.684 524.258 141.07 523.629 140.297 523.184C139.523 522.73 138.68 522.504 137.766 522.504ZM146.941 521.25H148.617V523.113C149.117 522.379 149.645 521.832 150.199 521.473C150.754 521.105 151.332 520.922 151.934 520.922C152.387 520.922 152.871 521.066 153.387 521.355L152.531 522.738C152.188 522.59 151.898 522.516 151.664 522.516C151.117 522.516 150.59 522.742 150.082 523.195C149.574 523.641 149.188 524.336 148.922 525.281C148.719 526.008 148.617 527.477 148.617 529.688V534H146.941V521.25ZM167.484 521.25V534H165.867V531.809C165.18 532.645 164.406 533.273 163.547 533.695C162.695 534.117 161.762 534.328 160.746 534.328C158.941 534.328 157.398 533.676 156.117 532.371C154.844 531.059 154.207 529.465 154.207 527.59C154.207 525.754 154.852 524.184 156.141 522.879C157.43 521.574 158.98 520.922 160.793 520.922C161.84 520.922 162.785 521.145 163.629 521.59C164.48 522.035 165.227 522.703 165.867 523.594V521.25H167.484ZM160.922 522.504C160.008 522.504 159.164 522.73 158.391 523.184C157.617 523.629 157 524.258 156.539 525.07C156.086 525.883 155.859 526.742 155.859 527.648C155.859 528.547 156.09 529.406 156.551 530.227C157.012 531.047 157.629 531.688 158.402 532.148C159.184 532.602 160.02 532.828 160.91 532.828C161.809 532.828 162.66 532.602 163.465 532.148C164.27 531.695 164.887 531.082 165.316 530.309C165.754 529.535 165.973 528.664 165.973 527.695C165.973 526.219 165.484 524.984 164.508 523.992C163.539 523 162.344 522.504 160.922 522.504ZM172.617 516.516H174.27V521.25H176.871V522.656H174.27V534H172.617V522.656H170.379V521.25H172.617V516.516ZM179.109 521.25H180.762V527.203C180.762 528.656 180.84 529.656 180.996 530.203C181.23 530.984 181.676 531.602 182.332 532.055C182.996 532.508 183.785 532.734 184.699 532.734C185.613 532.734 186.387 532.516 187.02 532.078C187.66 531.633 188.102 531.051 188.344 530.332C188.508 529.84 188.59 528.797 188.59 527.203V521.25H190.266V527.508C190.266 529.266 190.059 530.59 189.645 531.48C189.238 532.371 188.621 533.07 187.793 533.578C186.973 534.078 185.941 534.328 184.699 534.328C183.457 534.328 182.418 534.078 181.582 533.578C180.754 533.07 180.133 532.367 179.719 531.469C179.312 530.562 179.109 529.203 179.109 527.391V521.25ZM193.301 521.25H194.977V523.113C195.477 522.379 196.004 521.832 196.559 521.473C197.113 521.105 197.691 520.922 198.293 520.922C198.746 520.922 199.23 521.066 199.746 521.355L198.891 522.738C198.547 522.59 198.258 522.516 198.023 522.516C197.477 522.516 196.949 522.742 196.441 523.195C195.934 523.641 195.547 524.336 195.281 525.281C195.078 526.008 194.977 527.477 194.977 529.688V534H193.301V521.25ZM211.875 529.77L213.258 530.496C212.805 531.387 212.281 532.105 211.688 532.652C211.094 533.199 210.426 533.617 209.684 533.906C208.941 534.188 208.102 534.328 207.164 534.328C205.086 534.328 203.461 533.648 202.289 532.289C201.117 530.922 200.531 529.379 200.531 527.66C200.531 526.043 201.027 524.602 202.02 523.336C203.277 521.727 204.961 520.922 207.07 520.922C209.242 520.922 210.977 521.746 212.273 523.395C213.195 524.559 213.664 526.012 213.68 527.754H202.219C202.25 529.238 202.723 530.457 203.637 531.41C204.551 532.355 205.68 532.828 207.023 532.828C207.672 532.828 208.301 532.715 208.91 532.488C209.527 532.262 210.051 531.961 210.48 531.586C210.91 531.211 211.375 530.605 211.875 529.77ZM211.875 526.336C211.656 525.461 211.336 524.762 210.914 524.238C210.5 523.715 209.949 523.293 209.262 522.973C208.574 522.652 207.852 522.492 207.094 522.492C205.844 522.492 204.77 522.895 203.871 523.699C203.215 524.285 202.719 525.164 202.383 526.336H211.875Z" fill="#191B21"/>
<path opacity="0.6" d="M85.1094 661.762H94.9883V663.461H86.832V668.852H94.918V670.539H86.832V677.301H94.918V679H85.1094V661.762ZM114.02 664.961L112.66 666.004C111.91 665.027 111.008 664.289 109.953 663.789C108.906 663.281 107.754 663.027 106.496 663.027C105.121 663.027 103.848 663.359 102.676 664.023C101.504 664.68 100.594 665.566 99.9453 666.684C99.3047 667.793 98.9844 669.043 98.9844 670.434C98.9844 672.535 99.7031 674.289 101.141 675.695C102.586 677.102 104.406 677.805 106.602 677.805C109.016 677.805 111.035 676.859 112.66 674.969L114.02 676C113.16 677.094 112.086 677.941 110.797 678.543C109.516 679.137 108.082 679.434 106.496 679.434C103.48 679.434 101.102 678.43 99.3594 676.422C97.8984 674.727 97.168 672.68 97.168 670.281C97.168 667.758 98.0508 665.637 99.8164 663.918C101.59 662.191 103.809 661.328 106.473 661.328C108.082 661.328 109.535 661.648 110.832 662.289C112.129 662.922 113.191 663.812 114.02 664.961ZM134.117 664.656L132.781 665.922C131.82 664.977 130.766 664.262 129.617 663.777C128.477 663.285 127.363 663.039 126.277 663.039C124.926 663.039 123.637 663.371 122.41 664.035C121.191 664.699 120.246 665.602 119.574 666.742C118.902 667.875 118.566 669.074 118.566 670.34C118.566 671.637 118.914 672.871 119.609 674.043C120.305 675.207 121.266 676.125 122.492 676.797C123.719 677.461 125.062 677.793 126.523 677.793C128.297 677.793 129.797 677.293 131.023 676.293C132.25 675.293 132.977 673.996 133.203 672.402H127.707V670.738H135.137C135.121 673.402 134.328 675.52 132.758 677.09C131.195 678.652 129.102 679.434 126.477 679.434C123.289 679.434 120.766 678.348 118.906 676.176C117.477 674.504 116.762 672.57 116.762 670.375C116.762 668.742 117.172 667.223 117.992 665.816C118.812 664.41 119.938 663.312 121.367 662.523C122.797 661.727 124.414 661.328 126.219 661.328C127.68 661.328 129.055 661.594 130.344 662.125C131.633 662.648 132.891 663.492 134.117 664.656Z" fill="#191B21"/>
</svg>
