<svg width="200" height="200" viewBox="0 0 200 200" fill="none" xmlns="http://www.w3.org/2000/svg">
<path d="M78.7737 68.9929C83.9958 68.9929 88.2243 73.8464 88.2243 79.8266V138.638C88.2243 141.511 87.2286 144.267 85.4562 146.298C83.6839 148.33 81.2801 149.472 78.7737 149.472H54.4506C51.9441 149.472 49.5403 148.33 47.768 146.298C45.9957 144.267 45 141.511 45 138.638V79.8266C45 73.8464 49.2339 68.9929 54.4506 68.9929H78.7737ZM78.7737 78.2789H54.4506C54.0925 78.2789 53.7491 78.442 53.4959 78.7322C53.2427 79.0224 53.1005 79.4161 53.1005 79.8266V138.638C53.1005 139.492 53.7053 140.186 54.4506 140.186H78.7737C79.1317 140.186 79.4751 140.022 79.7283 139.732C79.9815 139.442 80.1238 139.048 80.1238 138.638V79.8266C80.1238 79.4161 79.9815 79.0224 79.7283 78.7322C79.4751 78.442 79.1317 78.2789 78.7737 78.2789ZM67.9622 124.69C68.9884 124.691 69.9762 125.138 70.7261 125.941C71.4759 126.744 71.9319 127.843 72.0018 129.017C72.0717 130.19 71.7505 131.351 71.1029 132.263C70.4553 133.176 69.5297 133.773 68.513 133.933L67.9622 133.976H65.262C64.2359 133.976 63.248 133.529 62.4982 132.726C61.7484 131.923 61.2924 130.823 61.2225 129.65C61.1525 128.476 61.4738 127.316 62.1214 126.403C62.769 125.491 63.6946 124.894 64.7112 124.734L65.262 124.69H67.9622ZM148.951 121.595C149.977 121.595 150.965 122.042 151.715 122.845C152.465 123.648 152.921 124.748 152.991 125.921C153.061 127.095 152.739 128.255 152.092 129.168C151.444 130.081 150.518 130.677 149.502 130.838L148.956 130.881H93.603V121.595H148.956H148.951ZM132.755 50.4023C137.972 50.4023 142.206 55.2558 142.206 61.236V107.666C142.206 110.539 141.21 113.295 139.438 115.327C137.666 117.358 135.262 118.5 132.755 118.5H93.603V109.214H132.755C133.113 109.214 133.457 109.051 133.71 108.76C133.963 108.47 134.105 108.076 134.105 107.666V61.236C134.105 60.8255 133.963 60.4319 133.71 60.1416C133.457 59.8514 133.113 59.6883 132.755 59.6883H65.2512C64.8932 59.6883 64.5498 59.8514 64.2966 60.1416C64.0434 60.4319 63.9012 60.8255 63.9012 61.236L63.8958 62.7837H55.8007V61.236C55.8007 55.2558 60.0345 50.4023 65.2512 50.4023H132.755Z" fill="#4FCACA"/>
<rect x="106" y="74" width="8" height="21" fill="#4FCACA"/>
<rect x="121" y="80" width="9" height="22" transform="rotate(90 121 80)" fill="#4FCACA"/>
<circle cx="100" cy="100" r="98.5" stroke="#4FCACA" stroke-width="3" stroke-dasharray="12 12"/>
</svg>
