<svg width="40" height="36" viewBox="0 0 40 36" fill="none" xmlns="http://www.w3.org/2000/svg">
<path d="M4.44444 4.69565C4.44444 3.45029 4.9127 2.25593 5.74619 1.37532C6.57969 0.494719 7.71015 0 8.88889 0H32.5926C33.7713 0 34.9018 0.494719 35.7353 1.37532C36.5688 2.25593 37.037 3.45029 37.037 4.69565V20.3478C37.037 21.5932 36.5688 22.7875 35.7353 23.6682C34.9018 24.5488 33.7713 25.0435 32.5926 25.0435H20.7407V12.5217C20.7407 10.4461 19.9603 8.45554 18.5712 6.98786C17.182 5.52018 15.2979 4.69565 13.3333 4.69565H5.92593C5.41333 4.69565 4.91852 4.76452 4.44444 4.89287V4.69565ZM38.5185 31.3043H20.7407V28.1739H38.5185C38.9114 28.1739 39.2883 28.3388 39.5661 28.6324C39.8439 28.9259 40 29.324 40 29.7391C40 30.1543 39.8439 30.5524 39.5661 30.8459C39.2883 31.1394 38.9114 31.3043 38.5185 31.3043ZM4.44444 7.82609C3.2657 7.82609 2.13524 8.32081 1.30175 9.20141C0.468253 10.082 0 11.2764 0 12.5217V31.3043C0 32.5497 0.468253 33.7441 1.30175 34.6247C2.13524 35.5053 3.2657 36 4.44444 36H13.3333C14.5121 36 15.6425 35.5053 16.476 34.6247C17.3095 33.7441 17.7778 32.5497 17.7778 31.3043V12.5217C17.7778 11.2764 17.3095 10.082 16.476 9.20141C15.6425 8.32081 14.5121 7.82609 13.3333 7.82609H4.44444ZM8.88889 31.3043C8.49598 31.3043 8.11915 31.1394 7.84132 30.8459C7.56349 30.5524 7.40741 30.1543 7.40741 29.7391C7.40741 29.324 7.56349 28.9259 7.84132 28.6324C8.11915 28.3388 8.49598 28.1739 8.88889 28.1739C9.2818 28.1739 9.65862 28.3388 9.93645 28.6324C10.2143 28.9259 10.3704 29.324 10.3704 29.7391C10.3704 30.1543 10.2143 30.5524 9.93645 30.8459C9.65862 31.1394 9.2818 31.3043 8.88889 31.3043Z" fill="#0C9093"/>
</svg>
