<svg width="109" height="155" viewBox="0 0 109 155" fill="none" xmlns="http://www.w3.org/2000/svg">
<path opacity="0.05" d="M2.18 50.592C2.588 34.408 7.28 22.032 16.256 13.464C25.368 4.89599 38.22 0.611992 54.812 0.611992C65.556 0.611992 74.736 2.44799 82.352 6.11999C89.968 9.792 95.68 14.756 99.488 21.012C103.432 27.268 105.404 34.34 105.404 42.228C105.404 51.748 103.16 59.228 98.672 64.668C94.184 69.972 89.152 73.576 83.576 75.48V76.296C99.896 82.416 108.056 93.772 108.056 110.364C108.056 119.068 106.016 126.752 101.936 133.416C97.856 140.08 92.008 145.248 84.392 148.92C76.912 152.592 68.004 154.428 57.668 154.428C39.988 154.428 26.116 150.212 16.052 141.78C5.988 133.348 0.82 120.156 0.548 102.204H44.612C44.34 107.1 45.02 110.84 46.652 113.424C48.42 115.872 51.412 117.096 55.628 117.096C58.076 117.096 60.116 116.212 61.748 114.444C63.38 112.54 64.196 110.092 64.196 107.1C64.196 103.292 62.904 100.436 60.32 98.532C57.872 96.492 53.656 95.472 47.672 95.472H40.124V58.956H47.468C56.716 59.5 61.34 55.828 61.34 47.94C61.34 44.54 60.592 42.024 59.096 40.392C57.736 38.76 55.968 37.944 53.792 37.944C48.76 37.944 46.244 42.16 46.244 50.592H2.18Z" fill="black"/>
</svg>
