<svg width="107" height="151" viewBox="0 0 107 151" fill="none" xmlns="http://www.w3.org/2000/svg">
<path opacity="0.05" d="M0.712 116.892C18.936 103.292 33.352 90.984 43.96 79.968C54.568 68.816 59.872 58.412 59.872 48.756C59.872 45.492 59.124 42.976 57.628 41.208C56.268 39.44 54.432 38.556 52.12 38.556C49.4 38.556 47.224 39.984 45.592 42.84C44.096 45.56 43.552 49.776 43.96 55.488H0.1C0.508 42.84 3.228 32.436 8.26 24.276C13.428 16.116 20.092 10.132 28.252 6.32399C36.412 2.51599 45.388 0.611992 55.18 0.611992C72.588 0.611992 85.304 4.82799 93.328 13.26C101.488 21.556 105.568 32.232 105.568 45.288C105.568 59.024 101.148 71.944 92.308 84.048C83.604 96.016 72.656 106.148 59.464 114.444H106.18V150.96H0.712V116.892Z" fill="black"/>
</svg>
