<svg width="94" height="94" viewBox="0 0 94 94" fill="none" xmlns="http://www.w3.org/2000/svg">
<path d="M93.946 42.198V31.8439H83.5268V21.4897C83.5186 18.7462 82.4182 16.1173 80.466 14.1773C78.5138 12.2373 75.8684 11.1438 73.1076 11.1356H62.6883V0.781494H52.2691V11.1356H41.8498V0.781494H31.4306V11.1356H21.0113C18.2505 11.1438 15.6051 12.2373 13.6529 14.1773C11.7007 16.1173 10.6003 18.7462 10.5921 21.4897V31.8439H0.172852V42.198H10.5921V52.5521H0.172852V62.9062H10.5921V73.2604C10.6003 76.0039 11.7007 78.6328 13.6529 80.5728C15.6051 82.5128 18.2505 83.6063 21.0113 83.6145H31.4306V93.9686H41.8498V83.6145H52.2691V93.9686H62.6883V83.6145H73.1076C75.8684 83.6063 78.5138 82.5128 80.466 80.5728C82.4182 78.6328 83.5186 76.0039 83.5268 73.2604V62.9062H93.946V52.5521H83.5268V42.198H93.946ZM73.1076 73.2604H21.0113V21.4897H73.1076V73.2604Z" fill="#676868" fill-opacity="0.43"/>
<path d="M93.946 42.198V31.8439H83.5268V21.4897C83.5186 18.7462 82.4182 16.1173 80.466 14.1773C78.5138 12.2373 75.8684 11.1438 73.1076 11.1356H62.6883V0.781494H52.2691V11.1356H41.8498V0.781494H31.4306V11.1356H21.0113C18.2505 11.1438 15.6051 12.2373 13.6529 14.1773C11.7007 16.1173 10.6003 18.7462 10.5921 21.4897V31.8439H0.172852V42.198H10.5921V52.5521H0.172852V62.9062H10.5921V73.2604C10.6003 76.0039 11.7007 78.6328 13.6529 80.5728C15.6051 82.5128 18.2505 83.6063 21.0113 83.6145H31.4306V93.9686H41.8498V83.6145H52.2691V93.9686H62.6883V83.6145H73.1076C75.8684 83.6063 78.5138 82.5128 80.466 80.5728C82.4182 78.6328 83.5186 76.0039 83.5268 73.2604V62.9062H93.946V52.5521H83.5268V42.198H93.946ZM73.1076 73.2604H21.0113V21.4897H73.1076V73.2604Z" fill="#676868" fill-opacity="0.3"/>
<path d="M43.7302 26.6667H36.7233L26.252 68.0832H31.6022L34.0195 58.3763H46.085L48.4397 68.0832H53.9724L43.7302 26.6667ZM34.7228 54.2294L40.0262 31.585H40.2658L45.3869 54.2294H34.7228Z" fill="#676868" fill-opacity="0.43"/>
<path d="M43.7302 26.6667H36.7233L26.252 68.0832H31.6022L34.0195 58.3763H46.085L48.4397 68.0832H53.9724L43.7302 26.6667ZM34.7228 54.2294L40.0262 31.585H40.2658L45.3869 54.2294H34.7228Z" fill="#676868" fill-opacity="0.43"/>
<path d="M58.751 26.6667H63.9606V68.0832H58.751V26.6667Z" fill="#676868" fill-opacity="0.43"/>
<path d="M58.751 26.6667H63.9606V68.0832H58.751V26.6667Z" fill="#676868" fill-opacity="0.43"/>
</svg>
