<svg width="155" height="58" viewBox="0 0 155 58" fill="none" xmlns="http://www.w3.org/2000/svg">
<path d="M3.33837 5.96919C6.06341 10.7314 9.39621 15.1066 13.2516 18.9831C15.6668 21.5094 18.4583 24.2014 21.5187 26.9734C24.7786 29.9593 28.2411 32.711 31.8813 35.2087C33.846 36.5462 35.8965 37.7507 38.0195 38.8146C40.2103 39.9458 42.4987 40.8744 44.8571 41.5892C47.2651 42.3498 49.7559 42.8184 52.2774 42.9851C54.8219 43.1903 57.3849 43.0442 59.896 42.5506L60.3094 42.4576C60.2411 42.3293 60.1447 42.2062 60.0641 42.0743C57.048 37.0753 55.7251 31.2074 56.2944 25.3535C56.6147 22.3873 57.5278 19.5135 58.978 16.907C60.4952 14.1757 62.6757 11.8782 65.3115 10.2337C66.6755 9.32414 68.1724 8.6393 69.7457 8.20489C71.5054 7.705 73.3514 7.61679 75.1434 7.94698C76.8749 8.31193 78.508 9.04329 79.9357 10.0932C81.3635 11.1432 82.5539 12.4881 83.429 14.04C85.013 16.8522 85.5687 20.1451 84.9995 23.3461C84.4951 26.2803 83.4249 29.0897 81.8503 31.6137C80.3232 34.1089 78.4265 36.3537 76.2273 38.2687C73.4773 40.6525 70.3497 42.5478 66.9789 43.8732C67.539 44.4686 68.1379 45.0253 68.7716 45.5397C72.4885 48.6019 76.838 50.7844 81.5053 51.9292C85.85 53.0266 90.3389 53.4509 94.8196 53.1877C98.7335 52.9783 102.611 52.2864 106.367 51.1275C109.537 50.0684 112.608 48.723 115.543 47.1075C120.161 44.6281 124.5 41.6459 128.483 38.2143C131.173 35.934 133.689 33.452 136.011 30.7895C137.86 28.6401 139.127 27.0194 140.08 25.7372C140.925 24.639 141.453 23.8918 141.886 23.332L140.894 23.6714C138.065 24.639 135.491 25.4664 133.304 26.1118C128.933 27.3902 126.087 28.0151 125.907 27.5027C125.726 26.9903 128.127 25.6257 132.226 23.7402C134.28 22.7851 136.738 21.7208 139.497 20.5841L140.543 20.1528C140.991 19.9623 141.454 19.8111 141.927 19.7008C142.232 19.635 142.542 19.5961 142.853 19.5846C143.249 19.5691 143.644 19.6094 144.028 19.7044C144.819 19.9 145.525 20.3463 146.044 20.9783C146.655 21.825 147.101 22.7819 147.361 23.7988L148.154 26.0992C152.318 38.9427 154.916 49.5799 153.909 49.834C152.902 50.0881 148.697 39.8907 144.521 27.0436L143.987 25.3467C143.685 26.0439 143.337 26.7204 142.946 27.3719C141.822 29.3383 140.552 31.2165 139.148 32.9904C136.866 35.9343 134.324 38.6614 131.552 41.1372C127.434 44.878 122.898 48.1184 118.04 50.7916C114.849 52.5636 111.505 54.0317 108.05 55.1769C103.907 56.4816 99.6229 57.2574 95.2978 57.4863C90.3042 57.7816 85.3014 57.3004 80.4638 56.0595C75.0693 54.7166 70.0504 52.1642 65.7764 48.59C64.5407 47.5653 63.4115 46.4158 62.4064 45.1591C61.8486 45.2902 61.2908 45.4213 60.7319 45.5116C57.9099 46.0238 55.0357 46.1499 52.1866 45.8865C49.4229 45.6423 46.6994 45.0727 44.0709 44.1895C41.555 43.3706 39.1197 42.3215 36.7948 41.0551C34.6005 39.9009 32.4851 38.6004 30.4626 37.1622C26.7876 34.5293 23.3115 31.6242 20.0627 28.4705C17.0172 25.5589 14.2996 22.7674 11.9099 20.0958C8.12551 16.0067 4.96299 11.3696 2.52471 6.33462C1.89676 4.99015 1.37217 3.59804 0.955578 2.17056C0.701383 1.19083 0.590774 0.712612 0.674002 0.65638C0.75723 0.600147 1.52599 2.6235 3.36282 5.97646L3.33837 5.96919ZM64.0362 39.9891C64.257 40.3652 64.5096 40.7236 64.7622 41.0821C68.0375 39.8354 71.062 37.9894 73.6839 35.6369C75.5945 33.9144 77.236 31.9084 78.5515 29.6885C79.8624 27.522 80.7396 25.1183 81.1329 22.6151C81.5193 20.2384 81.0756 17.8061 79.8781 15.7375C79.3021 14.7144 78.5185 13.8274 77.5786 13.1341C76.6386 12.4408 75.5634 11.9569 74.4228 11.7139C72.076 11.454 69.7108 12.0883 67.788 13.4934C65.714 14.8241 64.0074 16.6677 62.8307 18.8484C61.679 21.0218 60.9708 23.4046 60.7483 25.8541C60.5105 28.3126 60.6727 30.7907 61.2284 33.1897C61.7701 35.5993 62.7112 37.8957 64.0117 39.9819" fill="#12A3A9"/>
</svg>
