<svg width="88" height="84" viewBox="0 0 88 84" fill="none" xmlns="http://www.w3.org/2000/svg">
<path d="M22.2371 18.3457C23.9499 18.3457 25.3384 17.0119 25.3384 15.3665C25.3384 13.7211 23.9499 12.3872 22.2371 12.3872C20.5243 12.3872 19.1357 13.7211 19.1357 15.3665C19.1357 17.0119 20.5243 18.3457 22.2371 18.3457Z" fill="#676868" fill-opacity="0.43"/>
<path d="M22.2371 18.3457C23.9499 18.3457 25.3384 17.0119 25.3384 15.3665C25.3384 13.7211 23.9499 12.3872 22.2371 12.3872C20.5243 12.3872 19.1357 13.7211 19.1357 15.3665C19.1357 17.0119 20.5243 18.3457 22.2371 18.3457Z" fill="#676868" fill-opacity="0.43"/>
<path d="M78.0612 60.4724V48.1383C78.0612 46.558 77.4077 45.0424 76.2445 43.925C75.0812 42.8075 73.5036 42.1798 71.8585 42.1798H47.0477V30.2627H74.9598C76.6049 30.2627 78.1826 29.635 79.3458 28.5175C80.5091 27.4001 81.1626 25.8845 81.1626 24.3042V6.42872C81.1626 4.84843 80.5091 3.33286 79.3458 2.21542C78.1826 1.09798 76.6049 0.470215 74.9598 0.470215H12.9328C11.2877 0.470215 9.71004 1.09798 8.54681 2.21542C7.38358 3.33286 6.73008 4.84843 6.73008 6.42872V24.3042C6.73008 25.8845 7.38358 27.4001 8.54681 28.5175C9.71004 29.635 11.2877 30.2627 12.9328 30.2627H40.845V42.1798H16.0341C14.3891 42.1798 12.8114 42.8075 11.6482 43.925C10.4849 45.0424 9.83143 46.558 9.83143 48.1383V60.4724C6.90792 61.1975 4.36006 62.922 2.66544 65.3226C0.970824 67.7232 0.245792 70.6351 0.626249 73.5126C1.00671 76.39 2.46653 79.0353 4.73209 80.9527C6.99764 82.8701 9.91339 83.928 12.9328 83.928C15.9522 83.928 18.8679 82.8701 21.1335 80.9527C23.399 79.0353 24.8589 76.39 25.2393 73.5126C25.6198 70.6351 24.8947 67.7232 23.2001 65.3226C21.5055 62.922 18.9577 61.1975 16.0341 60.4724V48.1383H40.845V60.0553H31.5409V83.8893H56.3517V60.0553H47.0477V48.1383H71.8585V60.4724C68.935 61.1975 66.3871 62.922 64.6925 65.3226C62.9979 67.7232 62.2729 70.6351 62.6533 73.5126C63.0338 76.39 64.4936 79.0353 66.7592 80.9527C69.0247 82.8701 71.9405 83.928 74.9598 83.928C77.9792 83.928 80.895 82.8701 83.1605 80.9527C85.4261 79.0353 86.8859 76.39 87.2664 73.5126C87.6468 70.6351 86.9218 67.7232 85.2272 65.3226C83.5326 62.922 80.9847 61.1975 78.0612 60.4724ZM19.1355 71.9723C19.1355 73.1508 18.7717 74.3028 18.0901 75.2826C17.4086 76.2625 16.4399 77.0262 15.3065 77.4772C14.1731 77.9282 12.9259 78.0462 11.7227 77.8163C10.5195 77.5864 9.41427 77.0189 8.54681 76.1856C7.67935 75.3523 7.08859 74.2906 6.84926 73.1347C6.60993 71.9789 6.73276 70.7808 7.20223 69.6921C7.6717 68.6033 8.46672 67.6727 9.48675 67.018C10.5068 66.3632 11.706 66.0138 12.9328 66.0138C14.5778 66.0138 16.1555 66.6415 17.3188 67.759C18.482 68.8764 19.1355 70.392 19.1355 71.9723ZM50.149 66.0138V77.9308H37.7436V66.0138H50.149ZM12.9328 24.3042V6.42872H74.9598V24.3042H12.9328ZM74.9598 77.9308C73.7331 77.9308 72.5338 77.5813 71.5138 76.9266C70.4938 76.2719 69.6988 75.3413 69.2293 74.2525C68.7598 73.1637 68.637 71.9657 68.8763 70.8098C69.1157 69.654 69.7064 68.5923 70.5739 67.759C71.4413 66.9257 72.5466 66.3582 73.7498 66.1283C74.953 65.8984 76.2001 66.0163 77.3335 66.4673C78.4669 66.9183 79.4356 67.682 80.1172 68.6619C80.7988 69.6418 81.1626 70.7938 81.1626 71.9723C81.1626 73.5526 80.5091 75.0681 79.3458 76.1856C78.1826 77.303 76.6049 77.9308 74.9598 77.9308Z" fill="#676868" fill-opacity="0.43"/>
<path d="M78.0612 60.4724V48.1383C78.0612 46.558 77.4077 45.0424 76.2445 43.925C75.0812 42.8075 73.5036 42.1798 71.8585 42.1798H47.0477V30.2627H74.9598C76.6049 30.2627 78.1826 29.635 79.3458 28.5175C80.5091 27.4001 81.1626 25.8845 81.1626 24.3042V6.42872C81.1626 4.84843 80.5091 3.33286 79.3458 2.21542C78.1826 1.09798 76.6049 0.470215 74.9598 0.470215H12.9328C11.2877 0.470215 9.71004 1.09798 8.54681 2.21542C7.38358 3.33286 6.73008 4.84843 6.73008 6.42872V24.3042C6.73008 25.8845 7.38358 27.4001 8.54681 28.5175C9.71004 29.635 11.2877 30.2627 12.9328 30.2627H40.845V42.1798H16.0341C14.3891 42.1798 12.8114 42.8075 11.6482 43.925C10.4849 45.0424 9.83143 46.558 9.83143 48.1383V60.4724C6.90792 61.1975 4.36006 62.922 2.66544 65.3226C0.970824 67.7232 0.245792 70.6351 0.626249 73.5126C1.00671 76.39 2.46653 79.0353 4.73209 80.9527C6.99764 82.8701 9.91339 83.928 12.9328 83.928C15.9522 83.928 18.8679 82.8701 21.1335 80.9527C23.399 79.0353 24.8589 76.39 25.2393 73.5126C25.6198 70.6351 24.8947 67.7232 23.2001 65.3226C21.5055 62.922 18.9577 61.1975 16.0341 60.4724V48.1383H40.845V60.0553H31.5409V83.8893H56.3517V60.0553H47.0477V48.1383H71.8585V60.4724C68.935 61.1975 66.3871 62.922 64.6925 65.3226C62.9979 67.7232 62.2729 70.6351 62.6533 73.5126C63.0338 76.39 64.4936 79.0353 66.7592 80.9527C69.0247 82.8701 71.9405 83.928 74.9598 83.928C77.9792 83.928 80.895 82.8701 83.1605 80.9527C85.4261 79.0353 86.8859 76.39 87.2664 73.5126C87.6468 70.6351 86.9218 67.7232 85.2272 65.3226C83.5326 62.922 80.9847 61.1975 78.0612 60.4724ZM19.1355 71.9723C19.1355 73.1508 18.7717 74.3028 18.0901 75.2826C17.4086 76.2625 16.4399 77.0262 15.3065 77.4772C14.1731 77.9282 12.9259 78.0462 11.7227 77.8163C10.5195 77.5864 9.41427 77.0189 8.54681 76.1856C7.67935 75.3523 7.08859 74.2906 6.84926 73.1347C6.60993 71.9789 6.73276 70.7808 7.20223 69.6921C7.6717 68.6033 8.46672 67.6727 9.48675 67.018C10.5068 66.3632 11.706 66.0138 12.9328 66.0138C14.5778 66.0138 16.1555 66.6415 17.3188 67.759C18.482 68.8764 19.1355 70.392 19.1355 71.9723ZM50.149 66.0138V77.9308H37.7436V66.0138H50.149ZM12.9328 24.3042V6.42872H74.9598V24.3042H12.9328ZM74.9598 77.9308C73.7331 77.9308 72.5338 77.5813 71.5138 76.9266C70.4938 76.2719 69.6988 75.3413 69.2293 74.2525C68.7598 73.1637 68.637 71.9657 68.8763 70.8098C69.1157 69.654 69.7064 68.5923 70.5739 67.759C71.4413 66.9257 72.5466 66.3582 73.7498 66.1283C74.953 65.8984 76.2001 66.0163 77.3335 66.4673C78.4669 66.9183 79.4356 67.682 80.1172 68.6619C80.7988 69.6418 81.1626 70.7938 81.1626 71.9723C81.1626 73.5526 80.5091 75.0681 79.3458 76.1856C78.1826 77.303 76.6049 77.9308 74.9598 77.9308Z" fill="#676868" fill-opacity="0.43"/>
</svg>
