<svg width="365" height="356" viewBox="0 0 365 356" fill="none" xmlns="http://www.w3.org/2000/svg">
<path fill-rule="evenodd" clip-rule="evenodd" d="M197.77 264.4C197.77 265.748 197.376 267.507 196.769 267.24C196.52 267.928 195.999 268.522 195.294 268.921C194.588 269.32 193.742 269.5 192.898 269.429C192.055 269.358 191.266 269.042 190.666 268.533C190.066 268.025 189.692 267.356 189.607 266.64C189.004 265.745 188.214 263.952 190.245 262.554C190.282 262.544 190.304 262.46 190.337 262.336C190.463 261.868 190.741 260.826 192.498 261.025C193.853 261.178 197.77 261.772 197.77 264.4V264.4ZM196.024 265.25C196.024 265.25 195.817 265.765 196.011 266.339C196.009 266.951 195.724 267.537 195.217 267.973C194.711 268.408 194.024 268.657 193.304 268.668C192.583 268.678 191.887 268.447 191.364 268.026C190.841 267.605 190.534 267.027 190.508 266.416C190.574 266.201 190.574 265.839 190.574 265.435C190.573 264.708 190.572 263.85 190.965 263.5C193.712 265.054 196.024 265.25 196.024 265.25V265.25Z" fill="#12A3A9"/>
<path d="M188.212 273.044C188.212 272.622 188.474 272.253 188.869 272.048C188.854 271.999 188.84 271.95 188.827 271.901C188.757 271.635 188.703 271.366 188.664 271.096C188.624 270.837 188.601 270.576 188.593 270.314C186.656 270.96 185 272.085 185 273.266V275.381H201.516V273.266C201.516 272.135 199.998 271.055 198.168 270.399V270.41C198.176 270.648 198.161 270.92 198.13 271.182C198.103 271.425 198.062 271.668 198.013 271.875H198.305C198.39 271.875 198.473 271.896 198.546 271.934C198.618 271.972 198.677 272.026 198.715 272.091L199.174 272.87C199.206 272.924 199.222 272.984 199.222 273.044V273.823C199.222 273.926 199.174 274.025 199.088 274.099C199.002 274.172 198.885 274.213 198.764 274.213H197.846V273.434H198.305V273.136L198.021 272.654H196.753L196.47 273.136V273.434H196.928V274.213H196.011C195.889 274.213 195.773 274.172 195.686 274.099C195.6 274.025 195.552 273.926 195.552 273.823V273.044C195.552 272.984 195.569 272.924 195.601 272.87L196.06 272.091C196.098 272.026 196.156 271.972 196.229 271.934C196.301 271.896 196.384 271.875 196.47 271.875H197.073C197.083 271.842 197.093 271.805 197.103 271.764C197.149 271.58 197.19 271.348 197.217 271.108C197.245 270.867 197.258 270.628 197.251 270.432C197.249 270.35 197.242 270.269 197.228 270.189C197.218 270.133 197.208 270.108 197.206 270.103C197.206 270.101 197.206 270.101 197.206 270.102L197.208 270.101C196.964 270.037 196.718 269.981 196.47 269.933C196.239 269.888 196 270.157 195.896 270.326H190.505C190.492 270.304 190.479 270.283 190.466 270.261C190.369 270.096 190.249 269.893 190.047 269.933C189.87 269.967 189.693 270.006 189.517 270.048C189.511 270.117 189.509 270.185 189.509 270.254C189.511 270.469 189.536 270.733 189.575 270.999C189.614 271.265 189.666 271.524 189.721 271.728C189.737 271.787 189.753 271.84 189.767 271.885C190.03 271.914 190.276 272.007 190.478 272.152C190.68 272.298 190.828 272.489 190.905 272.704C190.982 272.919 190.984 273.148 190.911 273.364C190.839 273.58 190.694 273.774 190.496 273.922C190.297 274.07 190.052 274.167 189.79 274.2C189.528 274.233 189.261 274.201 189.02 274.108C188.779 274.016 188.575 273.866 188.431 273.677C188.288 273.488 188.212 273.269 188.212 273.044Z" fill="#12A3A9"/>
<path d="M190.046 273.044C190.046 273.267 189.835 273.439 189.588 273.439C189.341 273.439 189.129 273.268 189.129 273.044C189.129 272.82 189.341 272.648 189.588 272.648C189.835 272.648 190.046 272.82 190.046 273.044Z" fill="#12A3A9"/>
<path d="M26.0959 139.426C25.5401 139.426 25.0069 139.596 24.6139 139.899C24.2208 140.201 24 140.612 24 141.04V157.18C23.9991 160.754 25.7088 164.202 28.8022 166.866C31.8956 169.53 36.1556 171.222 40.7674 171.62V174.935C40.7674 179.215 42.9756 183.321 46.9063 186.348C50.8369 189.375 56.168 191.075 61.7267 191.075C67.2855 191.075 72.6166 189.375 76.5472 186.348C80.4778 183.321 82.686 179.215 82.686 174.935V171.545C85.2306 171.145 87.4916 170.032 89.0308 168.421C90.57 166.81 91.2777 164.817 91.0167 162.827C90.7557 160.837 89.5445 158.993 87.6181 157.652C85.6916 156.31 83.1871 155.568 80.5901 155.568C77.9931 155.568 75.4886 156.31 73.5621 157.652C71.6357 158.993 70.4245 160.837 70.1635 162.827C69.9025 164.817 70.6102 166.81 72.1494 168.421C73.6886 170.032 75.9496 171.145 78.4942 171.545V174.935C78.4942 178.359 76.7276 181.644 73.5831 184.065C70.4386 186.487 66.1737 187.847 61.7267 187.847C57.2797 187.847 53.0149 186.487 49.8704 184.065C46.7259 181.644 44.9593 178.359 44.9593 174.935V171.62C49.5711 171.222 53.8311 169.53 56.9245 166.866C60.0179 164.202 61.7276 160.754 61.7267 157.18V141.04C61.7267 140.612 61.5059 140.201 61.1128 139.899C60.7198 139.596 60.1867 139.426 59.6308 139.426H51.2471C50.6912 139.426 50.1581 139.596 49.765 139.899C49.372 140.201 49.1512 140.612 49.1512 141.04C49.1512 141.468 49.372 141.878 49.765 142.181C50.1581 142.484 50.6912 142.654 51.2471 142.654H57.5349V157.18C57.5349 160.177 55.9891 163.051 53.2377 165.169C50.4862 167.288 46.7545 168.479 42.8634 168.479C38.9722 168.479 35.2405 167.288 32.489 165.169C29.7376 163.051 28.1919 160.177 28.1919 157.18V142.654H34.4796C35.0355 142.654 35.5686 142.484 35.9617 142.181C36.3548 141.878 36.5756 141.468 36.5756 141.04C36.5756 140.612 36.3548 140.201 35.9617 139.899C35.5686 139.596 35.0355 139.426 34.4796 139.426H26.0959ZM80.5901 158.794C82.2577 158.794 83.857 159.304 85.0362 160.213C86.2154 161.121 86.8779 162.352 86.8779 163.636C86.8779 164.921 86.2154 166.152 85.0362 167.06C83.857 167.968 82.2577 168.479 80.5901 168.479C78.9225 168.479 77.3231 167.968 76.144 167.06C74.9648 166.152 74.3023 164.921 74.3023 163.636C74.3023 162.352 74.9648 161.121 76.144 160.213C77.3231 159.304 78.9225 158.794 80.5901 158.794V158.794Z" fill="#12A3A9"/>
<path d="M56.0726 113H29.0584C28.0349 113 27.0533 113.389 26.3295 114.081C25.6058 114.772 25.1992 115.711 25.1992 116.689V160.96C25.1992 161.939 25.6058 162.877 26.3295 163.569C27.0533 164.261 28.0349 164.649 29.0584 164.649H56.0726C57.0961 164.649 58.0777 164.261 58.8014 163.569C59.5252 162.877 59.9318 161.939 59.9318 160.96V116.689C59.9318 115.711 59.5252 114.772 58.8014 114.081C58.0777 113.389 57.0961 113 56.0726 113ZM44.4951 160.96H40.6359V157.271H44.4951V160.96ZM29.0584 153.582V116.689H56.0726V153.582H29.0584Z" fill="#12A3A9"/>
<path d="M27.5938 129.399H31.4199L33.6948 127.884L35.8665 130.704L38.245 127.414L40.4681 131.018L43.0017 129.399H55.1403" fill="#12A3A9"/>
<path d="M27.5938 129.399H31.4199L33.6948 127.884L35.8665 130.704L38.245 127.414L40.4681 131.018L43.0017 129.399H55.1403" stroke="#0C9093" stroke-width="2" stroke-linecap="round" stroke-linejoin="round"/>
<path d="M27.0793 202.155V205.184H30.3813V206.159H27.0793V209.279H30.7713V210.254H25.8963V201.18H30.7713V202.155H27.0793ZM37.2153 210.254L33.4843 206.12V210.254H32.3013V201.193H33.4843V205.392L37.2283 201.193H38.7233L34.6153 205.73L38.7623 210.254H37.2153ZM46.6875 203.819C46.4362 203.29 46.0722 202.883 45.5955 202.597C45.1189 202.302 44.5642 202.155 43.9315 202.155C43.2989 202.155 42.7269 202.302 42.2155 202.597C41.7129 202.883 41.3142 203.299 41.0195 203.845C40.7335 204.382 40.5905 205.006 40.5905 205.717C40.5905 206.428 40.7335 207.052 41.0195 207.589C41.3142 208.126 41.7129 208.542 42.2155 208.837C42.7269 209.123 43.2989 209.266 43.9315 209.266C44.8155 209.266 45.5435 209.002 46.1155 208.473C46.6875 207.944 47.0212 207.229 47.1165 206.328H43.5025V205.366H48.3775V206.276C48.3082 207.021 48.0742 207.706 47.6755 208.33C47.2769 208.945 46.7525 209.435 46.1025 209.799C45.4525 210.154 44.7289 210.332 43.9315 210.332C43.0909 210.332 42.3239 210.137 41.6305 209.747C40.9372 209.348 40.3869 208.798 39.9795 208.096C39.5809 207.394 39.3815 206.601 39.3815 205.717C39.3815 204.833 39.5809 204.04 39.9795 203.338C40.3869 202.627 40.9372 202.077 41.6305 201.687C42.3239 201.288 43.0909 201.089 43.9315 201.089C44.8935 201.089 45.7429 201.327 46.4795 201.804C47.2249 202.281 47.7665 202.952 48.1045 203.819H46.6875Z" fill="#12A3A9"/>
<path fill-rule="evenodd" clip-rule="evenodd" d="M52.3238 240.642C50.6266 241.393 49.4046 242.902 49.09 244.636L48.8818 245.782L47.1683 244.349C44.9086 242.459 43.2594 242.059 39.8347 242.57C38.4142 242.782 34.5489 243.045 31.2458 243.155C23.6635 243.406 23.5264 243.477 23.8544 246.984C24.09 249.504 24.6987 251.157 25.6501 251.862C25.9784 252.106 26.2472 252.562 26.2472 252.877C26.2472 253.863 31.0015 257.789 32.86 258.337C33.5888 258.553 34.1849 258.859 34.1849 259.018C34.1849 259.446 36.1805 260.292 37.1896 260.292C37.6713 260.292 38.2587 260.5 38.4954 260.755C38.7317 261.009 39.3793 261.307 39.9346 261.416L40.9438 261.614L40.2705 262.796C39.454 264.227 39.4035 266.119 40.1475 267.405L40.6977 268.357H32.9037H25.1092L24.0546 269.3L23 270.243V286.101V301.959L24.0683 302.914L25.1367 303.87L37.4498 303.777L49.7625 303.684L50.6331 302.778C51.1116 302.281 51.5099 301.482 51.5175 301.004L51.5315 300.135L52.0219 301.142C52.6035 302.337 53.8641 303.2 55.0291 303.2C56.3594 303.2 57.8643 302.342 58.2576 301.36C59.0788 299.308 59.441 298.115 59.441 297.46C59.441 297.079 59.7809 296.184 60.1962 295.472C61.1617 293.815 61.4446 291.916 60.9243 290.582C60.535 289.584 60.5859 289.471 61.958 288.293C62.7514 287.611 63.6769 286.585 64.0142 286.012C64.9007 284.51 64.791 281.931 63.7782 280.466L62.9635 279.288L63.6859 278.581C65.0999 277.197 65.6641 275.767 65.4812 274.031C65.386 273.128 65.1915 272.143 65.049 271.841C64.8513 271.423 65.0757 271.186 65.9939 270.842C67.8156 270.159 69.5698 268.695 70.3084 267.241C71.1631 265.559 71.1538 264.593 70.268 263.039C69.5496 261.779 69.7145 261.278 70.8525 261.264C71.0762 261.262 71.4438 261.06 71.6693 260.817C71.8952 260.574 72.7427 260.296 73.5531 260.199C74.3635 260.101 75.3759 259.733 75.8027 259.381C76.2299 259.029 77.1871 258.517 77.9303 258.243C79.3137 257.733 84.3364 253.539 84.3364 252.893C84.3364 252.696 84.7351 251.994 85.2229 251.332C85.7103 250.67 86.1815 249.621 86.2703 249C86.3591 248.379 86.5478 247.404 86.6892 246.834C87.4054 243.952 86.0296 243.193 80.0876 243.193C77.7308 243.193 74.029 242.968 71.8613 242.694C66.9324 242.07 65.4033 242.361 63.1833 244.346L61.6704 245.699L61.28 244.312C60.2575 240.682 56.0917 238.974 52.3238 240.642ZM57.597 243.051C59.6806 244.618 59.3086 247.409 56.8656 248.539C54.4584 249.652 51.4947 247.974 51.5113 245.507C51.5304 242.691 55.1681 241.223 57.597 243.051ZM44.1589 245.011C44.8426 245.301 45.8864 246.168 46.4781 246.937C48.4268 249.469 52.0352 251.257 55.2056 251.26C58.171 251.263 60.1024 250.362 63.2857 247.489C64.9043 246.028 66.6091 244.749 67.0742 244.646C67.5392 244.542 69.6936 244.681 71.8613 244.955C74.029 245.228 77.7229 245.451 80.0696 245.451H84.3364V246.29C84.3364 246.812 83.9135 247.481 83.2158 248.064C82.1987 248.913 82.1655 249 82.8549 249C83.2728 249 83.6148 249.113 83.6148 249.251C83.6148 249.833 82.3938 250.985 81.157 251.569C80.0133 252.109 79.9447 252.2 80.6681 252.212C82.619 252.245 80.2095 254.112 77.8513 254.395L76.2995 254.581L77.3166 255.058L78.3337 255.534L77.3116 256.013C76.6311 256.332 75.6421 256.444 74.353 256.348L72.4169 256.205L73.2064 256.956C73.6408 257.37 73.8922 257.801 73.7652 257.915C73.2998 258.331 70.623 258.106 69.7152 257.574L68.7808 257.026L69.3425 257.998C69.6514 258.532 69.9043 259.049 69.9043 259.146C69.9043 259.603 67.7337 259.251 66.8905 258.658L65.9445 257.993L66.1653 258.981C66.3612 259.856 66.2909 259.969 65.5494 259.969C65.089 259.969 64.2567 259.579 63.7003 259.102L62.6883 258.235V259.263C62.6883 260.813 61.1393 260.669 60.1727 259.029L59.7138 258.251L59.2339 259.271C58.7804 260.236 58.4192 260.438 57.3664 260.316C57.0265 260.276 56.9154 261.254 56.9154 264.28V268.298L59.0395 267.723C62.7132 266.728 64.4923 266.026 64.4923 265.571C64.4923 265.045 64.1051 265.03 61.595 265.455C59.2116 265.859 57.9978 265.32 57.9978 263.856C57.9978 262.35 59.4187 261.582 62.2073 261.582C65.0829 261.582 66.7895 262.199 67.7301 263.579C68.7021 265.005 68.6498 265.849 67.5136 267.056C66.3995 268.24 64.7091 269.063 61.8811 269.798L59.8332 270.33L61.441 271.708C62.8246 272.893 63.0491 273.268 63.0491 274.388C63.0491 275.96 62.1517 277.085 59.8971 278.34L58.289 279.235L59.624 279.973C61.0506 280.761 62.3238 282.334 62.326 283.31C62.3289 284.565 61.0502 286.231 59.0947 287.518L57.0716 288.849L57.8957 289.942C59.1026 291.544 58.8793 293.729 57.3549 295.235C57.0287 295.557 56.7368 296.428 56.7054 297.171C56.6113 299.428 56.0758 300.78 55.277 300.78C54.3176 300.78 53.0664 297.542 53.6761 296.637C53.9832 296.181 53.9572 295.956 53.5643 295.669C51.7155 294.32 51.2584 291.393 52.6497 289.812L53.4355 288.919L52.4693 288.289C51.7415 287.815 51.5034 287.383 51.5034 286.536V285.412L52.5512 286.079C53.1277 286.446 53.696 286.746 53.814 286.746C53.9323 286.746 54.029 285.44 54.029 283.843C54.029 282.246 53.907 280.944 53.7584 280.949C53.6097 280.955 53.1725 281.173 52.7875 281.433C52.4021 281.694 51.9558 281.907 51.7953 281.907C51.3371 281.907 51.454 279.822 51.9363 279.391C52.273 279.09 52.273 279.003 51.9363 279.003C51.6697 279.003 51.5034 278.494 51.5034 277.678C51.5034 276.629 51.616 276.394 52.0446 276.549L53.127 276.941C53.5798 277.105 53.6682 276.736 53.6682 274.683C53.6682 272.157 53.5141 271.934 52.2012 272.562C51.564 272.868 51.5034 272.781 51.5034 271.57C51.5034 270.534 51.2725 270.037 50.4488 269.3C49.4789 268.433 49.1856 268.357 46.805 268.357C44.3739 268.357 44.152 268.296 43.1692 267.355C41.8144 266.058 41.7722 264.585 43.0512 263.226C44.2015 262.003 45.9925 261.506 48.7606 261.64C50.5552 261.727 50.9968 261.873 51.5799 262.573C52.4335 263.599 52.1348 265.055 50.9907 265.444C50.553 265.593 49.3732 265.562 48.3103 265.374C46.13 264.988 45.0371 265.422 46.4651 266.105C47.1481 266.432 53.2096 268.357 53.5556 268.357C53.6173 268.357 53.6682 266.53 53.6682 264.298C53.6682 261.188 53.5628 260.272 53.2172 260.383C52.4938 260.614 51.5001 260 51.0823 259.062C50.8063 258.443 50.6429 258.333 50.5112 258.678C50.167 259.582 49.2296 260.292 48.3806 260.292C47.6839 260.292 47.5346 260.123 47.5346 259.338V258.385L46.6488 259.177C46.1617 259.612 45.3614 259.969 44.87 259.969C44.0344 259.969 43.9983 259.902 44.3126 258.923C44.497 258.347 44.6481 257.826 44.6481 257.765C44.6481 257.704 44.1484 258.029 43.538 258.488C42.8799 258.984 41.9843 259.324 41.3374 259.324H40.2471L40.9947 258.191L41.7426 257.058L40.6072 257.583C39.5594 258.067 36.8689 258.282 36.4576 257.915C36.3605 257.828 36.8241 257.301 37.488 256.745C38.3063 256.059 38.4413 255.844 37.9069 256.077C36.3031 256.775 32.3809 256.343 32.3809 255.468C32.3809 255.311 32.8275 255.038 33.3731 254.859L34.3653 254.535L33.1025 254.504C31.757 254.472 29.108 253.3 28.8609 252.629C28.7671 252.374 29.0875 252.216 29.7351 252.2L30.7572 252.174L29.6323 251.732C29.0135 251.49 28.0584 250.814 27.51 250.232C26.5142 249.173 26.5142 249.172 27.3098 249.004L28.1061 248.836L27.1766 248.055C26.6033 247.573 26.2472 246.925 26.2472 246.363V245.451L30.667 245.423C33.0981 245.407 36.4669 245.206 38.1537 244.976C42.3426 244.405 42.7355 244.407 44.1589 245.011ZM25.5978 270.68C25.916 270.395 29.0052 270.293 37.2517 270.293C45.4982 270.293 48.5874 270.395 48.9056 270.68C49.5291 271.237 49.5291 300.965 48.9056 301.522C48.2865 302.076 26.2169 302.076 25.5978 301.522C24.9743 300.965 24.9743 271.237 25.5978 270.68ZM56.5546 274.83V277.432L58.0465 276.685C59.7762 275.82 60.6385 274.808 60.3066 274.034C60.0807 273.508 57.6886 272.228 56.9298 272.228C56.7011 272.228 56.5546 273.244 56.5546 274.83ZM27.1849 273.144C26.91 273.542 26.866 296.337 27.1395 296.733C27.4898 297.24 46.8927 297.192 47.4624 296.683C48.0289 296.176 48.0844 274.438 47.5219 273.498C47.1665 272.904 46.6672 272.874 37.2604 272.874C31.822 272.874 27.2881 272.996 27.1849 273.144ZM45.3697 284.972V295.134H37.2517H29.1336V284.972V274.809H37.2517H45.3697V284.972ZM35.2673 279.971V281.584H33.4633H31.6593V283.359V285.133H33.4633H35.2673V286.746V288.359H37.2319H39.1964L39.3065 286.827L39.4165 285.294L41.1303 285.196L42.8441 285.098V283.359V281.62L41.1303 281.521L39.4165 281.423L39.3065 279.891L39.1964 278.358H37.2319H35.2673V279.971ZM56.5546 283.834C56.5546 285.436 56.6841 286.746 56.8422 286.746C57.2665 286.746 59.6622 284.419 59.9223 283.755C60.1807 283.095 59.3 282.192 57.6561 281.432L56.5546 280.923V283.834ZM53.4759 291.674C53.363 292.077 53.4308 292.767 53.6267 293.206C53.9392 293.906 53.9861 293.816 54.0063 292.473C54.0308 290.826 53.8082 290.491 53.4759 291.674ZM56.1938 292.392C56.1938 293.303 56.3338 293.805 56.5546 293.683C56.7531 293.573 56.9154 292.992 56.9154 292.392C56.9154 291.792 56.7531 291.211 56.5546 291.102C56.3338 290.98 56.1938 291.481 56.1938 292.392ZM36.4218 298.748C35.7724 299.328 35.8998 300.231 36.6845 300.606C37.5656 301.028 38.4225 300.741 38.7111 299.928C39.1387 298.723 37.4332 297.843 36.4218 298.748ZM31.7823 299.411C31.6896 299.546 31.8555 299.739 32.1514 299.84C32.9199 300.104 34.3992 299.868 34.1849 299.516C33.9651 299.155 32.0179 299.07 31.7823 299.411ZM40.3189 299.57C40.3185 299.816 40.8114 299.974 41.5813 299.974C42.3675 299.974 42.8441 299.817 42.8441 299.56C42.8441 299.301 42.3733 299.151 41.5817 299.157C40.8182 299.163 40.3189 299.326 40.3189 299.57Z" fill="#12A3A9"/>
<path d="M24.4862 331.985H20.5342L19.8062 334H18.5582L21.8342 324.991H23.1992L26.4622 334H25.2142L24.4862 331.985ZM24.1482 331.023L22.5102 326.447L20.8722 331.023H24.1482ZM33.688 327.591C33.688 328.345 33.428 328.973 32.908 329.476C32.3967 329.97 31.6123 330.217 30.555 330.217H28.813V334H27.63V324.939H30.555C31.5777 324.939 32.3533 325.186 32.882 325.68C33.4193 326.174 33.688 326.811 33.688 327.591ZM30.555 329.242C31.2137 329.242 31.699 329.099 32.011 328.813C32.323 328.527 32.479 328.12 32.479 327.591C32.479 326.473 31.8377 325.914 30.555 325.914H28.813V329.242H30.555ZM40.9563 327.591C40.9563 328.345 40.6963 328.973 40.1763 329.476C39.665 329.97 38.8806 330.217 37.8233 330.217H36.0813V334H34.8983V324.939H37.8233C38.846 324.939 39.6216 325.186 40.1503 325.68C40.6876 326.174 40.9563 326.811 40.9563 327.591ZM37.8233 329.242C38.482 329.242 38.9673 329.099 39.2793 328.813C39.5913 328.527 39.7473 328.12 39.7473 327.591C39.7473 326.473 39.106 325.914 37.8233 325.914H36.0813V329.242H37.8233ZM48.2454 334.091C47.6474 334.091 47.1101 333.987 46.6334 333.779C46.1654 333.562 45.7971 333.268 45.5284 332.895C45.2598 332.514 45.1211 332.076 45.1124 331.582H46.3734C46.4168 332.007 46.5901 332.366 46.8934 332.661C47.2054 332.947 47.6561 333.09 48.2454 333.09C48.8088 333.09 49.2508 332.951 49.5714 332.674C49.9008 332.388 50.0654 332.024 50.0654 331.582C50.0654 331.235 49.9701 330.954 49.7794 330.737C49.5888 330.52 49.3504 330.356 49.0644 330.243C48.7784 330.13 48.3928 330.009 47.9074 329.879C47.3094 329.723 46.8284 329.567 46.4644 329.411C46.1091 329.255 45.8014 329.012 45.5414 328.683C45.2901 328.345 45.1644 327.894 45.1644 327.331C45.1644 326.837 45.2901 326.399 45.5414 326.018C45.7928 325.637 46.1438 325.342 46.5944 325.134C47.0538 324.926 47.5781 324.822 48.1674 324.822C49.0168 324.822 49.7101 325.034 50.2474 325.459C50.7934 325.884 51.1011 326.447 51.1704 327.149H49.8704C49.8271 326.802 49.6451 326.499 49.3244 326.239C49.0038 325.97 48.5791 325.836 48.0504 325.836C47.5564 325.836 47.1534 325.966 46.8414 326.226C46.5294 326.477 46.3734 326.833 46.3734 327.292C46.3734 327.621 46.4644 327.89 46.6464 328.098C46.8371 328.306 47.0668 328.466 47.3354 328.579C47.6128 328.683 47.9984 328.804 48.4924 328.943C49.0904 329.108 49.5714 329.272 49.9354 329.437C50.2994 329.593 50.6114 329.84 50.8714 330.178C51.1314 330.507 51.2614 330.958 51.2614 331.53C51.2614 331.972 51.1444 332.388 50.9104 332.778C50.6764 333.168 50.3298 333.484 49.8704 333.727C49.4111 333.97 48.8694 334.091 48.2454 334.091ZM55.8493 334.117C55.182 334.117 54.5753 333.965 54.0293 333.662C53.492 333.359 53.0673 332.93 52.7553 332.375C52.452 331.812 52.3003 331.162 52.3003 330.425C52.3003 329.697 52.4563 329.056 52.7683 328.501C53.089 327.938 53.5223 327.509 54.0683 327.214C54.6143 326.911 55.2253 326.759 55.9013 326.759C56.5773 326.759 57.1883 326.911 57.7343 327.214C58.2803 327.509 58.7093 327.933 59.0213 328.488C59.342 329.043 59.5023 329.688 59.5023 330.425C59.5023 331.162 59.3377 331.812 59.0083 332.375C58.6877 332.93 58.25 333.359 57.6953 333.662C57.1407 333.965 56.5253 334.117 55.8493 334.117ZM55.8493 333.077C56.274 333.077 56.6727 332.977 57.0453 332.778C57.418 332.579 57.717 332.28 57.9423 331.881C58.1763 331.482 58.2933 330.997 58.2933 330.425C58.2933 329.853 58.1807 329.368 57.9553 328.969C57.73 328.57 57.4353 328.276 57.0713 328.085C56.7073 327.886 56.313 327.786 55.8883 327.786C55.455 327.786 55.0563 327.886 54.6923 328.085C54.337 328.276 54.051 328.57 53.8343 328.969C53.6177 329.368 53.5093 329.853 53.5093 330.425C53.5093 331.006 53.6133 331.495 53.8213 331.894C54.038 332.293 54.324 332.592 54.6793 332.791C55.0347 332.982 55.4247 333.077 55.8493 333.077ZM63.6968 327.851H62.2018V334H61.0188V327.851H60.0958V326.876H61.0188V326.369C61.0188 325.572 61.2224 324.991 61.6298 324.627C62.0458 324.254 62.7088 324.068 63.6188 324.068V325.056C63.0988 325.056 62.7304 325.16 62.5138 325.368C62.3058 325.567 62.2018 325.901 62.2018 326.369V326.876H63.6968V327.851ZM66.2591 327.851V332.05C66.2591 332.397 66.3327 332.644 66.4801 332.791C66.6274 332.93 66.8831 332.999 67.2471 332.999H68.1181V334H67.0521C66.3934 334 65.8994 333.848 65.5701 333.545C65.2407 333.242 65.0761 332.743 65.0761 332.05V327.851H64.1531V326.876H65.0761V325.082H66.2591V326.876H68.1181V327.851H66.2591ZM78.7814 326.876L76.5584 334H75.3364L73.6204 328.345L71.9044 334H70.6824L68.4464 326.876H69.6554L71.2934 332.856L73.0614 326.876H74.2704L75.9994 332.869L77.6114 326.876H78.7814ZM79.2535 330.412C79.2535 329.684 79.4008 329.047 79.6955 328.501C79.9902 327.946 80.3932 327.517 80.9045 327.214C81.4245 326.911 82.0008 326.759 82.6335 326.759C83.2575 326.759 83.7992 326.893 84.2585 327.162C84.7178 327.431 85.0602 327.769 85.2855 328.176V326.876H86.4815V334H85.2855V332.674C85.0515 333.09 84.7005 333.437 84.2325 333.714C83.7732 333.983 83.2358 334.117 82.6205 334.117C81.9878 334.117 81.4158 333.961 80.9045 333.649C80.3932 333.337 79.9902 332.899 79.6955 332.336C79.4008 331.773 79.2535 331.131 79.2535 330.412ZM85.2855 330.425C85.2855 329.888 85.1772 329.42 84.9605 329.021C84.7438 328.622 84.4492 328.319 84.0765 328.111C83.7125 327.894 83.3095 327.786 82.8675 327.786C82.4255 327.786 82.0225 327.89 81.6585 328.098C81.2945 328.306 81.0042 328.609 80.7875 329.008C80.5708 329.407 80.4625 329.875 80.4625 330.412C80.4625 330.958 80.5708 331.435 80.7875 331.842C81.0042 332.241 81.2945 332.548 81.6585 332.765C82.0225 332.973 82.4255 333.077 82.8675 333.077C83.3095 333.077 83.7125 332.973 84.0765 332.765C84.4492 332.548 84.7438 332.241 84.9605 331.842C85.1772 331.435 85.2855 330.962 85.2855 330.425ZM89.4037 328.033C89.6117 327.626 89.9063 327.309 90.2877 327.084C90.6777 326.859 91.15 326.746 91.7047 326.746V327.968H91.3927C90.0667 327.968 89.4037 328.687 89.4037 330.126V334H88.2207V326.876H89.4037V328.033ZM99.3103 330.165C99.3103 330.39 99.2973 330.629 99.2713 330.88H93.5773C93.6206 331.582 93.8589 332.132 94.2923 332.531C94.7343 332.921 95.2673 333.116 95.8913 333.116C96.4026 333.116 96.8273 332.999 97.1653 332.765C97.5119 332.522 97.7546 332.202 97.8933 331.803H99.1673C98.9766 332.488 98.5953 333.047 98.0233 333.48C97.4513 333.905 96.7406 334.117 95.8913 334.117C95.2153 334.117 94.6086 333.965 94.0713 333.662C93.5426 333.359 93.1266 332.93 92.8233 332.375C92.5199 331.812 92.3683 331.162 92.3683 330.425C92.3683 329.688 92.5156 329.043 92.8103 328.488C93.1049 327.933 93.5166 327.509 94.0453 327.214C94.5826 326.911 95.1979 326.759 95.8913 326.759C96.5673 326.759 97.1653 326.906 97.6853 327.201C98.2053 327.496 98.6039 327.903 98.8813 328.423C99.1673 328.934 99.3103 329.515 99.3103 330.165ZM98.0883 329.918C98.0883 329.467 97.9886 329.082 97.7893 328.761C97.5899 328.432 97.3169 328.185 96.9703 328.02C96.6323 327.847 96.2553 327.76 95.8393 327.76C95.2413 327.76 94.7299 327.951 94.3053 328.332C93.8893 328.713 93.6509 329.242 93.5903 329.918H98.0883Z" fill="#12A3A9"/>
<path d="M200.56 12.9803C201.404 12.9803 202.213 13.2942 202.81 13.8532C203.407 14.4121 203.742 15.1701 203.742 15.9605V39.8025C203.742 40.593 203.407 41.351 202.81 41.9099C202.213 42.4688 201.404 42.7828 200.56 42.7828H170.049C168.361 42.7831 166.742 43.4113 165.548 44.5292L159.183 50.4897V15.9605C159.183 15.1701 159.518 14.4121 160.115 13.8532C160.712 13.2942 161.522 12.9803 162.366 12.9803H200.56ZM162.366 10C160.677 10 159.058 10.628 157.864 11.7458C156.671 12.8636 156 14.3797 156 15.9605V54.0869C156 54.3818 156.094 54.67 156.269 54.9151C156.444 55.1601 156.692 55.3511 156.983 55.4637C157.275 55.5763 157.595 55.6056 157.903 55.5478C158.212 55.49 158.496 55.3477 158.718 55.1389L167.799 46.6363C168.396 46.0773 169.205 45.7632 170.049 45.7631H200.56C202.248 45.7631 203.867 45.1351 205.061 44.0173C206.255 42.8995 206.925 41.3834 206.925 39.8025V15.9605C206.925 14.3797 206.255 12.8636 205.061 11.7458C203.867 10.628 202.248 10 200.56 10H162.366Z" fill="#12A3A9"/>
<path d="M165.547 20.4315C165.547 20.0363 165.715 19.6573 166.013 19.3779C166.311 19.0984 166.716 18.9414 167.138 18.9414H195.784C196.206 18.9414 196.611 19.0984 196.909 19.3779C197.208 19.6573 197.375 20.0363 197.375 20.4315C197.375 20.8267 197.208 21.2058 196.909 21.4852C196.611 21.7647 196.206 21.9217 195.784 21.9217H167.138C166.716 21.9217 166.311 21.7647 166.013 21.4852C165.715 21.2058 165.547 20.8267 165.547 20.4315ZM165.547 27.8822C165.547 27.487 165.715 27.1079 166.013 26.8285C166.311 26.549 166.716 26.392 167.138 26.392H195.784C196.206 26.392 196.611 26.549 196.909 26.8285C197.208 27.1079 197.375 27.487 197.375 27.8822C197.375 28.2774 197.208 28.6564 196.909 28.9359C196.611 29.2153 196.206 29.3723 195.784 29.3723H167.138C166.716 29.3723 166.311 29.2153 166.013 28.9359C165.715 28.6564 165.547 28.2774 165.547 27.8822ZM165.547 35.3328C165.547 34.9376 165.715 34.5586 166.013 34.2791C166.311 33.9997 166.716 33.8427 167.138 33.8427H183.052C183.475 33.8427 183.879 33.9997 184.178 34.2791C184.476 34.5586 184.644 34.9376 184.644 35.3328C184.644 35.728 184.476 36.107 184.178 36.3865C183.879 36.6659 183.475 36.8229 183.052 36.8229H167.138C166.716 36.8229 166.311 36.6659 166.013 36.3865C165.715 36.107 165.547 35.728 165.547 35.3328Z" fill="#12A3A9"/>
<path d="M200.56 12.9803C201.404 12.9803 202.213 13.2942 202.81 13.8532C203.407 14.4121 203.742 15.1701 203.742 15.9605V39.8025C203.742 40.593 203.407 41.351 202.81 41.9099C202.213 42.4688 201.404 42.7828 200.56 42.7828H170.049C168.361 42.7831 166.742 43.4113 165.548 44.5292L159.183 50.4897V15.9605C159.183 15.1701 159.518 14.4121 160.115 13.8532C160.712 13.2942 161.522 12.9803 162.366 12.9803H200.56ZM162.366 10C160.677 10 159.058 10.628 157.864 11.7458C156.671 12.8636 156 14.3797 156 15.9605V54.0869C156 54.3818 156.094 54.67 156.269 54.9151C156.444 55.1601 156.692 55.3511 156.983 55.4637C157.275 55.5763 157.595 55.6056 157.903 55.5478C158.212 55.49 158.496 55.3477 158.718 55.1389L167.799 46.6363C168.396 46.0773 169.205 45.7632 170.049 45.7631H200.56C202.248 45.7631 203.867 45.1351 205.061 44.0173C206.255 42.8995 206.925 41.3834 206.925 39.8025V15.9605C206.925 14.3797 206.255 12.8636 205.061 11.7458C203.867 10.628 202.248 10 200.56 10H162.366Z" fill="#12A3A9"/>
<path d="M165.547 20.4315C165.547 20.0363 165.715 19.6573 166.013 19.3779C166.311 19.0984 166.716 18.9414 167.138 18.9414H195.784C196.206 18.9414 196.611 19.0984 196.909 19.3779C197.208 19.6573 197.375 20.0363 197.375 20.4315C197.375 20.8267 197.208 21.2058 196.909 21.4852C196.611 21.7647 196.206 21.9217 195.784 21.9217H167.138C166.716 21.9217 166.311 21.7647 166.013 21.4852C165.715 21.2058 165.547 20.8267 165.547 20.4315ZM165.547 27.8822C165.547 27.487 165.715 27.1079 166.013 26.8285C166.311 26.549 166.716 26.392 167.138 26.392H195.784C196.206 26.392 196.611 26.549 196.909 26.8285C197.208 27.1079 197.375 27.487 197.375 27.8822C197.375 28.2774 197.208 28.6564 196.909 28.9359C196.611 29.2153 196.206 29.3723 195.784 29.3723H167.138C166.716 29.3723 166.311 29.2153 166.013 28.9359C165.715 28.6564 165.547 28.2774 165.547 27.8822ZM165.547 35.3328C165.547 34.9376 165.715 34.5586 166.013 34.2791C166.311 33.9997 166.716 33.8427 167.138 33.8427H183.052C183.475 33.8427 183.879 33.9997 184.178 34.2791C184.476 34.5586 184.644 34.9376 184.644 35.3328C184.644 35.728 184.476 36.107 184.178 36.3865C183.879 36.6659 183.475 36.8229 183.052 36.8229H167.138C166.716 36.8229 166.311 36.6659 166.013 36.3865C165.715 36.107 165.547 35.728 165.547 35.3328Z" fill="#12A3A9"/>
<path d="M157.052 76.052C157.052 75.3153 157.199 74.674 157.494 74.128C157.788 73.5733 158.196 73.1443 158.716 72.841C159.244 72.5376 159.847 72.386 160.523 72.386C161.398 72.386 162.117 72.5983 162.681 73.023C163.253 73.4476 163.63 74.037 163.812 74.791H162.538C162.416 74.3576 162.178 74.0153 161.823 73.764C161.476 73.5126 161.043 73.387 160.523 73.387C159.847 73.387 159.301 73.621 158.885 74.089C158.469 74.5483 158.261 75.2026 158.261 76.052C158.261 76.91 158.469 77.573 158.885 78.041C159.301 78.509 159.847 78.743 160.523 78.743C161.043 78.743 161.476 78.6216 161.823 78.379C162.169 78.1363 162.408 77.7896 162.538 77.339H163.812C163.621 78.067 163.24 78.652 162.668 79.094C162.096 79.5273 161.381 79.744 160.523 79.744C159.847 79.744 159.244 79.5923 158.716 79.289C158.196 78.9856 157.788 78.5566 157.494 78.002C157.199 77.4473 157.052 76.7973 157.052 76.052ZM168.666 72.373C169.203 72.373 169.689 72.49 170.122 72.724C170.555 72.9493 170.893 73.2916 171.136 73.751C171.387 74.2103 171.513 74.7693 171.513 75.428V79.627H170.343V75.597C170.343 74.8863 170.165 74.3446 169.81 73.972C169.455 73.5906 168.969 73.4 168.354 73.4C167.73 73.4 167.232 73.595 166.859 73.985C166.495 74.375 166.313 74.9426 166.313 75.688V79.627H165.13V70.007H166.313V73.517C166.547 73.153 166.868 72.8713 167.275 72.672C167.691 72.4726 168.155 72.373 168.666 72.373ZM172.743 76.039C172.743 75.311 172.891 74.674 173.185 74.128C173.48 73.5733 173.883 73.1443 174.394 72.841C174.914 72.5376 175.491 72.386 176.123 72.386C176.747 72.386 177.289 72.5203 177.748 72.789C178.208 73.0576 178.55 73.3956 178.775 73.803V72.503H179.971V79.627H178.775V78.301C178.541 78.717 178.19 79.0636 177.722 79.341C177.263 79.6096 176.726 79.744 176.11 79.744C175.478 79.744 174.906 79.588 174.394 79.276C173.883 78.964 173.48 78.5263 173.185 77.963C172.891 77.3996 172.743 76.7583 172.743 76.039ZM178.775 76.052C178.775 75.5146 178.667 75.0466 178.45 74.648C178.234 74.2493 177.939 73.946 177.566 73.738C177.202 73.5213 176.799 73.413 176.357 73.413C175.915 73.413 175.512 73.517 175.148 73.725C174.784 73.933 174.494 74.2363 174.277 74.635C174.061 75.0336 173.952 75.5016 173.952 76.039C173.952 76.585 174.061 77.0616 174.277 77.469C174.494 77.8676 174.784 78.1753 175.148 78.392C175.512 78.6 175.915 78.704 176.357 78.704C176.799 78.704 177.202 78.6 177.566 78.392C177.939 78.1753 178.234 77.8676 178.45 77.469C178.667 77.0616 178.775 76.5893 178.775 76.052ZM183.154 73.478V77.677C183.154 78.0236 183.227 78.2706 183.375 78.418C183.522 78.5566 183.778 78.626 184.142 78.626H185.013V79.627H183.947C183.288 79.627 182.794 79.4753 182.465 79.172C182.135 78.8686 181.971 78.3703 181.971 77.677V73.478H181.048V72.503H181.971V70.709H183.154V72.503H185.013V73.478H183.154Z" fill="#12A3A9"/>
<path d="M224.098 131.156L219.972 139.211L212.322 133.299" stroke="#0C9093" stroke-width="2" stroke-linecap="round" stroke-linejoin="round"/>
<path d="M219.973 139.21L217.154 128.037C215.207 120.323 208.357 115.03 201.853 116.213L200.676 116.427" stroke="#0C9093" stroke-width="2" stroke-linecap="round" stroke-linejoin="round"/>
<path d="M156.465 171.543L159.036 163.035L167.692 167.844" stroke="#0C9093" stroke-width="2" stroke-linecap="round" stroke-linejoin="round"/>
<path d="M159.035 163.035L163.903 173.688C167.264 181.042 175.015 185.348 181.216 183.305L182.339 182.935" stroke="#0C9093" stroke-width="2" stroke-linecap="round" stroke-linejoin="round"/>
<path d="M152.238 158.967C152.238 158.967 151.129 158.967 151.129 157.96C151.129 156.954 152.238 153.935 157.781 153.935C163.325 153.935 164.434 156.954 164.434 157.96C164.434 158.967 163.325 158.967 163.325 158.967H152.238ZM157.781 152.929C158.663 152.929 159.51 152.61 160.133 152.044C160.757 151.478 161.108 150.71 161.108 149.91C161.108 149.109 160.757 148.341 160.133 147.775C159.51 147.209 158.663 146.891 157.781 146.891C156.899 146.891 156.053 147.209 155.429 147.775C154.806 148.341 154.455 149.109 154.455 149.91C154.455 150.71 154.806 151.478 155.429 152.044C156.053 152.61 156.899 152.929 157.781 152.929V152.929Z" fill="#12A3A9"/>
<path d="M152.238 158.967C152.238 158.967 151.129 158.967 151.129 157.96C151.129 156.954 152.238 153.935 157.781 153.935C163.325 153.935 164.434 156.954 164.434 157.96C164.434 158.967 163.325 158.967 163.325 158.967H152.238ZM157.781 152.929C158.663 152.929 159.51 152.61 160.133 152.044C160.757 151.478 161.108 150.71 161.108 149.91C161.108 149.109 160.757 148.341 160.133 147.775C159.51 147.209 158.663 146.891 157.781 146.891C156.899 146.891 156.053 147.209 155.429 147.775C154.806 148.341 154.455 149.109 154.455 149.91C154.455 150.71 154.806 151.478 155.429 152.044C156.053 152.61 156.899 152.929 157.781 152.929V152.929Z" fill="#12A3A9"/>
<path fill-rule="evenodd" clip-rule="evenodd" d="M217.067 147.953C217.067 149.301 216.672 151.059 216.066 150.793C215.817 151.481 215.296 152.075 214.591 152.474C213.885 152.873 213.039 153.052 212.195 152.982C211.352 152.911 210.563 152.595 209.963 152.086C209.363 151.578 208.988 150.909 208.903 150.193C208.301 149.298 207.511 147.505 209.542 146.107C209.579 146.097 209.601 146.013 209.634 145.889C209.76 145.42 210.038 144.379 211.795 144.578C213.149 144.731 217.067 145.325 217.067 147.953V147.953ZM215.321 148.803C215.321 148.803 215.114 149.318 215.308 149.891C215.306 150.503 215.021 151.09 214.514 151.525C214.008 151.961 213.321 152.21 212.601 152.22C211.88 152.23 211.184 152 210.661 151.579C210.138 151.158 209.831 150.58 209.804 149.968C209.871 149.754 209.871 149.391 209.871 148.988C209.87 148.261 209.869 147.403 210.261 147.053C213.009 148.607 215.321 148.803 215.321 148.803V148.803Z" fill="#12A3A9"/>
<path d="M207.508 156.597C207.508 156.175 207.771 155.806 208.166 155.6C208.151 155.552 208.137 155.503 208.124 155.454C208.054 155.188 208 154.919 207.961 154.649C207.921 154.389 207.898 154.129 207.89 153.867C205.953 154.513 204.297 155.638 204.297 156.819V158.934H220.813V156.819C220.813 155.688 219.295 154.608 217.465 153.952V153.963C217.473 154.2 217.458 154.473 217.427 154.735C217.4 154.978 217.359 155.22 217.31 155.428H217.602C217.687 155.428 217.77 155.448 217.843 155.486C217.915 155.524 217.974 155.579 218.012 155.644L218.471 156.423C218.503 156.477 218.519 156.536 218.519 156.597V157.376C218.519 157.479 218.471 157.578 218.385 157.651C218.299 157.724 218.182 157.765 218.06 157.765H217.143V156.986H217.602V156.689L217.318 156.207H216.05L215.767 156.689V156.986H216.225V157.765H215.308C215.186 157.765 215.069 157.724 214.983 157.651C214.897 157.578 214.849 157.479 214.849 157.376V156.597C214.849 156.536 214.865 156.477 214.898 156.423L215.356 155.644C215.394 155.579 215.453 155.524 215.525 155.486C215.598 155.448 215.681 155.428 215.767 155.428H216.37C216.38 155.395 216.39 155.358 216.4 155.317C216.446 155.133 216.487 154.901 216.514 154.66C216.542 154.42 216.555 154.181 216.548 153.984C216.546 153.903 216.539 153.822 216.525 153.741C216.515 153.686 216.505 153.661 216.503 153.655C216.503 153.654 216.502 153.654 216.503 153.654L216.505 153.654C216.261 153.59 216.015 153.534 215.767 153.485C215.536 153.441 215.297 153.71 215.193 153.879H209.802C209.789 153.857 209.776 153.835 209.763 153.813C209.666 153.649 209.546 153.446 209.344 153.485C209.167 153.519 208.99 153.558 208.814 153.601C208.808 153.669 208.805 153.738 208.806 153.806C208.808 154.022 208.832 154.286 208.871 154.552C208.91 154.818 208.963 155.076 209.018 155.28C209.034 155.339 209.049 155.392 209.064 155.438C209.326 155.467 209.573 155.56 209.775 155.705C209.977 155.851 210.125 156.042 210.202 156.257C210.279 156.472 210.281 156.701 210.208 156.917C210.136 157.133 209.991 157.327 209.792 157.475C209.594 157.623 209.349 157.719 209.087 157.752C208.825 157.785 208.558 157.754 208.317 157.661C208.076 157.568 207.872 157.419 207.728 157.23C207.585 157.041 207.508 156.821 207.508 156.597Z" fill="#12A3A9"/>
<path d="M209.343 156.597C209.343 156.82 209.131 156.992 208.885 156.992C208.638 156.992 208.426 156.821 208.426 156.597C208.426 156.373 208.638 156.201 208.885 156.201C209.131 156.201 209.343 156.373 209.343 156.597Z" fill="#12A3A9"/>
<path fill-rule="evenodd" clip-rule="evenodd" d="M217.067 147.953C217.067 149.301 216.672 151.059 216.066 150.793C215.817 151.481 215.296 152.075 214.591 152.474C213.885 152.873 213.039 153.052 212.195 152.982C211.352 152.911 210.563 152.595 209.963 152.086C209.363 151.578 208.988 150.909 208.903 150.193C208.301 149.298 207.511 147.505 209.542 146.107C209.579 146.097 209.601 146.013 209.634 145.889C209.76 145.42 210.038 144.379 211.795 144.578C213.149 144.731 217.067 145.325 217.067 147.953V147.953ZM215.321 148.803C215.321 148.803 215.114 149.318 215.308 149.891C215.306 150.503 215.021 151.09 214.514 151.525C214.008 151.961 213.321 152.21 212.601 152.22C211.88 152.23 211.184 152 210.661 151.579C210.138 151.158 209.831 150.58 209.804 149.968C209.871 149.754 209.871 149.391 209.871 148.988C209.87 148.261 209.869 147.403 210.261 147.053C213.009 148.607 215.321 148.803 215.321 148.803V148.803Z" fill="#12A3A9"/>
<path d="M207.508 156.597C207.508 156.175 207.771 155.806 208.166 155.6C208.151 155.552 208.137 155.503 208.124 155.454C208.054 155.188 208 154.919 207.961 154.649C207.921 154.389 207.898 154.129 207.89 153.867C205.953 154.513 204.297 155.638 204.297 156.819V158.934H220.813V156.819C220.813 155.688 219.295 154.608 217.465 153.952V153.963C217.473 154.2 217.458 154.473 217.427 154.735C217.4 154.978 217.359 155.22 217.31 155.428H217.602C217.687 155.428 217.77 155.448 217.843 155.486C217.915 155.524 217.974 155.579 218.012 155.644L218.471 156.423C218.503 156.477 218.519 156.536 218.519 156.597V157.376C218.519 157.479 218.471 157.578 218.385 157.651C218.299 157.724 218.182 157.765 218.06 157.765H217.143V156.986H217.602V156.689L217.318 156.207H216.05L215.767 156.689V156.986H216.225V157.765H215.308C215.186 157.765 215.069 157.724 214.983 157.651C214.897 157.578 214.849 157.479 214.849 157.376V156.597C214.849 156.536 214.865 156.477 214.898 156.423L215.356 155.644C215.394 155.579 215.453 155.524 215.525 155.486C215.598 155.448 215.681 155.428 215.767 155.428H216.37C216.38 155.395 216.39 155.358 216.4 155.317C216.446 155.133 216.487 154.901 216.514 154.66C216.542 154.42 216.555 154.181 216.548 153.984C216.546 153.903 216.539 153.822 216.525 153.741C216.515 153.686 216.505 153.661 216.503 153.655C216.503 153.654 216.502 153.654 216.503 153.654L216.505 153.654C216.261 153.59 216.015 153.534 215.767 153.485C215.536 153.441 215.297 153.71 215.193 153.879H209.802C209.789 153.857 209.776 153.835 209.763 153.813C209.666 153.649 209.546 153.446 209.344 153.485C209.167 153.519 208.99 153.558 208.814 153.601C208.808 153.669 208.805 153.738 208.806 153.806C208.808 154.022 208.832 154.286 208.871 154.552C208.91 154.818 208.963 155.076 209.018 155.28C209.034 155.339 209.049 155.392 209.064 155.438C209.326 155.467 209.573 155.56 209.775 155.705C209.977 155.851 210.125 156.042 210.202 156.257C210.279 156.472 210.281 156.701 210.208 156.917C210.136 157.133 209.991 157.327 209.792 157.475C209.594 157.623 209.349 157.719 209.087 157.752C208.825 157.785 208.558 157.754 208.317 157.661C208.076 157.568 207.872 157.419 207.728 157.23C207.585 157.041 207.508 156.821 207.508 156.597Z" fill="#12A3A9"/>
<path d="M209.343 156.597C209.343 156.82 209.131 156.992 208.885 156.992C208.638 156.992 208.426 156.821 208.426 156.597C208.426 156.373 208.638 156.201 208.885 156.201C209.131 156.201 209.343 156.373 209.343 156.597Z" fill="#12A3A9"/>
<path d="M204.051 125.176H177.968C176.98 125.176 176.032 125.564 175.334 126.256C174.635 126.948 174.242 127.887 174.242 128.865V173.136C174.242 174.114 174.635 175.053 175.334 175.745C176.032 176.437 176.98 176.825 177.968 176.825H204.051C205.039 176.825 205.987 176.437 206.686 175.745C207.385 175.053 207.777 174.114 207.777 173.136V128.865C207.777 127.887 207.385 126.948 206.686 126.256C205.987 125.564 205.039 125.176 204.051 125.176ZM192.873 173.136H189.147V169.447H192.873V173.136ZM177.968 165.757V128.865H204.051V165.757H177.968Z" fill="#12A3A9"/>
<path d="M204.051 125.176H177.968C176.98 125.176 176.032 125.564 175.334 126.256C174.635 126.948 174.242 127.887 174.242 128.865V173.136C174.242 174.114 174.635 175.053 175.334 175.745C176.032 176.437 176.98 176.825 177.968 176.825H204.051C205.039 176.825 205.987 176.437 206.686 175.745C207.385 175.053 207.777 174.114 207.777 173.136V128.865C207.777 127.887 207.385 126.948 206.686 126.256C205.987 125.564 205.039 125.176 204.051 125.176ZM192.873 173.136H189.147V169.447H192.873V173.136ZM177.968 165.757V128.865H204.051V165.757H177.968Z" fill="#12A3A9"/>
<path d="M130.263 210.414L128.105 206.709H126.675V210.414H125.492V201.353H128.417C129.102 201.353 129.678 201.47 130.146 201.704C130.623 201.938 130.978 202.254 131.212 202.653C131.446 203.052 131.563 203.507 131.563 204.018C131.563 204.642 131.381 205.192 131.017 205.669C130.662 206.146 130.124 206.462 129.405 206.618L131.68 210.414H130.263ZM126.675 205.76H128.417C129.058 205.76 129.539 205.604 129.86 205.292C130.181 204.971 130.341 204.547 130.341 204.018C130.341 203.481 130.181 203.065 129.86 202.77C129.548 202.475 129.067 202.328 128.417 202.328H126.675V205.76ZM139.641 206.579C139.641 206.804 139.628 207.043 139.602 207.294H133.908C133.951 207.996 134.19 208.546 134.623 208.945C135.065 209.335 135.598 209.53 136.222 209.53C136.733 209.53 137.158 209.413 137.496 209.179C137.843 208.936 138.085 208.616 138.224 208.217H139.498C139.307 208.902 138.926 209.461 138.354 209.894C137.782 210.319 137.071 210.531 136.222 210.531C135.546 210.531 134.939 210.379 134.402 210.076C133.873 209.773 133.457 209.344 133.154 208.789C132.851 208.226 132.699 207.576 132.699 206.839C132.699 206.102 132.846 205.457 133.141 204.902C133.436 204.347 133.847 203.923 134.376 203.628C134.913 203.325 135.529 203.173 136.222 203.173C136.898 203.173 137.496 203.32 138.016 203.615C138.536 203.91 138.935 204.317 139.212 204.837C139.498 205.348 139.641 205.929 139.641 206.579ZM138.419 206.332C138.419 205.881 138.319 205.496 138.12 205.175C137.921 204.846 137.648 204.599 137.301 204.434C136.963 204.261 136.586 204.174 136.17 204.174C135.572 204.174 135.061 204.365 134.636 204.746C134.22 205.127 133.982 205.656 133.921 206.332H138.419ZM149.51 203.16C150.064 203.16 150.558 203.277 150.992 203.511C151.425 203.736 151.767 204.079 152.019 204.538C152.27 204.997 152.396 205.556 152.396 206.215V210.414H151.226V206.384C151.226 205.673 151.048 205.132 150.693 204.759C150.346 204.378 149.874 204.187 149.276 204.187C148.66 204.187 148.171 204.386 147.807 204.785C147.443 205.175 147.261 205.743 147.261 206.488V210.414H146.091V206.384C146.091 205.673 145.913 205.132 145.558 204.759C145.211 204.378 144.739 204.187 144.141 204.187C143.525 204.187 143.036 204.386 142.672 204.785C142.308 205.175 142.126 205.743 142.126 206.488V210.414H140.943V203.29H142.126V204.317C142.36 203.944 142.672 203.658 143.062 203.459C143.46 203.26 143.898 203.16 144.375 203.16C144.973 203.16 145.501 203.294 145.961 203.563C146.42 203.832 146.762 204.226 146.988 204.746C147.187 204.243 147.516 203.853 147.976 203.576C148.435 203.299 148.946 203.16 149.51 203.16ZM157.183 210.531C156.516 210.531 155.909 210.379 155.363 210.076C154.826 209.773 154.401 209.344 154.089 208.789C153.786 208.226 153.634 207.576 153.634 206.839C153.634 206.111 153.79 205.47 154.102 204.915C154.423 204.352 154.856 203.923 155.402 203.628C155.948 203.325 156.559 203.173 157.235 203.173C157.911 203.173 158.522 203.325 159.068 203.628C159.614 203.923 160.043 204.347 160.355 204.902C160.676 205.457 160.836 206.102 160.836 206.839C160.836 207.576 160.671 208.226 160.342 208.789C160.021 209.344 159.584 209.773 159.029 210.076C158.474 210.379 157.859 210.531 157.183 210.531ZM157.183 209.491C157.608 209.491 158.006 209.391 158.379 209.192C158.752 208.993 159.051 208.694 159.276 208.295C159.51 207.896 159.627 207.411 159.627 206.839C159.627 206.267 159.514 205.782 159.289 205.383C159.064 204.984 158.769 204.69 158.405 204.499C158.041 204.3 157.647 204.2 157.222 204.2C156.789 204.2 156.39 204.3 156.026 204.499C155.671 204.69 155.385 204.984 155.168 205.383C154.951 205.782 154.843 206.267 154.843 206.839C154.843 207.42 154.947 207.909 155.155 208.308C155.372 208.707 155.658 209.006 156.013 209.205C156.368 209.396 156.758 209.491 157.183 209.491ZM163.575 204.265V208.464C163.575 208.811 163.648 209.058 163.796 209.205C163.943 209.344 164.199 209.413 164.563 209.413H165.434V210.414H164.368C163.709 210.414 163.215 210.262 162.886 209.959C162.556 209.656 162.392 209.157 162.392 208.464V204.265H161.469V203.29H162.392V201.496H163.575V203.29H165.434V204.265H163.575ZM173.107 206.579C173.107 206.804 173.094 207.043 173.068 207.294H167.374C167.417 207.996 167.656 208.546 168.089 208.945C168.531 209.335 169.064 209.53 169.688 209.53C170.199 209.53 170.624 209.413 170.962 209.179C171.309 208.936 171.551 208.616 171.69 208.217H172.964C172.773 208.902 172.392 209.461 171.82 209.894C171.248 210.319 170.537 210.531 169.688 210.531C169.012 210.531 168.405 210.379 167.868 210.076C167.339 209.773 166.923 209.344 166.62 208.789C166.317 208.226 166.165 207.576 166.165 206.839C166.165 206.102 166.312 205.457 166.607 204.902C166.902 204.347 167.313 203.923 167.842 203.628C168.379 203.325 168.995 203.173 169.688 203.173C170.364 203.173 170.962 203.32 171.482 203.615C172.002 203.91 172.401 204.317 172.678 204.837C172.964 205.348 173.107 205.929 173.107 206.579ZM171.885 206.332C171.885 205.881 171.785 205.496 171.586 205.175C171.387 204.846 171.114 204.599 170.767 204.434C170.429 204.261 170.052 204.174 169.636 204.174C169.038 204.174 168.527 204.365 168.102 204.746C167.686 205.127 167.448 205.656 167.387 206.332H171.885ZM186.805 201.418V210.414H185.622V203.706L182.632 210.414H181.8L178.797 203.693V210.414H177.614V201.418H178.888L182.216 208.854L185.544 201.418H186.805ZM195.052 206.579C195.052 206.804 195.039 207.043 195.013 207.294H189.319C189.362 207.996 189.6 208.546 190.034 208.945C190.476 209.335 191.009 209.53 191.633 209.53C192.144 209.53 192.569 209.413 192.907 209.179C193.253 208.936 193.496 208.616 193.635 208.217H194.909C194.718 208.902 194.337 209.461 193.765 209.894C193.193 210.319 192.482 210.531 191.633 210.531C190.957 210.531 190.35 210.379 189.813 210.076C189.284 209.773 188.868 209.344 188.565 208.789C188.261 208.226 188.11 207.576 188.11 206.839C188.11 206.102 188.257 205.457 188.552 204.902C188.846 204.347 189.258 203.923 189.787 203.628C190.324 203.325 190.939 203.173 191.633 203.173C192.309 203.173 192.907 203.32 193.427 203.615C193.947 203.91 194.345 204.317 194.623 204.837C194.909 205.348 195.052 205.929 195.052 206.579ZM193.83 206.332C193.83 205.881 193.73 205.496 193.531 205.175C193.331 204.846 193.058 204.599 192.712 204.434C192.374 204.261 191.997 204.174 191.581 204.174C190.983 204.174 190.471 204.365 190.047 204.746C189.631 205.127 189.392 205.656 189.332 206.332H193.83ZM195.911 206.826C195.911 206.098 196.058 205.461 196.353 204.915C196.648 204.36 197.051 203.931 197.562 203.628C198.082 203.325 198.663 203.173 199.304 203.173C199.859 203.173 200.374 203.303 200.851 203.563C201.328 203.814 201.692 204.148 201.943 204.564V200.794H203.139V210.414H201.943V209.075C201.709 209.5 201.362 209.851 200.903 210.128C200.444 210.397 199.906 210.531 199.291 210.531C198.658 210.531 198.082 210.375 197.562 210.063C197.051 209.751 196.648 209.313 196.353 208.75C196.058 208.187 195.911 207.545 195.911 206.826ZM201.943 206.839C201.943 206.302 201.835 205.834 201.618 205.435C201.401 205.036 201.107 204.733 200.734 204.525C200.37 204.308 199.967 204.2 199.525 204.2C199.083 204.2 198.68 204.304 198.316 204.512C197.952 204.72 197.662 205.023 197.445 205.422C197.228 205.821 197.12 206.289 197.12 206.826C197.12 207.372 197.228 207.849 197.445 208.256C197.662 208.655 197.952 208.962 198.316 209.179C198.68 209.387 199.083 209.491 199.525 209.491C199.967 209.491 200.37 209.387 200.734 209.179C201.107 208.962 201.401 208.655 201.618 208.256C201.835 207.849 201.943 207.376 201.943 206.839ZM205.489 202.133C205.264 202.133 205.073 202.055 204.917 201.899C204.761 201.743 204.683 201.552 204.683 201.327C204.683 201.102 204.761 200.911 204.917 200.755C205.073 200.599 205.264 200.521 205.489 200.521C205.706 200.521 205.888 200.599 206.035 200.755C206.191 200.911 206.269 201.102 206.269 201.327C206.269 201.552 206.191 201.743 206.035 201.899C205.888 202.055 205.706 202.133 205.489 202.133ZM206.061 203.29V210.414H204.878V203.29H206.061ZM207.375 206.839C207.375 206.102 207.523 205.461 207.817 204.915C208.112 204.36 208.519 203.931 209.039 203.628C209.568 203.325 210.17 203.173 210.846 203.173C211.722 203.173 212.441 203.385 213.004 203.81C213.576 204.235 213.953 204.824 214.135 205.578H212.861C212.74 205.145 212.502 204.802 212.146 204.551C211.8 204.3 211.366 204.174 210.846 204.174C210.17 204.174 209.624 204.408 209.208 204.876C208.792 205.335 208.584 205.99 208.584 206.839C208.584 207.697 208.792 208.36 209.208 208.828C209.624 209.296 210.17 209.53 210.846 209.53C211.366 209.53 211.8 209.409 212.146 209.166C212.493 208.923 212.731 208.577 212.861 208.126H214.135C213.945 208.854 213.563 209.439 212.991 209.881C212.419 210.314 211.704 210.531 210.846 210.531C210.17 210.531 209.568 210.379 209.039 210.076C208.519 209.773 208.112 209.344 207.817 208.789C207.523 208.234 207.375 207.584 207.375 206.839ZM216.065 202.133C215.84 202.133 215.649 202.055 215.493 201.899C215.337 201.743 215.259 201.552 215.259 201.327C215.259 201.102 215.337 200.911 215.493 200.755C215.649 200.599 215.84 200.521 216.065 200.521C216.282 200.521 216.464 200.599 216.611 200.755C216.767 200.911 216.845 201.102 216.845 201.327C216.845 201.552 216.767 201.743 216.611 201.899C216.464 202.055 216.282 202.133 216.065 202.133ZM216.637 203.29V210.414H215.454V203.29H216.637ZM221.864 203.16C222.731 203.16 223.433 203.424 223.97 203.953C224.507 204.473 224.776 205.227 224.776 206.215V210.414H223.606V206.384C223.606 205.673 223.428 205.132 223.073 204.759C222.718 204.378 222.232 204.187 221.617 204.187C220.993 204.187 220.495 204.382 220.122 204.772C219.758 205.162 219.576 205.73 219.576 206.475V210.414H218.393V203.29H219.576V204.304C219.81 203.94 220.126 203.658 220.525 203.459C220.932 203.26 221.379 203.16 221.864 203.16ZM232.949 206.579C232.949 206.804 232.936 207.043 232.91 207.294H227.216C227.259 207.996 227.497 208.546 227.931 208.945C228.373 209.335 228.906 209.53 229.53 209.53C230.041 209.53 230.466 209.413 230.804 209.179C231.15 208.936 231.393 208.616 231.532 208.217H232.806C232.615 208.902 232.234 209.461 231.662 209.894C231.09 210.319 230.379 210.531 229.53 210.531C228.854 210.531 228.247 210.379 227.71 210.076C227.181 209.773 226.765 209.344 226.462 208.789C226.158 208.226 226.007 207.576 226.007 206.839C226.007 206.102 226.154 205.457 226.449 204.902C226.743 204.347 227.155 203.923 227.684 203.628C228.221 203.325 228.836 203.173 229.53 203.173C230.206 203.173 230.804 203.32 231.324 203.615C231.844 203.91 232.242 204.317 232.52 204.837C232.806 205.348 232.949 205.929 232.949 206.579ZM231.727 206.332C231.727 205.881 231.627 205.496 231.428 205.175C231.228 204.846 230.955 204.599 230.609 204.434C230.271 204.261 229.894 204.174 229.478 204.174C228.88 204.174 228.368 204.365 227.944 204.746C227.528 205.127 227.289 205.656 227.229 206.332H231.727Z" fill="#12A3A9"/>
<path d="M153.175 290.73H230.815C231.613 290.731 232.38 291 232.961 291.482C233.543 291.965 233.897 292.624 233.951 293.329C234.005 294.033 233.755 294.729 233.251 295.276C232.748 295.823 232.029 296.181 231.239 296.277L230.815 296.303H153.18C152.376 296.311 151.601 296.046 151.011 295.563C150.421 295.08 150.062 294.416 150.007 293.707C149.953 292.997 150.206 292.296 150.716 291.747C151.227 291.197 151.955 290.842 152.752 290.752L153.18 290.73H230.811H153.18H153.175ZM218.225 248C222.279 248 225.57 250.913 225.57 254.502V282.37C225.57 284.094 224.796 285.748 223.418 286.968C222.041 288.187 220.173 288.872 218.225 288.872H165.766C163.818 288.872 161.95 288.187 160.572 286.968C159.195 285.748 158.421 284.094 158.421 282.37V254.502C158.421 250.913 161.707 248 165.766 248H218.225ZM218.225 253.573H165.766C165.487 253.573 165.221 253.671 165.024 253.846C164.827 254.02 164.716 254.256 164.716 254.502V282.37C164.716 282.882 165.187 283.299 165.766 283.299H218.225C218.503 283.299 218.77 283.201 218.967 283.027C219.164 282.852 219.274 282.616 219.274 282.37V254.502C219.274 254.256 219.164 254.02 218.967 253.846C218.77 253.671 218.503 253.573 218.225 253.573Z" fill="#12A3A9"/>
<path d="M184.42 328.189C184.654 327.782 185.001 327.444 185.46 327.175C185.928 326.898 186.47 326.759 187.085 326.759C187.718 326.759 188.29 326.911 188.801 327.214C189.321 327.517 189.728 327.946 190.023 328.501C190.318 329.047 190.465 329.684 190.465 330.412C190.465 331.131 190.318 331.773 190.023 332.336C189.728 332.899 189.321 333.337 188.801 333.649C188.29 333.961 187.718 334.117 187.085 334.117C186.478 334.117 185.941 333.983 185.473 333.714C185.014 333.437 184.663 333.094 184.42 332.687V337.38H183.237V326.876H184.42V328.189ZM189.256 330.412C189.256 329.875 189.148 329.407 188.931 329.008C188.714 328.609 188.42 328.306 188.047 328.098C187.683 327.89 187.28 327.786 186.838 327.786C186.405 327.786 186.002 327.894 185.629 328.111C185.265 328.319 184.97 328.627 184.745 329.034C184.528 329.433 184.42 329.896 184.42 330.425C184.42 330.962 184.528 331.435 184.745 331.842C184.97 332.241 185.265 332.548 185.629 332.765C186.002 332.973 186.405 333.077 186.838 333.077C187.28 333.077 187.683 332.973 188.047 332.765C188.42 332.548 188.714 332.241 188.931 331.842C189.148 331.435 189.256 330.958 189.256 330.412ZM191.424 333.051C192.525 332.167 193.387 331.443 194.011 330.88C194.635 330.308 195.16 329.714 195.584 329.099C196.018 328.475 196.234 327.864 196.234 327.266C196.234 326.703 196.096 326.261 195.818 325.94C195.55 325.611 195.112 325.446 194.505 325.446C193.916 325.446 193.457 325.632 193.127 326.005C192.807 326.369 192.633 326.859 192.607 327.474H191.463C191.498 326.503 191.793 325.754 192.347 325.225C192.902 324.696 193.617 324.432 194.492 324.432C195.385 324.432 196.091 324.679 196.611 325.173C197.14 325.667 197.404 326.347 197.404 327.214C197.404 327.933 197.188 328.635 196.754 329.32C196.33 329.996 195.844 330.594 195.298 331.114C194.752 331.625 194.055 332.223 193.205 332.908H197.677V333.896H191.424V333.051ZM200.163 328.189C200.397 327.782 200.743 327.444 201.203 327.175C201.671 326.898 202.212 326.759 202.828 326.759C203.46 326.759 204.032 326.911 204.544 327.214C205.064 327.517 205.471 327.946 205.766 328.501C206.06 329.047 206.208 329.684 206.208 330.412C206.208 331.131 206.06 331.773 205.766 332.336C205.471 332.899 205.064 333.337 204.544 333.649C204.032 333.961 203.46 334.117 202.828 334.117C202.221 334.117 201.684 333.983 201.216 333.714C200.756 333.437 200.405 333.094 200.163 332.687V337.38H198.98V326.876H200.163V328.189ZM204.999 330.412C204.999 329.875 204.89 329.407 204.674 329.008C204.457 328.609 204.162 328.306 203.79 328.098C203.426 327.89 203.023 327.786 202.581 327.786C202.147 327.786 201.744 327.894 201.372 328.111C201.008 328.319 200.713 328.627 200.488 329.034C200.271 329.433 200.163 329.896 200.163 330.425C200.163 330.962 200.271 331.435 200.488 331.842C200.713 332.241 201.008 332.548 201.372 332.765C201.744 332.973 202.147 333.077 202.581 333.077C203.023 333.077 203.426 332.973 203.79 332.765C204.162 332.548 204.457 332.241 204.674 331.842C204.89 331.435 204.999 330.958 204.999 330.412Z" fill="#12A3A9"/>
<path d="M298.711 23.8105C298.523 23.8105 298.342 23.8659 298.208 23.9645C298.075 24.063 298 24.1967 298 24.336V29.5911C298 30.7546 298.58 31.8774 299.629 32.7447C300.679 33.612 302.124 34.163 303.689 34.2922V35.3716C303.689 36.7653 304.438 38.102 305.772 39.0875C307.105 40.073 308.914 40.6266 310.8 40.6266C312.686 40.6266 314.495 40.073 315.829 39.0875C317.162 38.102 317.911 36.7653 317.911 35.3716V34.2681C318.775 34.1378 319.542 33.7754 320.064 33.2509C320.586 32.7264 320.826 32.0774 320.738 31.4295C320.649 30.7817 320.238 30.1812 319.585 29.7446C318.931 29.3079 318.081 29.0661 317.2 29.0661C316.319 29.0661 315.469 29.3079 314.816 29.7446C314.162 30.1812 313.751 30.7817 313.663 31.4295C313.574 32.0774 313.814 32.7264 314.336 33.2509C314.859 33.7754 315.626 34.1378 316.489 34.2681V35.3716C316.489 36.4866 315.89 37.5559 314.823 38.3443C313.756 39.1327 312.309 39.5756 310.8 39.5756C309.291 39.5756 307.844 39.1327 306.777 38.3443C305.711 37.5559 305.111 36.4866 305.111 35.3716V34.2922C306.676 34.163 308.121 33.612 309.171 32.7447C310.22 31.8774 310.8 30.7546 310.8 29.5911V24.336C310.8 24.1967 310.725 24.063 310.592 23.9645C310.458 23.8659 310.278 23.8105 310.089 23.8105H307.245C307.056 23.8105 306.875 23.8659 306.742 23.9645C306.608 24.063 306.533 24.1967 306.533 24.336C306.533 24.4754 306.608 24.6091 306.742 24.7076C306.875 24.8062 307.056 24.8616 307.245 24.8616H309.378V29.5911C309.378 30.5667 308.853 31.5023 307.92 32.1922C306.986 32.882 305.72 33.2696 304.4 33.2696C303.08 33.2696 301.814 32.882 300.88 32.1922C299.947 31.5023 299.422 30.5667 299.422 29.5911V24.8616H301.556C301.744 24.8616 301.925 24.8062 302.058 24.7076C302.192 24.6091 302.267 24.4754 302.267 24.336C302.267 24.1967 302.192 24.063 302.058 23.9645C301.925 23.8659 301.744 23.8105 301.556 23.8105H298.711ZM317.2 30.1166C317.766 30.1166 318.309 30.2827 318.709 30.5783C319.109 30.874 319.334 31.275 319.334 31.6931C319.334 32.1112 319.109 32.5122 318.709 32.8079C318.309 33.1035 317.766 33.2696 317.2 33.2696C316.634 33.2696 316.092 33.1035 315.692 32.8079C315.292 32.5122 315.067 32.1112 315.067 31.6931C315.067 31.275 315.292 30.874 315.692 30.5783C316.092 30.2827 316.634 30.1166 317.2 30.1166V30.1166Z" fill="#12A3A9"/>
<path d="M298.711 23.8105C298.523 23.8105 298.342 23.8659 298.208 23.9645C298.075 24.063 298 24.1967 298 24.336V29.5911C298 30.7546 298.58 31.8774 299.629 32.7447C300.679 33.612 302.124 34.163 303.689 34.2922V35.3716C303.689 36.7653 304.438 38.102 305.772 39.0875C307.105 40.073 308.914 40.6266 310.8 40.6266C312.686 40.6266 314.495 40.073 315.829 39.0875C317.162 38.102 317.911 36.7653 317.911 35.3716V34.2681C318.775 34.1378 319.542 33.7754 320.064 33.2509C320.586 32.7264 320.826 32.0774 320.738 31.4295C320.649 30.7817 320.238 30.1812 319.585 29.7446C318.931 29.3079 318.081 29.0661 317.2 29.0661C316.319 29.0661 315.469 29.3079 314.816 29.7446C314.162 30.1812 313.751 30.7817 313.663 31.4295C313.574 32.0774 313.814 32.7264 314.336 33.2509C314.859 33.7754 315.626 34.1378 316.489 34.2681V35.3716C316.489 36.4866 315.89 37.5559 314.823 38.3443C313.756 39.1327 312.309 39.5756 310.8 39.5756C309.291 39.5756 307.844 39.1327 306.777 38.3443C305.711 37.5559 305.111 36.4866 305.111 35.3716V34.2922C306.676 34.163 308.121 33.612 309.171 32.7447C310.22 31.8774 310.8 30.7546 310.8 29.5911V24.336C310.8 24.1967 310.725 24.063 310.592 23.9645C310.458 23.8659 310.278 23.8105 310.089 23.8105H307.245C307.056 23.8105 306.875 23.8659 306.742 23.9645C306.608 24.063 306.533 24.1967 306.533 24.336C306.533 24.4754 306.608 24.6091 306.742 24.7076C306.875 24.8062 307.056 24.8616 307.245 24.8616H309.378V29.5911C309.378 30.5667 308.853 31.5023 307.92 32.1922C306.986 32.882 305.72 33.2696 304.4 33.2696C303.08 33.2696 301.814 32.882 300.88 32.1922C299.947 31.5023 299.422 30.5667 299.422 29.5911V24.8616H301.556C301.744 24.8616 301.925 24.8062 302.058 24.7076C302.192 24.6091 302.267 24.4754 302.267 24.336C302.267 24.1967 302.192 24.063 302.058 23.9645C301.925 23.8659 301.744 23.8105 301.556 23.8105H298.711ZM317.2 30.1166C317.766 30.1166 318.309 30.2827 318.709 30.5783C319.109 30.874 319.334 31.275 319.334 31.6931C319.334 32.1112 319.109 32.5122 318.709 32.8079C318.309 33.1035 317.766 33.2696 317.2 33.2696C316.634 33.2696 316.092 33.1035 315.692 32.8079C315.292 32.5122 315.067 32.1112 315.067 31.6931C315.067 31.275 315.292 30.874 315.692 30.5783C316.092 30.2827 316.634 30.1166 317.2 30.1166V30.1166Z" fill="#12A3A9"/>
<path d="M322.809 13H296.726C295.738 13 294.79 13.3706 294.091 14.0303C293.393 14.69 293 15.5847 293 16.5177V58.7295C293 59.6624 293.393 60.5572 294.091 61.2169C294.79 61.8765 295.738 62.2472 296.726 62.2472H322.809C323.797 62.2472 324.745 61.8765 325.444 61.2169C326.142 60.5572 326.535 59.6624 326.535 58.7295V16.5177C326.535 15.5847 326.142 14.69 325.444 14.0303C324.745 13.3706 323.797 13 322.809 13ZM311.63 58.7295H307.904V55.2119H311.63V58.7295ZM296.726 51.6942V16.5177H322.809V51.6942H296.726Z" fill="#12A3A9"/>
<path d="M322.809 13H296.726C295.738 13 294.79 13.3706 294.091 14.0303C293.393 14.69 293 15.5847 293 16.5177V58.7295C293 59.6624 293.393 60.5572 294.091 61.2169C294.79 61.8765 295.738 62.2472 296.726 62.2472H322.809C323.797 62.2472 324.745 61.8765 325.444 61.2169C326.142 60.5572 326.535 59.6624 326.535 58.7295V16.5177C326.535 15.5847 326.142 14.69 325.444 14.0303C324.745 13.3706 323.797 13 322.809 13ZM311.63 58.7295H307.904V55.2119H311.63V58.7295ZM296.726 51.6942V16.5177H322.809V51.6942H296.726Z" fill="#12A3A9"/>
<path d="M293.525 78.8018C293.525 79.5127 293.434 80.1348 293.252 80.668C293.07 81.1969 292.804 81.637 292.452 81.9883C292.105 82.3353 291.678 82.5955 291.17 82.769C290.662 82.9425 290.057 83.0293 289.355 83.0293H287.616C287.518 83.0293 287.425 82.9976 287.336 82.9341C287.252 82.8664 287.209 82.75 287.209 82.585V75.2598C287.209 75.0947 287.252 74.9805 287.336 74.917C287.425 74.8493 287.518 74.8154 287.616 74.8154H289.475C290.186 74.8154 290.787 74.9085 291.278 75.0947C291.769 75.2767 292.18 75.5412 292.51 75.8882C292.844 76.231 293.096 76.6478 293.265 77.1387C293.438 77.6296 293.525 78.1839 293.525 78.8018ZM292.376 78.8462C292.376 78.4019 292.321 77.9893 292.211 77.6084C292.101 77.2233 291.928 76.8911 291.691 76.6118C291.458 76.3325 291.162 76.1146 290.802 75.958C290.442 75.8014 289.979 75.7231 289.412 75.7231H288.301V82.1152H289.425C289.949 82.1152 290.392 82.0496 290.751 81.9185C291.111 81.7873 291.411 81.5863 291.653 81.3154C291.894 81.0446 292.074 80.7061 292.192 80.2998C292.315 79.8893 292.376 79.4048 292.376 78.8462ZM295.874 82.8706C295.874 82.9045 295.866 82.9341 295.849 82.9595C295.832 82.9806 295.804 82.9997 295.766 83.0166C295.728 83.0335 295.675 83.0462 295.608 83.0547C295.54 83.0632 295.453 83.0674 295.347 83.0674C295.246 83.0674 295.161 83.0632 295.093 83.0547C295.026 83.0462 294.971 83.0335 294.928 83.0166C294.89 82.9997 294.863 82.9806 294.846 82.9595C294.833 82.9341 294.827 82.9045 294.827 82.8706V77.1577C294.827 77.1281 294.833 77.1006 294.846 77.0752C294.863 77.0498 294.89 77.0286 294.928 77.0117C294.971 76.9948 295.026 76.9821 295.093 76.9736C295.161 76.9652 295.246 76.9609 295.347 76.9609C295.453 76.9609 295.54 76.9652 295.608 76.9736C295.675 76.9821 295.728 76.9948 295.766 77.0117C295.804 77.0286 295.832 77.0498 295.849 77.0752C295.866 77.1006 295.874 77.1281 295.874 77.1577V82.8706ZM295.995 75.228C295.995 75.4735 295.948 75.6406 295.855 75.7295C295.762 75.8184 295.591 75.8628 295.341 75.8628C295.095 75.8628 294.926 75.8205 294.833 75.7358C294.744 75.647 294.7 75.4819 294.7 75.2407C294.7 74.9953 294.746 74.8281 294.839 74.7393C294.933 74.6504 295.104 74.606 295.354 74.606C295.599 74.606 295.766 74.6504 295.855 74.7393C295.948 74.8239 295.995 74.9868 295.995 75.228ZM301.854 82.877C301.854 82.9277 301.837 82.9658 301.803 82.9912C301.769 83.0166 301.723 83.0356 301.663 83.0483C301.604 83.061 301.517 83.0674 301.403 83.0674C301.293 83.0674 301.204 83.061 301.137 83.0483C301.073 83.0356 301.027 83.0166 300.997 82.9912C300.967 82.9658 300.952 82.9277 300.952 82.877V82.3057C300.703 82.5723 300.424 82.7796 300.115 82.9277C299.81 83.0758 299.486 83.1499 299.143 83.1499C298.843 83.1499 298.57 83.1097 298.325 83.0293C298.083 82.9531 297.876 82.841 297.702 82.6929C297.533 82.5448 297.4 82.3628 297.303 82.147C297.209 81.9312 297.163 81.6857 297.163 81.4106C297.163 81.089 297.229 80.8097 297.36 80.5728C297.491 80.3358 297.679 80.139 297.925 79.9824C298.17 79.8258 298.471 79.7095 298.826 79.6333C299.182 79.5529 299.581 79.5127 300.026 79.5127H300.813V79.0684C300.813 78.8483 300.79 78.6536 300.743 78.4844C300.696 78.3151 300.62 78.1755 300.515 78.0654C300.413 77.9512 300.28 77.8665 300.115 77.8115C299.95 77.7523 299.746 77.7227 299.505 77.7227C299.247 77.7227 299.014 77.7544 298.807 77.8179C298.604 77.8771 298.424 77.9448 298.267 78.021C298.115 78.0929 297.986 78.1606 297.88 78.2241C297.779 78.2834 297.702 78.313 297.652 78.313C297.618 78.313 297.588 78.3045 297.563 78.2876C297.537 78.2707 297.514 78.2453 297.493 78.2114C297.476 78.1776 297.463 78.1353 297.455 78.0845C297.446 78.0295 297.442 77.9702 297.442 77.9067C297.442 77.8009 297.449 77.7184 297.461 77.6592C297.478 77.5957 297.514 77.5365 297.569 77.4814C297.628 77.4264 297.728 77.363 297.868 77.291C298.007 77.2148 298.168 77.1471 298.35 77.0879C298.532 77.0244 298.731 76.9736 298.947 76.9355C299.162 76.8932 299.38 76.8721 299.6 76.8721C300.011 76.8721 300.36 76.9186 300.648 77.0117C300.936 77.1048 301.168 77.2424 301.346 77.4243C301.524 77.6021 301.653 77.8242 301.733 78.0908C301.814 78.3574 301.854 78.6685 301.854 79.0239V82.877ZM300.813 80.2681H299.918C299.63 80.2681 299.38 80.2935 299.169 80.3442C298.957 80.3908 298.782 80.4627 298.642 80.5601C298.502 80.6532 298.399 80.7674 298.331 80.9028C298.267 81.034 298.236 81.1864 298.236 81.3599C298.236 81.6561 298.329 81.8931 298.515 82.0708C298.705 82.2443 298.97 82.3311 299.308 82.3311C299.584 82.3311 299.837 82.2612 300.07 82.1216C300.307 81.9819 300.555 81.7682 300.813 81.4805V80.2681ZM308.297 77.418C308.297 77.5661 308.276 77.674 308.234 77.7417C308.195 77.8052 308.145 77.8369 308.081 77.8369H307.262C307.41 77.9893 307.514 78.1585 307.573 78.3447C307.633 78.5267 307.662 78.7171 307.662 78.916C307.662 79.2461 307.609 79.5381 307.504 79.792C307.398 80.0459 307.245 80.2617 307.047 80.4395C306.852 80.613 306.619 80.7463 306.348 80.8394C306.077 80.9325 305.777 80.979 305.447 80.979C305.214 80.979 304.992 80.9494 304.78 80.8901C304.573 80.8267 304.412 80.7484 304.298 80.6553C304.222 80.7314 304.158 80.8182 304.108 80.9155C304.061 81.0129 304.038 81.125 304.038 81.252C304.038 81.4001 304.105 81.5228 304.241 81.6201C304.38 81.7174 304.565 81.7703 304.793 81.7788L306.285 81.8423C306.568 81.8507 306.829 81.891 307.066 81.9629C307.303 82.0306 307.508 82.13 307.681 82.2612C307.855 82.3882 307.99 82.5469 308.088 82.7373C308.185 82.9235 308.234 83.1414 308.234 83.3911C308.234 83.6535 308.179 83.9032 308.068 84.1401C307.958 84.3771 307.789 84.5845 307.561 84.7622C307.336 84.9442 307.049 85.0859 306.697 85.1875C306.346 85.2933 305.931 85.3462 305.453 85.3462C304.992 85.3462 304.598 85.306 304.273 85.2256C303.951 85.1494 303.686 85.0436 303.479 84.9082C303.272 84.7728 303.122 84.6099 303.028 84.4194C302.935 84.2332 302.889 84.0301 302.889 83.8101C302.889 83.6704 302.906 83.535 302.94 83.4038C302.973 83.2726 303.024 83.1478 303.092 83.0293C303.164 82.9108 303.251 82.7987 303.352 82.6929C303.458 82.5828 303.579 82.4749 303.714 82.3691C303.507 82.2633 303.352 82.13 303.251 81.9692C303.153 81.8084 303.105 81.6349 303.105 81.4487C303.105 81.1906 303.158 80.96 303.263 80.7568C303.369 80.5537 303.5 80.3717 303.657 80.2109C303.526 80.0544 303.422 79.8787 303.346 79.6841C303.27 79.4852 303.232 79.2461 303.232 78.9668C303.232 78.641 303.287 78.349 303.397 78.0908C303.507 77.8327 303.659 77.6147 303.854 77.437C304.048 77.2593 304.281 77.1239 304.552 77.0308C304.827 76.9334 305.125 76.8848 305.447 76.8848C305.62 76.8848 305.781 76.8953 305.929 76.9165C306.082 76.9334 306.223 76.9588 306.355 76.9927H308.081C308.153 76.9927 308.206 77.0286 308.24 77.1006C308.278 77.1683 308.297 77.2741 308.297 77.418ZM306.659 78.9224C306.659 78.533 306.551 78.2305 306.336 78.0146C306.124 77.7946 305.821 77.6846 305.428 77.6846C305.225 77.6846 305.047 77.7184 304.895 77.7861C304.747 77.8538 304.622 77.9469 304.52 78.0654C304.423 78.1839 304.349 78.3215 304.298 78.478C304.251 78.6304 304.228 78.7912 304.228 78.9604C304.228 79.3371 304.334 79.6333 304.546 79.8491C304.761 80.0649 305.062 80.1729 305.447 80.1729C305.654 80.1729 305.834 80.1411 305.986 80.0776C306.139 80.0099 306.264 79.9189 306.361 79.8047C306.463 79.6862 306.537 79.5508 306.583 79.3984C306.634 79.2461 306.659 79.0874 306.659 78.9224ZM307.186 83.4482C307.186 83.2028 307.085 83.0145 306.881 82.8833C306.683 82.7479 306.412 82.6759 306.069 82.6675L304.59 82.6167C304.455 82.7225 304.342 82.8241 304.254 82.9214C304.169 83.0145 304.101 83.1034 304.05 83.188C304 83.2769 303.964 83.3636 303.942 83.4482C303.926 83.5329 303.917 83.6196 303.917 83.7085C303.917 83.9836 304.057 84.1909 304.336 84.3306C304.615 84.4744 305.005 84.5464 305.504 84.5464C305.821 84.5464 306.086 84.5146 306.297 84.4512C306.513 84.3919 306.687 84.3115 306.818 84.21C306.949 84.1084 307.042 83.992 307.097 83.8608C307.157 83.7297 307.186 83.5921 307.186 83.4482ZM314.302 82.8706C314.302 82.9045 314.294 82.9341 314.277 82.9595C314.26 82.9806 314.232 82.9997 314.194 83.0166C314.156 83.0335 314.103 83.0462 314.036 83.0547C313.968 83.0632 313.883 83.0674 313.782 83.0674C313.676 83.0674 313.589 83.0632 313.521 83.0547C313.454 83.0462 313.401 83.0335 313.363 83.0166C313.325 82.9997 313.297 82.9806 313.28 82.9595C313.263 82.9341 313.255 82.9045 313.255 82.8706V79.5254C313.255 79.1995 313.229 78.9372 313.179 78.7383C313.128 78.5394 313.054 78.368 312.956 78.2241C312.859 78.0802 312.732 77.9702 312.576 77.894C312.423 77.8179 312.245 77.7798 312.042 77.7798C311.78 77.7798 311.518 77.8729 311.255 78.0591C310.993 78.2453 310.718 78.5182 310.43 78.8779V82.8706C310.43 82.9045 310.422 82.9341 310.405 82.9595C310.388 82.9806 310.36 82.9997 310.322 83.0166C310.284 83.0335 310.231 83.0462 310.163 83.0547C310.096 83.0632 310.009 83.0674 309.903 83.0674C309.802 83.0674 309.717 83.0632 309.649 83.0547C309.582 83.0462 309.527 83.0335 309.484 83.0166C309.446 82.9997 309.419 82.9806 309.402 82.9595C309.389 82.9341 309.383 82.9045 309.383 82.8706V77.1577C309.383 77.1239 309.389 77.0964 309.402 77.0752C309.414 77.0498 309.44 77.0286 309.478 77.0117C309.516 76.9906 309.565 76.9779 309.624 76.9736C309.683 76.9652 309.761 76.9609 309.859 76.9609C309.952 76.9609 310.028 76.9652 310.087 76.9736C310.151 76.9779 310.199 76.9906 310.233 77.0117C310.267 77.0286 310.29 77.0498 310.303 77.0752C310.32 77.0964 310.328 77.1239 310.328 77.1577V77.9131C310.65 77.5534 310.97 77.291 311.287 77.126C311.609 76.9567 311.932 76.8721 312.258 76.8721C312.639 76.8721 312.959 76.9377 313.217 77.0688C313.479 77.1958 313.691 77.3672 313.851 77.583C314.012 77.7988 314.127 78.0527 314.194 78.3447C314.266 78.6325 314.302 78.9795 314.302 79.3857V82.8706ZM321.266 79.9507C321.266 80.4162 321.204 80.8457 321.082 81.2393C320.959 81.6286 320.775 81.965 320.529 82.2485C320.288 82.5321 319.984 82.7542 319.615 82.915C319.251 83.0716 318.828 83.1499 318.346 83.1499C317.876 83.1499 317.466 83.0801 317.114 82.9404C316.767 82.8008 316.478 82.5977 316.245 82.3311C316.012 82.0645 315.839 81.7407 315.724 81.3599C315.61 80.979 315.553 80.5474 315.553 80.0649C315.553 79.5994 315.612 79.172 315.731 78.7827C315.853 78.3892 316.035 78.0506 316.277 77.7671C316.522 77.4836 316.827 77.2635 317.191 77.1069C317.554 76.9504 317.98 76.8721 318.466 76.8721C318.936 76.8721 319.345 76.9419 319.692 77.0815C320.043 77.2212 320.335 77.4243 320.568 77.6909C320.8 77.9575 320.974 78.2812 321.088 78.6621C321.207 79.043 321.266 79.4725 321.266 79.9507ZM320.161 80.0205C320.161 79.7116 320.132 79.4196 320.072 79.1445C320.017 78.8695 319.924 78.6283 319.793 78.4209C319.662 78.2135 319.484 78.0506 319.26 77.9321C319.036 77.8094 318.756 77.748 318.422 77.748C318.113 77.748 317.846 77.8031 317.622 77.9131C317.402 78.0231 317.22 78.1797 317.076 78.3828C316.932 78.5817 316.825 78.8187 316.753 79.0938C316.685 79.3688 316.651 79.6693 316.651 79.9951C316.651 80.3083 316.679 80.6024 316.734 80.8774C316.793 81.1525 316.888 81.3937 317.019 81.6011C317.155 81.8042 317.334 81.9671 317.559 82.0898C317.783 82.2083 318.062 82.2676 318.397 82.2676C318.701 82.2676 318.966 82.2126 319.19 82.1025C319.414 81.9925 319.598 81.8381 319.742 81.6392C319.886 81.4403 319.992 81.2033 320.06 80.9282C320.127 80.6532 320.161 80.3506 320.161 80.0205ZM326.135 81.3154C326.135 81.6074 326.08 81.8677 325.97 82.0962C325.864 82.3247 325.711 82.5173 325.513 82.6738C325.314 82.8304 325.077 82.9489 324.802 83.0293C324.527 83.1097 324.224 83.1499 323.894 83.1499C323.691 83.1499 323.496 83.133 323.31 83.0991C323.128 83.0695 322.963 83.0314 322.815 82.9849C322.671 82.9341 322.548 82.8833 322.447 82.8325C322.345 82.7775 322.271 82.7288 322.225 82.6865C322.178 82.6442 322.144 82.585 322.123 82.5088C322.102 82.4326 322.091 82.3289 322.091 82.1978C322.091 82.1174 322.095 82.0496 322.104 81.9946C322.112 81.9396 322.123 81.8952 322.136 81.8613C322.148 81.8275 322.165 81.8042 322.186 81.7915C322.212 81.7746 322.239 81.7661 322.269 81.7661C322.315 81.7661 322.383 81.7957 322.472 81.855C322.565 81.91 322.677 81.9714 322.808 82.0391C322.944 82.1068 323.103 82.1702 323.285 82.2295C323.467 82.2845 323.676 82.312 323.913 82.312C324.091 82.312 324.252 82.293 324.395 82.2549C324.539 82.2168 324.664 82.1618 324.77 82.0898C324.876 82.0137 324.956 81.9185 325.011 81.8042C325.07 81.6899 325.1 81.5545 325.1 81.3979C325.1 81.2371 325.058 81.1017 324.973 80.9917C324.893 80.8817 324.785 80.7843 324.649 80.6997C324.514 80.6151 324.362 80.541 324.192 80.4775C324.023 80.4098 323.847 80.34 323.665 80.2681C323.488 80.1961 323.312 80.1157 323.139 80.0269C322.969 79.9338 322.817 79.8216 322.682 79.6904C322.546 79.5592 322.436 79.4027 322.351 79.2207C322.271 79.0387 322.231 78.8208 322.231 78.5669C322.231 78.3426 322.273 78.1289 322.358 77.9258C322.447 77.7184 322.578 77.5386 322.751 77.3862C322.925 77.2297 323.141 77.1048 323.399 77.0117C323.661 76.9186 323.966 76.8721 324.313 76.8721C324.465 76.8721 324.618 76.8848 324.77 76.9102C324.922 76.9355 325.06 76.9673 325.183 77.0054C325.305 77.0435 325.409 77.0858 325.494 77.1323C325.582 77.1746 325.648 77.2127 325.69 77.2466C325.737 77.2804 325.767 77.3101 325.779 77.3354C325.796 77.3608 325.807 77.3905 325.811 77.4243C325.819 77.4539 325.826 77.492 325.83 77.5386C325.838 77.5851 325.843 77.6423 325.843 77.71C325.843 77.7819 325.838 77.8454 325.83 77.9004C325.826 77.9512 325.815 77.9935 325.798 78.0273C325.786 78.0612 325.769 78.0866 325.747 78.1035C325.726 78.1162 325.703 78.1226 325.678 78.1226C325.64 78.1226 325.585 78.0993 325.513 78.0527C325.441 78.0062 325.348 77.9575 325.233 77.9067C325.119 77.8517 324.984 77.8009 324.827 77.7544C324.675 77.7078 324.499 77.6846 324.3 77.6846C324.122 77.6846 323.966 77.7057 323.83 77.748C323.695 77.7861 323.583 77.8433 323.494 77.9194C323.409 77.9914 323.344 78.0781 323.297 78.1797C323.255 78.2812 323.234 78.3913 323.234 78.5098C323.234 78.6748 323.276 78.8145 323.361 78.9287C323.445 79.0387 323.555 79.1361 323.691 79.2207C323.826 79.3053 323.981 79.3815 324.154 79.4492C324.328 79.5169 324.503 79.5868 324.681 79.6587C324.863 79.7306 325.041 79.811 325.214 79.8999C325.392 79.9888 325.549 80.0967 325.684 80.2236C325.819 80.3506 325.927 80.5029 326.008 80.6807C326.092 80.8584 326.135 81.07 326.135 81.3154ZM332.254 79.7666C332.254 79.9316 332.212 80.0501 332.127 80.1221C332.047 80.1898 331.954 80.2236 331.848 80.2236H328.103C328.103 80.541 328.134 80.8267 328.198 81.0806C328.261 81.3345 328.367 81.5524 328.515 81.7344C328.663 81.9163 328.856 82.056 329.093 82.1533C329.33 82.2507 329.62 82.2993 329.963 82.2993C330.233 82.2993 330.475 82.2782 330.686 82.2358C330.898 82.1893 331.08 82.1385 331.232 82.0835C331.389 82.0285 331.516 81.9798 331.613 81.9375C331.715 81.891 331.791 81.8677 331.841 81.8677C331.871 81.8677 331.896 81.8761 331.918 81.8931C331.943 81.9058 331.962 81.9269 331.975 81.9565C331.987 81.9862 331.996 82.0285 332 82.0835C332.009 82.1343 332.013 82.1978 332.013 82.2739C332.013 82.3289 332.011 82.3776 332.007 82.4199C332.002 82.458 331.996 82.494 331.987 82.5278C331.983 82.5575 331.973 82.585 331.956 82.6104C331.943 82.6357 331.924 82.6611 331.899 82.6865C331.877 82.7077 331.81 82.7458 331.695 82.8008C331.581 82.8516 331.433 82.9023 331.251 82.9531C331.069 83.0039 330.858 83.0483 330.616 83.0864C330.379 83.1287 330.125 83.1499 329.855 83.1499C329.385 83.1499 328.972 83.0843 328.617 82.9531C328.266 82.8219 327.969 82.6273 327.728 82.3691C327.487 82.111 327.305 81.7873 327.182 81.3979C327.06 81.0086 326.998 80.5558 326.998 80.0396C326.998 79.5487 327.062 79.1086 327.189 78.7192C327.316 78.3257 327.498 77.9935 327.735 77.7227C327.976 77.4476 328.266 77.2381 328.604 77.0942C328.943 76.9461 329.321 76.8721 329.74 76.8721C330.189 76.8721 330.57 76.944 330.883 77.0879C331.2 77.2318 331.461 77.4264 331.664 77.6719C331.867 77.9131 332.015 78.1987 332.108 78.5288C332.205 78.8547 332.254 79.2038 332.254 79.5762V79.7666ZM331.2 79.4556C331.213 78.9054 331.09 78.4738 330.832 78.1606C330.578 77.8475 330.2 77.6909 329.696 77.6909C329.438 77.6909 329.211 77.7396 329.017 77.8369C328.822 77.9342 328.659 78.0633 328.528 78.2241C328.397 78.3849 328.295 78.5732 328.223 78.7891C328.151 79.0007 328.111 79.2228 328.103 79.4556H331.2Z" fill="#12A3A9"/>
<path d="M280.582 199.353V208.414H279.399V199.353H280.582ZM285.809 201.16C286.676 201.16 287.378 201.424 287.915 201.953C288.452 202.473 288.721 203.227 288.721 204.215V208.414H287.551V204.384C287.551 203.673 287.373 203.132 287.018 202.759C286.663 202.378 286.177 202.187 285.562 202.187C284.938 202.187 284.44 202.382 284.067 202.772C283.703 203.162 283.521 203.73 283.521 204.475V208.414H282.338V201.29H283.521V202.304C283.755 201.94 284.071 201.658 284.47 201.459C284.877 201.26 285.324 201.16 285.809 201.16ZM291.837 202.265V206.464C291.837 206.811 291.91 207.058 292.058 207.205C292.205 207.344 292.461 207.413 292.825 207.413H293.696V208.414H292.63C291.971 208.414 291.477 208.262 291.148 207.959C290.818 207.656 290.654 207.157 290.654 206.464V202.265H289.731V201.29H290.654V199.496H291.837V201.29H293.696V202.265H291.837ZM301.369 204.579C301.369 204.804 301.356 205.043 301.33 205.294H295.636C295.679 205.996 295.918 206.546 296.351 206.945C296.793 207.335 297.326 207.53 297.95 207.53C298.461 207.53 298.886 207.413 299.224 207.179C299.571 206.936 299.813 206.616 299.952 206.217H301.226C301.035 206.902 300.654 207.461 300.082 207.894C299.51 208.319 298.799 208.531 297.95 208.531C297.274 208.531 296.667 208.379 296.13 208.076C295.601 207.773 295.185 207.344 294.882 206.789C294.579 206.226 294.427 205.576 294.427 204.839C294.427 204.102 294.574 203.457 294.869 202.902C295.164 202.347 295.575 201.923 296.104 201.628C296.641 201.325 297.257 201.173 297.95 201.173C298.626 201.173 299.224 201.32 299.744 201.615C300.264 201.91 300.663 202.317 300.94 202.837C301.226 203.348 301.369 203.929 301.369 204.579ZM300.147 204.332C300.147 203.881 300.047 203.496 299.848 203.175C299.649 202.846 299.376 202.599 299.029 202.434C298.691 202.261 298.314 202.174 297.898 202.174C297.3 202.174 296.789 202.365 296.364 202.746C295.948 203.127 295.71 203.656 295.649 204.332H300.147ZM303.853 202.447C304.061 202.04 304.356 201.723 304.737 201.498C305.127 201.273 305.6 201.16 306.154 201.16V202.382H305.842C304.516 202.382 303.853 203.101 303.853 204.54V208.414H302.67V201.29H303.853V202.447ZM306.818 204.826C306.818 204.098 306.965 203.461 307.26 202.915C307.555 202.36 307.958 201.931 308.469 201.628C308.989 201.325 309.565 201.173 310.198 201.173C310.822 201.173 311.364 201.307 311.823 201.576C312.282 201.845 312.625 202.183 312.85 202.59V201.29H314.046V208.414H312.85V207.088C312.616 207.504 312.265 207.851 311.797 208.128C311.338 208.397 310.8 208.531 310.185 208.531C309.552 208.531 308.98 208.375 308.469 208.063C307.958 207.751 307.555 207.313 307.26 206.75C306.965 206.187 306.818 205.545 306.818 204.826ZM312.85 204.839C312.85 204.302 312.742 203.834 312.525 203.435C312.308 203.036 312.014 202.733 311.641 202.525C311.277 202.308 310.874 202.2 310.432 202.2C309.99 202.2 309.587 202.304 309.223 202.512C308.859 202.72 308.569 203.023 308.352 203.422C308.135 203.821 308.027 204.289 308.027 204.826C308.027 205.372 308.135 205.849 308.352 206.256C308.569 206.655 308.859 206.962 309.223 207.179C309.587 207.387 309.99 207.491 310.432 207.491C310.874 207.491 311.277 207.387 311.641 207.179C312.014 206.962 312.308 206.655 312.525 206.256C312.742 205.849 312.85 205.376 312.85 204.839ZM315.343 204.839C315.343 204.102 315.491 203.461 315.785 202.915C316.08 202.36 316.487 201.931 317.007 201.628C317.536 201.325 318.138 201.173 318.814 201.173C319.69 201.173 320.409 201.385 320.972 201.81C321.544 202.235 321.921 202.824 322.103 203.578H320.829C320.708 203.145 320.47 202.802 320.114 202.551C319.768 202.3 319.334 202.174 318.814 202.174C318.138 202.174 317.592 202.408 317.176 202.876C316.76 203.335 316.552 203.99 316.552 204.839C316.552 205.697 316.76 206.36 317.176 206.828C317.592 207.296 318.138 207.53 318.814 207.53C319.334 207.53 319.768 207.409 320.114 207.166C320.461 206.923 320.699 206.577 320.829 206.126H322.103C321.913 206.854 321.531 207.439 320.959 207.881C320.387 208.314 319.672 208.531 318.814 208.531C318.138 208.531 317.536 208.379 317.007 208.076C316.487 207.773 316.08 207.344 315.785 206.789C315.491 206.234 315.343 205.584 315.343 204.839ZM324.865 202.265V206.464C324.865 206.811 324.938 207.058 325.086 207.205C325.233 207.344 325.489 207.413 325.853 207.413H326.724V208.414H325.658C324.999 208.414 324.505 208.262 324.176 207.959C323.846 207.656 323.682 207.157 323.682 206.464V202.265H322.759V201.29H323.682V199.496H324.865V201.29H326.724V202.265H324.865ZM328.508 200.133C328.283 200.133 328.092 200.055 327.936 199.899C327.78 199.743 327.702 199.552 327.702 199.327C327.702 199.102 327.78 198.911 327.936 198.755C328.092 198.599 328.283 198.521 328.508 198.521C328.725 198.521 328.907 198.599 329.054 198.755C329.21 198.911 329.288 199.102 329.288 199.327C329.288 199.552 329.21 199.743 329.054 199.899C328.907 200.055 328.725 200.133 328.508 200.133ZM329.08 201.29V208.414H327.897V201.29H329.08ZM333.488 207.322L335.698 201.29H336.959L334.164 208.414H332.786L329.991 201.29H331.265L333.488 207.322ZM338.474 200.133C338.249 200.133 338.058 200.055 337.902 199.899C337.746 199.743 337.668 199.552 337.668 199.327C337.668 199.102 337.746 198.911 337.902 198.755C338.058 198.599 338.249 198.521 338.474 198.521C338.691 198.521 338.873 198.599 339.02 198.755C339.176 198.911 339.254 199.102 339.254 199.327C339.254 199.552 339.176 199.743 339.02 199.899C338.873 200.055 338.691 200.133 338.474 200.133ZM339.046 201.29V208.414H337.863V201.29H339.046ZM342.246 202.265V206.464C342.246 206.811 342.319 207.058 342.467 207.205C342.614 207.344 342.87 207.413 343.234 207.413H344.105V208.414H343.039C342.38 208.414 341.886 208.262 341.557 207.959C341.227 207.656 341.063 207.157 341.063 206.464V202.265H340.14V201.29H341.063V199.496H342.246V201.29H344.105V202.265H342.246ZM351.414 201.29L347.124 211.768H345.902L347.306 208.336L344.433 201.29H345.746L347.982 207.062L350.192 201.29H351.414Z" fill="#12A3A9"/>
<path d="M319.981 118H293.04C292.019 118 291.04 118.383 290.319 119.065C289.597 119.747 289.191 120.671 289.191 121.636V165.265C289.191 166.229 289.597 167.154 290.319 167.836C291.04 168.517 292.019 168.9 293.04 168.9H319.981C321.002 168.9 321.981 168.517 322.703 167.836C323.424 167.154 323.83 166.229 323.83 165.265V121.636C323.83 120.671 323.424 119.747 322.703 119.065C321.981 118.383 321.002 118 319.981 118ZM308.435 165.265H304.586V161.629H308.435V165.265ZM293.04 157.993V121.636H319.981V157.993H293.04Z" fill="#12A3A9"/>
<rect x="303.875" y="132.023" width="4.58786" height="10.1282" fill="#12A3A9"/>
<rect x="312.133" y="135.141" width="3.89545" height="11.9285" transform="rotate(90 312.133 135.141)" fill="#12A3A9"/>
<path d="M304.597 269.553C304.597 269.553 304.023 269.553 304.023 268.969C304.023 268.384 304.597 266.631 307.464 266.631C310.332 266.631 310.905 268.384 310.905 268.969C310.905 269.553 310.332 269.553 310.332 269.553H304.597ZM307.464 266.047C307.921 266.047 308.358 265.862 308.681 265.533C309.004 265.205 309.185 264.759 309.185 264.294C309.185 263.829 309.004 263.383 308.681 263.054C308.358 262.726 307.921 262.541 307.464 262.541C307.008 262.541 306.57 262.726 306.248 263.054C305.925 263.383 305.744 263.829 305.744 264.294C305.744 264.759 305.925 265.205 306.248 265.533C306.57 265.862 307.008 266.047 307.464 266.047V266.047Z" fill="#12A3A9"/>
<path d="M361.93 290.608C362.486 290.601 363.015 290.422 363.403 290.11C363.791 289.797 364.005 289.377 363.998 288.941L363.742 272.508C363.686 268.87 361.924 265.378 358.792 262.701C355.661 260.024 351.38 258.348 346.768 257.996L346.715 254.621C346.648 250.263 344.377 246.108 340.404 243.07C336.431 240.033 331.08 238.361 325.529 238.424C319.978 238.486 314.681 240.277 310.804 243.403C306.927 246.529 304.787 250.733 304.855 255.091L304.909 258.542C302.374 258.978 300.134 260.137 298.622 261.794C297.111 263.451 296.436 265.489 296.728 267.512C297.02 269.535 298.259 271.399 300.204 272.743C302.149 274.086 304.662 274.814 307.255 274.785C309.849 274.756 312.338 273.972 314.241 272.585C316.143 271.198 317.323 269.306 317.552 267.278C317.781 265.249 317.043 263.227 315.48 261.605C313.918 259.982 311.642 258.874 309.095 258.495L309.041 255.044C308.987 251.558 310.699 248.194 313.8 245.694C316.902 243.193 321.139 241.76 325.58 241.71C330.021 241.66 334.302 242.997 337.48 245.427C340.659 247.857 342.475 251.181 342.529 254.668L342.582 258.043C337.983 258.499 333.756 260.27 330.709 263.017C327.662 265.763 326.009 269.293 326.067 272.932L326.323 289.364C326.33 289.8 326.557 290.216 326.954 290.519C327.352 290.823 327.887 290.99 328.442 290.984L336.814 290.89C337.369 290.884 337.899 290.705 338.287 290.392C338.674 290.079 338.888 289.659 338.881 289.223C338.875 288.787 338.648 288.372 338.25 288.068C337.853 287.764 337.318 287.597 336.763 287.603L330.484 287.674L330.253 272.885C330.206 269.834 331.704 266.891 334.418 264.703C337.132 262.515 340.839 261.261 344.725 261.217C348.611 261.174 352.356 262.344 355.137 264.47C357.919 266.596 359.508 269.505 359.556 272.555L359.786 287.345L353.507 287.415C352.952 287.421 352.422 287.6 352.035 287.913C351.647 288.226 351.433 288.646 351.44 289.082C351.446 289.518 351.673 289.933 352.071 290.237C352.468 290.541 353.003 290.708 353.558 290.702L361.93 290.608ZM307.204 271.5C305.539 271.519 303.934 271.018 302.742 270.106C301.55 269.195 300.869 267.949 300.848 266.641C300.828 265.334 301.47 264.072 302.633 263.135C303.796 262.197 305.385 261.66 307.05 261.641C308.716 261.622 310.321 262.124 311.513 263.035C312.705 263.946 313.386 265.193 313.406 266.5C313.427 267.807 312.785 269.069 311.622 270.006C310.458 270.944 308.869 271.482 307.204 271.5V271.5Z" fill="#12A3A9"/>
<path d="M320.639 245.25H293.625C292.601 245.25 291.62 245.639 290.896 246.331C290.172 247.022 289.766 247.961 289.766 248.939V293.21C289.766 294.189 290.172 295.127 290.896 295.819C291.62 296.511 292.601 296.899 293.625 296.899H320.639C321.663 296.899 322.644 296.511 323.368 295.819C324.092 295.127 324.498 294.189 324.498 293.21V248.939C324.498 247.961 324.092 247.022 323.368 246.331C322.644 245.639 321.663 245.25 320.639 245.25ZM309.061 293.21H305.202V289.521H309.061V293.21ZM293.625 285.832V248.939H320.639V285.832H293.625Z" fill="#12A3A9"/>
<path d="M294.159 327.591C294.159 328.345 293.899 328.973 293.379 329.476C292.867 329.97 292.083 330.217 291.026 330.217H289.284V334H288.101V324.939H291.026C292.048 324.939 292.824 325.186 293.353 325.68C293.89 326.174 294.159 326.811 294.159 327.591ZM291.026 329.242C291.684 329.242 292.17 329.099 292.482 328.813C292.794 328.527 292.95 328.12 292.95 327.591C292.95 326.473 292.308 325.914 291.026 325.914H289.284V329.242H291.026ZM294.927 330.412C294.927 329.684 295.074 329.047 295.369 328.501C295.664 327.946 296.067 327.517 296.578 327.214C297.098 326.911 297.674 326.759 298.307 326.759C298.931 326.759 299.473 326.893 299.932 327.162C300.391 327.431 300.734 327.769 300.959 328.176V326.876H302.155V334H300.959V332.674C300.725 333.09 300.374 333.437 299.906 333.714C299.447 333.983 298.909 334.117 298.294 334.117C297.661 334.117 297.089 333.961 296.578 333.649C296.067 333.337 295.664 332.899 295.369 332.336C295.074 331.773 294.927 331.131 294.927 330.412ZM300.959 330.425C300.959 329.888 300.851 329.42 300.634 329.021C300.417 328.622 300.123 328.319 299.75 328.111C299.386 327.894 298.983 327.786 298.541 327.786C298.099 327.786 297.696 327.89 297.332 328.098C296.968 328.306 296.678 328.609 296.461 329.008C296.244 329.407 296.136 329.875 296.136 330.412C296.136 330.958 296.244 331.435 296.461 331.842C296.678 332.241 296.968 332.548 297.332 332.765C297.696 332.973 298.099 333.077 298.541 333.077C298.983 333.077 299.386 332.973 299.75 332.765C300.123 332.548 300.417 332.241 300.634 331.842C300.851 331.435 300.959 330.962 300.959 330.425ZM305.337 327.851V332.05C305.337 332.397 305.411 332.644 305.558 332.791C305.706 332.93 305.961 332.999 306.325 332.999H307.196V334H306.13C305.472 334 304.978 333.848 304.648 333.545C304.319 333.242 304.154 332.743 304.154 332.05V327.851H303.231V326.876H304.154V325.082H305.337V326.876H307.196V327.851H305.337ZM308.981 325.719C308.755 325.719 308.565 325.641 308.409 325.485C308.253 325.329 308.175 325.138 308.175 324.913C308.175 324.688 308.253 324.497 308.409 324.341C308.565 324.185 308.755 324.107 308.981 324.107C309.197 324.107 309.379 324.185 309.527 324.341C309.683 324.497 309.761 324.688 309.761 324.913C309.761 325.138 309.683 325.329 309.527 325.485C309.379 325.641 309.197 325.719 308.981 325.719ZM309.553 326.876V334H308.37V326.876H309.553ZM317.809 330.165C317.809 330.39 317.796 330.629 317.77 330.88H312.076C312.119 331.582 312.358 332.132 312.791 332.531C313.233 332.921 313.766 333.116 314.39 333.116C314.901 333.116 315.326 332.999 315.664 332.765C316.011 332.522 316.253 332.202 316.392 331.803H317.666C317.475 332.488 317.094 333.047 316.522 333.48C315.95 333.905 315.239 334.117 314.39 334.117C313.714 334.117 313.107 333.965 312.57 333.662C312.041 333.359 311.625 332.93 311.322 332.375C311.019 331.812 310.867 331.162 310.867 330.425C310.867 329.688 311.014 329.043 311.309 328.488C311.604 327.933 312.015 327.509 312.544 327.214C313.081 326.911 313.697 326.759 314.39 326.759C315.066 326.759 315.664 326.906 316.184 327.201C316.704 327.496 317.103 327.903 317.38 328.423C317.666 328.934 317.809 329.515 317.809 330.165ZM316.587 329.918C316.587 329.467 316.487 329.082 316.288 328.761C316.089 328.432 315.816 328.185 315.469 328.02C315.131 327.847 314.754 327.76 314.338 327.76C313.74 327.76 313.229 327.951 312.804 328.332C312.388 328.713 312.15 329.242 312.089 329.918H316.587ZM322.581 326.746C323.448 326.746 324.15 327.01 324.687 327.539C325.225 328.059 325.493 328.813 325.493 329.801V334H324.323V329.97C324.323 329.259 324.146 328.718 323.79 328.345C323.435 327.964 322.95 327.773 322.334 327.773C321.71 327.773 321.212 327.968 320.839 328.358C320.475 328.748 320.293 329.316 320.293 330.061V334H319.11V326.876H320.293V327.89C320.527 327.526 320.844 327.244 321.242 327.045C321.65 326.846 322.096 326.746 322.581 326.746ZM328.609 327.851V332.05C328.609 332.397 328.682 332.644 328.83 332.791C328.977 332.93 329.233 332.999 329.597 332.999H330.468V334H329.402C328.743 334 328.249 333.848 327.92 333.545C327.59 333.242 327.426 332.743 327.426 332.05V327.851H326.503V326.876H327.426V325.082H328.609V326.876H330.468V327.851H328.609Z" fill="#12A3A9"/>
<path d="M35.0609 6.89225C34.5035 5.54352 33.6996 4.32131 32.6944 3.29404C31.6885 2.26371 30.5025 1.44492 29.2008 0.8822C27.8511 0.296375 26.4035 -0.00348429 24.9419 3.05451e-05C22.8915 3.05451e-05 20.891 0.586695 19.1525 1.69484C18.7366 1.95992 18.3415 2.25108 17.9672 2.56832C17.5929 2.25108 17.1977 1.95992 16.7818 1.69484C15.0433 0.586695 13.0428 3.05451e-05 10.9924 3.05451e-05C9.51595 3.05451e-05 8.08523 0.295536 6.73353 0.8822C5.42758 1.44714 4.25057 2.25977 3.23991 3.29404C2.23341 4.32015 1.42938 5.54265 0.873404 6.89225C0.295294 8.2959 0 9.78646 0 11.3205C0 12.7676 0.282817 14.2755 0.844291 15.8095C1.31427 17.0915 1.98803 18.4213 2.84896 19.7641C4.21314 21.8891 6.08888 24.1054 8.41795 26.3521C12.2776 30.0764 16.0998 32.649 16.262 32.7533L17.2477 33.4138C17.6844 33.705 18.2458 33.705 18.6825 33.4138L19.6682 32.7533C19.8304 32.6446 23.6485 30.0764 27.5122 26.3521C29.8413 24.1054 31.7171 21.8891 33.0812 19.7641C33.9422 18.4213 34.6201 17.0915 35.0859 15.8095C35.6474 14.2755 35.9302 12.7676 35.9302 11.3205C35.9343 9.78646 35.6391 8.2959 35.0609 6.89225ZM17.9672 29.9764C17.9672 29.9764 3.16089 20.064 3.16089 11.3205C3.16089 6.89225 6.66699 3.30273 10.9924 3.30273C14.0327 3.30273 16.6695 5.07576 17.9672 7.66578C19.2648 5.07576 21.9017 3.30273 24.9419 3.30273C29.2674 3.30273 32.7735 6.89225 32.7735 11.3205C32.7735 20.064 17.9672 29.9764 17.9672 29.9764Z" fill="#12A3A9"/>
<path d="M54.8265 9.60938H27.8123C26.7888 9.60938 25.8072 9.98902 25.0835 10.6648C24.3597 11.3406 23.9531 12.2571 23.9531 13.2128V56.4542C23.9531 57.4099 24.3597 58.3265 25.0835 59.0023C25.8072 59.678 26.7888 60.0577 27.8123 60.0577H54.8265C55.85 60.0577 56.8316 59.678 57.5554 59.0023C58.2791 58.3265 58.6857 57.4099 58.6857 56.4542V13.2128C58.6857 12.2571 58.2791 11.3406 57.5554 10.6648C56.8316 9.98902 55.85 9.60938 54.8265 9.60938ZM43.249 56.4542H39.3898V52.8508H43.249V56.4542ZM27.8123 49.2473V13.2128H54.8265V49.2473H27.8123Z" fill="#12A3A9"/>
<path d="M3.59375 16.3986H7.41993L9.69483 14.884L11.8665 17.7042L14.245 14.4141L16.4681 18.0175L19.0017 16.3986H31.1403" fill="#12A3A9"/>
<path d="M3.59375 16.3986H7.41993L9.69483 14.884L11.8665 17.7042L14.245 14.4141L16.4681 18.0175L19.0017 16.3986H31.1403" stroke="#0C9093" stroke-width="2" stroke-linecap="round" stroke-linejoin="round"/>
<path d="M20.4826 74.004V83H19.2996V76.292L16.3096 83H15.4776L12.4746 76.279V83H11.2916V74.004H12.5656L15.8936 81.44L19.2216 74.004H20.4826ZM25.3359 83.117C24.6685 83.117 24.0619 82.9653 23.5159 82.662C22.9785 82.3587 22.5539 81.9297 22.2419 81.375C21.9385 80.8117 21.7869 80.1617 21.7869 79.425C21.7869 78.697 21.9429 78.0557 22.2549 77.501C22.5755 76.9377 23.0089 76.5087 23.5549 76.214C24.1009 75.9107 24.7119 75.759 25.3879 75.759C26.0639 75.759 26.6749 75.9107 27.2209 76.214C27.7669 76.5087 28.1959 76.9333 28.5079 77.488C28.8285 78.0427 28.9889 78.6883 28.9889 79.425C28.9889 80.1617 28.8242 80.8117 28.4949 81.375C28.1742 81.9297 27.7365 82.3587 27.1819 82.662C26.6272 82.9653 26.0119 83.117 25.3359 83.117ZM25.3359 82.077C25.7605 82.077 26.1592 81.9773 26.5319 81.778C26.9045 81.5787 27.2035 81.2797 27.4289 80.881C27.6629 80.4823 27.7799 79.997 27.7799 79.425C27.7799 78.853 27.6672 78.3677 27.4419 77.969C27.2165 77.5703 26.9219 77.2757 26.5579 77.085C26.1939 76.8857 25.7995 76.786 25.3749 76.786C24.9415 76.786 24.5429 76.8857 24.1789 77.085C23.8235 77.2757 23.5375 77.5703 23.3209 77.969C23.1042 78.3677 22.9959 78.853 22.9959 79.425C22.9959 80.0057 23.0999 80.4953 23.3079 80.894C23.5245 81.2927 23.8105 81.5917 24.1659 81.791C24.5212 81.9817 24.9112 82.077 25.3359 82.077ZM33.7553 75.746C34.622 75.746 35.324 76.0103 35.8613 76.539C36.3986 77.059 36.6673 77.813 36.6673 78.801V83H35.4973V78.97C35.4973 78.2593 35.3196 77.7177 34.9643 77.345C34.609 76.9637 34.1236 76.773 33.5083 76.773C32.8843 76.773 32.386 76.968 32.0133 77.358C31.6493 77.748 31.4673 78.3157 31.4673 79.061V83H30.2843V75.876H31.4673V76.89C31.7013 76.526 32.0176 76.2443 32.4163 76.045C32.8236 75.8457 33.27 75.746 33.7553 75.746ZM38.9507 74.719C38.7254 74.719 38.5347 74.641 38.3787 74.485C38.2227 74.329 38.1447 74.1383 38.1447 73.913C38.1447 73.6877 38.2227 73.497 38.3787 73.341C38.5347 73.185 38.7254 73.107 38.9507 73.107C39.1674 73.107 39.3494 73.185 39.4967 73.341C39.6527 73.497 39.7307 73.6877 39.7307 73.913C39.7307 74.1383 39.6527 74.329 39.4967 74.485C39.3494 74.641 39.1674 74.719 38.9507 74.719ZM39.5227 75.876V83H38.3397V75.876H39.5227ZM42.7219 76.851V81.05C42.7219 81.3967 42.7956 81.6437 42.9429 81.791C43.0903 81.9297 43.3459 81.999 43.7099 81.999H44.5809V83H43.5149C42.8563 83 42.3623 82.8483 42.0329 82.545C41.7036 82.2417 41.5389 81.7433 41.5389 81.05V76.851H40.6159V75.876H41.5389V74.082H42.7219V75.876H44.5809V76.851H42.7219ZM48.8613 83.117C48.194 83.117 47.5873 82.9653 47.0413 82.662C46.504 82.3587 46.0793 81.9297 45.7673 81.375C45.464 80.8117 45.3123 80.1617 45.3123 79.425C45.3123 78.697 45.4683 78.0557 45.7803 77.501C46.101 76.9377 46.5343 76.5087 47.0803 76.214C47.6263 75.9107 48.2373 75.759 48.9133 75.759C49.5893 75.759 50.2003 75.9107 50.7463 76.214C51.2923 76.5087 51.7213 76.9333 52.0333 77.488C52.354 78.0427 52.5143 78.6883 52.5143 79.425C52.5143 80.1617 52.3496 80.8117 52.0203 81.375C51.6996 81.9297 51.262 82.3587 50.7073 82.662C50.1526 82.9653 49.5373 83.117 48.8613 83.117ZM48.8613 82.077C49.286 82.077 49.6846 81.9773 50.0573 81.778C50.43 81.5787 50.729 81.2797 50.9543 80.881C51.1883 80.4823 51.3053 79.997 51.3053 79.425C51.3053 78.853 51.1926 78.3677 50.9673 77.969C50.742 77.5703 50.4473 77.2757 50.0833 77.085C49.7193 76.8857 49.325 76.786 48.9003 76.786C48.467 76.786 48.0683 76.8857 47.7043 77.085C47.349 77.2757 47.063 77.5703 46.8463 77.969C46.6296 78.3677 46.5213 78.853 46.5213 79.425C46.5213 80.0057 46.6253 80.4953 46.8333 80.894C47.05 81.2927 47.336 81.5917 47.6913 81.791C48.0466 81.9817 48.4366 82.077 48.8613 82.077ZM54.9927 77.033C55.2007 76.6257 55.4954 76.3093 55.8767 76.084C56.2667 75.8587 56.7391 75.746 57.2937 75.746V76.968H56.9817C55.6557 76.968 54.9927 77.6873 54.9927 79.126V83H53.8097V75.876H54.9927V77.033ZM59.0103 74.719C58.785 74.719 58.5943 74.641 58.4383 74.485C58.2823 74.329 58.2043 74.1383 58.2043 73.913C58.2043 73.6877 58.2823 73.497 58.4383 73.341C58.5943 73.185 58.785 73.107 59.0103 73.107C59.227 73.107 59.409 73.185 59.5563 73.341C59.7123 73.497 59.7903 73.6877 59.7903 73.913C59.7903 74.1383 59.7123 74.329 59.5563 74.485C59.409 74.641 59.227 74.719 59.0103 74.719ZM59.5823 75.876V83H58.3993V75.876H59.5823ZM64.8096 75.746C65.6762 75.746 66.3782 76.0103 66.9156 76.539C67.4529 77.059 67.7216 77.813 67.7216 78.801V83H66.5516V78.97C66.5516 78.2593 66.3739 77.7177 66.0186 77.345C65.6632 76.9637 65.1779 76.773 64.5626 76.773C63.9386 76.773 63.4402 76.968 63.0676 77.358C62.7036 77.748 62.5216 78.3157 62.5216 79.061V83H61.3386V75.876H62.5216V76.89C62.7556 76.526 63.0719 76.2443 63.4706 76.045C63.8779 75.8457 64.3242 75.746 64.8096 75.746ZM72.332 75.759C72.9473 75.759 73.4847 75.8933 73.944 76.162C74.412 76.4307 74.7587 76.7687 74.984 77.176V75.876H76.18V83.156C76.18 83.806 76.0413 84.3823 75.764 84.885C75.4867 85.3963 75.088 85.795 74.568 86.081C74.0567 86.367 73.4587 86.51 72.774 86.51C71.838 86.51 71.058 86.289 70.434 85.847C69.81 85.405 69.4417 84.8027 69.329 84.04H70.499C70.629 84.4733 70.8977 84.82 71.305 85.08C71.7123 85.3487 72.202 85.483 72.774 85.483C73.424 85.483 73.9527 85.2793 74.36 84.872C74.776 84.4647 74.984 83.8927 74.984 83.156V81.661C74.75 82.077 74.4033 82.4237 73.944 82.701C73.4847 82.9783 72.9473 83.117 72.332 83.117C71.6993 83.117 71.123 82.961 70.603 82.649C70.0917 82.337 69.6887 81.8993 69.394 81.336C69.0993 80.7727 68.952 80.1313 68.952 79.412C68.952 78.684 69.0993 78.047 69.394 77.501C69.6887 76.9463 70.0917 76.5173 70.603 76.214C71.123 75.9107 71.6993 75.759 72.332 75.759ZM74.984 79.425C74.984 78.8877 74.8757 78.4197 74.659 78.021C74.4423 77.6223 74.1477 77.319 73.775 77.111C73.411 76.8943 73.008 76.786 72.566 76.786C72.124 76.786 71.721 76.89 71.357 77.098C70.993 77.306 70.7027 77.6093 70.486 78.008C70.2693 78.4067 70.161 78.8747 70.161 79.412C70.161 79.958 70.2693 80.4347 70.486 80.842C70.7027 81.2407 70.993 81.5483 71.357 81.765C71.721 81.973 72.124 82.077 72.566 82.077C73.008 82.077 73.411 81.973 73.775 81.765C74.1477 81.5483 74.4423 81.2407 74.659 80.842C74.8757 80.4347 74.984 79.9623 74.984 79.425Z" fill="#12A3A9"/>
</svg>
