<svg width="70" height="96" viewBox="0 0 70 96" fill="none" xmlns="http://www.w3.org/2000/svg">
<path fill-rule="evenodd" clip-rule="evenodd" d="M55.9959 14.4279C55.9959 14.6561 55.9914 14.8843 55.9776 15.1077C58.6711 16.0868 61.0045 17.908 62.6551 20.3197C64.3057 22.7314 65.1921 25.6145 65.1917 28.5704V33.3242H69.7827V52.3393H65.1917V66.6006C65.1917 72.8186 61.349 78.1048 55.9868 80.0538C56.093 81.9915 55.8161 83.9313 55.1731 85.7543C54.5301 87.5774 53.5345 89.2453 52.2473 90.6561C50.9601 92.0668 49.4083 93.1907 47.687 93.9588C45.9657 94.7269 44.1111 95.1232 42.2368 95.1233H23.8729C21.9985 95.1232 20.1439 94.7269 18.4226 93.9588C16.7013 93.1907 15.1496 92.0668 13.8623 90.6561C12.5751 89.2453 11.5795 87.5774 10.9365 85.7543C10.2935 83.9313 10.0167 81.9915 10.1229 80.0538C7.43253 79.0737 5.10222 77.2532 3.45348 74.8436C1.80474 72.4339 0.918822 69.5538 0.917969 66.6006V28.5704C0.917969 22.3572 4.75603 17.0663 10.1137 15.1172C10.0006 13.1696 10.2747 11.2188 10.9189 9.38528C11.5632 7.55179 12.5639 5.87467 13.8592 4.4577C15.1545 3.04072 16.7168 1.91402 18.4495 1.14731C20.1821 0.380592 22.0483 -0.00983215 23.9325 0.000188098L42.2965 0.0952642C45.9485 0.115385 49.4433 1.63659 52.0123 4.32436C54.5813 7.01212 56.0143 10.6464 55.9959 14.4279V14.4279ZM19.2681 14.3091H46.814C46.8019 13.0606 46.3161 11.8672 45.4614 10.9867C44.6066 10.1061 43.4517 9.609 42.246 9.60282L23.882 9.50775C22.6652 9.50269 21.4963 9.99804 20.632 10.885C19.7677 11.7719 19.2788 12.9778 19.2727 14.2378V14.3091H19.2681ZM52.3599 23.9165L32.986 23.8166H14.6909C13.4733 23.8166 12.3056 24.3175 11.4446 25.209C10.5836 26.1005 10.0999 27.3096 10.0999 28.5704V66.6006C10.0999 67.8606 10.583 69.069 11.443 69.9604C12.303 70.8518 13.4695 71.3532 14.6863 71.3544H51.4187C52.6356 71.3532 53.8021 70.8518 54.6621 69.9604C55.5221 69.069 56.0051 67.8606 56.0051 66.6006V28.5704C56.0054 27.4787 55.6427 26.4201 54.9781 25.5726C54.3134 24.7251 53.3873 24.1403 52.3553 23.9165H52.3599ZM19.2819 80.862C19.2819 82.1228 19.7656 83.3319 20.6266 84.2234C21.4875 85.1149 22.6553 85.6158 23.8729 85.6158H42.2368C43.4544 85.6158 44.6221 85.1149 45.4831 84.2234C46.3441 83.3319 46.8278 82.1228 46.8278 80.862H19.2819Z" fill="#676868" fill-opacity="0.43"/>
<rect x="30.2705" y="40.5283" width="6.25155" height="16.4103" fill="#676868" fill-opacity="0.43"/>
<rect x="41.9922" y="45.2168" width="7.03299" height="17.1918" transform="rotate(90 41.9922 45.2168)" fill="#676868" fill-opacity="0.43"/>
</svg>
