<svg width="83" height="80" viewBox="0 0 83 80" fill="none" xmlns="http://www.w3.org/2000/svg">
<path d="M41.9742 27.1233L31.7178 32.8783V44.3883L41.9742 50.1433L52.2307 44.3883V32.8783L41.9742 27.1233ZM47.1606 33.832L41.9298 36.7654L36.7434 33.855L41.9742 30.9216L47.1606 33.832ZM35.1024 36.7325L40.1759 39.5804V45.3354L35.1024 42.4908V36.7325ZM43.5605 45.4571V39.6462L48.846 36.6799V42.4908L43.5605 45.4571Z" fill="#676868" fill-opacity="0.43"/>
<path d="M41.9742 27.1233L31.7178 32.8783V44.3883L41.9742 50.1433L52.2307 44.3883V32.8783L41.9742 27.1233ZM47.1606 33.832L41.9298 36.7654L36.7434 33.855L41.9742 30.9216L47.1606 33.832ZM35.1024 36.7325L40.1759 39.5804V45.3354L35.1024 42.4908V36.7325ZM43.5605 45.4571V39.6462L48.846 36.6799V42.4908L43.5605 45.4571Z" fill="#676868" fill-opacity="0.43"/>
<path d="M11.2047 0.814453L0.948242 6.56945V18.0794L11.2047 23.8344L21.4611 18.0794V6.56945L11.2047 0.814453ZM16.391 7.52313L11.1602 10.4565L5.9739 7.54615L11.2047 4.61275L16.391 7.52313ZM4.33287 10.4204L9.40639 13.2683V19.0233L4.33287 16.1852V10.4204ZM12.791 19.1449V13.3373L18.0765 10.371V16.1819L12.791 19.1449Z" fill="#676868" fill-opacity="0.43"/>
<path d="M11.2047 0.814453L0.948242 6.56945V18.0794L11.2047 23.8344L21.4611 18.0794V6.56945L11.2047 0.814453ZM16.391 7.52313L11.1602 10.4565L5.9739 7.54615L11.2047 4.61275L16.391 7.52313ZM4.33287 10.4204L9.40639 13.2683V19.0233L4.33287 16.1852V10.4204ZM12.791 19.1449V13.3373L18.0765 10.371V16.1819L12.791 19.1449Z" fill="#676868" fill-opacity="0.43"/>
<path d="M11.2047 56.7205L0.948242 62.4755V73.9855L11.2047 79.7404L21.4611 73.9855V62.4755L11.2047 56.7205ZM16.391 63.4291L11.1602 66.3625L5.9739 63.4522L11.2047 60.5188L16.391 63.4291ZM4.33287 66.3297L9.40639 69.1776V74.9326L4.33287 72.0912V66.3297ZM12.791 75.0542V69.2433L18.0765 66.277V72.0879L12.791 75.0542Z" fill="#676868" fill-opacity="0.43"/>
<path d="M11.2047 56.7205L0.948242 62.4755V73.9855L11.2047 79.7404L21.4611 73.9855V62.4755L11.2047 56.7205ZM16.391 63.4291L11.1602 66.3625L5.9739 63.4522L11.2047 60.5188L16.391 63.4291ZM4.33287 66.3297L9.40639 69.1776V74.9326L4.33287 72.0912V66.3297ZM12.791 75.0542V69.2433L18.0765 66.277V72.0879L12.791 75.0542Z" fill="#676868" fill-opacity="0.43"/>
<path d="M72.7437 0.814453L62.4873 6.56945V18.0794L72.7437 23.8344L83.0002 18.0794V6.56945L72.7437 0.814453ZM77.9301 7.52313L72.6993 10.4565L67.513 7.54615L72.7437 4.61275L77.9301 7.52313ZM65.8719 10.4237L70.9455 13.2716V19.0265L65.8719 16.1819V10.4237ZM74.3301 19.1482V13.3373L79.6156 10.371V16.1819L74.3301 19.1482Z" fill="#676868" fill-opacity="0.43"/>
<path d="M72.7437 0.814453L62.4873 6.56945V18.0794L72.7437 23.8344L83.0002 18.0794V6.56945L72.7437 0.814453ZM77.9301 7.52313L72.6993 10.4565L67.513 7.54615L72.7437 4.61275L77.9301 7.52313ZM65.8719 10.4237L70.9455 13.2716V19.0265L65.8719 16.1819V10.4237ZM74.3301 19.1482V13.3373L79.6156 10.371V16.1819L74.3301 19.1482Z" fill="#676868" fill-opacity="0.43"/>
<path d="M72.7437 56.7205L62.4873 62.4755V73.9855L72.7437 79.7404L83.0002 73.9855V62.4755L72.7437 56.7205ZM77.9301 63.4291L72.6993 66.3625L67.513 63.4522L72.7437 60.5188L77.9301 63.4291ZM65.8719 66.3297L70.9455 69.1776V74.9326L65.8719 72.0879V66.3297ZM74.3301 75.0542V69.2433L79.6156 66.277V72.0879L74.3301 75.0542Z" fill="#676868" fill-opacity="0.43"/>
<path d="M72.7437 56.7205L62.4873 62.4755V73.9855L72.7437 79.7404L83.0002 73.9855V62.4755L72.7437 56.7205ZM77.9301 63.4291L72.6993 66.3625L67.513 63.4522L72.7437 60.5188L77.9301 63.4291ZM65.8719 66.3297L70.9455 69.1776V74.9326L65.8719 72.0879V66.3297ZM74.3301 75.0542V69.2433L79.6156 66.277V72.0879L74.3301 75.0542Z" fill="#676868" fill-opacity="0.43"/>
<path d="M31.7178 10.6802H52.2307V13.9687H31.7178V10.6802Z" fill="#676868" fill-opacity="0.43"/>
<path d="M31.7178 10.6802H52.2307V13.9687H31.7178V10.6802Z" fill="#676868" fill-opacity="0.43"/>
<path d="M31.7178 66.5862H52.2307V69.8748H31.7178V66.5862Z" fill="#676868" fill-opacity="0.43"/>
<path d="M31.7178 66.5862H52.2307V69.8748H31.7178V66.5862Z" fill="#676868" fill-opacity="0.43"/>
<path d="M12.9139 30.4116V50.143H9.49512V30.4116H12.9139Z" fill="#676868" fill-opacity="0.43"/>
<path d="M12.9139 30.4116V50.143H9.49512V30.4116H12.9139Z" fill="#676868" fill-opacity="0.43"/>
<path d="M25.8822 29.846L18.624 22.8742L21.0445 20.5459L28.2993 27.521L25.8822 29.846Z" fill="#676868" fill-opacity="0.43"/>
<path d="M25.8822 29.846L18.624 22.8742L21.0445 20.5459L28.2993 27.521L25.8822 29.846Z" fill="#676868" fill-opacity="0.43"/>
<path d="M55.6494 28.0871L62.9007 21.1121L65.3178 23.4371L58.0699 30.4121L55.6494 28.0871Z" fill="#676868" fill-opacity="0.43"/>
<path d="M55.6494 28.0871L62.9007 21.1121L65.3178 23.4371L58.0699 30.4121L55.6494 28.0871Z" fill="#676868" fill-opacity="0.43"/>
<path d="M28.7402 49.7419L21.4889 56.7202L19.0684 54.3919L26.3231 47.4202L28.7402 49.7419Z" fill="#676868" fill-opacity="0.43"/>
<path d="M28.7402 49.7419L21.4889 56.7202L19.0684 54.3919L26.3231 47.4202L28.7402 49.7419Z" fill="#676868" fill-opacity="0.43"/>
<path d="M58.6544 47.2791L65.9057 54.2541L63.4886 56.5791L56.2373 49.6041L58.6544 47.2791Z" fill="#676868" fill-opacity="0.43"/>
<path d="M58.6544 47.2791L65.9057 54.2541L63.4886 56.5791L56.2373 49.6041L58.6544 47.2791Z" fill="#676868" fill-opacity="0.43"/>
<path d="M74.453 30.4116V50.143H71.0342V30.4116H74.453Z" fill="#676868" fill-opacity="0.43"/>
<path d="M74.453 30.4116V50.143H71.0342V30.4116H74.453Z" fill="#676868" fill-opacity="0.43"/>
</svg>
