<svg width="85" height="79" viewBox="0 0 85 79" fill="none" xmlns="http://www.w3.org/2000/svg">
<path d="M26.3922 15.1232C30.473 15.1232 33.7773 18.9159 33.7773 23.5891V69.5468C33.7773 71.7921 32.9992 73.9454 31.6143 75.5331C30.2293 77.1207 28.3509 78.0126 26.3922 78.0126H7.38509C5.42644 78.0126 3.54802 77.1207 2.16304 75.5331C0.77807 73.9454 0 71.7921 0 69.5468V23.5891C0 18.9159 3.30852 15.1232 7.38509 15.1232H26.3922ZM26.3922 22.3797H7.38509C7.10529 22.3797 6.83694 22.5071 6.63909 22.7339C6.44123 22.9607 6.33008 23.2683 6.33008 23.5891V69.5468C6.33008 70.2144 6.80272 70.7562 7.38509 70.7562H26.3922C26.672 70.7562 26.9404 70.6288 27.1382 70.4019C27.3361 70.1751 27.4472 69.8675 27.4472 69.5468V23.5891C27.4472 23.2683 27.3361 22.9607 27.1382 22.7339C26.9404 22.5071 26.672 22.3797 26.3922 22.3797ZM17.9437 58.6475C18.7456 58.6478 19.5175 58.997 20.1035 59.6246C20.6894 60.2522 21.0457 61.1113 21.1004 62.0285C21.155 62.9456 20.904 63.8523 20.3979 64.5654C19.8919 65.2785 19.1685 65.7448 18.3741 65.8701L17.9437 65.904H15.8336C15.0317 65.9037 14.2598 65.5545 13.6738 64.9269C13.0879 64.2994 12.7316 63.4402 12.6769 62.5231C12.6223 61.6059 12.8733 60.6992 13.3794 59.9861C13.8854 59.273 14.6088 58.8067 15.4032 58.6814L15.8336 58.6475H17.9437ZM81.2318 56.2287C82.0337 56.229 82.8056 56.5782 83.3916 57.2058C83.9775 57.8334 84.3338 58.6925 84.3885 59.6096C84.4432 60.5268 84.1921 61.4335 83.686 62.1466C83.18 62.8597 82.4567 63.326 81.6622 63.4513L81.236 63.4852H37.9805V56.2287H81.236H81.2318ZM68.5759 0.595703C72.6524 0.595703 75.961 4.38842 75.961 9.06159V45.344C75.961 47.5893 75.1829 49.7426 73.7979 51.3303C72.4129 52.9179 70.5345 53.8099 68.5759 53.8099H37.9805V46.5534H68.5759C68.8557 46.5534 69.124 46.426 69.3219 46.1992C69.5197 45.9724 69.6309 45.6647 69.6309 45.344V9.06159C69.6309 8.74084 69.5197 8.43322 69.3219 8.20641C69.124 7.9796 68.8557 7.85218 68.5759 7.85218H15.8252C15.5454 7.85218 15.277 7.9796 15.0792 8.20641C14.8813 8.43322 14.7702 8.74084 14.7702 9.06159L14.766 10.271H8.44011V9.06159C8.44011 4.38842 11.7486 0.595703 15.8252 0.595703H68.5759Z" fill="#676868" fill-opacity="0.43"/>
<rect x="47.667" y="19.0359" width="6.25155" height="16.4103" fill="#676868" fill-opacity="0.43"/>
<rect x="59.3887" y="23.7246" width="7.03299" height="17.1918" transform="rotate(90 59.3887 23.7246)" fill="#676868" fill-opacity="0.43"/>
</svg>
