<svg width="131" height="100" viewBox="0 0 131 100" fill="none" xmlns="http://www.w3.org/2000/svg">
<path d="M1.08265 93.3803C2.00771 87.9721 3.63642 82.7187 5.92717 77.7544C7.32857 74.5528 9.02656 71.0661 10.9497 67.4121C12.9868 63.4887 15.2945 59.7158 17.8563 56.1205C19.2427 54.19 20.7552 52.3548 22.3841 50.6269C24.0535 48.8125 25.8842 47.1549 27.8541 45.6741C29.8548 44.1332 32.0334 42.8382 34.3446 41.8162C36.6641 40.7501 39.1216 40.0078 41.6494 39.6095L42.0697 39.555C42.0496 39.6989 42.0013 39.8476 41.9709 39.9992C40.8537 45.7297 41.6251 51.6952 44.169 56.9981C45.4879 59.6742 47.3318 62.0601 49.5885 64.0105C51.951 66.0552 54.7876 67.4647 57.8277 68.1047C59.421 68.4908 61.062 68.6203 62.6888 68.4884C64.5132 68.3539 66.2774 67.8032 67.8472 66.878C69.3483 65.941 70.6311 64.6936 71.6118 63.2173C72.5925 61.7411 73.249 60.0694 73.5383 58.3114C74.0608 55.1264 73.4527 51.8428 71.8194 49.0316C70.3385 46.4487 68.3692 44.1772 66.024 42.347C63.7332 40.5275 61.1813 39.07 58.4583 38.0261C55.0572 36.731 51.4692 36.0242 47.8482 35.9362C48.1699 35.1848 48.5414 34.4564 48.9601 33.7557C51.4002 29.6038 54.7364 26.0611 58.7273 23.384C62.4314 20.862 66.5021 18.9228 70.8009 17.6322C74.5489 16.4856 78.4285 15.8046 82.3538 15.6041C85.6945 15.511 89.041 15.7206 92.3525 16.2304C97.5407 16.9744 102.64 18.2862 107.558 20.1423C110.867 21.361 114.083 22.8285 117.178 24.5324C119.652 25.9165 121.398 27.0041 122.733 27.8812C123.904 28.6226 124.657 29.1432 125.255 29.5205L124.207 29.5423C121.218 29.6042 118.516 29.7105 116.241 29.855C111.697 30.1544 108.809 30.5443 108.815 31.0874C108.822 31.6306 111.545 32.0882 116.042 32.4524C118.299 32.6448 120.973 32.8008 123.954 32.9215L125.085 32.9676C125.571 32.9927 126.058 32.9757 126.541 32.9169C126.849 32.874 127.154 32.8042 127.45 32.7083C127.827 32.587 128.185 32.4134 128.512 32.1925C129.188 31.7374 129.698 31.0759 129.969 30.3041C130.252 29.2992 130.343 28.2472 130.237 27.203L130.192 24.7702C129.695 11.2778 128.485 0.394923 127.452 0.501806C126.419 0.608682 125.969 11.63 126.456 25.1301L126.537 26.9069C126.014 26.356 125.455 25.8399 124.865 25.362C123.134 23.9011 121.296 22.5727 119.369 21.3885C116.215 19.4065 112.891 17.7178 109.438 16.3437C104.286 14.2435 98.914 12.7565 93.4331 11.9132C89.8283 11.3439 86.183 11.1128 82.5447 11.223C78.2057 11.4195 73.9156 12.1611 69.7747 13.4305C64.9831 14.8671 60.4494 17.0362 56.3315 19.862C51.7255 22.9748 47.8875 27.0948 45.0999 31.9187C44.2909 33.3053 43.6249 34.7724 43.1121 36.2978C42.5432 36.3661 41.9743 36.4344 41.4183 36.5415C38.592 37.0289 35.8491 37.8969 33.2634 39.1222C30.7515 40.3001 28.3888 41.7698 26.2232 43.5016C24.1412 45.1342 22.2138 46.9554 20.4648 48.9428C18.7999 50.7801 17.2594 52.7276 15.8534 54.7726C13.3052 58.5069 11.0374 62.4286 9.06835 66.5058C7.20708 70.2857 5.61265 73.8404 4.28507 77.1699C2.13397 82.3094 0.755068 87.7503 0.192997 93.3163C0.0646289 94.7946 0.0496995 96.2822 0.148347 97.766C0.24585 98.7734 0.306091 99.2606 0.403563 99.2848C0.501035 99.3091 0.528653 97.1448 1.10312 93.3651L1.08265 93.3803ZM46.4173 40.5944C46.4957 40.1654 46.6099 39.742 46.7241 39.3186C50.2283 39.3655 53.7027 40.0613 56.9727 41.371C59.3585 42.3332 61.5888 43.6539 63.5863 45.2875C65.5611 46.8724 67.21 48.8291 68.4385 51.0452C69.6172 53.145 70.0352 55.5818 69.6205 57.9357C69.4306 59.0943 68.9991 60.1965 68.3542 61.1702C67.7093 62.144 66.8654 62.9676 65.8775 63.5873C63.7625 64.6368 61.3233 64.8528 59.035 64.1931C56.6303 63.655 54.3945 62.5091 52.5409 60.8648C50.7132 59.2186 49.2302 57.2237 48.1805 54.9992C47.1134 52.7717 46.4152 50.3885 46.1137 47.9445C45.7956 45.4953 45.8913 43.0154 46.3969 40.6096" fill="#12A3A9"/>
</svg>
