<svg width="324" height="174" viewBox="0 0 324 174" fill="none" xmlns="http://www.w3.org/2000/svg">
<path fill-rule="evenodd" clip-rule="evenodd" d="M61 0C27.3106 0 0 27.3106 0 61C0 93.5858 25.5507 120.204 57.7106 121.913L2.00443 173.996C2.00361 173.997 2.0045 173.998 2.00553 173.997L116.852 122H263C296.689 122 324 94.6894 324 61C324 27.3106 296.689 0 263 0H61Z" fill="white"/>
<path d="M50.0541 49.024H43.7661L42.7581 52H38.4621L44.5581 35.152H49.3101L55.4061 52H51.0621L50.0541 49.024ZM48.9981 45.856L46.9101 39.688L44.8461 45.856H48.9981ZM59.3254 37.216C58.6054 37.216 58.0134 37.008 57.5494 36.592C57.1014 36.16 56.8774 35.632 56.8774 35.008C56.8774 34.368 57.1014 33.84 57.5494 33.424C58.0134 32.992 58.6054 32.776 59.3254 32.776C60.0294 32.776 60.6054 32.992 61.0534 33.424C61.5174 33.84 61.7494 34.368 61.7494 35.008C61.7494 35.632 61.5174 36.16 61.0534 36.592C60.6054 37.008 60.0294 37.216 59.3254 37.216ZM61.3654 38.608V52H57.2614V38.608H61.3654ZM75.5215 52.168C74.2895 52.168 73.1855 51.968 72.2095 51.568C71.2335 51.168 70.4495 50.576 69.8575 49.792C69.2815 49.008 68.9775 48.064 68.9455 46.96H73.3135C73.3775 47.584 73.5935 48.064 73.9615 48.4C74.3295 48.72 74.8095 48.88 75.4015 48.88C76.0095 48.88 76.4895 48.744 76.8415 48.472C77.1935 48.184 77.3695 47.792 77.3695 47.296C77.3695 46.88 77.2255 46.536 76.9375 46.264C76.6655 45.992 76.3215 45.768 75.9055 45.592C75.5055 45.416 74.9295 45.216 74.1775 44.992C73.0895 44.656 72.2015 44.32 71.5135 43.984C70.8255 43.648 70.2335 43.152 69.7375 42.496C69.2415 41.84 68.9935 40.984 68.9935 39.928C68.9935 38.36 69.5615 37.136 70.6975 36.256C71.8335 35.36 73.3135 34.912 75.1375 34.912C76.9935 34.912 78.4895 35.36 79.6255 36.256C80.7615 37.136 81.3695 38.368 81.4495 39.952H77.0095C76.9775 39.408 76.7775 38.984 76.4095 38.68C76.0415 38.36 75.5695 38.2 74.9935 38.2C74.4975 38.2 74.0975 38.336 73.7935 38.608C73.4895 38.864 73.3375 39.24 73.3375 39.736C73.3375 40.28 73.5935 40.704 74.1055 41.008C74.6175 41.312 75.4175 41.64 76.5055 41.992C77.5935 42.36 78.4735 42.712 79.1455 43.048C79.8335 43.384 80.4255 43.872 80.9215 44.512C81.4175 45.152 81.6655 45.976 81.6655 46.984C81.6655 47.944 81.4175 48.816 80.9215 49.6C80.4415 50.384 79.7375 51.008 78.8095 51.472C77.8815 51.936 76.7855 52.168 75.5215 52.168ZM97.8711 38.608L89.4711 58.36H85.0551L88.1271 51.544L82.6791 38.608H87.2631L90.3591 46.984L93.4311 38.608H97.8711ZM116.443 38.464C118.107 38.464 119.427 38.968 120.403 39.976C121.395 40.984 121.891 42.384 121.891 44.176V52H117.811V44.728C117.811 43.864 117.579 43.2 117.115 42.736C116.667 42.256 116.043 42.016 115.243 42.016C114.443 42.016 113.811 42.256 113.347 42.736C112.899 43.2 112.675 43.864 112.675 44.728V52H108.595V44.728C108.595 43.864 108.363 43.2 107.899 42.736C107.451 42.256 106.827 42.016 106.027 42.016C105.227 42.016 104.595 42.256 104.131 42.736C103.683 43.2 103.459 43.864 103.459 44.728V52H99.3552V38.608H103.459V40.288C103.875 39.728 104.419 39.288 105.091 38.968C105.763 38.632 106.523 38.464 107.371 38.464C108.379 38.464 109.275 38.68 110.059 39.112C110.859 39.544 111.483 40.16 111.931 40.96C112.395 40.224 113.027 39.624 113.827 39.16C114.627 38.696 115.499 38.464 116.443 38.464ZM128.865 40.504C129.265 39.88 129.817 39.376 130.521 38.992C131.225 38.608 132.049 38.416 132.993 38.416C134.097 38.416 135.097 38.696 135.993 39.256C136.889 39.816 137.593 40.616 138.105 41.656C138.633 42.696 138.897 43.904 138.897 45.28C138.897 46.656 138.633 47.872 138.105 48.928C137.593 49.968 136.889 50.776 135.993 51.352C135.097 51.912 134.097 52.192 132.993 52.192C132.065 52.192 131.241 52 130.521 51.616C129.817 51.232 129.265 50.736 128.865 50.128V58.384H124.761V38.608H128.865V40.504ZM134.721 45.28C134.721 44.256 134.433 43.456 133.857 42.88C133.297 42.288 132.601 41.992 131.769 41.992C130.953 41.992 130.257 42.288 129.681 42.88C129.121 43.472 128.841 44.28 128.841 45.304C128.841 46.328 129.121 47.136 129.681 47.728C130.257 48.32 130.953 48.616 131.769 48.616C132.585 48.616 133.281 48.32 133.857 47.728C134.433 47.12 134.721 46.304 134.721 45.28ZM148.515 48.52V52H146.427C144.939 52 143.779 51.64 142.947 50.92C142.115 50.184 141.699 48.992 141.699 47.344V42.016H140.067V38.608H141.699V35.344H145.803V38.608H148.491V42.016H145.803V47.392C145.803 47.792 145.899 48.08 146.091 48.256C146.283 48.432 146.603 48.52 147.051 48.52H148.515ZM156.897 52.192C155.585 52.192 154.401 51.912 153.345 51.352C152.305 50.792 151.481 49.992 150.873 48.952C150.281 47.912 149.985 46.696 149.985 45.304C149.985 43.928 150.289 42.72 150.896 41.68C151.505 40.624 152.337 39.816 153.393 39.256C154.449 38.696 155.633 38.416 156.945 38.416C158.257 38.416 159.441 38.696 160.497 39.256C161.553 39.816 162.385 40.624 162.993 41.68C163.601 42.72 163.905 43.928 163.905 45.304C163.905 46.68 163.593 47.896 162.969 48.952C162.361 49.992 161.521 50.792 160.449 51.352C159.393 51.912 158.209 52.192 156.897 52.192ZM156.897 48.64C157.681 48.64 158.345 48.352 158.889 47.776C159.449 47.2 159.729 46.376 159.729 45.304C159.729 44.232 159.457 43.408 158.913 42.832C158.385 42.256 157.729 41.968 156.945 41.968C156.145 41.968 155.481 42.256 154.953 42.832C154.425 43.392 154.161 44.216 154.161 45.304C154.161 46.376 154.417 47.2 154.929 47.776C155.457 48.352 156.113 48.64 156.897 48.64ZM183.17 38.464C184.834 38.464 186.154 38.968 187.13 39.976C188.122 40.984 188.618 42.384 188.618 44.176V52H184.538V44.728C184.538 43.864 184.306 43.2 183.842 42.736C183.394 42.256 182.77 42.016 181.97 42.016C181.17 42.016 180.538 42.256 180.074 42.736C179.626 43.2 179.402 43.864 179.402 44.728V52H175.322V44.728C175.322 43.864 175.09 43.2 174.626 42.736C174.178 42.256 173.554 42.016 172.754 42.016C171.954 42.016 171.322 42.256 170.858 42.736C170.41 43.2 170.186 43.864 170.186 44.728V52H166.082V38.608H170.186V40.288C170.602 39.728 171.146 39.288 171.818 38.968C172.49 38.632 173.25 38.464 174.098 38.464C175.106 38.464 176.002 38.68 176.786 39.112C177.586 39.544 178.21 40.16 178.658 40.96C179.122 40.224 179.754 39.624 180.554 39.16C181.354 38.696 182.226 38.464 183.17 38.464ZM195.758 45.304C195.758 43.912 196.038 42.696 196.598 41.656C197.174 40.616 197.966 39.816 198.974 39.256C199.998 38.696 201.166 38.416 202.478 38.416C204.158 38.416 205.558 38.856 206.678 39.736C207.814 40.616 208.558 41.856 208.91 43.456H204.542C204.174 42.432 203.462 41.92 202.406 41.92C201.654 41.92 201.054 42.216 200.606 42.808C200.158 43.384 199.934 44.216 199.934 45.304C199.934 46.392 200.158 47.232 200.606 47.824C201.054 48.4 201.654 48.688 202.406 48.688C203.462 48.688 204.174 48.176 204.542 47.152H208.91C208.558 48.72 207.814 49.952 206.678 50.848C205.542 51.744 204.142 52.192 202.478 52.192C201.166 52.192 199.998 51.912 198.974 51.352C197.966 50.792 197.174 49.992 196.598 48.952C196.038 47.912 195.758 46.696 195.758 45.304ZM219.337 38.464C220.873 38.464 222.105 38.976 223.033 40C223.961 41.008 224.425 42.4 224.425 44.176V52H220.345V44.728C220.345 43.832 220.113 43.136 219.649 42.64C219.185 42.144 218.561 41.896 217.777 41.896C216.993 41.896 216.369 42.144 215.905 42.64C215.441 43.136 215.209 43.832 215.209 44.728V52H211.105V34.24H215.209V40.408C215.625 39.816 216.193 39.344 216.913 38.992C217.633 38.64 218.441 38.464 219.337 38.464ZM239.901 45.088C239.901 45.472 239.877 45.872 239.829 46.288H230.541C230.605 47.12 230.869 47.76 231.333 48.208C231.813 48.64 232.397 48.856 233.085 48.856C234.109 48.856 234.821 48.424 235.221 47.56H239.589C239.365 48.44 238.957 49.232 238.365 49.936C237.789 50.64 237.061 51.192 236.181 51.592C235.301 51.992 234.317 52.192 233.229 52.192C231.917 52.192 230.749 51.912 229.725 51.352C228.701 50.792 227.901 49.992 227.325 48.952C226.749 47.912 226.461 46.696 226.461 45.304C226.461 43.912 226.741 42.696 227.301 41.656C227.877 40.616 228.677 39.816 229.701 39.256C230.725 38.696 231.901 38.416 233.229 38.416C234.525 38.416 235.677 38.688 236.685 39.232C237.693 39.776 238.477 40.552 239.037 41.56C239.613 42.568 239.901 43.744 239.901 45.088ZM235.701 44.008C235.701 43.304 235.461 42.744 234.981 42.328C234.501 41.912 233.901 41.704 233.181 41.704C232.493 41.704 231.909 41.904 231.429 42.304C230.965 42.704 230.677 43.272 230.565 44.008H235.701ZM241.25 45.304C241.25 43.912 241.53 42.696 242.09 41.656C242.666 40.616 243.458 39.816 244.466 39.256C245.49 38.696 246.658 38.416 247.97 38.416C249.65 38.416 251.05 38.856 252.17 39.736C253.306 40.616 254.05 41.856 254.402 43.456H250.034C249.666 42.432 248.954 41.92 247.898 41.92C247.146 41.92 246.546 42.216 246.098 42.808C245.65 43.384 245.426 44.216 245.426 45.304C245.426 46.392 245.65 47.232 246.098 47.824C246.546 48.4 247.146 48.688 247.898 48.688C248.954 48.688 249.666 48.176 250.034 47.152H254.402C254.05 48.72 253.306 49.952 252.17 50.848C251.034 51.744 249.634 52.192 247.97 52.192C246.658 52.192 245.49 51.912 244.466 51.352C243.458 50.792 242.666 49.992 242.09 48.952C241.53 47.912 241.25 46.696 241.25 45.304ZM264.781 52L260.701 46.384V52H256.597V34.24H260.701V44.056L264.757 38.608H269.821L264.253 45.328L269.869 52H264.781ZM284.057 45.088C284.057 45.472 284.033 45.872 283.985 46.288H274.697C274.761 47.12 275.025 47.76 275.489 48.208C275.969 48.64 276.553 48.856 277.241 48.856C278.265 48.856 278.977 48.424 279.377 47.56H283.745C283.521 48.44 283.113 49.232 282.521 49.936C281.945 50.64 281.217 51.192 280.337 51.592C279.457 51.992 278.473 52.192 277.385 52.192C276.073 52.192 274.905 51.912 273.881 51.352C272.857 50.792 272.057 49.992 271.481 48.952C270.905 47.912 270.617 46.696 270.617 45.304C270.617 43.912 270.897 42.696 271.457 41.656C272.033 40.616 272.833 39.816 273.857 39.256C274.881 38.696 276.057 38.416 277.385 38.416C278.681 38.416 279.833 38.688 280.841 39.232C281.849 39.776 282.633 40.552 283.193 41.56C283.769 42.568 284.057 43.744 284.057 45.088ZM279.857 44.008C279.857 43.304 279.617 42.744 279.137 42.328C278.657 41.912 278.057 41.704 277.337 41.704C276.649 41.704 276.065 41.904 275.585 42.304C275.121 42.704 274.833 43.272 274.721 44.008H279.857ZM290.326 40.84C290.806 40.104 291.406 39.528 292.126 39.112C292.846 38.68 293.646 38.464 294.526 38.464V42.808H293.398C292.374 42.808 291.606 43.032 291.094 43.48C290.582 43.912 290.326 44.68 290.326 45.784V52H286.222V38.608H290.326V40.84Z" fill="#0B7778"/>
<path d="M102.745 72.454C104.113 72.454 105.295 72.712 106.291 73.228C107.299 73.732 108.067 74.458 108.595 75.406C109.135 76.354 109.405 77.47 109.405 78.754C109.405 80.038 109.135 81.154 108.595 82.102C108.067 83.038 107.299 83.758 106.291 84.262C105.295 84.754 104.113 85 102.745 85H98.8389V72.454H102.745ZM102.745 83.65C104.365 83.65 105.601 83.224 106.453 82.372C107.305 81.508 107.731 80.302 107.731 78.754C107.731 77.194 107.299 75.976 106.435 75.1C105.583 74.224 104.353 73.786 102.745 73.786H100.477V83.65H102.745ZM112.411 73.534C112.099 73.534 111.835 73.426 111.619 73.21C111.403 72.994 111.295 72.73 111.295 72.418C111.295 72.106 111.403 71.842 111.619 71.626C111.835 71.41 112.099 71.302 112.411 71.302C112.711 71.302 112.963 71.41 113.167 71.626C113.383 71.842 113.491 72.106 113.491 72.418C113.491 72.73 113.383 72.994 113.167 73.21C112.963 73.426 112.711 73.534 112.411 73.534ZM113.203 75.136V85H111.565V75.136H113.203ZM115.383 80.032C115.383 79.024 115.587 78.142 115.995 77.386C116.403 76.618 116.961 76.024 117.669 75.604C118.389 75.184 119.187 74.974 120.063 74.974C120.927 74.974 121.677 75.16 122.313 75.532C122.949 75.904 123.423 76.372 123.735 76.936V75.136H125.391V85H123.735V83.164C123.411 83.74 122.925 84.22 122.277 84.604C121.641 84.976 120.897 85.162 120.045 85.162C119.169 85.162 118.377 84.946 117.669 84.514C116.961 84.082 116.403 83.476 115.995 82.696C115.587 81.916 115.383 81.028 115.383 80.032ZM123.735 80.05C123.735 79.306 123.585 78.658 123.285 78.106C122.985 77.554 122.577 77.134 122.061 76.846C121.557 76.546 120.999 76.396 120.387 76.396C119.775 76.396 119.217 76.54 118.713 76.828C118.209 77.116 117.807 77.536 117.507 78.088C117.207 78.64 117.057 79.288 117.057 80.032C117.057 80.788 117.207 81.448 117.507 82.012C117.807 82.564 118.209 82.99 118.713 83.29C119.217 83.578 119.775 83.722 120.387 83.722C120.999 83.722 121.557 83.578 122.061 83.29C122.577 82.99 122.985 82.564 123.285 82.012C123.585 81.448 123.735 80.794 123.735 80.05ZM132.227 74.974C133.079 74.974 133.823 75.16 134.459 75.532C135.107 75.904 135.587 76.372 135.899 76.936V75.136H137.555V85.216C137.555 86.116 137.363 86.914 136.979 87.61C136.595 88.318 136.043 88.87 135.323 89.266C134.615 89.662 133.787 89.86 132.839 89.86C131.543 89.86 130.463 89.554 129.599 88.942C128.735 88.33 128.225 87.496 128.069 86.44H129.689C129.869 87.04 130.241 87.52 130.805 87.88C131.369 88.252 132.047 88.438 132.839 88.438C133.739 88.438 134.471 88.156 135.035 87.592C135.611 87.028 135.899 86.236 135.899 85.216V83.146C135.575 83.722 135.095 84.202 134.459 84.586C133.823 84.97 133.079 85.162 132.227 85.162C131.351 85.162 130.553 84.946 129.833 84.514C129.125 84.082 128.567 83.476 128.159 82.696C127.751 81.916 127.547 81.028 127.547 80.032C127.547 79.024 127.751 78.142 128.159 77.386C128.567 76.618 129.125 76.024 129.833 75.604C130.553 75.184 131.351 74.974 132.227 74.974ZM135.899 80.05C135.899 79.306 135.749 78.658 135.449 78.106C135.149 77.554 134.741 77.134 134.225 76.846C133.721 76.546 133.163 76.396 132.551 76.396C131.939 76.396 131.381 76.54 130.877 76.828C130.373 77.116 129.971 77.536 129.671 78.088C129.371 78.64 129.221 79.288 129.221 80.032C129.221 80.788 129.371 81.448 129.671 82.012C129.971 82.564 130.373 82.99 130.877 83.29C131.381 83.578 131.939 83.722 132.551 83.722C133.163 83.722 133.721 83.578 134.225 83.29C134.741 82.99 135.149 82.564 135.449 82.012C135.749 81.448 135.899 80.794 135.899 80.05ZM145.129 74.956C146.329 74.956 147.301 75.322 148.045 76.054C148.789 76.774 149.161 77.818 149.161 79.186V85H147.541V79.42C147.541 78.436 147.295 77.686 146.803 77.17C146.311 76.642 145.639 76.378 144.787 76.378C143.923 76.378 143.233 76.648 142.717 77.188C142.213 77.728 141.961 78.514 141.961 79.546V85H140.323V75.136H141.961V76.54C142.285 76.036 142.723 75.646 143.275 75.37C143.839 75.094 144.457 74.956 145.129 74.956ZM156.139 85.162C155.215 85.162 154.375 84.952 153.619 84.532C152.875 84.112 152.287 83.518 151.855 82.75C151.435 81.97 151.225 81.07 151.225 80.05C151.225 79.042 151.441 78.154 151.873 77.386C152.317 76.606 152.917 76.012 153.673 75.604C154.429 75.184 155.275 74.974 156.211 74.974C157.147 74.974 157.993 75.184 158.749 75.604C159.505 76.012 160.099 76.6 160.531 77.368C160.975 78.136 161.197 79.03 161.197 80.05C161.197 81.07 160.969 81.97 160.513 82.75C160.069 83.518 159.463 84.112 158.695 84.532C157.927 84.952 157.075 85.162 156.139 85.162ZM156.139 83.722C156.727 83.722 157.279 83.584 157.795 83.308C158.311 83.032 158.725 82.618 159.037 82.066C159.361 81.514 159.523 80.842 159.523 80.05C159.523 79.258 159.367 78.586 159.055 78.034C158.743 77.482 158.335 77.074 157.831 76.81C157.327 76.534 156.781 76.396 156.193 76.396C155.593 76.396 155.041 76.534 154.537 76.81C154.045 77.074 153.649 77.482 153.349 78.034C153.049 78.586 152.899 79.258 152.899 80.05C152.899 80.854 153.043 81.532 153.331 82.084C153.631 82.636 154.027 83.05 154.519 83.326C155.011 83.59 155.551 83.722 156.139 83.722ZM166.843 85.162C166.087 85.162 165.409 85.036 164.809 84.784C164.209 84.52 163.735 84.16 163.387 83.704C163.039 83.236 162.847 82.702 162.811 82.102H164.503C164.551 82.594 164.779 82.996 165.187 83.308C165.607 83.62 166.153 83.776 166.825 83.776C167.449 83.776 167.941 83.638 168.301 83.362C168.661 83.086 168.841 82.738 168.841 82.318C168.841 81.886 168.649 81.568 168.265 81.364C167.881 81.148 167.287 80.938 166.483 80.734C165.751 80.542 165.151 80.35 164.683 80.158C164.227 79.954 163.831 79.66 163.495 79.276C163.171 78.88 163.009 78.364 163.009 77.728C163.009 77.224 163.159 76.762 163.459 76.342C163.759 75.922 164.185 75.592 164.737 75.352C165.289 75.1 165.919 74.974 166.627 74.974C167.719 74.974 168.601 75.25 169.273 75.802C169.945 76.354 170.305 77.11 170.353 78.07H168.715C168.679 77.554 168.469 77.14 168.085 76.828C167.713 76.516 167.209 76.36 166.573 76.36C165.985 76.36 165.517 76.486 165.169 76.738C164.821 76.99 164.647 77.32 164.647 77.728C164.647 78.052 164.749 78.322 164.953 78.538C165.169 78.742 165.433 78.91 165.745 79.042C166.069 79.162 166.513 79.3 167.077 79.456C167.785 79.648 168.361 79.84 168.805 80.032C169.249 80.212 169.627 80.488 169.939 80.86C170.263 81.232 170.431 81.718 170.443 82.318C170.443 82.858 170.293 83.344 169.993 83.776C169.693 84.208 169.267 84.55 168.715 84.802C168.175 85.042 167.551 85.162 166.843 85.162ZM173.601 73.534C173.289 73.534 173.025 73.426 172.809 73.21C172.593 72.994 172.485 72.73 172.485 72.418C172.485 72.106 172.593 71.842 172.809 71.626C173.025 71.41 173.289 71.302 173.601 71.302C173.901 71.302 174.153 71.41 174.357 71.626C174.573 71.842 174.681 72.106 174.681 72.418C174.681 72.73 174.573 72.994 174.357 73.21C174.153 73.426 173.901 73.534 173.601 73.534ZM174.393 75.136V85H172.755V75.136H174.393ZM180.677 85.162C179.921 85.162 179.243 85.036 178.643 84.784C178.043 84.52 177.569 84.16 177.221 83.704C176.873 83.236 176.681 82.702 176.645 82.102H178.337C178.385 82.594 178.613 82.996 179.021 83.308C179.441 83.62 179.987 83.776 180.659 83.776C181.283 83.776 181.775 83.638 182.135 83.362C182.495 83.086 182.675 82.738 182.675 82.318C182.675 81.886 182.483 81.568 182.099 81.364C181.715 81.148 181.121 80.938 180.317 80.734C179.585 80.542 178.985 80.35 178.517 80.158C178.061 79.954 177.665 79.66 177.329 79.276C177.005 78.88 176.843 78.364 176.843 77.728C176.843 77.224 176.993 76.762 177.293 76.342C177.593 75.922 178.019 75.592 178.571 75.352C179.123 75.1 179.753 74.974 180.461 74.974C181.553 74.974 182.435 75.25 183.107 75.802C183.779 76.354 184.139 77.11 184.187 78.07H182.549C182.513 77.554 182.303 77.14 181.919 76.828C181.547 76.516 181.043 76.36 180.407 76.36C179.819 76.36 179.351 76.486 179.003 76.738C178.655 76.99 178.481 77.32 178.481 77.728C178.481 78.052 178.583 78.322 178.787 78.538C179.003 78.742 179.267 78.91 179.579 79.042C179.903 79.162 180.347 79.3 180.911 79.456C181.619 79.648 182.195 79.84 182.639 80.032C183.083 80.212 183.461 80.488 183.773 80.86C184.097 81.232 184.265 81.718 184.277 82.318C184.277 82.858 184.127 83.344 183.827 83.776C183.527 84.208 183.101 84.55 182.549 84.802C182.009 85.042 181.385 85.162 180.677 85.162ZM193.026 76.972C193.362 76.384 193.854 75.904 194.502 75.532C195.15 75.16 195.888 74.974 196.716 74.974C197.604 74.974 198.402 75.184 199.11 75.604C199.818 76.024 200.376 76.618 200.784 77.386C201.192 78.142 201.396 79.024 201.396 80.032C201.396 81.028 201.192 81.916 200.784 82.696C200.376 83.476 199.812 84.082 199.092 84.514C198.384 84.946 197.592 85.162 196.716 85.162C195.864 85.162 195.114 84.976 194.466 84.604C193.83 84.232 193.35 83.758 193.026 83.182V85H191.388V71.68H193.026V76.972ZM199.722 80.032C199.722 79.288 199.572 78.64 199.272 78.088C198.972 77.536 198.564 77.116 198.048 76.828C197.544 76.54 196.986 76.396 196.374 76.396C195.774 76.396 195.216 76.546 194.7 76.846C194.196 77.134 193.788 77.56 193.476 78.124C193.176 78.676 193.026 79.318 193.026 80.05C193.026 80.794 193.176 81.448 193.476 82.012C193.788 82.564 194.196 82.99 194.7 83.29C195.216 83.578 195.774 83.722 196.374 83.722C196.986 83.722 197.544 83.578 198.048 83.29C198.564 82.99 198.972 82.564 199.272 82.012C199.572 81.448 199.722 80.788 199.722 80.032ZM207.854 85.162C206.93 85.162 206.09 84.952 205.334 84.532C204.59 84.112 204.002 83.518 203.57 82.75C203.15 81.97 202.94 81.07 202.94 80.05C202.94 79.042 203.156 78.154 203.588 77.386C204.032 76.606 204.632 76.012 205.388 75.604C206.144 75.184 206.99 74.974 207.926 74.974C208.862 74.974 209.708 75.184 210.464 75.604C211.22 76.012 211.814 76.6 212.246 77.368C212.69 78.136 212.912 79.03 212.912 80.05C212.912 81.07 212.684 81.97 212.228 82.75C211.784 83.518 211.178 84.112 210.41 84.532C209.642 84.952 208.79 85.162 207.854 85.162ZM207.854 83.722C208.442 83.722 208.994 83.584 209.51 83.308C210.026 83.032 210.44 82.618 210.752 82.066C211.076 81.514 211.238 80.842 211.238 80.05C211.238 79.258 211.082 78.586 210.77 78.034C210.458 77.482 210.05 77.074 209.546 76.81C209.042 76.534 208.496 76.396 207.908 76.396C207.308 76.396 206.756 76.534 206.252 76.81C205.76 77.074 205.364 77.482 205.064 78.034C204.764 78.586 204.614 79.258 204.614 80.05C204.614 80.854 204.758 81.532 205.046 82.084C205.346 82.636 205.742 83.05 206.234 83.326C206.726 83.59 207.266 83.722 207.854 83.722ZM217.063 76.486V82.3C217.063 82.78 217.165 83.122 217.369 83.326C217.573 83.518 217.927 83.614 218.431 83.614H219.637V85H218.161C217.249 85 216.565 84.79 216.109 84.37C215.653 83.95 215.425 83.26 215.425 82.3V76.486H214.147V75.136H215.425V72.652H217.063V75.136H219.637V76.486H217.063Z" fill="#0B7778"/>
</svg>
