<svg width="258" height="181" viewBox="0 0 258 181" fill="none" xmlns="http://www.w3.org/2000/svg">
<g filter="url(#filter0_d_275_213)">
<path d="M50.2211 56.5844C51.082 50.7788 55.8542 46.3469 61.7074 45.917L186.814 36.728C192.62 36.3015 197.956 39.9271 199.698 45.4823L216.571 99.2854C218.89 106.679 214.016 114.385 206.342 115.458L54.6005 136.678C46.3085 137.838 39.2306 130.701 40.4587 122.419L50.2211 56.5844Z" fill="#16959A"/>
</g>
<path d="M73.5271 76.512H70.3831L69.8791 78H67.7311L70.7791 69.576H73.1551L76.2031 78H74.0311L73.5271 76.512ZM72.9991 74.928L71.9551 71.844L70.9231 74.928H72.9991ZM78.1627 70.608C77.8027 70.608 77.5067 70.504 77.2747 70.296C77.0507 70.08 76.9387 69.816 76.9387 69.504C76.9387 69.184 77.0507 68.92 77.2747 68.712C77.5067 68.496 77.8027 68.388 78.1627 68.388C78.5147 68.388 78.8027 68.496 79.0267 68.712C79.2587 68.92 79.3747 69.184 79.3747 69.504C79.3747 69.816 79.2587 70.08 79.0267 70.296C78.8027 70.504 78.5147 70.608 78.1627 70.608ZM79.1827 71.304V78H77.1307V71.304H79.1827ZM86.2608 78.084C85.6448 78.084 85.0928 77.984 84.6048 77.784C84.1168 77.584 83.7248 77.288 83.4288 76.896C83.1408 76.504 82.9888 76.032 82.9728 75.48H85.1568C85.1888 75.792 85.2968 76.032 85.4808 76.2C85.6648 76.36 85.9048 76.44 86.2008 76.44C86.5048 76.44 86.7448 76.372 86.9208 76.236C87.0968 76.092 87.1848 75.896 87.1848 75.648C87.1848 75.44 87.1128 75.268 86.9688 75.132C86.8328 74.996 86.6608 74.884 86.4528 74.796C86.2528 74.708 85.9648 74.608 85.5888 74.496C85.0448 74.328 84.6008 74.16 84.2568 73.992C83.9128 73.824 83.6168 73.576 83.3688 73.248C83.1208 72.92 82.9968 72.492 82.9968 71.964C82.9968 71.18 83.2808 70.568 83.8488 70.128C84.4168 69.68 85.1568 69.456 86.0688 69.456C86.9968 69.456 87.7448 69.68 88.3128 70.128C88.8808 70.568 89.1848 71.184 89.2248 71.976H87.0048C86.9888 71.704 86.8888 71.492 86.7048 71.34C86.5208 71.18 86.2848 71.1 85.9967 71.1C85.7488 71.1 85.5488 71.168 85.3968 71.304C85.2448 71.432 85.1688 71.62 85.1688 71.868C85.1688 72.14 85.2968 72.352 85.5527 72.504C85.8088 72.656 86.2088 72.82 86.7528 72.996C87.2968 73.18 87.7368 73.356 88.0728 73.524C88.4168 73.692 88.7128 73.936 88.9608 74.256C89.2088 74.576 89.3328 74.988 89.3328 75.492C89.3328 75.972 89.2088 76.408 88.9608 76.8C88.7208 77.192 88.3688 77.504 87.9048 77.736C87.4408 77.968 86.8928 78.084 86.2608 78.084ZM97.4356 71.304L93.2356 81.18H91.0276L92.5636 77.772L89.8396 71.304H92.1316L93.6796 75.492L95.2156 71.304H97.4356ZM106.722 71.232C107.554 71.232 108.214 71.484 108.702 71.988C109.198 72.492 109.446 73.192 109.446 74.088V78H107.406V74.364C107.406 73.932 107.29 73.6 107.058 73.368C106.834 73.128 106.522 73.008 106.122 73.008C105.722 73.008 105.406 73.128 105.174 73.368C104.95 73.6 104.838 73.932 104.838 74.364V78H102.798V74.364C102.798 73.932 102.682 73.6 102.45 73.368C102.226 73.128 101.914 73.008 101.514 73.008C101.114 73.008 100.798 73.128 100.566 73.368C100.342 73.6 100.23 73.932 100.23 74.364V78H98.1776V71.304H100.23V72.144C100.438 71.864 100.71 71.644 101.046 71.484C101.382 71.316 101.762 71.232 102.186 71.232C102.69 71.232 103.138 71.34 103.53 71.556C103.93 71.772 104.242 72.08 104.466 72.48C104.698 72.112 105.014 71.812 105.414 71.58C105.814 71.348 106.25 71.232 106.722 71.232ZM112.933 72.252C113.133 71.94 113.409 71.688 113.761 71.496C114.113 71.304 114.525 71.208 114.997 71.208C115.549 71.208 116.049 71.348 116.497 71.628C116.945 71.908 117.297 72.308 117.553 72.828C117.817 73.348 117.949 73.952 117.949 74.64C117.949 75.328 117.817 75.936 117.553 76.464C117.297 76.984 116.945 77.388 116.497 77.676C116.049 77.956 115.549 78.096 114.997 78.096C114.533 78.096 114.121 78 113.761 77.808C113.409 77.616 113.133 77.368 112.933 77.064V81.192H110.881V71.304H112.933V72.252ZM115.861 74.64C115.861 74.128 115.717 73.728 115.429 73.44C115.149 73.144 114.801 72.996 114.385 72.996C113.977 72.996 113.629 73.144 113.341 73.44C113.061 73.736 112.921 74.14 112.921 74.652C112.921 75.164 113.061 75.568 113.341 75.864C113.629 76.16 113.977 76.308 114.385 76.308C114.793 76.308 115.141 76.16 115.429 75.864C115.717 75.56 115.861 75.152 115.861 74.64ZM122.757 76.26V78H121.713C120.969 78 120.389 77.82 119.973 77.46C119.557 77.092 119.349 76.496 119.349 75.672V73.008H118.533V71.304H119.349V69.672H121.401V71.304H122.745V73.008H121.401V75.696C121.401 75.896 121.449 76.04 121.545 76.128C121.641 76.216 121.801 76.26 122.025 76.26H122.757ZM126.948 78.096C126.292 78.096 125.7 77.956 125.172 77.676C124.652 77.396 124.24 76.996 123.936 76.476C123.64 75.956 123.492 75.348 123.492 74.652C123.492 73.964 123.644 73.36 123.948 72.84C124.252 72.312 124.668 71.908 125.196 71.628C125.724 71.348 126.316 71.208 126.972 71.208C127.628 71.208 128.22 71.348 128.748 71.628C129.276 71.908 129.692 72.312 129.996 72.84C130.3 73.36 130.452 73.964 130.452 74.652C130.452 75.34 130.296 75.948 129.984 76.476C129.68 76.996 129.26 77.396 128.724 77.676C128.196 77.956 127.604 78.096 126.948 78.096ZM126.948 76.32C127.34 76.32 127.672 76.176 127.944 75.888C128.224 75.6 128.364 75.188 128.364 74.652C128.364 74.116 128.228 73.704 127.956 73.416C127.692 73.128 127.364 72.984 126.972 72.984C126.572 72.984 126.24 73.128 125.976 73.416C125.712 73.696 125.58 74.108 125.58 74.652C125.58 75.188 125.708 75.6 125.964 75.888C126.228 76.176 126.556 76.32 126.948 76.32ZM140.085 71.232C140.917 71.232 141.577 71.484 142.065 71.988C142.561 72.492 142.809 73.192 142.809 74.088V78H140.769V74.364C140.769 73.932 140.653 73.6 140.421 73.368C140.197 73.128 139.885 73.008 139.485 73.008C139.085 73.008 138.769 73.128 138.537 73.368C138.313 73.6 138.201 73.932 138.201 74.364V78H136.161V74.364C136.161 73.932 136.045 73.6 135.813 73.368C135.589 73.128 135.277 73.008 134.877 73.008C134.477 73.008 134.161 73.128 133.929 73.368C133.705 73.6 133.593 73.932 133.593 74.364V78H131.541V71.304H133.593V72.144C133.801 71.864 134.073 71.644 134.409 71.484C134.745 71.316 135.125 71.232 135.549 71.232C136.053 71.232 136.501 71.34 136.893 71.556C137.293 71.772 137.605 72.08 137.829 72.48C138.061 72.112 138.377 71.812 138.777 71.58C139.177 71.348 139.613 71.232 140.085 71.232ZM146.379 74.652C146.379 73.956 146.519 73.348 146.799 72.828C147.087 72.308 147.483 71.908 147.987 71.628C148.499 71.348 149.083 71.208 149.739 71.208C150.579 71.208 151.279 71.428 151.839 71.868C152.407 72.308 152.779 72.928 152.955 73.728H150.771C150.587 73.216 150.231 72.96 149.703 72.96C149.327 72.96 149.027 73.108 148.803 73.404C148.579 73.692 148.467 74.108 148.467 74.652C148.467 75.196 148.579 75.616 148.803 75.912C149.027 76.2 149.327 76.344 149.703 76.344C150.231 76.344 150.587 76.088 150.771 75.576H152.955C152.779 76.36 152.407 76.976 151.839 77.424C151.271 77.872 150.571 78.096 149.739 78.096C149.083 78.096 148.499 77.956 147.987 77.676C147.483 77.396 147.087 76.996 146.799 76.476C146.519 75.956 146.379 75.348 146.379 74.652ZM158.169 71.232C158.937 71.232 159.553 71.488 160.017 72C160.481 72.504 160.713 73.2 160.713 74.088V78H158.673V74.364C158.673 73.916 158.557 73.568 158.325 73.32C158.093 73.072 157.781 72.948 157.389 72.948C156.997 72.948 156.685 73.072 156.453 73.32C156.221 73.568 156.105 73.916 156.105 74.364V78H154.053V69.12H156.105V72.204C156.313 71.908 156.597 71.672 156.957 71.496C157.317 71.32 157.721 71.232 158.169 71.232ZM168.451 74.544C168.451 74.736 168.439 74.936 168.415 75.144H163.771C163.803 75.56 163.935 75.88 164.167 76.104C164.407 76.32 164.699 76.428 165.043 76.428C165.555 76.428 165.911 76.212 166.111 75.78H168.295C168.183 76.22 167.979 76.616 167.683 76.968C167.395 77.32 167.031 77.596 166.591 77.796C166.151 77.996 165.659 78.096 165.115 78.096C164.459 78.096 163.875 77.956 163.363 77.676C162.851 77.396 162.451 76.996 162.163 76.476C161.875 75.956 161.731 75.348 161.731 74.652C161.731 73.956 161.871 73.348 162.151 72.828C162.439 72.308 162.839 71.908 163.351 71.628C163.863 71.348 164.451 71.208 165.115 71.208C165.763 71.208 166.339 71.344 166.843 71.616C167.347 71.888 167.739 72.276 168.019 72.78C168.307 73.284 168.451 73.872 168.451 74.544ZM166.351 74.004C166.351 73.652 166.231 73.372 165.991 73.164C165.751 72.956 165.451 72.852 165.091 72.852C164.747 72.852 164.455 72.952 164.215 73.152C163.983 73.352 163.839 73.636 163.783 74.004H166.351ZM169.125 74.652C169.125 73.956 169.265 73.348 169.545 72.828C169.833 72.308 170.229 71.908 170.733 71.628C171.245 71.348 171.829 71.208 172.485 71.208C173.325 71.208 174.025 71.428 174.585 71.868C175.153 72.308 175.525 72.928 175.701 73.728H173.517C173.333 73.216 172.977 72.96 172.449 72.96C172.073 72.96 171.773 73.108 171.549 73.404C171.325 73.692 171.213 74.108 171.213 74.652C171.213 75.196 171.325 75.616 171.549 75.912C171.773 76.2 172.073 76.344 172.449 76.344C172.977 76.344 173.333 76.088 173.517 75.576H175.701C175.525 76.36 175.153 76.976 174.585 77.424C174.017 77.872 173.317 78.096 172.485 78.096C171.829 78.096 171.245 77.956 170.733 77.676C170.229 77.396 169.833 76.996 169.545 76.476C169.265 75.956 169.125 75.348 169.125 74.652ZM180.891 78L178.851 75.192V78H176.799V69.12H178.851V74.028L180.879 71.304H183.411L180.627 74.664L183.435 78H180.891ZM190.529 74.544C190.529 74.736 190.517 74.936 190.493 75.144H185.849C185.881 75.56 186.013 75.88 186.245 76.104C186.485 76.32 186.777 76.428 187.121 76.428C187.633 76.428 187.989 76.212 188.189 75.78H190.373C190.261 76.22 190.057 76.616 189.761 76.968C189.473 77.32 189.109 77.596 188.669 77.796C188.229 77.996 187.737 78.096 187.193 78.096C186.537 78.096 185.953 77.956 185.441 77.676C184.929 77.396 184.529 76.996 184.241 76.476C183.953 75.956 183.809 75.348 183.809 74.652C183.809 73.956 183.949 73.348 184.229 72.828C184.517 72.308 184.917 71.908 185.429 71.628C185.941 71.348 186.529 71.208 187.193 71.208C187.841 71.208 188.417 71.344 188.921 71.616C189.425 71.888 189.817 72.276 190.097 72.78C190.385 73.284 190.529 73.872 190.529 74.544ZM188.429 74.004C188.429 73.652 188.309 73.372 188.069 73.164C187.829 72.956 187.529 72.852 187.169 72.852C186.825 72.852 186.533 72.952 186.293 73.152C186.061 73.352 185.917 73.636 185.861 74.004H188.429ZM193.663 72.42C193.903 72.052 194.203 71.764 194.563 71.556C194.923 71.34 195.323 71.232 195.763 71.232V73.404H195.199C194.687 73.404 194.303 73.516 194.047 73.74C193.791 73.956 193.663 74.34 193.663 74.892V78H191.611V71.304H193.663V72.42Z" fill="white"/>
<path d="M87.7047 87.3096C88.5407 87.3096 89.263 87.4672 89.8717 87.7826C90.4877 88.0906 90.957 88.5342 91.2797 89.1136C91.6097 89.6929 91.7747 90.3749 91.7747 91.1596C91.7747 91.9442 91.6097 92.6262 91.2797 93.2056C90.957 93.7776 90.4877 94.2176 89.8717 94.5256C89.263 94.8262 88.5407 94.9766 87.7047 94.9766H85.3177V87.3096H87.7047ZM87.7047 94.1516C88.6947 94.1516 89.45 93.8912 89.9707 93.3706C90.4914 92.8426 90.7517 92.1056 90.7517 91.1596C90.7517 90.2062 90.4877 89.4619 89.9597 88.9266C89.439 88.3912 88.6874 88.1236 87.7047 88.1236H86.3187V94.1516H87.7047ZM93.6121 87.9696C93.4214 87.9696 93.2601 87.9036 93.1281 87.7716C92.9961 87.6396 92.9301 87.4782 92.9301 87.2876C92.9301 87.0969 92.9961 86.9356 93.1281 86.8036C93.2601 86.6716 93.4214 86.6056 93.6121 86.6056C93.7954 86.6056 93.9494 86.6716 94.0741 86.8036C94.2061 86.9356 94.2721 87.0969 94.2721 87.2876C94.2721 87.4782 94.2061 87.6396 94.0741 87.7716C93.9494 87.9036 93.7954 87.9696 93.6121 87.9696ZM94.0961 88.9486V94.9766H93.0951V88.9486H94.0961ZM95.4281 91.9406C95.4281 91.3246 95.5528 90.7856 95.8021 90.3236C96.0514 89.8542 96.3924 89.4912 96.8251 89.2346C97.2651 88.9779 97.7528 88.8496 98.2881 88.8496C98.8161 88.8496 99.2744 88.9632 99.6631 89.1906C100.052 89.4179 100.341 89.7039 100.532 90.0486V88.9486H101.544V94.9766H100.532V93.8546C100.334 94.2066 100.037 94.4999 99.6411 94.7346C99.2524 94.9619 98.7978 95.0756 98.2771 95.0756C97.7418 95.0756 97.2578 94.9436 96.8251 94.6796C96.3924 94.4156 96.0514 94.0452 95.8021 93.5686C95.5528 93.0919 95.4281 92.5492 95.4281 91.9406ZM100.532 91.9516C100.532 91.4969 100.44 91.1009 100.257 90.7636C100.074 90.4262 99.8244 90.1696 99.5091 89.9936C99.2011 89.8102 98.8601 89.7186 98.4861 89.7186C98.1121 89.7186 97.7711 89.8066 97.4631 89.9826C97.1551 90.1586 96.9094 90.4152 96.7261 90.7526C96.5428 91.0899 96.4511 91.4859 96.4511 91.9406C96.4511 92.4026 96.5428 92.8059 96.7261 93.1506C96.9094 93.4879 97.1551 93.7482 97.4631 93.9316C97.7711 94.1076 98.1121 94.1956 98.4861 94.1956C98.8601 94.1956 99.2011 94.1076 99.5091 93.9316C99.8244 93.7482 100.074 93.4879 100.257 93.1506C100.44 92.8059 100.532 92.4062 100.532 91.9516ZM105.722 88.8496C106.242 88.8496 106.697 88.9632 107.086 89.1906C107.482 89.4179 107.775 89.7039 107.966 90.0486V88.9486H108.978V95.1086C108.978 95.6586 108.86 96.1462 108.626 96.5716C108.391 97.0042 108.054 97.3416 107.614 97.5836C107.181 97.8256 106.675 97.9466 106.096 97.9466C105.304 97.9466 104.644 97.7596 104.116 97.3856C103.588 97.0116 103.276 96.5019 103.181 95.8566H104.171C104.281 96.2232 104.508 96.5166 104.853 96.7366C105.197 96.9639 105.612 97.0776 106.096 97.0776C106.646 97.0776 107.093 96.9052 107.438 96.5606C107.79 96.2159 107.966 95.7319 107.966 95.1086V93.8436C107.768 94.1956 107.474 94.4889 107.086 94.7236C106.697 94.9582 106.242 95.0756 105.722 95.0756C105.186 95.0756 104.699 94.9436 104.259 94.6796C103.826 94.4156 103.485 94.0452 103.236 93.5686C102.986 93.0919 102.862 92.5492 102.862 91.9406C102.862 91.3246 102.986 90.7856 103.236 90.3236C103.485 89.8542 103.826 89.4912 104.259 89.2346C104.699 88.9779 105.186 88.8496 105.722 88.8496ZM107.966 91.9516C107.966 91.4969 107.874 91.1009 107.691 90.7636C107.507 90.4262 107.258 90.1696 106.943 89.9936C106.635 89.8102 106.294 89.7186 105.92 89.7186C105.546 89.7186 105.205 89.8066 104.897 89.9826C104.589 90.1586 104.343 90.4152 104.16 90.7526C103.976 91.0899 103.885 91.4859 103.885 91.9406C103.885 92.4026 103.976 92.8059 104.16 93.1506C104.343 93.4879 104.589 93.7482 104.897 93.9316C105.205 94.1076 105.546 94.1956 105.92 94.1956C106.294 94.1956 106.635 94.1076 106.943 93.9316C107.258 93.7482 107.507 93.4879 107.691 93.1506C107.874 92.8059 107.966 92.4062 107.966 91.9516ZM113.606 88.8386C114.34 88.8386 114.934 89.0622 115.388 89.5096C115.843 89.9496 116.07 90.5876 116.07 91.4236V94.9766H115.08V91.5666C115.08 90.9652 114.93 90.5069 114.629 90.1916C114.329 89.8689 113.918 89.7076 113.397 89.7076C112.869 89.7076 112.448 89.8726 112.132 90.2026C111.824 90.5326 111.67 91.0129 111.67 91.6436V94.9766H110.669V88.9486H111.67V89.8066C111.868 89.4986 112.136 89.2602 112.473 89.0916C112.818 88.9229 113.196 88.8386 113.606 88.8386ZM120.334 95.0756C119.77 95.0756 119.256 94.9472 118.794 94.6906C118.34 94.4339 117.98 94.0709 117.716 93.6016C117.46 93.1249 117.331 92.5749 117.331 91.9516C117.331 91.3356 117.463 90.7929 117.727 90.3236C117.999 89.8469 118.365 89.4839 118.827 89.2346C119.289 88.9779 119.806 88.8496 120.378 88.8496C120.95 88.8496 121.467 88.9779 121.929 89.2346C122.391 89.4839 122.754 89.8432 123.018 90.3126C123.29 90.7819 123.425 91.3282 123.425 91.9516C123.425 92.5749 123.286 93.1249 123.007 93.6016C122.736 94.0709 122.366 94.4339 121.896 94.6906C121.427 94.9472 120.906 95.0756 120.334 95.0756ZM120.334 94.1956C120.694 94.1956 121.031 94.1112 121.346 93.9426C121.662 93.7739 121.915 93.5209 122.105 93.1836C122.303 92.8462 122.402 92.4356 122.402 91.9516C122.402 91.4676 122.307 91.0569 122.116 90.7196C121.926 90.3822 121.676 90.1329 121.368 89.9716C121.06 89.8029 120.727 89.7186 120.367 89.7186C120.001 89.7186 119.663 89.8029 119.355 89.9716C119.055 90.1329 118.813 90.3822 118.629 90.7196C118.446 91.0569 118.354 91.4676 118.354 91.9516C118.354 92.4429 118.442 92.8572 118.618 93.1946C118.802 93.5319 119.044 93.7849 119.344 93.9536C119.645 94.1149 119.975 94.1956 120.334 94.1956ZM126.876 95.0756C126.414 95.0756 125.999 94.9986 125.633 94.8446C125.266 94.6832 124.976 94.4632 124.764 94.1846C124.551 93.8986 124.434 93.5722 124.412 93.2056H125.446C125.475 93.5062 125.614 93.7519 125.864 93.9426C126.12 94.1332 126.454 94.2286 126.865 94.2286C127.246 94.2286 127.547 94.1442 127.767 93.9756C127.987 93.8069 128.097 93.5942 128.097 93.3376C128.097 93.0736 127.979 92.8792 127.745 92.7546C127.51 92.6226 127.147 92.4942 126.656 92.3696C126.208 92.2522 125.842 92.1349 125.556 92.0176C125.277 91.8929 125.035 91.7132 124.83 91.4786C124.632 91.2366 124.533 90.9212 124.533 90.5326C124.533 90.2246 124.624 89.9422 124.808 89.6856C124.991 89.4289 125.251 89.2272 125.589 89.0806C125.926 88.9266 126.311 88.8496 126.744 88.8496C127.411 88.8496 127.95 89.0182 128.361 89.3556C128.771 89.6929 128.991 90.1549 129.021 90.7416H128.02C127.998 90.4262 127.869 90.1732 127.635 89.9826C127.407 89.7919 127.099 89.6966 126.711 89.6966C126.351 89.6966 126.065 89.7736 125.853 89.9276C125.64 90.0816 125.534 90.2832 125.534 90.5326C125.534 90.7306 125.596 90.8956 125.721 91.0276C125.853 91.1522 126.014 91.2549 126.205 91.3356C126.403 91.4089 126.674 91.4932 127.019 91.5886C127.451 91.7059 127.803 91.8232 128.075 91.9406C128.346 92.0506 128.577 92.2192 128.768 92.4466C128.966 92.6739 129.068 92.9709 129.076 93.3376C129.076 93.6676 128.984 93.9646 128.801 94.2286C128.617 94.4926 128.357 94.7016 128.02 94.8556C127.69 95.0022 127.308 95.0756 126.876 95.0756ZM131.006 87.9696C130.815 87.9696 130.654 87.9036 130.522 87.7716C130.39 87.6396 130.324 87.4782 130.324 87.2876C130.324 87.0969 130.39 86.9356 130.522 86.8036C130.654 86.6716 130.815 86.6056 131.006 86.6056C131.189 86.6056 131.343 86.6716 131.468 86.8036C131.6 86.9356 131.666 87.0969 131.666 87.2876C131.666 87.4782 131.6 87.6396 131.468 87.7716C131.343 87.9036 131.189 87.9696 131.006 87.9696ZM131.49 88.9486V94.9766H130.489V88.9486H131.49ZM135.33 95.0756C134.868 95.0756 134.453 94.9986 134.087 94.8446C133.72 94.6832 133.43 94.4632 133.218 94.1846C133.005 93.8986 132.888 93.5722 132.866 93.2056H133.9C133.929 93.5062 134.068 93.7519 134.318 93.9426C134.574 94.1332 134.908 94.2286 135.319 94.2286C135.7 94.2286 136.001 94.1442 136.221 93.9756C136.441 93.8069 136.551 93.5942 136.551 93.3376C136.551 93.0736 136.433 92.8792 136.199 92.7546C135.964 92.6226 135.601 92.4942 135.11 92.3696C134.662 92.2522 134.296 92.1349 134.01 92.0176C133.731 91.8929 133.489 91.7132 133.284 91.4786C133.086 91.2366 132.987 90.9212 132.987 90.5326C132.987 90.2246 133.078 89.9422 133.262 89.6856C133.445 89.4289 133.705 89.2272 134.043 89.0806C134.38 88.9266 134.765 88.8496 135.198 88.8496C135.865 88.8496 136.404 89.0182 136.815 89.3556C137.225 89.6929 137.445 90.1549 137.475 90.7416H136.474C136.452 90.4262 136.323 90.1732 136.089 89.9826C135.861 89.7919 135.553 89.6966 135.165 89.6966C134.805 89.6966 134.519 89.7736 134.307 89.9276C134.094 90.0816 133.988 90.2832 133.988 90.5326C133.988 90.7306 134.05 90.8956 134.175 91.0276C134.307 91.1522 134.468 91.2549 134.659 91.3356C134.857 91.4089 135.128 91.4932 135.473 91.5886C135.905 91.7059 136.257 91.8232 136.529 91.9406C136.8 92.0506 137.031 92.2192 137.222 92.4466C137.42 92.6739 137.522 92.9709 137.53 93.3376C137.53 93.6676 137.438 93.9646 137.255 94.2286C137.071 94.4926 136.811 94.7016 136.474 94.8556C136.144 95.0022 135.762 95.0756 135.33 95.0756ZM142.876 90.0706C143.082 89.7112 143.382 89.4179 143.778 89.1906C144.174 88.9632 144.625 88.8496 145.131 88.8496C145.674 88.8496 146.162 88.9779 146.594 89.2346C147.027 89.4912 147.368 89.8542 147.617 90.3236C147.867 90.7856 147.991 91.3246 147.991 91.9406C147.991 92.5492 147.867 93.0919 147.617 93.5686C147.368 94.0452 147.023 94.4156 146.583 94.6796C146.151 94.9436 145.667 95.0756 145.131 95.0756C144.611 95.0756 144.152 94.9619 143.756 94.7346C143.368 94.5072 143.074 94.2176 142.876 93.8656V94.9766H141.875V86.8366H142.876V90.0706ZM146.968 91.9406C146.968 91.4859 146.877 91.0899 146.693 90.7526C146.51 90.4152 146.261 90.1586 145.945 89.9826C145.637 89.8066 145.296 89.7186 144.922 89.7186C144.556 89.7186 144.215 89.8102 143.899 89.9936C143.591 90.1696 143.342 90.4299 143.151 90.7746C142.968 91.1119 142.876 91.5042 142.876 91.9516C142.876 92.4062 142.968 92.8059 143.151 93.1506C143.342 93.4879 143.591 93.7482 143.899 93.9316C144.215 94.1076 144.556 94.1956 144.922 94.1956C145.296 94.1956 145.637 94.1076 145.945 93.9316C146.261 93.7482 146.51 93.4879 146.693 93.1506C146.877 92.8059 146.968 92.4026 146.968 91.9406ZM151.938 95.0756C151.373 95.0756 150.86 94.9472 150.398 94.6906C149.943 94.4339 149.584 94.0709 149.32 93.6016C149.063 93.1249 148.935 92.5749 148.935 91.9516C148.935 91.3356 149.067 90.7929 149.331 90.3236C149.602 89.8469 149.969 89.4839 150.431 89.2346C150.893 88.9779 151.41 88.8496 151.982 88.8496C152.554 88.8496 153.071 88.9779 153.533 89.2346C153.995 89.4839 154.358 89.8432 154.622 90.3126C154.893 90.7819 155.029 91.3282 155.029 91.9516C155.029 92.5749 154.89 93.1249 154.611 93.6016C154.34 94.0709 153.969 94.4339 153.5 94.6906C153.031 94.9472 152.51 95.0756 151.938 95.0756ZM151.938 94.1956C152.297 94.1956 152.635 94.1112 152.95 93.9426C153.265 93.7739 153.518 93.5209 153.709 93.1836C153.907 92.8462 154.006 92.4356 154.006 91.9516C154.006 91.4676 153.911 91.0569 153.72 90.7196C153.529 90.3822 153.28 90.1329 152.972 89.9716C152.664 89.8029 152.33 89.7186 151.971 89.7186C151.604 89.7186 151.267 89.8029 150.959 89.9716C150.658 90.1329 150.416 90.3822 150.233 90.7196C150.05 91.0569 149.958 91.4676 149.958 91.9516C149.958 92.4429 150.046 92.8572 150.222 93.1946C150.405 93.5319 150.647 93.7849 150.948 93.9536C151.249 94.1149 151.579 94.1956 151.938 94.1956ZM157.566 89.7736V93.3266C157.566 93.6199 157.628 93.8289 157.753 93.9536C157.878 94.0709 158.094 94.1296 158.402 94.1296H159.139V94.9766H158.237C157.68 94.9766 157.262 94.8482 156.983 94.5916C156.704 94.3349 156.565 93.9132 156.565 93.3266V89.7736H155.784V88.9486H156.565V87.4306H157.566V88.9486H159.139V89.7736H157.566Z" fill="white"/>
<ellipse cx="34.5" cy="147" rx="4.5" ry="5" fill="#16959A"/>
<defs>
<filter id="filter0_d_275_213" x="0.319336" y="0.693359" width="256.832" height="180.109" filterUnits="userSpaceOnUse" color-interpolation-filters="sRGB">
<feFlood flood-opacity="0" result="BackgroundImageFix"/>
<feColorMatrix in="SourceAlpha" type="matrix" values="0 0 0 0 0 0 0 0 0 0 0 0 0 0 0 0 0 0 127 0" result="hardAlpha"/>
<feOffset dy="4"/>
<feGaussianBlur stdDeviation="20"/>
<feComposite in2="hardAlpha" operator="out"/>
<feColorMatrix type="matrix" values="0 0 0 0 0.94902 0 0 0 0 1 0 0 0 0 1 0 0 0 0.5 0"/>
<feBlend mode="normal" in2="BackgroundImageFix" result="effect1_dropShadow_275_213"/>
<feBlend mode="normal" in="SourceGraphic" in2="effect1_dropShadow_275_213" result="shape"/>
</filter>
</defs>
</svg>
