<svg width="46" height="46" viewBox="0 0 46 46" fill="none" xmlns="http://www.w3.org/2000/svg">
<path d="M13.8495 4.45161C13.8495 1.99311 15.8426 0 18.3011 0H27.6989C30.1574 0 32.1505 1.99311 32.1505 4.45161V12.6129C32.1505 13.2958 32.7042 13.8495 33.3871 13.8495H41.5484C44.0069 13.8495 46 15.8426 46 18.3011V27.6989C46 30.1574 44.0069 32.1505 41.5484 32.1505H35.8766C35.0922 32.1505 34.34 31.8389 33.7853 31.2843C31.7661 29.2651 31.712 26.0455 31.886 23.1953C31.8974 23.008 31.9032 22.8192 31.9032 22.629C31.9032 17.6437 27.9171 13.6022 23 13.6022C18.0829 13.6022 14.0968 17.6437 14.0968 22.629C14.0968 27.6144 18.0829 31.6559 23 31.6559C23.3164 31.6559 23.6288 31.6392 23.9367 31.6066C26.5489 31.3296 29.508 31.3613 31.3655 33.2188C31.8681 33.7215 32.1505 34.4032 32.1505 35.1141V41.5484C32.1505 44.0069 30.1574 46 27.6989 46H18.3011C15.8426 46 13.8495 44.0069 13.8495 41.5484V33.3871C13.8495 32.7042 13.2958 32.1505 12.6129 32.1505H4.45161C1.99311 32.1505 0 30.1574 0 27.6989V18.3011C0 15.8426 1.99311 13.8495 4.45161 13.8495H12.6129C13.2958 13.8495 13.8495 13.2958 13.8495 12.6129V4.45161Z" fill="#0C9093"/>
</svg>
