<svg width="36" height="37" viewBox="0 0 36 37" fill="none" xmlns="http://www.w3.org/2000/svg">
<path d="M32.1322 4.70182V32.2977C32.1276 32.3571 32.1014 32.4123 32.0591 32.4518C32.0415 32.8138 31.8974 33.156 31.6546 33.4123C31.4118 33.6686 31.0876 33.8207 30.7447 33.8393H23.077V21.9685H26.6552C26.8743 21.9685 26.8743 21.9685 26.9473 21.7372L27.1664 19.8102C27.2394 19.0393 27.3125 18.2685 27.4585 17.4977C27.6046 16.7268 27.4585 17.2664 27.3125 17.2664H23.077V14.2602C23.077 14.0289 23.15 13.7206 23.15 13.4893C23.1817 13.1737 23.315 12.8791 23.5277 12.6546C23.7403 12.4302 24.0194 12.2895 24.3184 12.256L25.2677 12.1018H27.4585C27.6046 12.1018 27.6046 12.1018 27.6046 11.9477V8.01641C27.6046 7.93932 27.6046 7.86224 27.4585 7.86224H24.0993C23.2669 7.83812 22.441 8.02306 21.6895 8.40182C21.1336 8.59929 20.621 8.91254 20.182 9.32301C19.7429 9.73348 19.3864 10.2328 19.1336 10.7914C18.7171 11.6484 18.5159 12.6039 18.5494 13.5664C18.4764 14.7227 18.5494 15.956 18.5494 17.1893H14.8251C14.679 17.1893 14.679 17.2664 14.679 17.3435V21.7372C14.679 21.8914 14.679 21.8914 14.8251 21.8914H18.5494V33.7622C18.5071 33.8018 18.481 33.857 18.4764 33.9164H4.30936C3.96645 33.8978 3.64225 33.7457 3.39946 33.4894C3.15666 33.2331 3.01252 32.8909 2.9949 32.5289C2.92187 32.5289 2.92188 32.4518 2.92188 32.3747V4.70182C2.92188 4.62474 2.92187 4.54766 2.9949 4.54766C3.01252 4.18569 3.15666 3.84348 3.39946 3.58719C3.64225 3.33091 3.96645 3.17875 4.30936 3.16016H30.7447C31.0876 3.17875 31.4118 3.33091 31.6546 3.58719C31.8974 3.84348 32.0415 4.18569 32.0591 4.54766L32.1322 4.70182Z" fill="white"/>
</svg>
