<svg width="36" height="37" viewBox="0 0 36 37" fill="none" xmlns="http://www.w3.org/2000/svg">
<path d="M17.8747 5.8585H23.7898C24.7134 5.86995 25.6279 6.05259 26.4917 6.39808C27.1207 6.65771 27.692 7.05199 28.1696 7.55611C28.6472 8.06023 29.0207 8.66327 29.2667 9.32725C29.594 10.239 29.767 11.2044 29.7779 12.1793C29.8509 13.7981 29.8509 14.3377 29.8509 18.4231C29.8509 22.5085 29.8509 23.0481 29.7779 24.6668C29.767 25.6418 29.594 26.6072 29.2667 27.5189C29.0207 28.1829 28.6472 28.7859 28.1696 29.29C27.692 29.7942 27.1207 30.1884 26.4917 30.4481C25.6279 30.7936 24.7134 30.9762 23.7898 30.9877H11.9596C11.036 30.9762 10.1214 30.7936 9.25764 30.4481C8.62861 30.1884 8.05732 29.7942 7.57974 29.29C7.10216 28.7859 6.72862 28.1829 6.48266 27.5189C6.15536 26.6072 5.98234 25.6418 5.97148 24.6668C5.89846 23.0481 5.89846 22.5085 5.89846 18.4231C5.89846 14.3377 5.89846 13.7981 5.97148 12.1793C5.98234 11.2044 6.15536 10.239 6.48266 9.32725C6.72862 8.66327 7.10216 8.06023 7.57974 7.55611C8.05732 7.05199 8.62861 6.65771 9.25764 6.39808C10.1214 6.05259 11.036 5.86995 11.9596 5.8585H17.8747ZM17.8747 3.0835H11.8866C10.669 3.13755 9.46459 3.37106 8.30831 3.77725C7.334 4.21631 6.46186 4.87388 5.75241 5.70433C4.98813 6.44169 4.41074 7.36915 4.07281 8.40225C3.62399 9.60713 3.3769 10.8852 3.34256 12.1793C3.26953 13.7981 3.26953 14.3377 3.26953 18.5002C3.26953 22.6627 3.26953 23.2022 3.34256 24.821C3.3769 26.1152 3.62399 27.3932 4.07281 28.5981C4.41074 29.6312 4.98813 30.5586 5.75241 31.296C6.45095 32.1027 7.32959 32.7122 8.30831 33.0689C9.44976 33.5427 10.6605 33.8035 11.8866 33.8397H23.8628C25.0888 33.8035 26.2996 33.5427 27.441 33.0689C28.4198 32.7122 29.2984 32.1027 29.9969 31.296C30.7573 30.5394 31.3549 29.6194 31.7496 28.5981C32.1344 27.3775 32.3556 26.1062 32.4068 24.821C32.4798 23.2022 32.4798 22.6627 32.4798 18.5002C32.4798 14.3377 32.4798 13.7981 32.4068 12.1793C32.3556 10.8941 32.1344 9.62278 31.7496 8.40225C31.3549 7.38094 30.7573 6.46092 29.9969 5.70433C29.2802 4.90174 28.4086 4.27087 27.441 3.85433C26.2848 3.44815 25.0803 3.21463 23.8628 3.16058H17.8747" fill="white"/>
<path d="M17.8752 10.5605C16.3875 10.5605 14.9333 11.0262 13.6964 11.8986C12.4594 12.771 11.4954 14.011 10.9261 15.4618C10.3568 16.9126 10.2078 18.5089 10.498 20.0491C10.7883 21.5892 11.5046 23.0039 12.5566 24.1143C13.6085 25.2246 14.9487 25.9808 16.4078 26.2872C17.8668 26.5935 19.3792 26.4363 20.7536 25.8353C22.128 25.2344 23.3027 24.2168 24.1292 22.9111C24.9557 21.6055 25.3968 20.0704 25.3968 18.5001C25.3968 16.3944 24.6043 14.375 23.1938 12.886C21.7832 11.397 19.87 10.5605 17.8752 10.5605ZM17.8752 23.6647C16.9075 23.6647 15.9615 23.3618 15.1569 22.7943C14.3523 22.2268 13.7252 21.4202 13.3549 20.4765C12.9846 19.5328 12.8877 18.4944 13.0765 17.4926C13.2652 16.4907 13.7312 15.5705 14.4155 14.8482C15.0997 14.1259 15.9715 13.6341 16.9206 13.4348C17.8697 13.2355 18.8535 13.3378 19.7475 13.7287C20.6415 14.1196 21.4057 14.7815 21.9433 15.6308C22.4809 16.4802 22.7679 17.4787 22.7679 18.5001C22.7679 19.8699 22.2524 21.1835 21.3348 22.152C20.4173 23.1206 19.1728 23.6647 17.8752 23.6647Z" fill="white"/>
<path d="M27.4408 10.2523C27.4408 10.6182 27.338 10.9759 27.1454 11.2801C26.9528 11.5844 26.6791 11.8215 26.3589 11.9615C26.0386 12.1015 25.6862 12.1382 25.3463 12.0668C25.0063 11.9954 24.694 11.8192 24.4489 11.5605C24.2038 11.3018 24.0368 10.9721 23.9692 10.6133C23.9016 10.2544 23.9363 9.88242 24.069 9.54438C24.2016 9.20634 24.4262 8.91741 24.7145 8.71413C25.0027 8.51084 25.3415 8.40234 25.6882 8.40234C26.153 8.40234 26.5988 8.59725 26.9275 8.9442C27.2561 9.29114 27.4408 9.76169 27.4408 10.2523Z" fill="white"/>
</svg>
