<svg width="36" height="37" viewBox="0 0 36 37" fill="none" xmlns="http://www.w3.org/2000/svg">
<path d="M29.9804 3.16051H5.15168C4.86749 3.15016 4.58423 3.20033 4.31881 3.30803C4.05338 3.41572 3.81122 3.57874 3.60677 3.78736C3.40232 3.99598 3.23977 4.24592 3.1288 4.52228C3.01784 4.79864 2.96074 5.09577 2.96091 5.39593V31.6813C2.96074 31.9815 3.01784 32.2786 3.1288 32.555C3.23977 32.8313 3.40232 33.0813 3.60677 33.2899C3.81122 33.4985 4.05338 33.6615 4.31881 33.7692C4.58423 33.8769 4.86749 33.9271 5.15168 33.9168H29.9804C30.5421 33.9168 31.0807 33.6812 31.4779 33.262C31.875 32.8428 32.0982 32.2742 32.0982 31.6813V5.39593C32.0982 4.80306 31.875 4.23447 31.4779 3.81525C31.0807 3.39603 30.5421 3.16051 29.9804 3.16051ZM11.651 29.3688H7.26942V14.723H11.651V29.3688ZM9.4602 12.7188C8.79507 12.6988 8.16357 12.4057 7.69993 11.9019C7.23628 11.3981 6.97705 10.7233 6.97732 10.0209C6.97732 9.32584 7.23891 8.65922 7.70454 8.16772C8.17017 7.67622 8.8017 7.40009 9.4602 7.40009C10.1187 7.40009 10.7502 7.67622 11.2159 8.16772C11.6815 8.65922 11.9431 9.32584 11.9431 10.0209C11.9433 10.7233 11.6841 11.3981 11.2205 11.9019C10.7568 12.4057 10.1253 12.6988 9.4602 12.7188ZM27.7896 29.3688H23.4811V22.2001C23.4811 20.5043 23.4811 18.3459 21.2173 18.3459C18.9535 18.3459 18.6614 20.1959 18.6614 22.123V29.3688H14.3529V14.723H18.4424V16.7272H18.5154C18.9266 15.9739 19.5248 15.3533 20.2454 14.9323C20.966 14.5112 21.7817 14.3056 22.6048 14.3376C26.9864 14.3376 27.7896 17.3438 27.7896 21.3522V29.3688Z" fill="white"/>
</svg>
