<svg width="36" height="37" viewBox="0 0 36 37" fill="none" xmlns="http://www.w3.org/2000/svg">
<path d="M34.2876 7.86243C33.0831 8.44438 31.8033 8.83406 30.4902 9.01868C31.8612 8.13439 32.8949 6.77049 33.4113 5.16452C32.1007 5.92102 30.7011 6.49124 29.2488 6.86035C28.3409 5.85031 27.1688 5.14831 25.8818 4.84373C24.5947 4.53915 23.2508 4.64577 22.0214 5.15001C20.7919 5.65425 19.7324 6.5333 18.9777 7.67524C18.2231 8.81718 17.8075 10.1703 17.7838 11.5624C17.7847 12.1102 17.8585 12.6551 18.0028 13.1812C15.3859 13.0369 12.8263 12.318 10.4875 11.0703C8.14872 9.8227 6.08222 8.07378 4.42005 5.93535C3.80208 6.97493 3.47314 8.17682 3.47071 9.4041C3.47006 10.5555 3.74397 11.6886 4.26721 12.699C4.79045 13.7093 5.54619 14.5643 6.46477 15.1853C5.41309 15.1887 4.37957 14.896 3.47071 14.3374C3.44261 15.9511 3.95439 17.5236 4.91604 18.7784C5.8777 20.0331 7.22767 20.8898 8.72857 21.1978C8.16116 21.3878 7.57105 21.4916 6.97595 21.5062L5.73451 21.352C6.16994 22.7373 6.99972 23.9471 8.11061 24.8162C9.2215 25.6853 10.5594 26.1715 11.9417 26.2083C9.60036 28.1185 6.72202 29.1494 3.76282 29.1374H2.15625C5.15103 31.207 8.65433 32.3057 12.2338 32.2979C24.3561 32.2979 31.0014 21.6604 31.0014 12.4874V11.4853C32.293 10.4946 33.406 9.26759 34.2876 7.86243Z" fill="white"/>
</svg>
