<svg width="36" height="37" viewBox="0 0 36 37" fill="none" xmlns="http://www.w3.org/2000/svg">
<path d="M28.7944 6.24357C26.6642 3.98844 23.9486 2.4503 20.9906 1.82347C18.0327 1.19664 14.9651 1.50924 12.1753 2.72178C9.38563 3.93431 6.99893 5.99239 5.31675 8.63602C3.63458 11.2796 2.7324 14.3902 2.72418 17.5748C2.6909 20.3951 3.39866 23.17 4.7689 25.5915L2.57812 33.9165L10.684 31.6811C12.9206 32.9759 15.4358 33.6397 17.9866 33.6082C20.9953 33.6211 23.9399 32.6905 26.4469 30.9344C28.9538 29.1784 30.9103 26.676 32.0681 23.7446C33.2258 20.8132 33.5328 17.5849 32.9499 14.4691C32.3671 11.3533 30.9208 8.49046 28.7944 6.24357V6.24357ZM17.9866 30.9102C15.523 30.9289 13.1093 30.178 11.0491 28.7519L6.22941 30.1394L7.54387 25.2061C6.09219 22.954 5.30451 20.2987 5.28008 17.5748C5.26562 14.9188 5.99853 12.3181 7.38591 10.1024C8.7733 7.88656 10.7527 6.15546 13.0732 5.12846C15.3937 4.10147 17.9508 3.82484 20.4204 4.33363C22.89 4.84241 25.1609 6.11371 26.9452 7.98638C28.7296 9.85904 29.947 12.2488 30.4433 14.8526C30.9395 17.4565 30.6922 20.1572 29.7326 22.6125C28.7731 25.0678 27.1445 27.1671 25.0534 28.6444C22.9623 30.1216 20.5028 30.9102 17.9866 30.9102V30.9102Z" fill="white"/>
<path d="M24.9238 20.9667C24.0767 20.4673 23.1984 20.0294 22.2948 19.6563C22.0027 19.5021 21.7106 19.425 21.4916 19.8104C21.2725 20.1959 20.4692 21.1209 20.2501 21.4292C20.1513 21.5486 20.0127 21.6232 19.8631 21.6375C19.7135 21.6519 19.5644 21.6049 19.4468 21.5063C18.3278 21.0192 17.2917 20.3422 16.3798 19.5021C15.5422 18.6982 14.8278 17.7621 14.262 16.7271C14.2215 16.6671 14.1932 16.599 14.1786 16.527C14.164 16.455 14.1635 16.3806 14.1772 16.3084C14.1909 16.2362 14.2184 16.1677 14.2581 16.1071C14.2978 16.0466 14.3489 15.9952 14.4081 15.9563L14.9923 15.1854C15.1398 14.9982 15.2626 14.7908 15.3574 14.5688C15.4151 14.4633 15.4454 14.3437 15.4454 14.2219C15.4454 14.1001 15.4151 13.9805 15.3574 13.875C15.2113 13.6438 14.4811 11.7167 14.189 10.8688C13.8969 10.0209 13.5317 10.175 13.3127 10.175H12.5824C12.3835 10.1719 12.1868 10.2193 12.0089 10.3132C11.831 10.4071 11.677 10.5448 11.5601 10.7146C11.1244 11.1318 10.7808 11.6449 10.5537 12.2176C10.3266 12.7904 10.2214 13.4088 10.2456 14.0292C10.3729 15.542 10.9047 16.9855 11.7791 18.1917C11.9982 18.4229 14.4811 22.5084 18.2784 24.2042C18.9808 24.5614 19.7145 24.8454 20.4692 25.0521C21.2458 25.3254 22.0768 25.3786 22.879 25.2063C23.6093 25.1292 25.1428 24.2813 25.4349 23.3563C25.6976 22.7541 25.7743 22.0799 25.654 21.4292C25.4568 21.2053 25.2037 21.045 24.9238 20.9667V20.9667Z" fill="white"/>
</svg>
